<?xml version="1.0"?>
<svg width="1080" height="1080" xmlns="http://www.w3.org/2000/svg" xmlns:svg="http://www.w3.org/2000/svg" version="1.1" xml:space="preserve">
 <desc>Created with Fabric.js 5.2.4</desc>

 <g class="layer">
  <title>Layer 1</title>
  <g id="svg_46" transform="matrix(0 0 0 0 0 0)">
   <g id="svg_47"/>
  </g>
  <g id="svg_48" transform="matrix(0 0 0 0 0 0)">
   <g id="svg_49"/>
  </g>
  <g id="svg_50" transform="matrix(0 0 0 0 0 0)">
   <g id="svg_51"/>
  </g>
  <g id="svg_52" transform="matrix(NaN NaN NaN NaN 0 0)">
   <g id="svg_53"/>
  </g>
  <g id="svg_54" transform="matrix(NaN NaN NaN NaN 0 0)">
   <g id="svg_55"/>
  </g>
  <g id="svg_56" transform="matrix(NaN NaN NaN NaN 0 0)">
   <g id="svg_57"/>
  </g>
  <g id="svg_59" transform="matrix(NaN NaN NaN NaN 0 0)">
   <g id="svg_60"/>
  </g>
  <g id="svg_61" transform="matrix(NaN NaN NaN NaN 0 0)">
   <g id="svg_62"/>
  </g>
  <g id="svg_66" transform="matrix(NaN NaN NaN NaN 0 0)">
   <g id="svg_67"/>
  </g>
  <g id="svg_68">
   <g id="85daa3c4-90e4-4d6b-b18b-f37d42134e2b" transform="matrix(2.92117 0 0 2.86675 548.552 528.494)"/>
   <g id="svg_2" transform="matrix(2.92117 0 0 2.86675 360.75 528.494)">
    <path d="m183.52,141.75l0,-17.42c0,-5.41 0.01,-10.82 -0.01,-16.22c0,-0.83 -0.1,-1.67 -0.29,-2.48c-0.87,-3.82 -3.2,-6.54 -6.53,-8.47c-6.23,-3.6 -12.46,-7.19 -18.69,-10.8c-9.7,-5.61 -19.39,-11.24 -29.1,-16.85c-3.26,-1.89 -6.54,-3.74 -9.82,-5.58c-0.48,-0.27 -1,-0.47 -1.53,-0.65c-2.86,-0.94 -5.69,-0.68 -8.41,0.49c-1.75,0.75 -3.45,1.66 -5.1,2.62c-17.18,9.89 -34.35,19.79 -51.52,29.71c-1.34,0.77 -2.7,1.53 -3.91,2.47c-3.14,2.46 -4.89,5.7 -4.9,9.74c-0.03,8.65 -0.02,17.3 -0.02,25.95c0,13.69 0,27.38 0.02,41.06c0,0.8 0.1,1.61 0.27,2.39c0.87,3.82 3.17,6.56 6.5,8.49c4.59,2.67 9.2,5.31 13.79,7.97c13.89,8.05 27.78,16.11 41.69,24.13c1.17,0.68 2.41,1.27 3.69,1.7c3.23,1.09 6.43,1.05 9.5,-0.65c1.7,-0.94 3.44,-1.82 5.12,-2.79c16.99,-9.79 33.97,-19.59 50.94,-29.4c1.15,-0.66 2.31,-1.33 3.35,-2.14c3.11,-2.43 4.91,-5.63 4.93,-9.63c0.04,-11.22 0.02,-22.43 0.02,-33.65l0.01,0.01z" fill="rgb(255,255,255)" fill-rule="nonzero" id="svg_3" stroke="rgb(255,255,255)" stroke-dashoffset="0" stroke-miterlimit="10" stroke-width="5.67" transform=" translate(-113.61, -141.72)"/>
   </g>
   <g id="svg_4" transform="matrix(2.92117 0 0 2.86675 752.888 522.56)">
    <path d="m180.75,101.59l127.94,0c4.69,0 8.5,3.81 8.5,8.5l0,59.13c0,4.69 -3.81,8.5 -8.5,8.5l-127.94,0l0,-76.14l0,0l0,0.01z" fill="rgb(0,116,120)" fill-rule="nonzero" id="svg_5" stroke-dashoffset="0" stroke-miterlimit="4" stroke-width="0" transform=" translate(-248.97, -139.65)"/>
   </g>
   <g id="svg_6" transform="matrix(2.92117 0 0 2.86675 241.245 475.545)">
    <path d="m73.98,123.28l-0.32,-0.05c0.1,0 0.21,0.02 0.32,0.05z" fill="rgb(46,67,79)" fill-rule="nonzero" id="svg_7" stroke-dashoffset="0" stroke-miterlimit="4" stroke-width="0" transform=" translate(-73.82, -123.25)"/>
   </g>
   <g id="svg_8" transform="matrix(2.92117 0 0 2.86675 356.631 528.494)">
    <path d="m183.52,141.75l0,-17.42c0,-5.41 0.01,-10.82 -0.01,-16.22c0,-0.83 -0.1,-1.67 -0.29,-2.48c-0.87,-3.82 -3.2,-6.54 -6.53,-8.47c-6.23,-3.6 -12.46,-7.19 -18.69,-10.8c-9.7,-5.61 -19.39,-11.24 -29.1,-16.85c-3.26,-1.89 -6.54,-3.74 -9.82,-5.58c-0.48,-0.27 -1,-0.47 -1.53,-0.65c-2.86,-0.94 -5.69,-0.68 -8.41,0.49c-1.75,0.75 -3.45,1.66 -5.1,2.62c-17.18,9.89 -34.35,19.79 -51.52,29.71c-1.34,0.77 -2.7,1.53 -3.91,2.47c-3.14,2.46 -4.89,5.7 -4.9,9.74c-0.03,8.65 -0.02,17.3 -0.02,25.95c0,13.69 0,27.38 0.02,41.06c0,0.8 0.1,1.61 0.27,2.39c0.87,3.82 3.17,6.56 6.5,8.49c4.59,2.67 9.2,5.31 13.79,7.97c13.89,8.05 27.78,16.11 41.69,24.13c1.17,0.68 2.41,1.27 3.69,1.7c3.23,1.09 6.43,1.05 9.5,-0.65c1.7,-0.94 3.44,-1.82 5.12,-2.79c16.99,-9.79 33.97,-19.59 50.94,-29.4c1.15,-0.66 2.31,-1.33 3.35,-2.14c3.11,-2.43 4.91,-5.63 4.93,-9.63c0.04,-11.22 0.02,-22.43 0.02,-33.65l0.01,0.01zm-4.67,31.72c0,3.99 -1.72,7.03 -5.16,9.01c-16.28,9.36 -32.57,18.68 -48.85,28.02c-2.19,1.26 -4.43,2.45 -6.58,3.8c-3.14,1.97 -6.19,1.84 -9.34,0.02c-10.94,-6.31 -21.9,-12.58 -32.84,-18.88c-7.49,-4.31 -14.97,-8.64 -22.45,-12.98c-3.5,-2.03 -5.26,-5.07 -5.26,-9.15c0,-4.16 0,-8.32 0,-12.48c0,-6.34 0,-12.69 0,-19.04l0,-1.49c0,-3.01 0,-6.01 0,-9.02c0,-7.03 0,-14.07 -0.02,-21.1c0,-3.23 1.14,-5.9 3.58,-8c0.51,-0.44 1.09,-0.81 1.68,-1.14c5.49,-3.17 10.98,-6.34 16.48,-9.51c9.16,-5.29 18.33,-10.57 27.5,-15.85c3.94,-2.26 7.89,-4.48 11.86,-6.7c2.13,-1.19 4.38,-1.68 6.77,-0.9c0.72,0.24 1.41,0.61 2.08,1c5.58,3.2 11.15,6.39 16.72,9.6c0.01,0 0.02,0 0.03,0.02c3.73,2.14 7.46,4.29 11.19,6.44c9.18,5.29 18.34,10.58 27.5,15.9c3.07,1.78 4.8,4.48 5.11,8.02c0.12,1.35 -0.02,2.72 -0.02,4.07c-0.02,15.11 -0.03,30.22 -0.04,45.32c0,5.01 0.03,10.01 0.04,15.02l0.02,0z" fill="rgb(46,67,79)" fill-rule="nonzero" id="svg_9" stroke-dashoffset="0" stroke-miterlimit="4" stroke-width="0" transform=" translate(-113.61, -141.72)"/>
   </g>
   <g id="svg_10" transform="matrix(3.03802 0 0 2.78075 336.066 555.212)">
    <path d="m119.88,193.59l4.33,-10.74c3.08,-7.65 6.16,-15.31 9.24,-22.97c2.04,-5.09 4.08,-10.19 6.11,-15.29l3.52,-8.83c0.42,-1.04 0.4,-2.01 -0.05,-3.06l-1,-2.32c-3.03,-7.01 -6.13,-14.19 -9.1,-21.35c-0.47,-1.14 -1.4,-2.07 -2.54,-2.53c-1.1,-0.45 -2.31,-0.41 -3.51,0.11l-8.34,3.57c0.4,1.1 0.91,2.21 1.4,3.1c0.36,-0.12 0.74,-0.23 1.13,-0.32c2.87,-0.66 5.74,-0.18 8.09,1.36c2.33,1.53 3.91,3.96 4.44,6.84c0.5,2.72 -0.16,5.47 -1.84,7.76c-1.71,2.33 -4.34,3.86 -7.2,4.2c-4.18,0.5 -7.71,-1.12 -9.93,-4.58c-2.13,-3.32 -2.27,-7.01 -0.4,-10.46c-0.86,-1.63 -1.67,-3.26 -2.47,-4.85l-0.06,-0.12l-0.95,0.41c-2.75,1.17 -5.5,2.35 -8.24,3.54c-0.8,0.35 -1.36,0.94 -1.7,1.79c-0.81,2.03 -1.63,4.06 -2.44,6.09l-0.13,0.32c-0.92,2.3 -1.84,4.59 -2.76,6.89c-5.91,14.86 -11.83,29.73 -17.73,44.59c-0.55,1.39 -0.13,2.5 1.19,3.15c1.15,0.56 2.38,1.05 3.58,1.53l5.04,2.02c9.67,3.89 19.34,7.78 29.02,11.65c1.67,0.67 2.64,0.23 3.33,-1.5l-0.03,0zm-5.48,-50.73c0.27,-2.85 1.79,-5.46 4.28,-7.35c1.89,-1.43 3.94,-2.17 6.09,-2.19c3.83,-0.02 6.77,1.66 8.49,4.91c1.63,3.07 1.43,6.39 -0.57,9.61c-2.06,3.31 -5.55,5.25 -9.08,5.25c-0.89,0 -1.78,-0.12 -2.65,-0.38c-1.71,-0.5 -3.13,-1.43 -4.22,-2.77c-1.76,-1.95 -2.6,-4.46 -2.35,-7.08l0.01,0zm-6.82,32.04c-0.3,2.84 -1.85,5.43 -4.37,7.29c-1.9,1.4 -3.95,2.11 -6.1,2.11l-0.02,0c-3.83,0 -6.75,-1.74 -8.43,-5.01c-1.59,-3.09 -1.35,-6.41 0.69,-9.6c2.63,-4.11 7.48,-6.05 11.78,-4.73c1.71,0.52 3.11,1.47 4.18,2.82c1.74,1.97 2.54,4.5 2.26,7.11l0.01,0.01zm-2.8,-12.39c-6.58,1.17 -13.39,2.38 -18.73,3.42c-0.22,0.04 -0.45,0.06 -0.71,0.06l-0.02,0c-0.52,0 -1.02,-0.25 -1.34,-0.67c-0.31,-0.4 -0.41,-0.9 -0.28,-1.38c0.06,-0.2 0.14,-0.37 0.26,-0.52c0.47,-0.6 1.37,-1.18 2.05,-1.34c1.61,-0.37 5.24,-1.01 8.44,-1.57c1.97,-0.35 3.75,-0.66 4.74,-0.85c5.19,-1.02 10.53,-1.99 15.69,-2.93c5.35,-0.97 10.88,-1.98 16.25,-3.04c0.54,-0.11 1.98,-0.39 2.38,0.91c0.16,0.51 0.09,1.05 -0.19,1.53c-0.4,0.68 -1.17,1.2 -2.13,1.4c-2.21,0.48 -4.45,0.93 -6.35,1.31c-5.69,1.12 -12.99,2.42 -20.04,3.67l-0.02,0z" fill="rgb(0,116,120)" fill-rule="nonzero" id="svg_11" stroke-dashoffset="0" stroke-miterlimit="4" stroke-width="0" transform=" translate(-110.45, -150.79)"/>
   </g>
   <g id="svg_12" transform="matrix(2.92117 0 0 2.86675 253.602 465.397)">
    <path d="m78.05,119.71" fill="rgb(46,67,79)" fill-rule="nonzero" id="svg_13" stroke-dashoffset="0" stroke-miterlimit="4" stroke-width="0" transform=" translate(-78.05, -119.71)"/>
   </g>
   <g id="svg_14" transform="matrix(3.06723 0 0 2.80942 336.475 529.125)">
    <path d="m148.35,130.52c-1.04,-2.42 -2.08,-4.83 -3.12,-7.25c-1.66,-3.87 -3.32,-7.74 -5.01,-11.61c-0.26,-0.6 -0.17,-0.99 0.12,-1.65l0.57,-1.27c0.87,-1.92 1.77,-3.91 2.38,-5.96c1.58,-5.24 0.84,-10.16 -2.2,-14.62c-4.09,-6 -11.5,-8.01 -18.45,-5c-5.25,2.27 -8.78,6.31 -10.49,12.01c-1.11,3.67 -1.26,7.59 -0.44,11.64c-0.13,0.07 -0.26,0.13 -0.4,0.19c-1.03,0.44 -2.05,0.89 -3.08,1.34c-2.55,1.11 -5.18,2.25 -7.79,3.33c-2.45,1.01 -4.14,2.76 -5.17,5.35c-4.02,10.13 -8.06,20.26 -12.1,30.38l-5.54,13.89c-1.78,4.46 -3.55,8.91 -5.34,13.37c-0.83,2.05 -0.8,4.17 0.09,6.29c0.89,2.15 2.57,3.65 5.29,4.74c4.8,1.92 9.59,3.85 14.38,5.78l11.9,4.79c3.51,1.42 7.02,2.83 10.54,4.21c1.15,0.45 2.28,0.66 3.36,0.66c3.02,0 5.64,-1.7 6.99,-4.76c1.67,-3.77 3.22,-7.66 4.72,-11.42l1.29,-3.22c2.62,-6.52 5.24,-13.05 7.86,-19.58c3.24,-8.06 6.47,-16.13 9.72,-24.19c1.02,-2.54 1,-4.98 -0.07,-7.46l-0.01,0.02zm-29.19,-8.87c0.48,0.45 0.97,0.92 1.51,1.34c0.55,0.42 1.21,0.8 2.02,1.15c0.99,0.43 1.9,0.07 2.33,-0.91c0.28,-0.64 0.37,-1.56 -0.8,-2.33c-0.79,-0.53 -1.57,-1.07 -2.36,-1.62l-0.49,-0.34c1.35,-0.85 3.56,-0.67 4.92,0.5c1.83,1.59 2.1,4.26 0.63,6.21c-1.44,1.9 -4.15,2.33 -6.18,0.98c-1.69,-1.13 -2.37,-3.27 -1.68,-5.1c0.04,0.04 0.08,0.08 0.12,0.11l-0.02,0.01zm20.17,-18.92c-0.33,0.99 -0.77,1.97 -1.18,2.93c-0.08,0.19 -0.17,0.39 -0.25,0.58c-1.06,-2.22 -2.56,-3.8 -4.57,-4.81c-1.43,-0.72 -2.88,-1.08 -4.38,-1.08c-1.5,0 -3.06,0.36 -4.67,1.09c-1.97,0.89 -3.99,1.74 -5.95,2.57c-0.87,0.37 -1.75,0.74 -2.62,1.12l-0.45,0.19c-0.02,-0.39 -0.05,-0.77 -0.07,-1.15c-0.08,-1.29 -0.16,-2.51 -0.1,-3.72c0.22,-4.22 1.75,-7.83 4.56,-10.71c3.66,-3.76 9.15,-5.04 13.65,-3.18c2.68,1.11 4.59,3.12 5.84,6.16c1.32,3.19 1.38,6.46 0.19,10.01zm-23.21,15.84c-1.78,2.96 -1.74,6.05 0.1,8.91c1.83,2.85 4.63,4.13 8.09,3.72c2.34,-0.28 4.48,-1.53 5.88,-3.44c1.37,-1.85 1.9,-4.08 1.5,-6.27c-0.43,-2.36 -1.71,-4.34 -3.6,-5.59c-1.9,-1.25 -4.24,-1.64 -6.6,-1.1c-0.63,0.15 -1.25,0.36 -1.85,0.57c-0.17,0.06 -0.34,0.12 -0.5,0.18c-1.06,-1.36 -2.35,-4.18 -2.97,-6.47l9.94,-4.25c1.68,-0.72 3.41,-0.76 4.99,-0.12c1.61,0.66 2.92,1.96 3.59,3.57c2.96,7.14 6.07,14.35 9.09,21.33l1,2.33c0.66,1.52 0.68,3.01 0.07,4.53l-3.34,8.36c-2.1,5.26 -4.2,10.51 -6.3,15.77c-3.07,7.66 -6.16,15.31 -9.24,22.97l-4.33,10.74c-1.09,2.71 -3.16,3.62 -5.82,2.56c-9.68,-3.87 -19.35,-7.76 -29.02,-11.65l-5.03,-2.02c-1.24,-0.49 -2.52,-1 -3.72,-1.59c-2.2,-1.08 -3.04,-3.27 -2.12,-5.58c5.9,-14.87 11.81,-29.73 17.73,-44.6c0.96,-2.41 1.92,-4.81 2.89,-7.22c0.82,-2.03 1.63,-4.06 2.44,-6.09c0.53,-1.33 1.44,-2.28 2.72,-2.84c2.75,-1.19 5.5,-2.37 8.25,-3.55l2.61,-1.12l0.84,1.67c0.94,1.88 1.85,3.71 2.8,5.53c0.15,0.28 0.12,0.38 -0.1,0.75l0.01,0.01z" fill="rgb(46,67,79)" fill-rule="nonzero" id="svg_15" stroke-dashoffset="0" stroke-miterlimit="4" stroke-width="0" transform=" translate(-110.43, -141.45)"/>
   </g>
   <g id="svg_16" transform="matrix(3.0088 0 0 2.83808 377.956 534.199)">
    <path d="m98.5,168.14c-0.73,0 -1.48,0.14 -2.25,0.44c-1.6,0.61 -2.89,1.64 -3.85,3.05c-1.87,2.74 -1.38,6.17 1.14,7.97c2.41,1.72 5.53,1.46 7.94,-0.68l0.32,-0.27c0.21,-0.17 0.42,-0.35 0.61,-0.54c1.79,-1.81 2.18,-5.18 0.84,-7.22c-1.19,-1.8 -2.88,-2.76 -4.75,-2.76l0,0.01z" fill="rgb(0,116,120)" fill-rule="nonzero" id="svg_17" stroke="rgb(0,0,0)" stroke-dashoffset="0" stroke-miterlimit="4" stroke-width="0" transform=" translate(-97.66, -174.43)"/>
   </g>
   <g id="svg_18" transform="matrix(2.92117 0 0 2.86675 297.302 622.237)">
    <path d="m128.38,137.99c-1.05,-0.73 -2.22,-1.09 -3.41,-1.09c-1.57,0 -3.17,0.63 -4.53,1.86l0,0c0,0 -0.31,0.27 -0.31,0.27c-0.21,0.18 -0.42,0.35 -0.6,0.55c-1.77,1.83 -2.12,5.2 -0.75,7.23c1.68,2.48 4.31,3.32 7.02,2.23c1.59,-0.64 2.87,-1.68 3.82,-3.1c1.83,-2.77 1.3,-6.18 -1.24,-7.95z" fill="rgb(0,116,120)" fill-rule="nonzero" id="svg_19" stroke-dashoffset="0" stroke-miterlimit="4" stroke-width="0" transform=" translate(-124.32, -143.2)"/>
   </g>
   <g id="svg_20" transform="matrix(2.92117 0 0 2.86675 609.692 489.678)">
    <path d="m200.38,137.42c-5.09,0 -9.19,-4.25 -9.19,-9.31c0,-5.06 4.15,-9.19 9.1,-9.19c3.55,0 7.06,2.06 8.42,5.4l-3.74,0c-1.1,-1.34 -2.88,-2.21 -4.66,-2.21c-3.24,0 -5.83,2.81 -5.83,6.12c0,3.31 2.69,6 5.86,6c1.75,0 3.26,-0.79 4.46,-2.06l3.82,0c-1.34,3.22 -4.8,5.26 -8.23,5.26l-0.01,-0.01z" fill="rgb(255,255,255)" fill-rule="nonzero" id="svg_21" stroke-dashoffset="0" stroke-miterlimit="4" stroke-width="0" transform=" translate(-199.95, -128.17)"/>
   </g>
   <g id="svg_22" transform="matrix(2.92117 0 0 2.86675 664.347 489.478)">
    <path d="m225.91,136.98l-3.29,0l0,-12.91l-7.56,12.91l-3.65,0l0,-17.74l3.29,0l0,12.96l7.51,-12.96l3.7,0l0,17.74z" fill="rgb(255,255,255)" fill-rule="nonzero" id="svg_23" stroke-dashoffset="0" stroke-miterlimit="4" stroke-width="0" transform=" translate(-218.66, -128.11)"/>
   </g>
   <g id="svg_24" transform="matrix(2.92117 0 0 2.86675 719.762 489.678)">
    <path d="m238.06,137.42c-5.09,0 -9.19,-4.25 -9.19,-9.31c0,-5.06 4.15,-9.19 9.1,-9.19c3.55,0 7.06,2.06 8.42,5.4l-3.74,0c-1.1,-1.34 -2.88,-2.21 -4.66,-2.21c-3.24,0 -5.83,2.81 -5.83,6.12c0,3.31 2.69,6 5.86,6c1.75,0 3.26,-0.79 4.46,-2.06l3.82,0c-1.34,3.22 -4.8,5.26 -8.23,5.26l-0.01,-0.01z" fill="rgb(255,255,255)" fill-rule="nonzero" id="svg_25" stroke-dashoffset="0" stroke-miterlimit="4" stroke-width="0" transform=" translate(-237.63, -128.17)"/>
   </g>
   <g id="svg_26" transform="matrix(2.92117 0 0 2.86675 759.344 489.478)">
    <path d="m246.22,122.44l0,-3.19l9.91,0l0,3.19l-3.31,0l0,14.54l-3.29,0l0,-14.54l-3.31,0z" fill="rgb(255,255,255)" fill-rule="nonzero" id="svg_27" stroke-dashoffset="0" stroke-miterlimit="4" stroke-width="0" transform=" translate(-251.18, -128.12)"/>
   </g>
   <g id="svg_28" transform="matrix(2.92117 0 0 2.86675 794.485 489.478)">
    <path d="m267.98,119.25l0,3.19l-6.24,0l0,4.08l5.98,0l0,3.19l-5.98,0l0,4.08l6.24,0l0,3.19l-9.53,0l0,-17.74l9.53,0l0,0.01z" fill="rgb(255,255,255)" fill-rule="nonzero" id="svg_29" stroke-dashoffset="0" stroke-miterlimit="4" stroke-width="0" transform=" translate(-263.22, -128.11)"/>
   </g>
   <g id="svg_30" transform="matrix(2.92117 0 0 2.86675 845.84 489.506)">
    <path d="m276.02,119.25l4.75,13.56l4.82,-13.56l4.46,0l0,17.74l-3.29,0l0,-13.3l-4.58,13.3l-2.78,0l-4.58,-13.3l0,13.3l-3.29,0l0,-17.74l4.49,0z" fill="rgb(255,255,255)" fill-rule="nonzero" id="svg_31" stroke-dashoffset="0" stroke-miterlimit="4" stroke-width="0" transform=" translate(-280.79, -128.12)"/>
   </g>
   <g id="svg_32" transform="matrix(2.92117 0 0 2.86675 904.818 489.506)">
    <path d="m302.23,119.25l7.46,17.74l-3.62,0l-1.92,-4.58l-6.29,0l-1.97,4.58l-3.62,0l7.39,-17.74l2.57,0zm-1.27,4.58l-1.9,5.38l3.79,0l-1.9,-5.38l0.01,0z" fill="rgb(255,255,255)" fill-rule="nonzero" id="svg_33" stroke-dashoffset="0" stroke-miterlimit="4" stroke-width="0" transform=" translate(-300.98, -128.12)"/>
   </g>
   <g id="svg_34" transform="matrix(2.92117 0 0 2.86675 631.776 572.212)">
    <path d="m207.94,166.22c-5.09,0 -9.19,-4.25 -9.19,-9.31c0,-5.06 4.15,-9.19 9.1,-9.19c3.55,0 7.06,2.06 8.42,5.4l-3.74,0c-1.1,-1.34 -2.88,-2.21 -4.66,-2.21c-3.24,0 -5.83,2.81 -5.83,6.12c0,3.31 2.69,6 5.86,6c1.75,0 3.26,-0.79 4.46,-2.06l3.82,0c-1.34,3.22 -4.8,5.26 -8.23,5.26l-0.01,-0.01z" fill="rgb(255,255,255)" fill-rule="nonzero" id="svg_35" stroke-dashoffset="0" stroke-miterlimit="4" stroke-width="0" transform=" translate(-207.51, -156.97)"/>
   </g>
   <g id="svg_36" transform="matrix(2.92117 0 0 2.86675 683.89 572.04)">
    <path d="m222.26,148.05l0,7.68l5.52,-7.68l3.94,0l-6.7,8.71l6.7,9.02l-3.94,0l-5.52,-7.78l0,7.78l-3.29,0l0,-17.74l3.29,0l0,0.01z" fill="rgb(255,255,255)" fill-rule="nonzero" id="svg_37" stroke-dashoffset="0" stroke-miterlimit="4" stroke-width="0" transform=" translate(-225.34, -156.91)"/>
   </g>
   <g id="svg_38" transform="matrix(2.92117 0 0 2.86675 730.249 572.04)">
    <path d="m248.47,165.78l-3.29,0l0,-12.91l-7.56,12.91l-3.65,0l0,-17.74l3.29,0l0,12.96l7.51,-12.96l3.7,0l0,17.74z" fill="rgb(255,255,255)" fill-rule="nonzero" id="svg_39" stroke-dashoffset="0" stroke-miterlimit="4" stroke-width="0" transform=" translate(-241.22, -156.91)"/>
   </g>
   <g id="svg_40" transform="matrix(2.92117 0 0 2.86675 781.077 575.279)">
    <path d="m262.82,168.02l0,-2.23l-8.4,0l0,2.23l-3.29,0l0,-5.42l1.1,0l3.79,-14.54l8.88,0l0,14.54l1.2,0l0,5.42l-3.29,0l0.01,0zm-1.2,-16.78l-3.26,0l-2.71,11.35l5.98,0l0,-11.35l-0.01,0z" fill="rgb(255,255,255)" fill-rule="nonzero" id="svg_41" stroke-dashoffset="0" stroke-miterlimit="4" stroke-width="0" transform=" translate(-258.62, -158.04)"/>
   </g>
   <g id="svg_42" transform="matrix(2.92117 0 0 2.86675 835.411 572.212)">
    <path d="m277.22,166.22c-5.04,0 -9.24,-4.08 -9.24,-9.22c0,-5.14 4.13,-9.29 9.24,-9.29c5.11,0 9.24,4.13 9.24,9.29c0,5.16 -4.2,9.22 -9.24,9.22zm0,-3.2c3.24,0 5.95,-2.81 5.95,-6.1c0,-3.29 -2.64,-6.02 -5.95,-6.02c-3.31,0 -5.95,2.69 -5.95,6.02c0,3.33 2.71,6.1 5.95,6.1z" fill="rgb(255,255,255)" fill-rule="nonzero" id="svg_43" stroke-dashoffset="0" stroke-miterlimit="4" stroke-width="0" transform=" translate(-277.22, -156.97)"/>
   </g>
   <g id="svg_44" transform="matrix(2.92117 0 0 2.86675 889.978 572.04)">
    <path d="m292.82,148.05l0,7.68l5.52,-7.68l3.94,0l-6.7,8.71l6.7,9.02l-3.94,0l-5.52,-7.78l0,7.78l-3.29,0l0,-17.74l3.29,0l0,0.01z" fill="rgb(255,255,255)" fill-rule="nonzero" id="svg_45" stroke-dashoffset="0" stroke-miterlimit="4" stroke-width="0" transform=" translate(-295.9, -156.91)"/>
   </g>
   <g id="1cc7fe97-f884-42d8-888a-58ebbb0d480b" transform="matrix(0.321329 0.430013 -0.467387 0.34401 377.751 534.285)">
    <path d="m50,92.88c-23.64,0 -42.87,-19.24 -42.87,-42.88c0,-23.64 19.23,-42.87 42.87,-42.87c23.64,0 42.88,19.23 42.88,42.87c0,23.64 -19.24,42.88 -42.88,42.88zm0,-83.75c-22.54,0 -40.87,18.33 -40.87,40.87c0,22.54 18.33,40.88 40.87,40.88c22.54,0 40.88,-18.34 40.88,-40.88c0,-22.54 -18.34,-40.87 -40.88,-40.87z" fill="rgb(101,101,101)" fill-rule="nonzero" id="svg_58" stroke="rgb(241,104,88)" stroke-dashoffset="0" stroke-miterlimit="4" transform=" translate(-50, -50)"/>
   </g>
   <g id="svg_63" transform="matrix(0.292117 0.401345 -0.467387 0.34401 297.127 621.893)">
    <path d="m50,92.88c-23.64,0 -42.87,-19.24 -42.87,-42.88c0,-23.64 19.23,-42.87 42.87,-42.87c23.64,0 42.88,19.23 42.88,42.87c0,23.64 -19.24,42.88 -42.88,42.88zm0,-83.75c-22.54,0 -40.87,18.33 -40.87,40.87c0,22.54 18.33,40.88 40.87,40.88c22.54,0 40.88,-18.34 40.88,-40.88c0,-22.54 -18.34,-40.87 -40.88,-40.87z" fill="rgb(101,101,101)" fill-rule="nonzero" id="svg_64" stroke="rgb(241,104,88)" stroke-dashoffset="0" stroke-miterlimit="4" transform=" translate(-50, -50)"/>
   </g>
   <g id="b1a36399-e613-4068-9bbc-6a6183c0d8fe" transform="matrix(1.57743 -0.258008 0.0292117 0.200673 330.72 579.608)">
    <path d="m94.75,50c0,6.21 -5.24,11.25 -11.7,11.25l-66.1,0c-6.46,0 -11.7,-5.04 -11.7,-11.25l0,0c0,-6.21 5.24,-11.25 11.7,-11.25l66.1,0c6.46,0 11.7,5.04 11.7,11.25l0,0z" fill="rgb(241,104,88)" fill-rule="nonzero" id="svg_65" stroke="rgb(0,0,0)" stroke-dashoffset="0" stroke-miterlimit="4" stroke-width="0" transform=" translate(-50, -50)"/>
   </g>
  </g>
 </g>
</svg>