<?xml version="1.0"?>
<svg width="1080" height="1080" xmlns="http://www.w3.org/2000/svg" xmlns:svg="http://www.w3.org/2000/svg" version="1.1" xml:space="preserve">
 <desc>Created with Fabric.js 5.2.4</desc>

 <g class="layer">
  <title>Layer 1</title>
  <g id="svg_172" transform="matrix(0 0 0 0 0 0)">
   <g id="svg_173"/>
  </g>
  <g id="svg_174">
   <g id="cf79535d-5651-49cb-8986-64ee2ed7e86f" transform="matrix(2.35047 0 0 2.51862 546.583 501.988)"/>
   <g id="svg_4" transform="matrix(2.35047 0 0 2.51862 316.543 501.988)">
    <path d="m151.06,141.75l0,-33.64c0,-0.83 -0.1,-1.67 -0.29,-2.48c-0.87,-3.82 -3.2,-6.54 -6.53,-8.47c-6.23,-3.6 -12.46,-7.19 -18.69,-10.8c-9.7,-5.61 -19.39,-11.24 -29.1,-16.85c-3.26,-1.89 -6.54,-3.74 -9.82,-5.58c-0.48,-0.27 -1,-0.47 -1.53,-0.65c-2.86,-0.94 -5.69,-0.68 -8.41,0.49c-1.75,0.75 -3.45,1.66 -5.1,2.62c-17.18,9.89 -34.35,19.79 -51.52,29.71c-1.34,0.77 -2.7,1.53 -3.91,2.47c-3.14,2.46 -4.89,5.7 -4.9,9.74c-0.03,8.65 -0.02,17.3 -0.02,25.95c0,13.69 0,27.38 0.02,41.06c0,0.8 0.1,1.61 0.27,2.39c0.87,3.82 3.17,6.56 6.5,8.49c4.59,2.67 9.2,5.31 13.79,7.97c13.89,8.05 27.78,16.11 41.69,24.13c1.17,0.68 2.41,1.27 3.69,1.7c3.23,1.09 6.43,1.05 9.5,-0.65c1.7,-0.94 3.44,-1.82 5.12,-2.79c16.99,-9.79 33.97,-19.59 50.94,-29.4c1.15,-0.66 2.31,-1.33 3.35,-2.14c3.11,-2.43 4.91,-5.63 4.93,-9.63c0.04,-11.22 0.02,-22.43 0.02,-33.65l0,0l0,0.01z" fill="rgb(255,255,255)" fill-rule="nonzero" id="svg_5" stroke="rgb(255,255,255)" stroke-dashoffset="0" stroke-miterlimit="10" stroke-width="5.67" transform=" translate(-81.15, -141.72)"/>
   </g>
   <g id="svg_6" transform="matrix(2.35047 0 0 2.51862 709.118 496.799)">
    <path d="m146.7,101.6l194.44,0c4.69,0 8.5,3.81 8.5,8.5l0,59.13c0,4.69 -3.81,8.5 -8.5,8.5l-194.44,0l0,-76.14l0,0l0,0.01z" fill="rgb(0,116,120)" fill-rule="nonzero" id="svg_7" stroke-dashoffset="0" stroke-miterlimit="4" stroke-width="0" transform=" translate(-248.17, -139.66)"/>
   </g>
   <g id="svg_8" transform="matrix(2.35047 0 0 2.51862 223.606 455.494)">
    <path d="m41.77,123.3l-0.32,-0.05c0.1,0 0.21,0.02 0.32,0.05z" fill="rgb(46,67,79)" fill-rule="nonzero" id="svg_9" stroke-dashoffset="0" stroke-miterlimit="4" stroke-width="0" transform=" translate(-41.61, -123.28)"/>
   </g>
   <g id="svg_10" transform="matrix(2.35047 0 0 2.51862 233.548 446.578)">
    <path d="m45.84,119.72" fill="rgb(46,67,79)" fill-rule="nonzero" id="svg_11" stroke-dashoffset="0" stroke-miterlimit="4" stroke-width="0" transform=" translate(-45.84, -119.72)"/>
   </g>
   <g id="svg_12" transform="matrix(2.35047 0 0 2.51862 317.107 502.013)">
    <path d="m151.3,141.76l0,-33.64c0,-0.83 -0.1,-1.67 -0.29,-2.48c-0.87,-3.82 -3.2,-6.54 -6.53,-8.47c-6.23,-3.6 -12.46,-7.19 -18.69,-10.8c-9.7,-5.61 -19.39,-11.24 -29.1,-16.85c-3.26,-1.89 -6.54,-3.74 -9.82,-5.58c-0.48,-0.27 -1,-0.47 -1.53,-0.65c-2.86,-0.94 -5.69,-0.68 -8.41,0.49c-1.75,0.75 -3.45,1.66 -5.1,2.62c-17.18,9.89 -34.35,19.79 -51.52,29.71c-1.34,0.77 -2.7,1.53 -3.91,2.47c-3.14,2.46 -4.89,5.7 -4.9,9.74c-0.03,8.65 -0.02,17.3 -0.02,25.95c0,13.69 0,27.38 0.02,41.06c0,0.8 0.1,1.61 0.27,2.39c0.87,3.82 3.17,6.56 6.5,8.49c4.59,2.67 9.2,5.31 13.79,7.97c13.89,8.05 27.78,16.11 41.69,24.13c1.17,0.68 2.41,1.27 3.69,1.7c3.23,1.09 6.43,1.05 9.5,-0.65c1.7,-0.94 3.44,-1.82 5.12,-2.79c16.99,-9.79 33.97,-19.59 50.94,-29.4c1.15,-0.66 2.31,-1.33 3.35,-2.14c3.11,-2.43 4.91,-5.63 4.93,-9.63c0.04,-11.22 0.02,-22.43 0.02,-33.65l0,0l0,0.01zm-4.67,31.72c0,3.99 -1.72,7.03 -5.16,9.01c-16.28,9.36 -32.57,18.68 -48.85,28.02c-2.19,1.26 -4.43,2.45 -6.58,3.8c-3.14,1.97 -6.19,1.84 -9.34,0.02c-10.94,-6.31 -21.9,-12.58 -32.84,-18.88c-7.49,-4.31 -14.97,-8.64 -22.45,-12.98c-3.5,-2.03 -5.26,-5.07 -5.26,-9.15l0,-42.03c0,-7.03 0,-14.07 -0.02,-21.1c0,-3.23 1.14,-5.9 3.58,-8c0.51,-0.44 1.09,-0.81 1.68,-1.14c5.49,-3.17 10.98,-6.34 16.48,-9.51c9.16,-5.29 18.33,-10.57 27.5,-15.85c3.94,-2.26 7.89,-4.48 11.86,-6.7c2.13,-1.19 4.38,-1.68 6.77,-0.9c0.72,0.24 1.41,0.61 2.08,1c5.58,3.2 11.15,6.39 16.72,9.6c0.01,0 0.02,0 0.03,0.02c3.73,2.14 7.46,4.29 11.19,6.44c9.18,5.29 18.34,10.58 27.5,15.9c3.07,1.78 4.8,4.48 5.11,8.02c0.12,1.35 -0.02,2.72 -0.02,4.07c-0.02,15.11 -0.03,30.22 -0.04,45.32c0,5.01 0.03,10.01 0.04,15.02l0.02,0z" fill="rgb(46,67,79)" fill-rule="nonzero" id="svg_13" stroke-dashoffset="0" stroke-miterlimit="4" stroke-width="0" transform=" translate(-81.39, -141.73)"/>
   </g>
   <g id="svg_14" transform="matrix(2.35047 0 0 2.51862 514.264 476.071)">
    <path d="m165.54,137.25c-3.2,0 -5.78,-2.67 -5.78,-5.86c0,-3.19 2.61,-5.78 5.72,-5.78c2.23,0 4.44,1.3 5.3,3.4l-2.35,0c-0.69,-0.85 -1.81,-1.39 -2.93,-1.39c-2.04,0 -3.67,1.77 -3.67,3.85c0,2.08 1.69,3.77 3.68,3.77c1.1,0 2.05,-0.5 2.81,-1.3l2.4,0c-0.85,2.02 -3.02,3.3 -5.18,3.3l0,0l0,0.01z" fill="rgb(255,255,255)" fill-rule="nonzero" id="svg_15" stroke-dashoffset="0" stroke-miterlimit="4" stroke-width="0" transform=" translate(-165.27, -131.43)"/>
   </g>
   <g id="svg_16" transform="matrix(2.35047 0 0 2.51862 538.286 476.071)">
    <path d="m178.47,125.83l0,2.01l-3.92,0l0,2.57l3.76,0l0,2.01l-3.76,0l0,2.57l3.92,0l0,2.01l-5.99,0l0,-11.15l5.99,0l0,-0.02z" fill="rgb(255,255,255)" fill-rule="nonzero" id="svg_17" stroke-dashoffset="0" stroke-miterlimit="4" stroke-width="0" transform=" translate(-175.47, -131.41)"/>
   </g>
   <g id="svg_18" transform="matrix(2.35047 0 0 2.51862 558.947 476.021)">
    <path d="m180.71,125.83l2.63,0c1.07,0 2.08,-0.04 3.02,0.59c0.92,0.62 1.48,1.69 1.48,2.81c0,1.12 -0.45,2.16 -1.33,2.85c-0.92,0.74 -2.22,0.68 -3.32,0.68l-0.41,0l0,4.23l-2.07,0l0,-11.15l0,0l0,-0.01zm4.04,4.8c0.6,-0.2 1.01,-0.72 1.01,-1.37c0,-0.65 -0.45,-1.16 -1.07,-1.33c-0.45,-0.12 -1.09,-0.09 -1.54,-0.09l-0.38,0l0,2.91l0.38,0c0.51,0 1.1,0.03 1.6,-0.12l0,0z" fill="rgb(255,255,255)" fill-rule="nonzero" id="svg_19" stroke-dashoffset="0" stroke-miterlimit="4" stroke-width="0" transform=" translate(-184.28, -131.41)"/>
   </g>
   <g id="svg_20" transform="matrix(2.35047 0 0 2.51862 576.293 476.021)">
    <path d="m188.55,127.84l0,-2.01l6.23,0l0,2.01l-2.08,0l0,9.15l-2.07,0l0,-9.15l-2.08,0l0,0z" fill="rgb(255,255,255)" fill-rule="nonzero" id="svg_21" stroke-dashoffset="0" stroke-miterlimit="4" stroke-width="0" transform=" translate(-191.66, -131.41)"/>
   </g>
   <g id="svg_22" transform="matrix(2.35047 0 0 2.51862 597.753 476.046)">
    <path d="m205.36,136.98l-2.07,0l0,-8.12l-4.75,8.12l-2.29,0l0,-11.15l2.07,0l0,8.15l4.72,-8.15l2.32,0l0,11.15l0,0z" fill="rgb(255,255,255)" fill-rule="nonzero" id="svg_23" stroke-dashoffset="0" stroke-miterlimit="4" stroke-width="0" transform=" translate(-200.81, -131.4)"/>
   </g>
   <g id="svg_24" transform="matrix(2.35047 0 0 2.51862 629.155 476.046)">
    <path d="m207.29,131.46c0,-3.24 2.61,-5.84 5.83,-5.84l2.07,0c3.21,0 5.83,2.6 5.83,5.84c0,3.24 -2.66,5.79 -5.83,5.79l-2.07,0c-3.17,0 -5.83,-2.57 -5.83,-5.79zm2.07,-0.05c0,2.07 1.72,3.83 3.76,3.83l0,-7.62c-2.08,0 -3.76,1.69 -3.76,3.79zm5.82,3.84c2.04,0 3.76,-1.77 3.76,-3.83c0,-2.06 -1.67,-3.79 -3.76,-3.79l0,7.62z" fill="rgb(255,255,255)" fill-rule="nonzero" id="svg_25" stroke-dashoffset="0" stroke-miterlimit="4" stroke-width="0" transform=" translate(-214.16, -131.44)"/>
   </g>
   <g id="svg_26" transform="matrix(2.35047 0 0 2.51862 660.581 476.046)">
    <path d="m232.07,136.98l-2.07,0l0,-8.12l-4.75,8.12l-2.29,0l0,-11.15l2.07,0l0,8.15l4.72,-8.15l2.32,0l0,11.15l0,0z" fill="rgb(255,255,255)" fill-rule="nonzero" id="svg_27" stroke-dashoffset="0" stroke-miterlimit="4" stroke-width="0" transform=" translate(-227.51, -131.4)"/>
   </g>
   <g id="svg_28" transform="matrix(2.35047 0 0 2.51862 687.541 477.784)">
    <path d="m234.5,136.98l0,-11.15l2.07,0l0,9.15l4.06,0l0,-9.15l2.07,0l0,9.15l0.75,0l0,3.41l-2.07,0l0,-1.4l-6.88,0l0,-0.01z" fill="rgb(255,255,255)" fill-rule="nonzero" id="svg_29" stroke-dashoffset="0" stroke-miterlimit="4" stroke-width="0" transform=" translate(-238.97, -132.11)"/>
   </g>
   <g id="svg_30" transform="matrix(2.35047 0 0 2.51862 712.691 476.046)">
    <path d="m254.25,136.98l-2.07,0l0,-8.12l-4.75,8.12l-2.29,0l0,-11.15l2.07,0l0,8.15l4.72,-8.15l2.32,0l0,11.15l0,0z" fill="rgb(255,255,255)" fill-rule="nonzero" id="svg_31" stroke-dashoffset="0" stroke-miterlimit="4" stroke-width="0" transform=" translate(-249.69, -131.4)"/>
   </g>
   <g id="svg_32" transform="matrix(2.35047 0 0 2.51862 737.418 476.021)">
    <path d="m256.67,125.83l2.62,0c1.07,0 2.08,-0.04 3.02,0.59c0.92,0.62 1.48,1.69 1.48,2.81c0,1.12 -0.45,2.16 -1.33,2.85c-0.92,0.74 -2.22,0.68 -3.32,0.68l-0.41,0l0,4.23l-2.07,0l0,-11.15l0.01,0l0,-0.01zm4.05,4.8c0.6,-0.2 1.01,-0.72 1.01,-1.37c0,-0.65 -0.45,-1.16 -1.07,-1.33c-0.45,-0.12 -1.09,-0.09 -1.54,-0.09l-0.38,0l0,2.91l0.38,0c0.51,0 1.1,0.03 1.6,-0.12l0,0z" fill="rgb(255,255,255)" fill-rule="nonzero" id="svg_33" stroke-dashoffset="0" stroke-miterlimit="4" stroke-width="0" transform=" translate(-260.23, -131.41)"/>
   </g>
   <g id="svg_34" transform="matrix(2.35047 0 0 2.51862 762.333 476.046)">
    <path d="m270.81,137.25c-3.17,0 -5.81,-2.57 -5.81,-5.79c0,-3.22 2.6,-5.84 5.81,-5.84c3.21,0 5.81,2.6 5.81,5.84c0,3.24 -2.64,5.79 -5.81,5.79zm0,-2c2.04,0 3.74,-1.77 3.74,-3.83c0,-2.06 -1.66,-3.79 -3.74,-3.79c-2.08,0 -3.74,1.69 -3.74,3.79c0,2.1 1.71,3.83 3.74,3.83z" fill="rgb(255,255,255)" fill-rule="nonzero" id="svg_35" stroke-dashoffset="0" stroke-miterlimit="4" stroke-width="0" transform=" translate(-270.81, -131.44)"/>
   </g>
   <g id="svg_36" transform="matrix(2.35047 0 0 2.51862 789.034 476.046)">
    <path d="m280.57,125.83c1.01,0 2.04,-0.04 2.97,0.42c0.92,0.47 1.57,1.46 1.57,2.5c0,0.88 -0.41,1.74 -1.22,2.13c1.22,0.39 1.9,1.43 1.9,2.7c0,1.09 -0.5,2.01 -1.36,2.66c-0.89,0.65 -2.02,0.71 -3.09,0.74l-2.79,0l0,-11.15c0,0 2.02,0 2.02,0zm1.85,4.12c0.39,-0.18 0.63,-0.6 0.63,-1.03c0,-0.43 -0.29,-0.81 -0.69,-0.98c-0.39,-0.18 -0.92,-0.11 -1.36,-0.11l-0.38,0l0,2.28l0.39,0c0.44,0 1.01,0 1.4,-0.17l0,0l0.01,0.01zm0.76,4.63c0.38,-0.26 0.54,-0.62 0.54,-1.09c0,-0.54 -0.26,-0.88 -0.74,-1.15c-0.47,-0.24 -0.97,-0.23 -1.46,-0.23l-0.91,0l0,2.85l0.86,0c0.6,0 1.16,-0.03 1.71,-0.39l0,0l0,0.01z" fill="rgb(255,255,255)" fill-rule="nonzero" id="svg_37" stroke-dashoffset="0" stroke-miterlimit="4" stroke-width="0" transform=" translate(-282.17, -131.4)"/>
   </g>
   <g id="svg_38" transform="matrix(2.35047 0 0 2.51862 811.363 476.046)">
    <path d="m292.46,125.83l4.69,11.15l-2.28,0l-1.21,-2.88l-3.95,0l-1.24,2.88l-2.28,0l4.65,-11.15c0,0 1.62,0 1.62,0zm-0.8,2.88l-1.19,3.38l2.38,0l-1.19,-3.38z" fill="rgb(255,255,255)" fill-rule="nonzero" id="svg_39" stroke-dashoffset="0" stroke-miterlimit="4" stroke-width="0" transform=" translate(-291.67, -131.4)"/>
   </g>
   <g id="svg_40" transform="matrix(2.35047 0 0 2.51862 837.454 476.021)">
    <path d="m300.73,125.83l0,4.47l4.07,0l0,-4.47l2.07,0l0,11.15l-2.07,0l0,-4.68l-4.07,0l0,4.68l-2.07,0l0,-11.15c0,0 2.07,0 2.07,0z" fill="rgb(255,255,255)" fill-rule="nonzero" id="svg_41" stroke-dashoffset="0" stroke-miterlimit="4" stroke-width="0" transform=" translate(-302.76, -131.41)"/>
   </g>
   <g id="svg_42" transform="matrix(2.35047 0 0 2.51862 862.439 476.021)">
    <path d="m311.37,125.83l0,4.47l4.07,0l0,-4.47l2.07,0l0,11.15l-2.07,0l0,-4.68l-4.07,0l0,4.68l-2.07,0l0,-11.15c0,0 2.07,0 2.07,0z" fill="rgb(255,255,255)" fill-rule="nonzero" id="svg_43" stroke-dashoffset="0" stroke-miterlimit="4" stroke-width="0" transform=" translate(-313.4, -131.41)"/>
   </g>
   <g id="svg_44" transform="matrix(2.35047 0 0 2.51862 890.292 476.021)">
    <path d="m322.01,125.83l0,4.23l0.41,0c1.1,0 2.4,-0.06 3.32,0.68c0.88,0.69 1.33,1.75 1.33,2.85c0,1.1 -0.56,2.19 -1.48,2.81c-0.94,0.63 -1.95,0.59 -3.02,0.59l-2.63,0l0,-11.15l2.07,0l0,-0.01zm0,6.23l0,2.91l0.38,0c0.45,0 1.09,0.03 1.54,-0.09c0.62,-0.17 1.07,-0.65 1.07,-1.33c0,-0.68 -0.41,-1.18 -1.01,-1.37c-0.5,-0.15 -1.09,-0.12 -1.6,-0.12l-0.38,0zm8.55,-6.23l0,11.15l-2.07,0l0,-11.15c0,0 2.07,0 2.07,0z" fill="rgb(255,255,255)" fill-rule="nonzero" id="svg_45" stroke-dashoffset="0" stroke-miterlimit="4" stroke-width="0" transform=" translate(-325.25, -131.41)"/>
   </g>
   <g id="svg_46" transform="matrix(2.35047 0 0 2.51862 915.536 476.071)">
    <path d="m338.98,125.83l0,2.01l-3.92,0l0,2.57l3.76,0l0,2.01l-3.76,0l0,2.57l3.92,0l0,2.01l-5.99,0l0,-11.15l5.99,0l0,-0.02z" fill="rgb(255,255,255)" fill-rule="nonzero" id="svg_47" stroke-dashoffset="0" stroke-miterlimit="4" stroke-width="0" transform=" translate(-335.99, -131.41)"/>
   </g>
   <g id="svg_48" transform="matrix(2.35047 0 0 2.51862 525.852 528.156)">
    <path d="m165.43,143.24l4.75,13.56l4.82,-13.56l4.46,0l0,17.74l-3.29,0l0,-13.3l-4.58,13.3l-2.78,0l-4.58,-13.3l0,13.3l-3.29,0l0,-17.74l4.49,0l0,0z" fill="rgb(255,255,255)" fill-rule="nonzero" id="svg_49" stroke-dashoffset="0" stroke-miterlimit="4" stroke-width="0" transform=" translate(-170.2, -152.11)"/>
   </g>
   <g id="svg_50" transform="matrix(2.35047 0 0 2.51862 573.308 528.156)">
    <path d="m191.64,143.24l7.46,17.74l-3.62,0l-1.92,-4.58l-6.29,0l-1.97,4.58l-3.62,0l7.39,-17.74l2.57,0l0,0zm-1.27,4.59l-1.9,5.38l3.79,0l-1.9,-5.38l0,0l0.01,0z" fill="rgb(255,255,255)" fill-rule="nonzero" id="svg_51" stroke-dashoffset="0" stroke-miterlimit="4" stroke-width="0" transform=" translate(-190.39, -152.11)"/>
   </g>
   <g id="svg_52" transform="matrix(2.35047 0 0 2.51862 603.347 528.131)">
    <path d="m198.21,146.44l0,-3.19l9.91,0l0,3.19l-3.31,0l0,14.54l-3.29,0l0,-14.54l-3.31,0z" fill="rgb(255,255,255)" fill-rule="nonzero" id="svg_53" stroke-dashoffset="0" stroke-miterlimit="4" stroke-width="0" transform=" translate(-203.17, -152.12)"/>
   </g>
   <g id="svg_54" transform="matrix(2.35047 0 0 2.51862 631.647 528.131)">
    <path d="m219.98,143.24l0,3.19l-6.24,0l0,4.08l5.98,0l0,3.19l-5.98,0l0,4.08l6.24,0l0,3.19l-9.53,0l0,-17.74l9.53,0l0,0.01z" fill="rgb(255,255,255)" fill-rule="nonzero" id="svg_55" stroke-dashoffset="0" stroke-miterlimit="4" stroke-width="0" transform=" translate(-215.21, -152.1)"/>
   </g>
   <g id="svg_56" transform="matrix(2.35047 0 0 2.51862 664.506 528.156)">
    <path d="m223.53,143.24l4.18,0c1.7,0 3.31,-0.07 4.8,0.94c1.46,0.98 2.35,2.69 2.35,4.46c0,1.77 -0.72,3.43 -2.11,4.54c-1.46,1.18 -3.53,1.08 -5.28,1.08l-0.65,0l0,6.72l-3.29,0l0,-17.74l0,0zm6.44,7.64c0.96,-0.31 1.61,-1.15 1.61,-2.18c0,-1.03 -0.72,-1.85 -1.7,-2.11c-0.72,-0.19 -1.73,-0.14 -2.45,-0.14l-0.6,0l0,4.63l0.6,0c0.82,0 1.75,0.05 2.54,-0.19l0,0l0,-0.01z" fill="rgb(255,255,255)" fill-rule="nonzero" id="svg_57" stroke-dashoffset="0" stroke-miterlimit="4" stroke-width="0" transform=" translate(-229.19, -152.11)"/>
   </g>
   <g id="svg_58" transform="matrix(2.35047 0 0 2.51862 701.244 528.156)">
    <path d="m252.07,160.98l-3.29,0l0,-12.91l-7.56,12.91l-3.65,0l0,-17.74l3.29,0l0,12.96l7.51,-12.96l3.7,0l0,17.74z" fill="rgb(255,255,255)" fill-rule="nonzero" id="svg_59" stroke-dashoffset="0" stroke-miterlimit="4" stroke-width="0" transform=" translate(-244.82, -152.11)"/>
   </g>
   <g id="svg_60" transform="matrix(2.35047 0 0 2.51862 744.399 528.156)">
    <path d="m264.43,143.24l7.46,17.74l-3.62,0l-1.92,-4.58l-6.29,0l-1.97,4.58l-3.62,0l7.39,-17.74l2.57,0zm-1.27,4.59l-1.9,5.38l3.79,0l-1.9,-5.38l0,0l0.01,0z" fill="rgb(255,255,255)" fill-rule="nonzero" id="svg_61" stroke-dashoffset="0" stroke-miterlimit="4" stroke-width="0" transform=" translate(-263.18, -152.11)"/>
   </g>
   <g id="svg_62" transform="matrix(2.35047 0 0 2.51862 783.581 528.156)">
    <path d="m286.87,160.98l-3.29,0l0,-14.54l-3.26,0l-4.01,14.54l-3.48,0l5.16,-17.74l8.88,0l0,17.74l0,0z" fill="rgb(255,255,255)" fill-rule="nonzero" id="svg_63" stroke-dashoffset="0" stroke-miterlimit="4" stroke-width="0" transform=" translate(-279.85, -152.11)"/>
   </g>
   <g id="svg_64" transform="matrix(2.35047 0 0 2.51862 829.015 528.156)">
    <path d="m294.02,143.24l0,6.72l0.65,0c1.75,0 3.82,-0.1 5.28,1.08c1.39,1.1 2.11,2.78 2.11,4.54c0,1.76 -0.89,3.48 -2.35,4.46c-1.49,1.01 -3.1,0.94 -4.8,0.94l-4.18,0l0,-17.74l3.29,0zm0,9.92l0,4.63l0.6,0c0.72,0 1.73,0.05 2.45,-0.14c0.98,-0.26 1.7,-1.03 1.7,-2.11c0,-1.08 -0.65,-1.87 -1.61,-2.18c-0.79,-0.24 -1.73,-0.19 -2.54,-0.19l-0.6,0l0,-0.01zm13.61,-9.92l0,17.74l-3.29,0l0,-17.74l3.29,0z" fill="rgb(255,255,255)" fill-rule="nonzero" id="svg_65" stroke-dashoffset="0" stroke-miterlimit="4" stroke-width="0" transform=" translate(-299.18, -152.11)"/>
   </g>
   <g id="svg_66" transform="matrix(2.35047 0 0 2.51862 399.726 384.62)">
    <path d="m116.54,98.8c-2.03,0 -3.68,-1.65 -3.68,-3.68c0,-2.03 1.65,-3.68 3.68,-3.68c2.03,0 3.68,1.65 3.68,3.68c0,2.03 -1.65,3.68 -3.68,3.68zm0,-6.45c-1.53,0 -2.77,1.24 -2.77,2.77c0,1.53 1.24,2.77 2.77,2.77c1.53,0 2.77,-1.24 2.77,-2.77c0,-1.53 -1.24,-2.77 -2.77,-2.77z" fill="rgb(46,67,79)" fill-rule="nonzero" id="svg_67" stroke-dashoffset="0" stroke-miterlimit="4" stroke-width="0" transform=" translate(-116.54, -95.12)"/>
   </g>
   <g id="svg_68" transform="matrix(2.35047 0 0 2.51862 399.726 384.62)">
    <path d="m116.54,99.34c-2.33,0 -4.22,-1.89 -4.22,-4.22c0,-2.33 1.89,-4.22 4.22,-4.22c2.33,0 4.22,1.89 4.22,4.22c0,2.33 -1.89,4.22 -4.22,4.22zm0,-6.45c-1.23,0 -2.23,1 -2.23,2.23c0,1.23 1,2.23 2.23,2.23c1.23,0 2.23,-1 2.23,-2.23c0,-1.23 -1,-2.23 -2.23,-2.23z" fill="rgb(46,67,79)" fill-rule="nonzero" id="svg_69" stroke-dashoffset="0" stroke-miterlimit="4" stroke-width="0" transform=" translate(-116.54, -95.12)"/>
   </g>
   <g id="svg_70" transform="matrix(2.35047 0 0 2.51862 388.209 433.431)">
    <path d="m111.64,117.55c-1.68,0 -3.05,-1.37 -3.05,-3.05c0,-1.68 1.37,-3.05 3.05,-3.05c1.68,0 3.05,1.37 3.05,3.05c0,1.68 -1.37,3.05 -3.05,3.05zm0,-5.18c-1.18,0 -2.13,0.96 -2.13,2.13c0,1.17 0.96,2.13 2.13,2.13c1.17,0 2.13,-0.96 2.13,-2.13c0,-1.17 -0.96,-2.13 -2.13,-2.13z" fill="rgb(46,67,79)" fill-rule="nonzero" id="svg_71" stroke-dashoffset="0" stroke-miterlimit="4" stroke-width="0" transform=" translate(-111.64, -114.5)"/>
   </g>
   <g id="svg_72" transform="matrix(2.35047 0 0 2.51862 388.209 433.431)">
    <path d="m111.64,118.09c-1.98,0 -3.59,-1.61 -3.59,-3.59c0,-1.98 1.61,-3.59 3.59,-3.59c1.98,0 3.59,1.61 3.59,3.59c0,1.98 -1.61,3.59 -3.59,3.59zm0,-5.18c-0.88,0 -1.59,0.71 -1.59,1.59c0,0.88 0.71,1.59 1.59,1.59c0.88,0 1.59,-0.71 1.59,-1.59c0,-0.88 -0.71,-1.59 -1.59,-1.59z" fill="rgb(46,67,79)" fill-rule="nonzero" id="svg_73" stroke-dashoffset="0" stroke-miterlimit="4" stroke-width="0" transform=" translate(-111.64, -114.5)"/>
   </g>
   <g id="svg_74" transform="matrix(2.35047 0 0 2.51862 317.154 393.435)">
    <path d="m81.41,101.67c-1.68,0 -3.05,-1.37 -3.05,-3.05c0,-1.68 1.37,-3.05 3.05,-3.05c1.68,0 3.05,1.37 3.05,3.05c0,1.68 -1.37,3.05 -3.05,3.05zm0,-5.18c-1.18,0 -2.13,0.96 -2.13,2.13c0,1.17 0.96,2.13 2.13,2.13c1.17,0 2.13,-0.96 2.13,-2.13c0,-1.17 -0.96,-2.13 -2.13,-2.13z" fill="rgb(46,67,79)" fill-rule="nonzero" id="svg_75" stroke-dashoffset="0" stroke-miterlimit="4" stroke-width="0" transform=" translate(-81.41, -98.62)"/>
   </g>
   <g id="svg_76" transform="matrix(2.35047 0 0 2.51862 317.154 393.435)">
    <path d="m81.41,102.21c-1.98,0 -3.59,-1.61 -3.59,-3.59c0,-1.98 1.61,-3.59 3.59,-3.59c1.98,0 3.59,1.61 3.59,3.59c0,1.98 -1.61,3.59 -3.59,3.59zm0,-5.18c-0.88,0 -1.59,0.72 -1.59,1.59c0,0.87 0.72,1.59 1.59,1.59c0.87,0 1.59,-0.71 1.59,-1.59c0,-0.88 -0.71,-1.59 -1.59,-1.59z" fill="rgb(46,67,79)" fill-rule="nonzero" id="svg_77" stroke-dashoffset="0" stroke-miterlimit="4" stroke-width="0" transform=" translate(-81.41, -98.62)"/>
   </g>
   <g id="svg_78" transform="matrix(2.35047 0 0 2.51862 346.723 368.35)">
    <path d="m93.99,91.07c-1.33,0 -2.41,-1.08 -2.41,-2.41c0,-1.33 1.08,-2.41 2.41,-2.41c1.33,0 2.41,1.08 2.41,2.41c0,1.33 -1.08,2.41 -2.41,2.41zm0,-3.9c-0.82,0 -1.49,0.67 -1.49,1.49c0,0.82 0.67,1.49 1.49,1.49c0.82,0 1.49,-0.67 1.49,-1.49c0,-0.82 -0.67,-1.49 -1.49,-1.49z" fill="rgb(46,67,79)" fill-rule="nonzero" id="svg_79" stroke-dashoffset="0" stroke-miterlimit="4" stroke-width="0" transform=" translate(-93.99, -88.66)"/>
   </g>
   <g id="svg_80" transform="matrix(2.35047 0 0 2.51862 346.723 368.35)">
    <path d="m93.99,91.61c-1.63,0 -2.95,-1.32 -2.95,-2.95c0,-1.63 1.32,-2.95 2.95,-2.95c1.63,0 2.95,1.32 2.95,2.95c0,1.63 -1.32,2.95 -2.95,2.95zm0,-3.9c-0.53,0 -0.95,0.43 -0.95,0.95c0,0.52 0.43,0.95 0.95,0.95c0.52,0 0.95,-0.43 0.95,-0.95c0,-0.52 -0.43,-0.95 -0.95,-0.95z" fill="rgb(46,67,79)" fill-rule="nonzero" id="svg_81" stroke-dashoffset="0" stroke-miterlimit="4" stroke-width="0" transform=" translate(-93.99, -88.66)"/>
   </g>
   <g id="svg_82" transform="matrix(2.35047 0 0 2.51862 353.587 418.596)">
    <path d="m101.75,116.62c-0.42,0 -0.84,-0.09 -1.23,-0.27l-11.6,-5.33c-1.46,-0.67 -2.12,-2.42 -1.46,-3.89l2.14,-4.76c0.66,-1.47 2.4,-2.14 3.87,-1.49l11.39,5c1.44,0.63 2.13,2.28 1.57,3.74l-1.93,5.1c-0.29,0.76 -0.89,1.37 -1.64,1.68c-0.36,0.15 -0.74,0.22 -1.12,0.22l0.01,0zm-9.45,-14.71c-0.64,0 -1.25,0.37 -1.53,0.98l-2.14,4.77l0,0c-0.37,0.83 0,1.82 0.83,2.2l11.6,5.33c0.42,0.2 0.9,0.2 1.33,0.03c0.43,-0.18 0.76,-0.52 0.93,-0.95l1.93,-5.1c0.32,-0.83 -0.08,-1.76 -0.89,-2.12l-11.39,-5c-0.22,-0.09 -0.44,-0.14 -0.67,-0.14zm-4.25,5.49l0,0z" fill="rgb(46,67,79)" fill-rule="nonzero" id="svg_83" stroke-dashoffset="0" stroke-miterlimit="4" stroke-width="0" transform=" translate(-96.91, -108.63)"/>
   </g>
   <g id="svg_84" transform="matrix(2.35047 0 0 2.51862 353.587 418.596)">
    <path d="m101.75,117.16c-0.5,0 -1,-0.11 -1.46,-0.32l-11.6,-5.33c-1.73,-0.8 -2.51,-2.86 -1.73,-4.6l2.14,-4.76c0.78,-1.74 2.84,-2.53 4.58,-1.77l11.39,5c1.7,0.75 2.52,2.69 1.86,4.43l-1.93,5.1c-0.34,0.9 -1.05,1.63 -1.94,1.99c-0.42,0.17 -0.86,0.26 -1.32,0.26l0.01,0zm-13.7,-10.01l-0.09,0.2c-0.54,1.2 0,2.62 1.19,3.17l11.6,5.33c0.31,0.14 0.66,0.22 1,0.22l0,0c0.32,0 0.62,-0.06 0.91,-0.18c0.62,-0.25 1.1,-0.75 1.34,-1.37l1.93,-5.1c0.45,-1.2 -0.11,-2.54 -1.28,-3.06l-11.39,-5c-1.21,-0.53 -2.62,0.02 -3.16,1.22l-2.05,4.56l0,0.51c0.02,-0.08 0.05,-0.15 0.09,-0.23l2.14,-4.76c0.36,-0.79 1.15,-1.3 2.02,-1.3c0.31,0 0.6,0.06 0.88,0.19l11.39,5c1.08,0.47 1.6,1.71 1.18,2.81l-1.93,5.1c-0.22,0.58 -0.66,1.03 -1.23,1.26c-0.57,0.23 -1.2,0.22 -1.76,-0.04l-11.6,-5.33c-1.02,-0.47 -1.52,-1.63 -1.18,-2.68l0,-0.51l0,0l0,-0.01zm4.25,-4.7c-0.45,0 -0.85,0.26 -1.03,0.66l-2.14,4.77c-0.25,0.56 0,1.23 0.56,1.49l11.6,5.33c0.29,0.13 0.61,0.14 0.9,0.02c0.29,-0.12 0.51,-0.35 0.63,-0.64l1.93,-5.1c0.21,-0.56 -0.05,-1.19 -0.6,-1.43l-11.39,-5c-0.14,-0.06 -0.29,-0.09 -0.45,-0.09l-0.01,0l0,-0.01z" fill="rgb(46,67,79)" fill-rule="nonzero" id="svg_85" stroke-dashoffset="0" stroke-miterlimit="4" stroke-width="0" transform=" translate(-96.91, -108.63)"/>
   </g>
   <g id="svg_86" transform="matrix(2.35047 0 0 2.51862 360.661 398.699)">
    <path d="m104.62,107.1c-0.09,0 -0.18,-0.02 -0.26,-0.05l-11.39,-5c-0.17,-0.07 -0.3,-0.22 -0.35,-0.39c-0.06,-0.17 -0.03,-0.36 0.06,-0.52l3.4,-5.71c0.6,-1 1.85,-1.4 2.92,-0.91l6.9,3.13c1.05,0.47 1.58,1.66 1.25,2.76l-1.91,6.25c-0.05,0.17 -0.18,0.32 -0.34,0.39c-0.08,0.04 -0.18,0.06 -0.27,0.06l-0.01,0l0,-0.01zm-10.48,-5.93l10.07,4.42l1.7,-5.56c0.15,-0.49 -0.09,-1.01 -0.55,-1.22l-6.9,-3.13c-0.47,-0.21 -1.03,-0.04 -1.29,0.4c0,0 -3.03,5.09 -3.03,5.09z" fill="rgb(46,67,79)" fill-rule="nonzero" id="svg_87" stroke-dashoffset="0" stroke-miterlimit="4" stroke-width="0" transform=" translate(-99.92, -100.71)"/>
   </g>
   <g id="svg_88" transform="matrix(2.35047 0 0 2.51862 360.661 398.649)">
    <path d="m104.62,107.64c-0.16,0 -0.32,-0.03 -0.48,-0.1l-11.39,-5c-0.31,-0.14 -0.55,-0.4 -0.65,-0.72c-0.1,-0.32 -0.06,-0.67 0.11,-0.96l3.4,-5.71c0.74,-1.24 2.29,-1.73 3.61,-1.13l6.9,3.13c1.29,0.59 1.95,2.05 1.54,3.41l-1.91,6.25c-0.1,0.32 -0.33,0.59 -0.64,0.73c-0.16,0.07 -0.32,0.11 -0.49,0.11l0,0l0,-0.01zm-6.58,-12.79c-0.6,0 -1.18,0.31 -1.51,0.86l-3.4,5.71c0,0 -0.02,0.05 0,0.08c0,0.03 0.03,0.05 0.05,0.06l11.43,5.01l0.04,0c0,0 0.04,-0.03 0.05,-0.06l1.91,-6.25c0.26,-0.84 -0.15,-1.75 -0.95,-2.11l-6.9,-3.13c-0.23,-0.11 -0.48,-0.16 -0.72,-0.16l0,0l0,-0.01zm6.51,11.48l-11.19,-4.91l3.34,-5.61c0.41,-0.68 1.26,-0.95 1.98,-0.62l6.9,3.13c0.71,0.32 1.07,1.13 0.84,1.87l-1.88,6.14l0.01,0zm-9.63,-5.41l8.95,3.93l1.52,-4.98c0.07,-0.23 -0.04,-0.47 -0.26,-0.57l-6.9,-3.13c-0.22,-0.1 -0.48,-0.02 -0.6,0.19l-2.72,4.56l0.01,0z" fill="rgb(46,67,79)" fill-rule="nonzero" id="svg_89" stroke-dashoffset="0" stroke-miterlimit="4" stroke-width="0" transform=" translate(-99.91, -100.71)"/>
   </g>
   <g id="svg_90" transform="matrix(2.35047 0 0 2.51862 355.937 394.166)">
    <path d="m96.02,102.69c-0.08,0 -0.15,-0.02 -0.22,-0.06c-0.22,-0.12 -0.3,-0.4 -0.17,-0.62l3.76,-6.66c0.12,-0.22 0.4,-0.3 0.62,-0.17c0.22,0.12 0.3,0.4 0.17,0.62l-3.76,6.66c-0.08,0.15 -0.24,0.23 -0.4,0.23z" fill="rgb(46,67,79)" fill-rule="nonzero" id="svg_91" stroke-dashoffset="0" stroke-miterlimit="4" stroke-width="0" transform=" translate(-97.91, -98.9)"/>
   </g>
   <g id="svg_92" transform="matrix(2.35047 0 0 2.51862 355.914 394.14)">
    <path d="m96.02,103.23c-0.17,0 -0.34,-0.04 -0.49,-0.13c-0.48,-0.27 -0.65,-0.88 -0.38,-1.36l3.76,-6.66c0.13,-0.23 0.34,-0.4 0.6,-0.47c0.26,-0.07 0.53,-0.04 0.76,0.09c0.48,0.27 0.65,0.88 0.38,1.36l-3.76,6.66c-0.18,0.31 -0.51,0.51 -0.87,0.51z" fill="rgb(46,67,79)" fill-rule="nonzero" id="svg_93" stroke-dashoffset="0" stroke-miterlimit="4" stroke-width="0" transform=" translate(-97.9, -98.9)"/>
   </g>
   <g id="svg_94" transform="matrix(2.35047 0 0 2.51862 362.095 397.742)">
    <path d="m98.86,104.27c-0.07,0 -0.13,-0.01 -0.2,-0.05c-0.23,-0.11 -0.32,-0.38 -0.21,-0.61l3.35,-6.96c0.11,-0.23 0.38,-0.32 0.61,-0.21c0.23,0.11 0.32,0.38 0.21,0.61l-3.35,6.96c-0.08,0.16 -0.24,0.26 -0.41,0.26z" fill="rgb(46,67,79)" fill-rule="nonzero" id="svg_95" stroke-dashoffset="0" stroke-miterlimit="4" stroke-width="0" transform=" translate(-100.53, -100.33)"/>
   </g>
   <g id="svg_96" transform="matrix(2.35047 0 0 2.51862 362.095 397.742)">
    <path d="m98.86,104.81c-0.15,0 -0.3,-0.03 -0.43,-0.1c-0.24,-0.12 -0.42,-0.32 -0.51,-0.57c-0.09,-0.25 -0.07,-0.52 0.04,-0.76l3.35,-6.96c0.12,-0.24 0.32,-0.42 0.57,-0.51c0.25,-0.09 0.52,-0.07 0.76,0.04c0.24,0.12 0.42,0.32 0.51,0.57c0.09,0.25 0.07,0.52 -0.04,0.76l-3.35,6.96c-0.16,0.34 -0.52,0.57 -0.9,0.57z" fill="rgb(46,67,79)" fill-rule="nonzero" id="svg_97" stroke-dashoffset="0" stroke-miterlimit="4" stroke-width="0" transform=" translate(-100.53, -100.33)"/>
   </g>
   <g id="svg_98" transform="matrix(2.35047 0 0 2.51862 354.198 416.682)">
    <path d="m95.51,111.79c-0.07,0 -0.13,-0.01 -0.2,-0.05c-0.23,-0.11 -0.32,-0.38 -0.21,-0.61l3.35,-6.96c0.11,-0.23 0.38,-0.32 0.61,-0.21c0.23,0.11 0.32,0.38 0.21,0.61l-3.35,6.96c-0.08,0.16 -0.24,0.26 -0.41,0.26z" fill="rgb(46,67,79)" fill-rule="nonzero" id="svg_99" stroke-dashoffset="0" stroke-miterlimit="4" stroke-width="0" transform=" translate(-97.19, -107.85)"/>
   </g>
   <g id="svg_100" transform="matrix(2.35047 0 0 2.51862 354.221 416.682)">
    <path d="m95.51,112.33c-0.15,0 -0.3,-0.03 -0.43,-0.1c-0.24,-0.12 -0.42,-0.32 -0.51,-0.57c-0.09,-0.25 -0.07,-0.52 0.04,-0.76l3.35,-6.96c0.12,-0.24 0.32,-0.42 0.57,-0.51c0.25,-0.09 0.52,-0.07 0.76,0.04c0.49,0.24 0.7,0.84 0.47,1.33l-3.35,6.96c-0.17,0.34 -0.52,0.57 -0.9,0.57z" fill="rgb(46,67,79)" fill-rule="nonzero" id="svg_101" stroke-dashoffset="0" stroke-miterlimit="4" stroke-width="0" transform=" translate(-97.18, -107.85)"/>
   </g>
   <g id="svg_102" transform="matrix(2.35047 0 0 2.51862 348.227 413.181)">
    <path d="m92.96,110.4c-0.07,0 -0.13,-0.01 -0.2,-0.05c-0.23,-0.11 -0.32,-0.38 -0.21,-0.61l3.35,-6.96c0.11,-0.23 0.38,-0.32 0.61,-0.21c0.23,0.11 0.32,0.38 0.21,0.61l-3.35,6.96c-0.08,0.16 -0.24,0.26 -0.41,0.26z" fill="rgb(46,67,79)" fill-rule="nonzero" id="svg_103" stroke-dashoffset="0" stroke-miterlimit="4" stroke-width="0" transform=" translate(-94.63, -106.46)"/>
   </g>
   <g id="svg_104" transform="matrix(2.35047 0 0 2.51862 348.227 413.206)">
    <path d="m92.96,110.94c-0.15,0 -0.3,-0.03 -0.43,-0.1c-0.5,-0.24 -0.7,-0.84 -0.47,-1.33l3.35,-6.96c0.24,-0.5 0.84,-0.7 1.33,-0.47c0.5,0.24 0.71,0.84 0.47,1.33l-3.35,6.96c-0.16,0.34 -0.52,0.57 -0.9,0.57z" fill="rgb(46,67,79)" fill-rule="nonzero" id="svg_105" stroke-dashoffset="0" stroke-miterlimit="4" stroke-width="0" transform=" translate(-94.64, -106.46)"/>
   </g>
   <g id="svg_106" transform="matrix(2.35047 0 0 2.51862 342.022 410.814)">
    <path d="m90.32,109.46c-0.07,0 -0.13,-0.01 -0.2,-0.05c-0.23,-0.11 -0.32,-0.38 -0.21,-0.61l3.35,-6.96c0.11,-0.23 0.38,-0.32 0.61,-0.21c0.23,0.11 0.32,0.38 0.21,0.61l-3.35,6.96c-0.08,0.16 -0.24,0.26 -0.41,0.26z" fill="rgb(46,67,79)" fill-rule="nonzero" id="svg_107" stroke-dashoffset="0" stroke-miterlimit="4" stroke-width="0" transform=" translate(-91.99, -105.52)"/>
   </g>
   <g id="svg_108" transform="matrix(2.35047 0 0 2.51862 342.022 410.814)">
    <path d="m90.32,110c-0.15,0 -0.3,-0.03 -0.43,-0.1c-0.5,-0.24 -0.71,-0.84 -0.47,-1.33l3.35,-6.96c0.12,-0.24 0.32,-0.42 0.57,-0.51c0.25,-0.09 0.52,-0.07 0.76,0.04c0.24,0.12 0.42,0.32 0.51,0.57c0.09,0.25 0.07,0.52 -0.04,0.76l-3.35,6.96c-0.16,0.34 -0.52,0.57 -0.9,0.57z" fill="rgb(46,67,79)" fill-rule="nonzero" id="svg_109" stroke-dashoffset="0" stroke-miterlimit="4" stroke-width="0" transform=" translate(-91.99, -105.52)"/>
   </g>
   <g id="svg_110" transform="matrix(2.35047 0 0 2.51862 360.332 420.057)">
    <path d="m98.11,113.13c-0.07,0 -0.13,-0.01 -0.2,-0.05c-0.23,-0.11 -0.32,-0.38 -0.21,-0.61l3.35,-6.96c0.11,-0.23 0.38,-0.32 0.61,-0.21c0.23,0.11 0.32,0.38 0.21,0.61l-3.35,6.96c-0.08,0.16 -0.24,0.26 -0.41,0.26z" fill="rgb(46,67,79)" fill-rule="nonzero" id="svg_111" stroke-dashoffset="0" stroke-miterlimit="4" stroke-width="0" transform=" translate(-99.78, -109.19)"/>
   </g>
   <g id="svg_112" transform="matrix(2.35047 0 0 2.51862 360.332 420.057)">
    <path d="m98.11,113.67c-0.15,0 -0.3,-0.03 -0.43,-0.1c-0.5,-0.24 -0.71,-0.84 -0.47,-1.33l3.35,-6.96c0.12,-0.24 0.32,-0.42 0.57,-0.51c0.25,-0.09 0.52,-0.07 0.76,0.04c0.24,0.12 0.42,0.32 0.51,0.57c0.09,0.25 0.07,0.52 -0.04,0.76l-3.35,6.96c-0.16,0.34 -0.52,0.57 -0.9,0.57z" fill="rgb(46,67,79)" fill-rule="nonzero" id="svg_113" stroke-dashoffset="0" stroke-miterlimit="4" stroke-width="0" transform=" translate(-99.78, -109.19)"/>
   </g>
   <g id="svg_114" transform="matrix(2.35047 0 0 2.51862 366.796 421.946)">
    <path d="m101.01,113.88c-0.06,0 -0.12,-0.01 -0.18,-0.04c-0.23,-0.1 -0.34,-0.37 -0.24,-0.6l3.05,-6.96c0.1,-0.23 0.37,-0.34 0.6,-0.24c0.23,0.1 0.34,0.37 0.24,0.6l-3.05,6.96c-0.08,0.17 -0.24,0.27 -0.42,0.27l0,0l0,0.01z" fill="rgb(46,67,79)" fill-rule="nonzero" id="svg_115" stroke-dashoffset="0" stroke-miterlimit="4" stroke-width="0" transform=" translate(-102.53, -109.94)"/>
   </g>
   <g id="svg_116" transform="matrix(2.35047 0 0 2.51862 366.773 421.996)">
    <path d="m101.01,114.42c-0.14,0 -0.27,-0.03 -0.4,-0.08c-0.24,-0.11 -0.43,-0.3 -0.53,-0.55c-0.1,-0.25 -0.09,-0.52 0.02,-0.76l3.05,-6.96c0.22,-0.5 0.81,-0.73 1.31,-0.51c0.24,0.11 0.43,0.3 0.53,0.55c0.1,0.25 0.09,0.52 -0.02,0.76l-3.05,6.96c-0.16,0.36 -0.52,0.6 -0.91,0.6l0,0l0,-0.01z" fill="rgb(46,67,79)" fill-rule="nonzero" id="svg_117" stroke-dashoffset="0" stroke-miterlimit="4" stroke-width="0" transform=" translate(-102.54, -109.95)"/>
   </g>
   <g id="svg_118" transform="matrix(2.35047 0 0 2.51862 368.159 400.815)">
    <path d="m101.55,105.38c-0.06,0 -0.13,-0.01 -0.19,-0.04c-0.23,-0.11 -0.33,-0.38 -0.22,-0.61l3.13,-6.73c0.11,-0.23 0.38,-0.33 0.61,-0.22c0.23,0.11 0.33,0.38 0.22,0.61l-3.13,6.73c-0.08,0.17 -0.24,0.26 -0.41,0.26l0,0l-0.01,0z" fill="rgb(46,67,79)" fill-rule="nonzero" id="svg_119" stroke-dashoffset="0" stroke-miterlimit="4" stroke-width="0" transform=" translate(-103.12, -101.56)"/>
   </g>
   <g id="svg_120" transform="matrix(2.35047 0 0 2.51862 368.159 400.89)">
    <path d="m101.55,105.92c-0.15,0 -0.29,-0.03 -0.42,-0.09c-0.5,-0.23 -0.72,-0.83 -0.48,-1.32l3.13,-6.73c0.11,-0.24 0.31,-0.43 0.56,-0.52c0.25,-0.09 0.52,-0.08 0.76,0.03c0.5,0.23 0.72,0.83 0.48,1.33l-3.13,6.73c-0.16,0.35 -0.52,0.58 -0.91,0.58l0.01,0l0,-0.01z" fill="rgb(46,67,79)" fill-rule="nonzero" id="svg_121" stroke-dashoffset="0" stroke-miterlimit="4" stroke-width="0" transform=" translate(-103.11, -101.56)"/>
   </g>
   <g id="svg_122" transform="matrix(2.35047 0 0 2.51862 288.032 527.023)">
    <path d="m103.79,116.14c-0.25,-0.32 -0.54,-0.64 -0.88,-0.95c-0.78,-0.74 -1.8,-1.48 -3.12,-2.19c-2.28,-1.23 -5.64,-2.69 -9.46,-3.98c-1.52,-0.52 -3.11,-1.01 -4.73,-1.44l-0.02,0c-8.79,-2.37 -18.53,-3.27 -23.03,1.23c-7.42,7.42 -20.85,42.57 -26.56,56.52c-3,7.32 -3.64,11.51 -3.01,14.23c0.05,0.2 0.1,0.39 0.16,0.57c0.21,0.65 0.49,1.21 0.84,1.71c0.45,0.65 1,1.19 1.61,1.69c0.43,0.35 0.89,0.69 1.36,1.02c3.19,2.25 19.78,9.3 25.08,11.53c1.45,0.61 2.96,1.1 4.5,1.41c2.06,0.42 3.59,0.27 5.1,-0.41c1.24,-0.56 2.41,-1.41 2.93,-2.67l30.08,-71.53c0,0 1.92,-3.24 -0.84,-6.72l0,-0.02l-0.01,0zm-50.7,20.85c2.03,-4.46 9.52,-20.86 12.78,-23.47c2.83,-2.27 8.34,-2.82 8.98,-0.21c0.1,0.39 0.08,0.86 -0.07,1.4c-2.88,7.95 -7.51,17.41 -12.65,27.3c0,0 -1.38,3.56 -6,2.66c-1.03,-0.2 -1.85,-0.47 -2.49,-0.82c-2.21,-1.22 -2.13,-3.39 -0.56,-6.85l0.01,0l0,-0.01z" fill="rgb(255,255,255)" fill-rule="nonzero" id="svg_123" stroke-dashoffset="0" stroke-miterlimit="4" stroke-width="0" transform=" translate(-69.02, -151.67)"/>
   </g>
   <g id="svg_124" transform="matrix(2.35047 0 0 2.51862 288.831 511.004)">
    <path d="m100.88,113.73c-3.19,-1.72 -8.49,-3.88 -14.19,-5.43l-0.02,0c-8.79,-2.37 -18.53,-3.27 -23.03,1.23c-7.42,7.42 -20.85,42.57 -26.56,56.52c-3.22,7.86 -3.72,12.11 -2.85,14.81c0.47,1.49 1.37,2.51 2.44,3.39c-0.42,-0.56 -0.77,-1.19 -1.01,-1.94c-0.86,-2.7 -0.36,-6.95 2.85,-14.81c5.71,-13.95 19.14,-49.1 26.56,-56.52c4.5,-4.5 14.24,-3.6 23.03,-1.23l0.02,0c5.71,1.54 11,3.71 14.19,5.43c1.03,0.55 1.87,1.12 2.56,1.7c-0.84,-1.06 -2.11,-2.13 -3.99,-3.15l0,0zm-24.94,0.31c0.1,0.39 0.08,0.86 -0.07,1.4c-2.88,7.95 -7.51,17.41 -12.65,27.3c0,0 -1.38,3.56 -6,2.66c-1.03,-0.2 -1.85,-0.47 -2.49,-0.82c0.51,1.12 1.76,1.85 3.92,2.27c4.62,0.9 6,-2.66 6,-2.66c5.14,-9.9 9.77,-19.35 12.65,-27.3c0.42,-1.51 -0.22,-2.43 -1.37,-2.85c0,0 0.01,0 0.01,0z" fill="rgb(255,255,255)" fill-rule="nonzero" id="svg_125" opacity="0.55" stroke-dashoffset="0" stroke-miterlimit="4" stroke-width="0" transform=" translate(-69.36, -145.29)"/>
   </g>
   <g id="svg_126" transform="matrix(2.35047 0 0 2.51862 288.032 526.997)">
    <path d="m68.63,198.34c-0.7,0 -1.43,-0.08 -2.23,-0.25c-1.52,-0.31 -3.07,-0.8 -4.62,-1.45c-6.52,-2.74 -22.04,-9.37 -25.2,-11.6c-2.05,-1.45 -3.8,-2.88 -4.31,-5.8c-0.55,-3.13 0.45,-7.64 3.13,-14.19c0.77,-1.87 1.66,-4.09 2.69,-6.65c6.54,-16.29 17.5,-43.56 24.01,-50.08c4.27,-4.27 12.66,-3.72 18.94,-2.49c7.39,1.44 14.89,4.34 19.06,6.59c3.06,1.65 4.94,3.66 5.58,5.98c0.69,2.47 -0.3,4.41 -0.47,4.73l-30.06,71.5l0,0c-0.53,1.25 -1.62,2.26 -3.26,3c-1.04,0.47 -2.1,0.7 -3.27,0.7l0.01,0l0,0.01zm4.11,-92.11c-3.83,0 -7.47,0.75 -9.74,3.01c-6.33,6.33 -17.22,33.45 -23.73,49.65c-1.03,2.57 -1.92,4.78 -2.69,6.66c-2.59,6.32 -3.56,10.6 -3.05,13.48c0.43,2.44 1.9,3.65 3.78,4.97c3.15,2.22 19.9,9.34 24.96,11.46c1.47,0.62 2.95,1.08 4.38,1.38c1.88,0.38 3.28,0.27 4.71,-0.37c1.33,-0.6 2.21,-1.39 2.61,-2.33l30.08,-71.53c0,0 0.02,-0.05 0.04,-0.08c0,-0.01 0.96,-1.69 0.36,-3.81c-0.55,-1.96 -2.22,-3.7 -4.95,-5.17c-4.08,-2.2 -11.44,-5.05 -18.7,-6.46c-2.49,-0.48 -5.32,-0.87 -8.06,-0.87l0,0l0,0.01zm1.82,88.16l0,0z" fill="rgb(46,67,79)" fill-rule="nonzero" id="svg_127" stroke-dashoffset="0" stroke-miterlimit="4" stroke-width="0" transform=" translate(-69.02, -151.64)"/>
   </g>
   <g id="svg_128" transform="matrix(2.35047 0 0 2.51862 273.6 559.538)">
    <path d="m82.76,159.19c0,0 -10.73,27.04 -13.74,28.93c-1.11,0.7 -3.51,0.3 -6.42,-0.64c-4.93,-1.58 -11.32,-4.71 -15.33,-6.58c-6.38,-2.97 -7.98,-5.73 -6.6,-10.98c1.38,-5.26 5.33,-13.01 5.33,-13.01c3.22,-5.95 10.51,-1.06 15.35,-1.06c4.84,0 8.26,-13.89 11.88,-14.98c3.59,-1.08 11.12,2.53 12.17,6.81c0,0.03 0.02,0.06 0.02,0.09c0.82,3.72 -2.66,11.42 -2.66,11.42l0,0z" fill="rgb(0,116,120)" fill-rule="nonzero" id="svg_129" stroke-dashoffset="0" stroke-miterlimit="4" stroke-width="0" transform=" translate(-62.88, -164.58)"/>
   </g>
   <g id="svg_130" transform="matrix(2.35047 0 0 2.51862 288.032 526.947)">
    <path d="m68.63,198.88c-0.73,0 -1.49,-0.08 -2.34,-0.26c-1.55,-0.32 -3.14,-0.82 -4.72,-1.48c-6.54,-2.75 -22.1,-9.4 -25.3,-11.65c-2.08,-1.46 -3.98,-3.03 -4.53,-6.15c-0.56,-3.23 0.44,-7.84 3.16,-14.48c0.76,-1.86 1.64,-4.06 2.66,-6.6l0.02,-0.06c6.56,-16.34 17.54,-43.66 24.13,-50.26c4.44,-4.44 13.02,-3.89 19.43,-2.64c7.44,1.45 15.01,4.38 19.21,6.64c3.2,1.72 5.16,3.85 5.85,6.31c0.72,2.6 -0.26,4.66 -0.51,5.11l-30.05,71.47c-0.58,1.38 -1.77,2.49 -3.54,3.29c-1.12,0.51 -2.26,0.75 -3.49,0.75l0.02,0l0,0.01zm4.14,-93.39c-4.01,0 -7.86,0.8 -10.28,3.22c-6.44,6.44 -17.36,33.64 -23.89,49.89l-0.03,0.06c-1.02,2.54 -1.9,4.74 -2.67,6.6c-2.64,6.45 -3.63,10.87 -3.1,13.89c0.47,2.72 2.06,4.02 4.08,5.45c3.12,2.2 18.59,8.8 25.1,11.54c1.52,0.64 3.04,1.12 4.52,1.42c2.05,0.42 3.57,0.3 5.16,-0.42c1.42,-0.64 2.39,-1.49 2.89,-2.52l0,-0.49l-0.09,0.22c-0.45,1.08 -1.42,1.96 -2.88,2.62c-1.54,0.7 -3.04,0.82 -5.04,0.41c-1.47,-0.3 -2.98,-0.77 -4.48,-1.41c-5.07,-2.13 -21.87,-9.27 -25.06,-11.52c-1.92,-1.35 -3.54,-2.69 -4,-5.32c-0.52,-2.98 0.46,-7.36 3.09,-13.78c0.77,-1.88 1.66,-4.09 2.69,-6.66c6.52,-16.24 17.44,-43.42 23.85,-49.83c2.1,-2.1 5.51,-3.17 10.12,-3.17c2.43,0 5.17,0.29 8.16,0.88c7.31,1.42 14.73,4.29 18.85,6.51c2.87,1.54 4.62,3.4 5.22,5.5c0.64,2.25 -0.3,4.02 -0.41,4.22l-30,71.33l0,0.49c0.03,-0.06 0.06,-0.13 0.09,-0.2l30.09,-71.55c0.11,-0.2 1.06,-2.03 0.43,-4.33c-0.6,-2.17 -2.39,-4.07 -5.32,-5.65c-4.13,-2.22 -11.57,-5.11 -18.91,-6.53c-2.52,-0.49 -5.39,-0.87 -8.17,-0.87l0,0l-0.01,0zm-0.03,1.28c-4.31,0 -7.46,0.96 -9.35,2.85c-6.25,6.25 -17.12,33.3 -23.61,49.46c-1.03,2.57 -1.92,4.79 -2.69,6.67c-2.55,6.22 -3.51,10.41 -3.02,13.18c0.39,2.24 1.72,3.33 3.56,4.62c3.1,2.19 19.81,9.29 24.86,11.41c1.44,0.61 2.88,1.06 4.28,1.35c1.75,0.36 3.06,0.26 4.38,-0.33c1.2,-0.54 1.99,-1.23 2.33,-2.05l30.08,-71.53c0.02,-0.05 0.05,-0.1 0.07,-0.14c0.03,-0.05 0.83,-1.52 0.3,-3.38c-0.51,-1.81 -2.09,-3.45 -4.69,-4.85c-4.04,-2.18 -11.34,-5 -18.54,-6.4c-2.92,-0.57 -5.6,-0.86 -7.96,-0.86z" fill="rgb(46,67,79)" fill-rule="nonzero" id="svg_131" stroke-dashoffset="0" stroke-miterlimit="4" stroke-width="0" transform=" translate(-69.02, -151.65)"/>
   </g>
   <g id="svg_132" transform="matrix(2.35047 0 0 2.51862 274.07 559.563)">
    <path d="m67.42,189.64c-4,0 -11.22,-3.24 -18.89,-6.85l-0.17,-0.08c-0.56,-0.26 -1.09,-0.51 -1.59,-0.74c-6.81,-3.17 -8.77,-6.52 -7.24,-12.35c1.39,-5.31 5.25,-12.93 5.42,-13.25c2.7,-5 7.75,-3.65 11.82,-2.57c1.69,0.45 3.28,0.87 4.59,0.87c1.98,0 4.21,-4.27 6.01,-7.69c1.86,-3.55 3.46,-6.61 5.53,-7.24c2.18,-0.66 5.54,0.07 8.57,1.84c2.77,1.63 4.64,3.79 5.12,5.94c0.88,3.96 -2.36,11.32 -2.73,12.15c-0.28,0.69 -2.85,7.15 -5.74,13.76c-6.26,14.32 -7.85,15.32 -8.45,15.7c-0.57,0.35 -1.3,0.53 -2.23,0.53l-0.02,-0.02l0,0zm-16.39,-35.79c-2.05,0 -3.87,0.71 -5.11,3.01c-0.16,0.32 -3.98,7.84 -5.34,13.04c-1.4,5.33 0.28,8.13 6.65,11.1c0.5,0.23 1.03,0.48 1.59,0.75l0.17,0.08c7.25,3.41 14.65,6.74 18.42,6.74c0.72,0 1.28,-0.12 1.66,-0.36c1.57,-0.99 5.24,-8.82 8.03,-15.21c2.88,-6.59 5.45,-13.03 5.74,-13.75c0.15,-0.34 3.49,-7.81 2.67,-11.49c-0.41,-1.86 -2.09,-3.77 -4.61,-5.24c-2.78,-1.63 -5.8,-2.31 -7.71,-1.73c-1.64,0.49 -3.22,3.51 -4.89,6.7c-2.13,4.07 -4.33,8.28 -6.97,8.28c-1.45,0 -3.11,-0.44 -4.86,-0.9c-1.86,-0.49 -3.75,-0.99 -5.47,-0.99l0.03,-0.03l0,0zm16.4,34.52c-1.52,0 -3.82,-0.57 -6.9,-1.72c-3.82,-1.42 -8.05,-3.41 -11.46,-5.01c-0.62,-0.29 -1.21,-0.57 -1.76,-0.83c-6.26,-2.92 -7.91,-5.66 -6.54,-10.87c1.35,-5.14 5.16,-12.67 5.32,-12.99l0,0c2.21,-4.09 6.34,-2.99 10.34,-1.93c1.77,0.47 3.44,0.91 4.92,0.91c2.76,0 4.99,-4.26 7.14,-8.38c1.65,-3.15 3.21,-6.13 4.77,-6.6c1.85,-0.56 4.82,0.12 7.55,1.72c2.47,1.45 4.11,3.31 4.51,5.12c0.81,3.65 -2.52,11.04 -2.66,11.36c-0.11,0.27 -10.75,27.04 -13.7,28.88c-0.36,0.22 -0.87,0.34 -1.54,0.34l0.01,0zm-20.38,-30.92c-0.13,0.26 -3.93,7.8 -5.23,12.76c-1.22,4.67 0.17,6.92 5.95,9.61c0.55,0.26 1.14,0.53 1.77,0.83c3.38,1.59 7.59,3.57 11.37,4.98c5.88,2.19 7.27,1.61 7.49,1.48c1.65,-1.04 8.17,-15.53 13.27,-28.36l0.02,-0.05c0.93,-2.04 3.19,-7.94 2.59,-10.68c-0.34,-1.51 -1.8,-3.12 -4,-4.42c-2.41,-1.41 -5.16,-2.07 -6.69,-1.61c-1.12,0.34 -2.79,3.51 -4.12,6.07c-2.3,4.41 -4.69,8.96 -8.1,8.96c-1.62,0 -3.35,-0.46 -5.19,-0.95c-3.93,-1.04 -7.31,-1.94 -9.12,1.38l0,0l-0.01,0z" fill="rgb(46,67,79)" fill-rule="nonzero" id="svg_133" stroke-dashoffset="0" stroke-miterlimit="4" stroke-width="0" transform=" translate(-62.89, -164.58)"/>
   </g>
   <g id="svg_134" transform="matrix(2.35047 0 0 2.51862 273.647 559.488)">
    <path d="m67.42,189.1c-3.84,0 -11,-3.2 -18.66,-6.8c-0.62,-0.29 -1.21,-0.57 -1.76,-0.82c-6.59,-3.07 -8.41,-6.14 -6.95,-11.73c1.38,-5.26 5.21,-12.82 5.38,-13.14l0,0c2.48,-4.6 7.11,-3.38 11.19,-2.29c1.72,0.46 3.34,0.89 4.73,0.89c2.31,0 4.53,-4.24 6.49,-7.99c1.8,-3.44 3.35,-6.41 5.21,-6.97c2.04,-0.61 5.24,0.09 8.14,1.79c2.64,1.55 4.42,3.59 4.86,5.59c0.85,3.84 -2.48,11.32 -2.7,11.81c-0.14,0.35 -2.78,6.99 -5.74,13.76c-6.2,14.17 -7.74,15.14 -8.24,15.46c-0.49,0.3 -1.14,0.44 -1.95,0.44zm-20.85,-31.9c-0.14,0.27 -3.95,7.82 -5.28,12.88c-1.3,4.95 0.22,7.43 6.25,10.24c0.55,0.25 1.14,0.53 1.76,0.83c3.39,1.6 7.62,3.58 11.41,5c5.59,2.08 7.39,1.79 7.96,1.43c2.06,-1.29 9.36,-18.24 13.48,-28.62c0,0 0,-0.02 0.01,-0.03c0.03,-0.08 3.39,-7.55 2.62,-11.02c-0.37,-1.66 -1.92,-3.4 -4.26,-4.77c-2.57,-1.5 -5.43,-2.17 -7.12,-1.66c-1.34,0.4 -2.92,3.42 -4.44,6.33c-2.23,4.26 -4.54,8.67 -7.62,8.67c-1.55,0 -3.25,-0.45 -5.05,-0.93c-3.97,-1.06 -7.73,-2.05 -9.73,1.65l0,0l0.01,0z" fill="rgb(46,67,79)" fill-rule="nonzero" id="svg_135" stroke-dashoffset="0" stroke-miterlimit="4" stroke-width="0" transform=" translate(-62.88, -164.57)"/>
   </g>
   <g id="svg_136" transform="matrix(2.35047 0 0 2.51862 274.869 467.86)">
    <path d="m57.57,145.45c-0.48,0 -1,-0.05 -1.55,-0.16c-2.3,-0.45 -3.67,-1.24 -4.31,-2.49c-0.72,-1.4 -0.47,-3.27 0.81,-6.08c6.34,-13.92 10.7,-21.9 12.96,-23.71c2.56,-2.05 6.88,-2.73 8.89,-1.4c1.06,0.7 1.43,1.85 1.04,3.26c0,0.02 0,0.03 -0.02,0.05c-3.15,8.68 -8.42,19.18 -12.67,27.36c-0.17,0.39 -1.53,3.16 -5.14,3.17l-0.01,0zm14.03,-33.25c-1.74,0 -3.91,0.68 -5.33,1.82c-1.18,0.95 -4.4,5.23 -12.6,23.24c-1.09,2.39 -1.35,3.96 -0.83,4.97c0.44,0.86 1.56,1.46 3.42,1.82c4.02,0.78 5.23,-2.14 5.28,-2.26c0,-0.02 0.02,-0.04 0.03,-0.06c4.23,-8.14 9.48,-18.59 12.61,-27.2c0.23,-0.85 0.06,-1.45 -0.52,-1.83c-0.5,-0.33 -1.23,-0.48 -2.06,-0.48c0,0 0,-0.02 0,-0.02zm3.19,2.5l0,0z" fill="rgb(46,67,79)" fill-rule="nonzero" id="svg_137" stroke-dashoffset="0" stroke-miterlimit="4" stroke-width="0" transform=" translate(-63.44, -128.19)"/>
   </g>
   <g id="svg_138" transform="matrix(2.35047 0 0 2.51862 274.846 467.911)">
    <path d="m57.57,145.99l0,0c-0.53,0 -1.09,-0.06 -1.66,-0.17c-2.47,-0.48 -3.96,-1.36 -4.69,-2.77c-0.8,-1.56 -0.56,-3.58 0.8,-6.55c6.46,-14.19 10.75,-22.01 13.11,-23.9c2.77,-2.21 7.31,-2.89 9.53,-1.43c1.25,0.82 1.71,2.23 1.26,3.86l-0.03,0.09c-3.16,8.72 -8.45,19.23 -12.7,27.42c-0.14,0.33 -1.64,3.46 -5.62,3.46l0,0l0,-0.01zm14.03,-34.52c-1.91,0 -4.23,0.72 -5.79,1.97c-1.51,1.21 -4.96,6.27 -12.81,23.51c-1.2,2.64 -1.46,4.37 -0.82,5.61c0.56,1.09 1.81,1.79 3.94,2.21c0.5,0.1 0.99,0.15 1.45,0.15c3.3,0 4.52,-2.55 4.65,-2.84c4.21,-8.11 9.42,-18.47 12.57,-27.08l0,-0.76c-0.02,0.13 -0.05,0.28 -0.09,0.43c-3.15,8.69 -8.41,19.16 -12.65,27.31c-0.06,0.15 -1.44,3.47 -5.89,2.61c-2.03,-0.39 -3.27,-1.08 -3.8,-2.1c-0.61,-1.18 -0.35,-2.85 0.82,-5.44c7.83,-17.21 11.26,-22.24 12.75,-23.43c1.45,-1.16 3.73,-1.94 5.67,-1.94c0.97,0 1.79,0.2 2.36,0.57c0.48,0.31 0.98,0.91 0.83,1.98l0,0.78c0.03,-0.08 0.06,-0.17 0.09,-0.25c0.23,-0.83 0.27,-1.96 -0.81,-2.67c-0.61,-0.4 -1.49,-0.59 -2.47,-0.59l0,-0.03zm0,1.27c-1.72,0 -3.72,0.68 -4.99,1.7c-0.92,0.74 -3.98,4.46 -12.44,23.04c-1,2.19 -1.27,3.66 -0.85,4.49c0.36,0.7 1.38,1.21 3.04,1.54c3.58,0.7 4.63,-1.82 4.68,-1.93c0.02,-0.04 0.03,-0.08 0.05,-0.11c4.22,-8.13 9.47,-18.55 12.58,-27.14c0.2,-0.74 -0.04,-1.02 -0.31,-1.19c-0.39,-0.26 -1.01,-0.4 -1.76,-0.4z" fill="rgb(46,67,79)" fill-rule="nonzero" id="svg_139" stroke-dashoffset="0" stroke-miterlimit="4" stroke-width="0" transform=" translate(-63.43, -128.2)"/>
   </g>
   <g id="svg_140" transform="matrix(2.35047 0 0 2.51862 378.948 569.235)">
    <polygon fill="rgb(241,104,88)" fill-rule="nonzero" id="svg_141" points="-8.03,-11.61 -8.03,11.61 -0.16,3.41 8.03,11.61 8.03,-11.61 -8.03,-11.61 " stroke-dashoffset="0" stroke-miterlimit="4" stroke-width="0"/>
   </g>
   <g id="svg_142" transform="matrix(2.35047 0 0 2.51862 378.925 569.285)">
    <path d="m99.67,181.42c-0.17,0 -0.35,-0.03 -0.52,-0.1c-0.52,-0.21 -0.87,-0.72 -0.87,-1.28l0,-23.22c0,-0.76 0.62,-1.38 1.38,-1.38l16.07,0c0.76,0 1.38,0.62 1.38,1.38l0,23.22c0,0.56 -0.34,1.06 -0.85,1.28c-0.51,0.22 -1.11,0.1 -1.51,-0.3l-7.2,-7.2l-6.89,7.18c-0.27,0.28 -0.63,0.43 -1,0.43l0.01,0l0,-0.01zm7.87,-10.97c0.37,0 0.72,0.15 0.98,0.41l5.84,5.84l0,-18.5l-13.3,0l0,18.4l5.49,-5.72c0.26,-0.27 0.61,-0.42 0.98,-0.43c0,0 0.01,0 0,0l0,0l0.01,0z" fill="rgb(46,67,79)" fill-rule="nonzero" id="svg_143" stroke-dashoffset="0" stroke-miterlimit="4" stroke-width="0" transform=" translate(-107.69, -168.44)"/>
   </g>
   <g id="svg_144" transform="matrix(2.35047 0 0 2.51862 378.948 501.106)">
    <path d="m124.36,129.29c1.25,1.73 0.79,4.3 1.42,6.23c0.65,2 2.51,3.82 2.51,5.87c0,2.05 -1.88,3.9 -2.52,5.87c-0.63,1.95 -0.18,4.53 -1.42,6.23c-1.19,1.64 -3.76,2.01 -5.49,3.27c-1.73,1.25 -2.88,3.58 -4.81,4.21c-2,0.65 -4.31,-0.58 -6.36,-0.58c-2.05,0 -4.39,1.21 -6.36,0.57c-1.95,-0.63 -3.11,-2.97 -4.81,-4.2c-1.64,-1.19 -4.23,-1.55 -5.48,-3.28c-1.25,-1.73 -0.79,-4.3 -1.42,-6.23c-0.65,-2 -2.51,-3.82 -2.51,-5.87c0,-2.05 1.88,-3.9 2.52,-5.87c0.63,-1.95 0.18,-4.53 1.42,-6.23c1.19,-1.64 3.76,-2.01 5.49,-3.27c1.73,-1.25 2.88,-3.58 4.81,-4.21c2,-0.65 4.31,0.58 6.36,0.58c2.05,0 4.39,-1.21 6.36,-0.57c1.95,0.63 3.11,2.97 4.81,4.2c1.64,1.19 4.23,1.55 5.48,3.28l0,0z" fill="rgb(255,255,255)" fill-rule="nonzero" id="svg_145" stroke-dashoffset="0" stroke-miterlimit="4" stroke-width="0" transform=" translate(-107.7, -141.39)"/>
   </g>
   <g id="svg_146" transform="matrix(2.35047 0 0 2.51862 378.948 501.131)">
    <circle cx="0" cy="0" fill="rgb(241,104,88)" fill-rule="nonzero" id="svg_147" r="9.5" stroke-dashoffset="0" stroke-miterlimit="4" stroke-width="0"/>
   </g>
   <g id="svg_148" transform="matrix(2.35047 0 0 2.51862 378.948 501.131)">
    <path d="m107.7,152.26c-6,0 -10.88,-4.88 -10.88,-10.88c0,-6 4.88,-10.88 10.88,-10.88c6,0 10.88,4.88 10.88,10.88c0,6 -4.88,10.88 -10.88,10.88zm0,-18.99c-4.47,0 -8.11,3.64 -8.11,8.11c0,4.47 3.64,8.12 8.11,8.12c4.47,0 8.11,-3.64 8.11,-8.12c0,-4.48 -3.64,-8.11 -8.11,-8.11z" fill="rgb(46,67,79)" fill-rule="nonzero" id="svg_149" stroke-dashoffset="0" stroke-miterlimit="4" stroke-width="0" transform=" translate(-107.7, -141.38)"/>
   </g>
   <g id="svg_150" transform="matrix(2.35047 0 0 2.51862 378.925 501.131)">
    <path d="m112.77,162.54c-1,0 -1.98,-0.22 -2.88,-0.42c-0.8,-0.18 -1.53,-0.46 -2.21,-0.35c-0.67,0 -1.43,0.17 -2.23,0.35c-1.41,0.31 -3,0.66 -4.55,0.16c-1.54,-0.5 -2.61,-1.71 -3.56,-2.79c-0.55,-0.62 -1.08,-1.21 -1.63,-1.61c-0.51,-0.37 -1.21,-0.68 -1.95,-0.99c-1.33,-0.58 -2.85,-1.23 -3.84,-2.59c-0.99,-1.36 -1.14,-3.01 -1.27,-4.45c-0.07,-0.8 -0.14,-1.55 -0.34,-2.16c-0.21,-0.65 -0.61,-1.33 -1.03,-2.05c-0.73,-1.24 -1.55,-2.64 -1.55,-4.26c0,-1.62 0.83,-3.04 1.56,-4.28c0.42,-0.71 0.82,-1.38 1.02,-2.02c0.2,-0.62 0.28,-1.39 0.35,-2.2c0.14,-1.44 0.29,-3.07 1.26,-4.41c0.94,-1.28 2.41,-1.93 3.71,-2.5c0.78,-0.34 1.51,-0.66 2.08,-1.08c0.57,-0.41 1.1,-1.01 1.67,-1.65c0.94,-1.06 2.02,-2.27 3.53,-2.76c1.57,-0.51 3.17,-0.15 4.58,0.17c0.8,0.18 1.55,0.35 2.2,0.35l0,0c0.67,0 1.43,-0.17 2.23,-0.35c1.4,-0.31 2.99,-0.66 4.55,-0.16c1.54,0.5 2.62,1.71 3.57,2.79c0.55,0.62 1.08,1.21 1.63,1.61c0.52,0.38 1.21,0.68 1.95,1c1.33,0.58 2.85,1.23 3.83,2.59l0,0c0.99,1.36 1.14,3 1.28,4.45c0.07,0.8 0.14,1.55 0.34,2.16c0.21,0.65 0.61,1.33 1.03,2.05c0.73,1.24 1.55,2.64 1.54,4.26c0,1.63 -0.83,3.04 -1.56,4.27c-0.42,0.71 -0.82,1.38 -1.02,2.02c-0.2,0.62 -0.27,1.39 -0.35,2.2c-0.14,1.44 -0.29,3.07 -1.26,4.41c-0.93,1.28 -2.41,1.93 -3.71,2.5c-0.78,0.34 -1.51,0.66 -2.08,1.07c-0.57,0.41 -1.1,1.01 -1.67,1.65c-0.94,1.06 -2.02,2.27 -3.53,2.76c-0.57,0.19 -1.14,0.26 -1.71,0.26l0.02,0zm-5.09,-3.54l0.01,0c0.96,0 1.9,0.21 2.81,0.42c1.17,0.26 2.27,0.51 3.13,0.23c0.8,-0.26 1.53,-1.09 2.31,-1.96c0.64,-0.72 1.3,-1.46 2.11,-2.05c0.81,-0.59 1.72,-0.99 2.6,-1.37c1.08,-0.47 2.09,-0.91 2.59,-1.59c0.53,-0.72 0.63,-1.85 0.75,-3.04c0.09,-0.93 0.18,-1.88 0.47,-2.8c0.3,-0.93 0.79,-1.76 1.27,-2.57c0.61,-1.03 1.18,-2 1.18,-2.87c0,-0.87 -0.56,-1.83 -1.16,-2.86c-0.48,-0.81 -0.97,-1.65 -1.27,-2.59c-0.29,-0.9 -0.38,-1.84 -0.46,-2.76c-0.11,-1.2 -0.22,-2.34 -0.76,-3.08l0,0c-0.54,-0.75 -1.59,-1.2 -2.69,-1.68c-0.84,-0.37 -1.72,-0.74 -2.48,-1.3c-0.79,-0.58 -1.44,-1.31 -2.07,-2.02c-0.79,-0.89 -1.53,-1.73 -2.35,-1.99c-0.84,-0.27 -1.93,-0.03 -3.1,0.23c-0.91,0.2 -1.86,0.41 -2.83,0.41c-0.94,0.07 -1.91,-0.21 -2.82,-0.42c-1.17,-0.26 -2.27,-0.51 -3.12,-0.24c-0.8,0.26 -1.53,1.09 -2.32,1.97c-0.64,0.71 -1.29,1.45 -2.11,2.05c-0.81,0.59 -1.72,0.99 -2.6,1.37c-1.08,0.47 -2.09,0.91 -2.58,1.59c-0.53,0.72 -0.63,1.85 -0.75,3.04c-0.09,0.93 -0.18,1.88 -0.47,2.8c-0.3,0.93 -0.79,1.76 -1.27,2.57c-0.61,1.03 -1.18,2 -1.18,2.87c0,0.87 0.57,1.83 1.17,2.85c0.48,0.81 0.97,1.66 1.27,2.59c0.29,0.9 0.38,1.84 0.46,2.76c0.11,1.2 0.22,2.34 0.76,3.09c0.54,0.75 1.59,1.2 2.7,1.68c0.84,0.36 1.72,0.74 2.48,1.3c0.79,0.58 1.44,1.31 2.07,2.02c0.79,0.89 1.53,1.72 2.35,1.99c0.83,0.27 1.93,0.03 3.1,-0.23c0.91,-0.2 1.86,-0.41 2.83,-0.41l-0.03,0l0,0z" fill="rgb(46,67,79)" fill-rule="nonzero" id="svg_151" stroke-dashoffset="0" stroke-miterlimit="4" stroke-width="0" transform=" translate(-107.69, -141.38)"/>
   </g>
   <g id="svg_152" transform="matrix(0.775654 -2.39269 2.23294 0.831144 368.677 537.047)">
    <rect fill="rgb(46,67,79)" fill-rule="nonzero" height="1.99" id="svg_153" stroke-dashoffset="0" stroke-miterlimit="4" stroke-width="0" width="9.17" x="-4.58" y="-0.99"/>
   </g>
   <g id="svg_154" transform="matrix(1.95089 -1.38524 1.29276 2.09045 350.743 523.22)">
    <rect fill="rgb(46,67,79)" fill-rule="nonzero" height="1.99" id="svg_155" stroke-dashoffset="0" stroke-miterlimit="4" stroke-width="0" width="9.17" x="-4.58" y="-0.99"/>
   </g>
   <g id="svg_156" transform="matrix(2.35047 0 0 2.51862 343.715 499.796)">
    <rect fill="rgb(46,67,79)" fill-rule="nonzero" height="1.99" id="svg_157" stroke-dashoffset="0" stroke-miterlimit="4" stroke-width="0" width="9.17" x="-4.58" y="-0.99"/>
   </g>
   <g id="svg_158" transform="matrix(1.55131 -1.88896 1.76285 1.66229 351.119 477.204)">
    <rect fill="rgb(46,67,79)" fill-rule="nonzero" height="9.17" id="svg_159" stroke-dashoffset="0" stroke-miterlimit="4" stroke-width="0" width="1.99" x="-0.99" y="-4.58"/>
   </g>
   <g id="svg_160" transform="matrix(2.23294 -0.780771 0.728644 2.39269 369.076 465.367)">
    <rect fill="rgb(46,67,79)" fill-rule="nonzero" height="9.17" id="svg_161" stroke-dashoffset="0" stroke-miterlimit="4" stroke-width="0" width="1.99" x="-0.99" y="-4.58"/>
   </g>
   <g id="svg_162" transform="matrix(2.23294 -0.831144 0.775654 2.39269 389.572 537.097)">
    <rect fill="rgb(46,67,79)" fill-rule="nonzero" height="9.17" id="svg_163" stroke-dashoffset="0" stroke-miterlimit="4" stroke-width="0" width="1.99" x="-0.99" y="-4.58"/>
   </g>
   <g id="svg_164" transform="matrix(1.29276 -2.09045 1.95089 1.38524 407.6 523.169)">
    <rect fill="rgb(46,67,79)" fill-rule="nonzero" height="9.17" id="svg_165" stroke-dashoffset="0" stroke-miterlimit="4" stroke-width="0" width="1.99" x="-0.99" y="-4.58"/>
   </g>
   <g id="svg_166" transform="matrix(2.35047 0 0 2.51862 414.417 499.796)">
    <rect fill="rgb(46,67,79)" fill-rule="nonzero" height="1.99" id="svg_167" stroke-dashoffset="0" stroke-miterlimit="4" stroke-width="0" width="9.17" x="-4.58" y="-0.99"/>
   </g>
   <g id="svg_168" transform="matrix(1.76285 -1.66229 1.55131 1.88896 407.107 477.204)">
    <rect fill="rgb(46,67,79)" fill-rule="nonzero" height="1.99" id="svg_169" stroke-dashoffset="0" stroke-miterlimit="4" stroke-width="0" width="9.17" x="-4.58" y="-0.99"/>
   </g>
   <g id="svg_170" transform="matrix(0.728644 -2.39269 2.23294 0.780771 389.102 465.392)">
    <rect fill="rgb(46,67,79)" fill-rule="nonzero" height="1.99" id="svg_171" stroke-dashoffset="0" stroke-miterlimit="4" stroke-width="0" width="9.17" x="-4.58" y="-0.99"/>
   </g>
  </g>
 </g>
</svg>