<?xml version="1.0" encoding="UTF-8"?>
<svg id="Layer_1" data-name="Layer 1" xmlns="http://www.w3.org/2000/svg" version="1.1" viewBox="0 0 360.88 283.46">
  <defs>
    <style>
      .cls-1 {
        stroke: #fff;
        stroke-width: 5.67px;
      }

      .cls-1, .cls-2 {
        stroke-miterlimit: 10;
      }

      .cls-1, .cls-3 {
        fill: #fff;
      }

      .cls-4 {
        fill: #2e434f;
      }

      .cls-4, .cls-5, .cls-6, .cls-3 {
        stroke-width: 0px;
      }

      .cls-2 {
        fill: #2e434f;
        stroke: #2e434f;
      }

      .cls-5 {
        fill: #f16858;
      }

      .cls-6 {
        fill: #ff7f19;
      }
    </style>
  </defs>
  <path class="cls-1" d="M183.52,141.75v-17.42c0-5.41.01-10.82-.01-16.22,0-.83-.1-1.67-.29-2.48-.87-3.82-3.2-6.54-6.53-8.47-6.23-3.6-12.46-7.19-18.69-10.8-9.7-5.61-19.39-11.24-29.1-16.85-3.26-1.88-6.54-3.74-9.82-5.58-.48-.27-1-.47-1.53-.65-2.86-.94-5.69-.68-8.41.49-1.75.75-3.45,1.66-5.1,2.62-17.18,9.89-34.35,19.79-51.52,29.71-1.34.77-2.7,1.53-3.91,2.47-3.14,2.46-4.89,5.7-4.9,9.74-.03,8.65-.02,17.3-.02,25.95,0,13.69,0,27.38.02,41.06,0,.8.1,1.61.27,2.39.87,3.82,3.17,6.56,6.5,8.49,4.59,2.67,9.2,5.31,13.79,7.97,13.89,8.05,27.78,16.11,41.69,24.13,1.17.68,2.41,1.27,3.69,1.7,3.23,1.09,6.43,1.05,9.5-.65,1.7-.94,3.44-1.82,5.12-2.79,16.99-9.79,33.97-19.59,50.94-29.4,1.15-.66,2.31-1.33,3.35-2.14,3.11-2.43,4.91-5.63,4.93-9.63.04-11.22.02-22.43.02-33.65Z"/>
  <g>
    <path class="cls-5" d="M108.32,138.77l7.01,5.91s2.67.27,3.37-.94.29-4.46.29-4.46l-8.09-5.88-2.2.77-.38,4.6Z"/>
    <path class="cls-6" d="M61.73,103.93s6.72-5.59,8.52-4.41c1.8,1.18,40.68,28.13,40.68,28.13,0,0,3.29,3.7-.02,5.75-3.31,2.05-6.41,5.87-6.41,5.87l-13.82-10.58-9.06,3.43h-3.57l-1.86-3.21-.26-2.24,4.03-3.16-18.9-15.06s-.84-3.34.67-4.53Z"/>
    <path class="cls-2" d="M117.96,144.68c-.77.38-1.38.81-2.06,1-.99.27-1.93-.06-2.69-.74-1.96-1.75-3.89-3.53-5.83-5.29-.1-.09-.19-.21-.29-.32-2.1.99-4.16,1.09-6.15-.3-.52-.37-1.01-.77-1.52-1.15-2.72-2.03-5.48-4.02-8.16-6.11-.98-.77-1.98-.76-3.06-.63-2.14.27-4.08,1.09-5.96,2.09-.27.14-.55.26-.81.42-1.55.95-2.83.6-4.11-.55-.84-.76-1.67-1.54-2.48-2.34-1.58-1.55-1.62-3.12-.14-4.79,1.11-1.26,2.2-2.53,3.34-3.85-1.64-1.18-3.28-2.36-4.93-3.54-3.91-2.8-7.84-5.58-11.74-8.4-2.92-2.11-3.4-5.4-1.08-8.17,1.54-1.85,3.25-3.6,5.64-4.37,2.74-.89,5.27-.28,7.57,1.32,9.62,6.71,19.22,13.44,28.81,20.18,2.78,1.95,5.56,3.92,8.26,5.98,1.64,1.25,2.65,2.97,2.54,5.11-.04.87-.35,1.73-.56,2.69,1.55,1.47,3.22,3.04,4.86,4.63.56.54,1.1,1.11,1.57,1.73.74.99.95,2.09.41,3.25-.16.35-.09.56.21.83,2.52,2.33,5.02,4.68,7.52,7.03,2.15,2.02,4.29,4.04,6.56,6.01-.33-1.21-.66-2.43-.99-3.64-.22-.81-.46-1.63-.68-2.44-.2-.75.04-1.18.77-1.38.61-.17,1.17.12,1.35.78.6,2.24,1.17,4.49,1.75,6.74,0,.03.05.06.11.13,2.01-2.37,4.01-4.72,6-7.08.34-.41.7-.8,1.31-.62.85.26,1.12,1.14.52,1.85-1.45,1.72-2.92,3.41-4.39,5.11-.68.79-1.37,1.56-2.13,2.43,1.25.13,2.41.25,3.56.35,1.15.11,2.31.18,3.46.3.68.07,1.06.53,1.02,1.13-.04.61-.46,1.02-1.15.97-2.04-.12-4.07-.29-5.67-.41.62.7,1.49,1.7,2.38,2.68.38.42.81.79,1.2,1.21.42.46.47.99.09,1.48-.39.5-.94.42-1.41.16-.36-.2-.66-.53-.96-.82-1.16-1.14-2.32-2.29-3.53-3.48,0,2.25,0,4.37,0,6.5,0,.74-.45,1.23-1.09,1.22-.71-.01-1.17-.48-1.17-1.22,0-2.15,0-4.31,0-6.67-.49.52-.88.9-1.25,1.31-1.21,1.33-2.4,2.68-3.63,3.99-.5.54-1.21.56-1.71.12-.53-.47-.51-1.11.07-1.73,1.46-1.58,2.93-3.16,4.39-4.74.12-.13.22-.28.39-.49-1.31-.13-2.52-.24-3.74-.36-1.08-.1-2.16-.18-3.24-.3-.72-.08-1.16-.61-1.1-1.23.06-.65.53-1.02,1.32-.94,1.88.18,3.75.39,5.63.58.22.02.45,0,.8,0-4.76-4.48-9.43-8.88-14.02-13.21ZM68.4,99.52c-1.16-.08-2.3.3-3.21,1.06-1.23,1.03-2.39,2.16-3.46,3.34-.75.82-.91,1.9-.29,2.89.4.65.91,1.29,1.52,1.74,5.29,3.87,10.62,7.7,15.94,11.55,3.94,2.85,7.86,5.72,11.78,8.59,3.87,2.83,7.72,5.67,11.6,8.49,1.34.97,2.73.96,3.85-.18,1.42-1.45,2.77-2.98,3.99-4.59,1.14-1.51,1.04-3.42-.11-4.79-.52-.63-1.17-1.18-1.84-1.66-6.64-4.7-13.3-9.39-19.97-14.06-5.37-3.76-10.77-7.48-16.16-11.22-1.07-.74-2.24-1.2-3.64-1.17ZM79.96,123.52c-1.26,1.46-2.48,2.91-3.74,4.31-.37.41-.39.74-.03,1.09,1,.94,1.99,1.88,3.05,2.74.21.17.72.12,1.02,0,1.73-.72,3.42-1.51,5.15-2.23.57-.24,1.21-.32,1.9-.49-2.48-1.82-4.88-3.59-7.36-5.41ZM115.34,143.73c.67-.73,1.27-1.32,1.81-1.97.4-.49.46-.99-.09-1.48-.58-.52-1.09-1.11-1.66-1.65-1.35-1.28-2.72-2.54-4.11-3.84-.9,1.03-1.74,2-2.59,2.97,2.18,1.96,4.35,3.91,6.64,5.97Z"/>
    <path class="cls-2" d="M70.71,173.83v6.65h92.05v-6.65c-.5,0-.97,0-1.44,0-2.77,0-5.54,0-8.31,0-.9,0-1.49-.63-1.21-1.37.12-.32.55-.72.85-.73,3.76-.05,7.53-.04,11.29-.03.68,0,1.04.36,1.04,1.07.02,2.91.02,5.82,0,8.74,0,.82-.44,1.13-1.37,1.13-16.95,0-33.9,0-50.86,0-14.28,0-28.55,0-42.83,0-1.16,0-1.52-.34-1.52-1.52,0-2.68,0-5.35,0-8.03,0-1.03.38-1.41,1.4-1.41,15.58,0,31.16,0,46.74,0,.19,0,.38,0,.57.02.68.04,1.01.35,1.03.99.02.62-.38,1.08-1.01,1.13-.21.02-.43,0-.64,0h-45.78Z"/>
    <path class="cls-2" d="M155.7,151.95c-1.75,0-3.5,0-5.25,0-.88,0-1.36-.43-1.35-1.18.01-.7.49-1.08,1.36-1.08,3.5,0,7,0,10.5,0,.88,0,1.36.4,1.34,1.09-.02.79-.45,1.17-1.35,1.17-1.75,0-3.5,0-5.25,0Z"/>
    <path class="cls-2" d="M144.27,138.77c0,1.82,0,3.64,0,5.46,0,.7-.44,1.2-1.02,1.18-.67-.02-1.1-.46-1.1-1.2,0-3.67,0-7.33,0-11,0-.67.4-1.08,1.03-1.1.65-.02,1.09.41,1.09,1.11.01,1.85,0,3.69,0,5.54Z"/>
    <path class="cls-2" d="M118.46,178.63c-.37-.27-.83-.42-.92-.7-.12-.37-.08-.92.13-1.24.47-.7,1.07-1.31,1.63-1.95,1.61-1.85,3.23-3.7,4.84-5.55.49-.56,1.16-.65,1.69-.22.53.44.6.98.07,1.61-1.52,1.78-3.07,3.52-4.61,5.28-.59.68-1.15,1.38-1.77,2.03-.28.29-.66.48-1.05.75Z"/>
    <path class="cls-2" d="M155.54,139.16c-.2.4-.29.71-.48.93-1.33,1.59-2.69,3.17-4.04,4.75-.69.81-1.39,1.61-2.11,2.39-.56.6-1.23.64-1.74.16-.46-.42-.47-1.03.06-1.64,2.05-2.35,4.11-4.69,6.19-7.02.33-.37.76-.74,1.3-.43.33.19.55.55.83.85Z"/>
    <path class="cls-2" d="M150.54,178.52c-.16-.11-.5-.26-.71-.51-2.04-2.39-4.06-4.79-6.09-7.19-.45-.54-.45-1.21-.04-1.59.41-.37,1.12-.35,1.59.16,1.63,1.81,3.23,3.64,4.83,5.47.54.62,1.11,1.23,1.56,1.92.53.8-.02,1.73-1.14,1.74Z"/>
    <path class="cls-2" d="M148.6,154.85c.38.24.7.36.92.58,1.82,1.92,3.63,3.85,5.43,5.78.1.1.18.22.26.33.39.57.37,1.13-.06,1.53-.43.4-1.1.39-1.59-.09-.57-.57-1.07-1.19-1.61-1.78-1.34-1.46-2.69-2.91-4.03-4.38-.31-.34-.59-.75-.25-1.2.23-.31.6-.51.93-.77Z"/>
    <path class="cls-2" d="M138.29,144.67c.01.98-.71,1.51-1.45,1.22-.23-.09-.48-.23-.65-.41-1.65-1.78-3.3-3.56-4.93-5.36-.46-.51-.48-1.16-.11-1.53.39-.4,1.17-.41,1.66.08,1.07,1.07,2.1,2.18,3.14,3.27.6.63,1.22,1.25,1.8,1.9.25.29.42.65.54.84Z"/>
    <path class="cls-2" d="M141.99,178.52c-.14-.11-.58-.3-.72-.62-1.02-2.24-2-4.5-2.95-6.77-.24-.56.07-1.1.61-1.32.64-.26,1.21-.05,1.51.62.54,1.22,1.04,2.46,1.56,3.69.42.99.88,1.97,1.27,2.98.31.79-.16,1.42-1.27,1.42Z"/>
    <path class="cls-2" d="M127.59,178.53c-.9.01-1.37-.65-1.01-1.51.94-2.23,1.92-4.44,2.91-6.65.28-.63.97-.83,1.53-.54.57.3.74.85.45,1.5-.94,2.13-1.88,4.25-2.82,6.37-.21.48-.51.86-1.06.82Z"/>
    <path class="cls-2" d="M136.17,175.25c0,.71,0,1.42,0,2.12-.01.69-.38,1.11-.98,1.15-.72.04-1.21-.3-1.23-1.05-.03-1.48,0-2.97.05-4.45.02-.63.62-1.07,1.22-1.02.53.04.93.52.94,1.13,0,.71,0,1.42,0,2.12Z"/>
    <path class="cls-2" d="M118.71,163.77c.02.95-.66,1.68-1.58,1.69-1.01.01-1.77-.71-1.79-1.69-.01-.93.68-1.62,1.66-1.64.97-.03,1.69.66,1.71,1.64Z"/>
    <path class="cls-2" d="M110.9,159.35c0,.79-.47,1.27-1.26,1.27-.83,0-1.31-.43-1.32-1.21-.01-.77.57-1.34,1.34-1.31.72.02,1.24.55,1.24,1.25Z"/>
    <path class="cls-2" d="M105.78,166.3c0,.77-.5,1.28-1.26,1.28-.75,0-1.29-.52-1.31-1.26-.01-.69.59-1.28,1.29-1.29.77,0,1.27.49,1.27,1.27Z"/>
  </g>
  <g>
    <path class="cls-6" d="M180.75,101.58h127.94c4.69,0,8.5,3.81,8.5,8.5v59.13c0,4.69-3.81,8.5-8.5,8.5h-127.94v-76.14h0Z"/>
    <g>
      <path class="cls-4" d="M73.98,123.28l-.32-.05c.1,0,.21.02.32.05Z"/>
      <path class="cls-4" d="M78.05,119.71"/>
    </g>
    <path class="cls-4" d="M183.52,141.75v-17.42c0-5.41.01-10.82-.01-16.22,0-.83-.1-1.67-.29-2.48-.87-3.82-3.2-6.54-6.53-8.47-6.23-3.6-12.46-7.19-18.69-10.8-9.7-5.61-19.39-11.24-29.1-16.85-3.26-1.88-6.54-3.74-9.82-5.58-.48-.27-1-.47-1.53-.65-2.86-.94-5.69-.68-8.41.49-1.75.75-3.45,1.66-5.1,2.62-17.18,9.89-34.35,19.79-51.52,29.71-1.34.77-2.7,1.53-3.91,2.47-3.14,2.46-4.89,5.7-4.9,9.74-.03,8.65-.02,17.3-.02,25.95,0,13.69,0,27.38.02,41.06,0,.8.1,1.61.27,2.39.87,3.82,3.17,6.56,6.5,8.49,4.59,2.67,9.2,5.31,13.79,7.97,13.89,8.05,27.78,16.11,41.69,24.13,1.17.68,2.41,1.27,3.69,1.7,3.23,1.09,6.43,1.05,9.5-.65,1.7-.94,3.44-1.82,5.12-2.79,16.99-9.79,33.97-19.59,50.94-29.4,1.15-.66,2.31-1.33,3.35-2.14,3.11-2.43,4.91-5.63,4.93-9.63.04-11.22.02-22.43.02-33.65ZM178.85,173.47c0,3.99-1.72,7.03-5.16,9.01-16.28,9.36-32.57,18.68-48.85,28.02-2.19,1.26-4.43,2.45-6.58,3.8-3.14,1.97-6.19,1.84-9.34.02-10.94-6.31-21.9-12.58-32.84-18.88-7.49-4.31-14.97-8.64-22.45-12.98-3.5-2.03-5.26-5.07-5.26-9.15,0-4.16,0-8.32,0-12.48,0-6.34,0-12.69,0-19.04v-1.49c0-3.01,0-6.01,0-9.02,0-7.03,0-14.07-.02-21.1,0-3.23,1.14-5.9,3.58-8,.51-.44,1.09-.81,1.68-1.14,5.49-3.17,10.98-6.34,16.48-9.51,9.16-5.29,18.33-10.57,27.5-15.85,3.94-2.26,7.89-4.48,11.86-6.7,2.13-1.19,4.38-1.68,6.77-.9.72.24,1.41.61,2.08,1,5.58,3.2,11.15,6.39,16.72,9.6.01,0,.02,0,.03.02,3.73,2.14,7.46,4.29,11.19,6.44,9.18,5.29,18.34,10.58,27.5,15.9,3.07,1.78,4.8,4.48,5.11,8.02.12,1.35-.02,2.72-.02,4.07-.02,15.11-.03,30.22-.04,45.32,0,5.01.03,10.01.04,15.02Z"/>
    <g>
      <path class="cls-3" d="M201.7,133.73h-3.29v-14.54h-3.26l-4.01,14.54h-3.48l5.16-17.74h8.88v17.74Z"/>
      <path class="cls-3" d="M214.06,115.99l7.46,17.74h-3.62l-1.92-4.58h-6.29l-1.97,4.58h-3.62l7.39-17.74h2.57ZM212.79,120.58l-1.9,5.38h3.79l-1.9-5.38Z"/>
      <path class="cls-3" d="M233.72,128.54c0,3.22-2.59,5.62-5.79,5.62-3.02,0-5.74-2.33-5.74-5.42h3.43c0,1.42,1.15,2.23,2.47,2.23,1.25,0,2.3-.94,2.3-2.23,0-1.68-1.1-2.74-2.59-2.74h-1.51v-3.19h1.32c1.18,0,2.21-.79,2.18-2.09.02-1.06-.77-1.87-1.85-1.87s-1.85.74-1.9,1.85h-3.34c-.02-2.78,2.45-5.04,5.18-5.04s5.23,2.14,5.23,5.04c0,1.32-.72,2.62-1.68,3.58,1.22.77,2.26,2.42,2.26,4.27Z"/>
      <path class="cls-3" d="M246.1,115.99v3.19h-6.24v4.08h5.98v3.19h-5.98v4.08h6.24v3.19h-9.53v-17.74h9.53Z"/>
      <path class="cls-3" d="M249.66,115.99h4.18c1.7,0,3.31-.07,4.8.94,1.46.98,2.35,2.69,2.35,4.46s-.72,3.43-2.11,4.54c-1.46,1.18-3.53,1.08-5.28,1.08h-.65v6.72h-3.29v-17.74ZM256.09,123.62c.96-.31,1.61-1.15,1.61-2.18s-.72-1.85-1.7-2.11c-.72-.19-1.73-.14-2.45-.14h-.6v4.63h.6c.82,0,1.75.05,2.54-.19Z"/>
      <path class="cls-3" d="M266.98,115.99v7.1h6.48v-7.1h3.29v17.74h-3.29v-7.44h-6.48v7.44h-3.29v-17.74h3.29Z"/>
      <path class="cls-3" d="M289.11,115.99l7.46,17.74h-3.62l-1.92-4.58h-6.29l-1.97,4.58h-3.62l7.39-17.74h2.57ZM287.84,120.58l-1.9,5.38h3.79l-1.9-5.38Z"/>
      <path class="cls-3" d="M308.74,133.73h-3.29v-6.79l-4.66,6.79h-4.06l4.8-6.55c-1.2-.26-2.28-.77-3.14-1.7-.86-.96-1.46-2.57-1.46-3.86,0-1.66.79-3.31,2.06-4.37,1.34-1.13,2.93-1.22,4.61-1.25h5.14v17.74ZM305.46,124.44v-5.26h-1.82c-.91-.02-1.68.02-2.45.6-.62.46-.96,1.22-.96,1.99s.29,1.42.82,1.92c.65.62,1.75.74,2.62.74h1.8Z"/>
      <path class="cls-3" d="M197.58,162.96c-5.04,0-9.24-4.08-9.24-9.22s4.13-9.29,9.24-9.29,9.24,4.13,9.24,9.29-4.2,9.22-9.24,9.22ZM197.58,159.77c3.24,0,5.95-2.81,5.95-6.1s-2.64-6.02-5.95-6.02-5.95,2.69-5.95,6.02,2.71,6.1,5.95,6.1Z"/>
      <path class="cls-3" d="M211.93,144.79v5.42c0,1.92,1.32,2.81,2.93,2.81,1.1,0,2.35-.41,3.43-1.13v-7.1h3.29v17.74h-3.29v-7.44c-1.18.77-2.57,1.15-3.89,1.15-3.02,0-5.76-1.85-5.76-5.06v-6.38h3.29Z"/>
      <path class="cls-3" d="M239.94,162.53h-3.29v-12.91l-7.56,12.91h-3.65v-17.74h3.29v12.96l7.51-12.96h3.7v17.74Z"/>
      <path class="cls-3" d="M252.08,162.96c-5.09,0-9.19-4.25-9.19-9.31s4.15-9.19,9.1-9.19c3.55,0,7.06,2.06,8.42,5.4h-3.74c-1.1-1.34-2.88-2.21-4.66-2.21-3.24,0-5.83,2.81-5.83,6.12s2.69,6,5.86,6c1.75,0,3.26-.79,4.46-2.06h3.82c-1.34,3.22-4.8,5.26-8.23,5.26Z"/>
      <path class="cls-3" d="M260.24,147.98v-3.19h9.91v3.19h-3.31v14.54h-3.29v-14.54h-3.31Z"/>
      <path class="cls-3" d="M275.77,144.79v7.68l5.52-7.68h3.94l-6.7,8.71,6.7,9.02h-3.94l-5.52-7.78v7.78h-3.29v-17.74h3.29Z"/>
      <path class="cls-3" d="M294.66,144.79l7.46,17.74h-3.62l-1.92-4.58h-6.29l-1.97,4.58h-3.62l7.39-17.74h2.57ZM293.38,149.38l-1.9,5.38h3.79l-1.9-5.38Z"/>
    </g>
  </g>
</svg>