<?xml version="1.0"?>
<svg width="1080" height="1080" xmlns="http://www.w3.org/2000/svg" xmlns:svg="http://www.w3.org/2000/svg" version="1.1" xml:space="preserve">
 <desc>Created with Fabric.js 5.2.4</desc>

 <g class="layer">
  <title>Layer 1</title>
  <g id="svg_120" transform="matrix(0 0 0 0 0 0)">
   <g id="svg_121"/>
  </g>
  <g id="svg_122" transform="matrix(0 0 0 0 0 0)">
   <g id="svg_123"/>
  </g>
  <g id="svg_124" transform="matrix(0 0 0 0 0 0)">
   <g id="svg_125"/>
  </g>
  <g id="svg_126" transform="matrix(0 0 0 0 0 0)">
   <g id="svg_127"/>
  </g>
  <g id="svg_128" transform="matrix(0 0 0 0 0 0)">
   <g id="svg_129"/>
  </g>
  <g id="svg_130">
   <g id="31c5b4c1-d4c7-4a30-a0ef-65ce022dc997" transform="matrix(2.55321 0 0 2.51823 550.303 502.957)"/>
   <g id="svg_2" transform="matrix(2.55321 0 0 2.51823 330.523 502.957)">
    <path d="m162.85,141.72l0,-17.42c0,-5.41 0.01,-10.82 -0.01,-16.22c0,-0.83 -0.1,-1.67 -0.29,-2.48c-0.87,-3.82 -3.2,-6.54 -6.53,-8.47c-6.23,-3.6 -12.46,-7.19 -18.69,-10.8c-9.7,-5.61 -19.39,-11.24 -29.1,-16.85c-3.26,-1.88 -6.54,-3.74 -9.82,-5.58c-0.48,-0.27 -1,-0.47 -1.53,-0.65c-2.86,-0.94 -5.69,-0.68 -8.41,0.49c-1.75,0.75 -3.45,1.66 -5.1,2.62c-17.18,9.89 -34.35,19.79 -51.52,29.71c-1.34,0.77 -2.7,1.53 -3.91,2.47c-3.14,2.46 -4.89,5.7 -4.9,9.74c-0.03,8.65 -0.02,17.3 -0.02,25.95c0,13.69 0,27.38 0.02,41.06c0,0.8 0.1,1.61 0.27,2.39c0.87,3.82 3.17,6.56 6.5,8.49c4.59,2.67 9.2,5.31 13.79,7.97c13.89,8.05 27.78,16.11 41.69,24.13c1.17,0.68 2.41,1.27 3.69,1.7c3.23,1.09 6.43,1.05 9.5,-0.65c1.7,-0.94 3.44,-1.82 5.12,-2.79c16.99,-9.79 33.97,-19.59 50.94,-29.4c1.15,-0.66 2.31,-1.33 3.35,-2.14c3.11,-2.43 4.91,-5.63 4.93,-9.63c0.04,-11.22 0.02,-22.43 0.02,-33.65l0.01,0.01z" fill="rgb(255,255,255)" fill-rule="nonzero" id="svg_3" stroke="rgb(255,255,255)" stroke-dashoffset="0" stroke-miterlimit="10" stroke-width="5.67" transform=" translate(-92.94, -141.69)"/>
   </g>
   <g id="svg_4" transform="matrix(2.55321 0 0 2.51823 726.552 504.292)">
    <path d="m158.24,104.16l171.11,0c4.69,0 8.5,3.81 8.5,8.5l0,59.13c0,4.69 -3.81,8.5 -8.5,8.5l-171.11,0l0,-76.14l0,0l0,0.01z" fill="rgb(0,116,120)" fill-rule="nonzero" id="svg_5" stroke-dashoffset="0" stroke-miterlimit="4" stroke-width="0" transform=" translate(-248.05, -142.22)"/>
   </g>
   <g id="svg_6" transform="matrix(2.55321 0 0 2.51823 228.956 456.622)">
    <path d="m53.32,123.31l-0.32,-0.05c0.1,0 0.21,0.02 0.32,0.05z" fill="rgb(46,67,79)" fill-rule="nonzero" id="svg_7" stroke-dashoffset="0" stroke-miterlimit="4" stroke-width="0" transform=" translate(-53.16, -123.28)"/>
   </g>
   <g id="svg_8" transform="matrix(2.55321 0 0 2.51823 239.731 447.657)">
    <path d="m57.38,119.73" fill="rgb(46,67,79)" fill-rule="nonzero" id="svg_9" stroke-dashoffset="0" stroke-miterlimit="4" stroke-width="0" transform=" translate(-57.38, -119.73)"/>
   </g>
   <g id="svg_10" transform="matrix(2.55321 0 0 2.51823 330.523 503.083)">
    <path d="m162.85,141.77l0,-17.42c0,-5.41 0.01,-10.82 -0.01,-16.22c0,-0.83 -0.1,-1.67 -0.29,-2.48c-0.87,-3.82 -3.2,-6.54 -6.53,-8.47c-6.23,-3.6 -12.46,-7.19 -18.69,-10.8c-9.7,-5.61 -19.39,-11.24 -29.1,-16.85c-3.26,-1.89 -6.54,-3.74 -9.82,-5.58c-0.48,-0.27 -1,-0.47 -1.53,-0.65c-2.86,-0.94 -5.69,-0.68 -8.41,0.49c-1.75,0.75 -3.45,1.66 -5.1,2.62c-17.18,9.89 -34.35,19.79 -51.52,29.71c-1.34,0.77 -2.7,1.53 -3.91,2.47c-3.14,2.46 -4.89,5.7 -4.9,9.74c-0.03,8.65 -0.02,17.3 -0.02,25.95c0,13.69 0,27.38 0.02,41.06c0,0.8 0.1,1.61 0.27,2.39c0.87,3.82 3.17,6.56 6.5,8.49c4.59,2.67 9.2,5.31 13.79,7.97c13.89,8.05 27.78,16.11 41.69,24.13c1.17,0.68 2.41,1.27 3.69,1.7c3.23,1.09 6.43,1.05 9.5,-0.65c1.7,-0.94 3.44,-1.82 5.12,-2.79c16.99,-9.79 33.97,-19.59 50.94,-29.4c1.15,-0.66 2.31,-1.33 3.35,-2.14c3.11,-2.43 4.91,-5.63 4.93,-9.63c0.04,-11.22 0.02,-22.43 0.02,-33.65l0.01,0.01zm-4.67,31.72c0,3.99 -1.72,7.03 -5.16,9.01c-16.28,9.36 -32.57,18.68 -48.85,28.02c-2.19,1.26 -4.43,2.45 -6.58,3.79c-3.14,1.97 -6.19,1.84 -9.34,0.02c-10.94,-6.31 -21.9,-12.58 -32.84,-18.88c-7.49,-4.31 -14.97,-8.64 -22.45,-12.98c-3.5,-2.03 -5.26,-5.07 -5.26,-9.15c0,-4.16 0,-8.32 0,-12.48c0,-6.34 0,-12.69 0,-19.04l0,-1.49c0,-3.01 0,-6.01 0,-9.02c0,-7.03 0,-14.07 -0.02,-21.1c0,-3.23 1.14,-5.9 3.58,-8c0.51,-0.44 1.09,-0.81 1.68,-1.14c5.49,-3.17 10.98,-6.34 16.48,-9.51c9.16,-5.29 18.33,-10.57 27.5,-15.85c3.94,-2.26 7.89,-4.48 11.86,-6.7c2.13,-1.19 4.38,-1.68 6.77,-0.9c0.72,0.24 1.41,0.61 2.08,1c5.58,3.2 11.15,6.39 16.72,9.6c0.01,0 0.02,0 0.03,0.02c3.73,2.14 7.46,4.29 11.19,6.44c9.18,5.29 18.34,10.58 27.5,15.9c3.07,1.78 4.8,4.48 5.11,8.02c0.12,1.35 -0.02,2.72 -0.02,4.07c-0.02,15.11 -0.03,30.22 -0.04,45.32c0,5.01 0.03,10.01 0.04,15.02l0.02,0.01z" fill="rgb(46,67,79)" fill-rule="nonzero" id="svg_11" stroke-dashoffset="0" stroke-miterlimit="4" stroke-width="0" transform=" translate(-92.94, -141.74)"/>
   </g>
   <g id="svg_12" transform="matrix(2.55321 0 0 2.51823 537.818 467.652)">
    <path d="m177.99,121.99l-6.24,0l0,3.53l0.65,0c1.75,0 3.82,-0.1 5.28,1.08c1.39,1.1 2.11,2.78 2.11,4.54c0,1.76 -0.89,3.48 -2.35,4.46c-1.49,1.01 -3.1,0.94 -4.8,0.94l-4.18,0l0,-17.74l9.53,0l0,3.19zm-6.24,6.72l0,4.63l0.6,0c0.72,0 1.73,0.05 2.45,-0.14c0.98,-0.26 1.7,-1.03 1.7,-2.11c0,-1.08 -0.65,-1.87 -1.61,-2.18c-0.79,-0.24 -1.73,-0.19 -2.54,-0.19l-0.6,0l0,-0.01z" fill="rgb(255,255,255)" fill-rule="nonzero" id="svg_13" stroke-dashoffset="0" stroke-miterlimit="4" stroke-width="0" transform=" translate(-174.13, -127.67)"/>
   </g>
   <g id="svg_14" transform="matrix(2.55321 0 0 2.51823 571.367 467.601)">
    <path d="m192.03,118.79l0,3.19l-6.24,0l0,4.08l5.98,0l0,3.19l-5.98,0l0,4.08l6.24,0l0,3.19l-9.53,0l0,-17.74l9.53,0l0,0.01z" fill="rgb(255,255,255)" fill-rule="nonzero" id="svg_15" stroke-dashoffset="0" stroke-miterlimit="4" stroke-width="0" transform=" translate(-187.26, -127.65)"/>
   </g>
   <g id="svg_16" transform="matrix(2.55321 0 0 2.51823 612.627 467.752)">
    <path d="m203.86,136.96c-5.09,0 -9.19,-4.25 -9.19,-9.31c0,-5.06 4.15,-9.19 9.1,-9.19c3.55,0 7.06,2.06 8.42,5.4l-3.74,0c-1.1,-1.34 -2.88,-2.21 -4.66,-2.21c-3.24,0 -5.83,2.81 -5.83,6.12c0,3.31 2.69,6 5.86,6c1.75,0 3.26,-0.79 4.46,-2.06l3.82,0c-1.34,3.22 -4.8,5.26 -8.23,5.26l-0.01,-0.01z" fill="rgb(255,255,255)" fill-rule="nonzero" id="svg_17" stroke-dashoffset="0" stroke-miterlimit="4" stroke-width="0" transform=" translate(-203.43, -127.72)"/>
   </g>
   <g id="svg_18" transform="matrix(2.55321 0 0 2.51823 658.585 467.626)">
    <path d="m227.96,118.79l0,17.74l-3.29,0l0,-14.54l-6.48,0l0,14.54l-3.29,0l0,-17.74l13.06,0z" fill="rgb(255,255,255)" fill-rule="nonzero" id="svg_19" stroke-dashoffset="0" stroke-miterlimit="4" stroke-width="0" transform=" translate(-221.43, -127.66)"/>
   </g>
   <g id="svg_20" transform="matrix(2.55321 0 0 2.51823 699.309 467.626)">
    <path d="m244.4,136.53l-3.29,0l0,-14.54l-3.26,0l-4.01,14.54l-3.48,0l5.16,-17.74l8.88,0l0,17.74z" fill="rgb(255,255,255)" fill-rule="nonzero" id="svg_21" stroke-dashoffset="0" stroke-miterlimit="4" stroke-width="0" transform=" translate(-237.38, -127.66)"/>
   </g>
   <g id="svg_22" transform="matrix(2.55321 0 0 2.51823 745.599 467.626)">
    <path d="m256.76,118.79l7.46,17.74l-3.62,0l-1.92,-4.58l-6.29,0l-1.97,4.58l-3.62,0l7.39,-17.74l2.57,0zm-1.28,4.59l-1.9,5.38l3.79,0l-1.9,-5.38l0.01,0z" fill="rgb(255,255,255)" fill-rule="nonzero" id="svg_23" stroke-dashoffset="0" stroke-miterlimit="4" stroke-width="0" transform=" translate(-255.51, -127.66)"/>
   </g>
   <g id="svg_24" transform="matrix(2.55321 0 0 2.51823 778.203 467.652)">
    <path d="m263.33,121.99l0,-3.19l9.91,0l0,3.19l-3.31,0l0,14.54l-3.29,0l0,-14.54l-3.31,0z" fill="rgb(255,255,255)" fill-rule="nonzero" id="svg_25" stroke-dashoffset="0" stroke-miterlimit="4" stroke-width="0" transform=" translate(-268.28, -127.66)"/>
   </g>
   <g id="svg_26" transform="matrix(2.55321 0 0 2.51823 813.488 467.626)">
    <path d="m278.86,118.79l0,7.1l6.48,0l0,-7.1l3.29,0l0,17.74l-3.29,0l0,-7.44l-6.48,0l0,7.44l-3.29,0l0,-17.74l3.29,0z" fill="rgb(255,255,255)" fill-rule="nonzero" id="svg_27" stroke-dashoffset="0" stroke-miterlimit="4" stroke-width="0" transform=" translate(-282.1, -127.66)"/>
   </g>
   <g id="svg_28" transform="matrix(2.55321 0 0 2.51823 861.591 467.626)">
    <path d="m295.78,118.79l0,6.72l0.65,0c1.75,0 3.82,-0.1 5.28,1.08c1.39,1.1 2.11,2.78 2.11,4.54c0,1.76 -0.89,3.48 -2.35,4.46c-1.49,1.01 -3.1,0.94 -4.8,0.94l-4.18,0l0,-17.74l3.29,0zm0,9.92l0,4.63l0.6,0c0.72,0 1.73,0.05 2.45,-0.14c0.98,-0.26 1.7,-1.03 1.7,-2.11c0,-1.08 -0.65,-1.87 -1.61,-2.18c-0.79,-0.24 -1.73,-0.19 -2.54,-0.19l-0.6,0l0,-0.01zm13.61,-9.92l0,17.74l-3.29,0l0,-17.74l3.29,0z" fill="rgb(255,255,255)" fill-rule="nonzero" id="svg_29" stroke-dashoffset="0" stroke-miterlimit="4" stroke-width="0" transform=" translate(-300.94, -127.66)"/>
   </g>
   <g id="svg_30" transform="matrix(2.55321 0 0 2.51823 911.532 462.162)">
    <path d="m327.75,136.53l-3.29,0l0,-12.91l-7.56,12.91l-3.65,0l0,-17.74l3.29,0l0,12.96l7.51,-12.96l3.7,0l0,17.74zm-7.25,-21.12c0.65,0 1.32,-0.34 1.58,-0.96l2.38,0c-0.26,2.18 -1.85,3.26 -3.96,3.26c-2.11,0 -3.7,-1.08 -3.96,-3.26l2.38,0c0.26,0.62 0.94,0.96 1.58,0.96z" fill="rgb(255,255,255)" fill-rule="nonzero" id="svg_31" stroke-dashoffset="0" stroke-miterlimit="4" stroke-width="0" transform=" translate(-320.5, -125.49)"/>
   </g>
   <g id="svg_32" transform="matrix(2.55321 0 0 2.51823 532.022 540.152)">
    <path d="m166.9,150.79l0,-3.19l9.91,0l0,3.19l-3.31,0l0,14.54l-3.29,0l0,-14.54l-3.31,0z" fill="rgb(255,255,255)" fill-rule="nonzero" id="svg_33" stroke-dashoffset="0" stroke-miterlimit="4" stroke-width="0" transform=" translate(-171.86, -156.46)"/>
   </g>
   <g id="svg_34" transform="matrix(2.55321 0 0 2.51823 565.061 540.152)">
    <path d="m179.14,147.59l4.18,0c1.7,0 3.31,-0.07 4.8,0.94c1.46,0.98 2.35,2.69 2.35,4.46c0,1.77 -0.72,3.43 -2.11,4.54c-1.46,1.18 -3.53,1.08 -5.28,1.08l-0.65,0l0,6.72l-3.29,0l0,-17.74zm6.43,7.64c0.96,-0.31 1.61,-1.15 1.61,-2.18c0,-1.03 -0.72,-1.85 -1.7,-2.11c-0.72,-0.19 -1.73,-0.14 -2.45,-0.14l-0.6,0l0,4.63l0.6,0c0.82,0 1.75,0.05 2.54,-0.19l0,-0.01z" fill="rgb(255,255,255)" fill-rule="nonzero" id="svg_35" stroke-dashoffset="0" stroke-miterlimit="4" stroke-width="0" transform=" translate(-184.81, -156.46)"/>
   </g>
   <g id="svg_36" transform="matrix(2.55321 0 0 2.51823 599.325 540.152)">
    <path d="m199.47,147.59l7.46,17.74l-3.62,0l-1.92,-4.58l-6.29,0l-1.97,4.58l-3.62,0l7.39,-17.74l2.57,0zm-1.27,4.59l-1.9,5.38l3.79,0l-1.9,-5.38l0.01,0z" fill="rgb(255,255,255)" fill-rule="nonzero" id="svg_37" stroke-dashoffset="0" stroke-miterlimit="4" stroke-width="0" transform=" translate(-198.22, -156.46)"/>
   </g>
   <g id="svg_38" transform="matrix(2.55321 0 0 2.51823 644.364 540.152)">
    <path d="m212.62,147.59l0,7.1l6.48,0l0,-7.1l3.29,0l0,17.74l-3.29,0l0,-7.44l-6.48,0l0,7.44l-3.29,0l0,-17.74l3.29,0z" fill="rgb(255,255,255)" fill-rule="nonzero" id="svg_39" stroke-dashoffset="0" stroke-miterlimit="4" stroke-width="0" transform=" translate(-215.86, -156.46)"/>
   </g>
   <g id="svg_40" transform="matrix(2.55321 0 0 2.51823 690.934 540.303)">
    <path d="m234.53,165.76c-5.09,0 -9.19,-4.25 -9.19,-9.31c0,-5.06 4.15,-9.19 9.1,-9.19c3.55,0 7.06,2.06 8.42,5.4l-3.74,0c-1.1,-1.34 -2.88,-2.21 -4.66,-2.21c-3.24,0 -5.83,2.81 -5.83,6.12c0,3.31 2.69,6 5.86,6c1.75,0 3.26,-0.79 4.46,-2.06l3.82,0c-1.34,3.22 -4.8,5.26 -8.23,5.26l-0.01,-0.01z" fill="rgb(255,255,255)" fill-rule="nonzero" id="svg_41" stroke-dashoffset="0" stroke-miterlimit="4" stroke-width="0" transform=" translate(-234.1, -156.51)"/>
   </g>
   <g id="svg_42" transform="matrix(2.55321 0 0 2.51823 746.033 540.303)">
    <path d="m244.78,156.55c0,-5.16 4.15,-9.29 9.26,-9.29l3.29,0c5.11,0 9.26,4.13 9.26,9.29c0,5.16 -4.22,9.22 -9.26,9.22l-3.29,0c-5.04,0 -9.26,-4.08 -9.26,-9.22zm3.29,-0.08c0,3.29 2.74,6.1 5.98,6.1l0,-12.12c-3.31,0 -5.98,2.69 -5.98,6.02zm9.26,6.1c3.24,0 5.98,-2.81 5.98,-6.1c0,-3.29 -2.67,-6.02 -5.98,-6.02l0,12.12z" fill="rgb(255,255,255)" fill-rule="nonzero" id="svg_43" stroke-dashoffset="0" stroke-miterlimit="4" stroke-width="0" transform=" translate(-255.69, -156.52)"/>
   </g>
   <g id="svg_44" transform="matrix(2.55321 0 0 2.51823 793.956 540.126)">
    <path d="m279.22,147.59l0,3.19l-6.24,0l0,4.08l5.98,0l0,3.19l-5.98,0l0,4.08l6.24,0l0,3.19l-9.53,0l0,-17.74l9.53,0l0,0.01z" fill="rgb(255,255,255)" fill-rule="nonzero" id="svg_45" stroke-dashoffset="0" stroke-miterlimit="4" stroke-width="0" transform=" translate(-274.46, -156.45)"/>
   </g>
   <g id="svg_46" transform="matrix(2.55321 0 0 2.51823 829.65 540.152)">
    <path d="m282.77,147.59l4.18,0c1.7,0 3.31,-0.07 4.8,0.94c1.46,0.98 2.35,2.69 2.35,4.46c0,1.77 -0.72,3.43 -2.11,4.54c-1.46,1.18 -3.53,1.08 -5.28,1.08l-0.65,0l0,6.72l-3.29,0l0,-17.74zm6.44,7.64c0.96,-0.31 1.61,-1.15 1.61,-2.18c0,-1.03 -0.72,-1.85 -1.7,-2.11c-0.72,-0.19 -1.73,-0.14 -2.45,-0.14l-0.6,0l0,4.63l0.6,0c0.82,0 1.75,0.05 2.54,-0.19l0,-0.01z" fill="rgb(255,255,255)" fill-rule="nonzero" id="svg_47" stroke-dashoffset="0" stroke-miterlimit="4" stroke-width="0" transform=" translate(-288.44, -156.46)"/>
   </g>
   <g id="svg_48" transform="matrix(2.55321 0 0 2.51823 325.34 468.986)">
    <path d="m139.53,146.73c2.67,-0.02 4.71,-3.36 4.37,-6c-0.38,-2.93 -0.76,-5.85 -1.15,-8.78c-0.23,-1.79 -0.48,-3.62 -1.28,-5.23c-0.8,-1.62 -2.27,-3.12 -4.06,-3.33c-0.61,-1.17 -1.23,-2.35 -1.85,-3.54c-2.7,-5.18 -7.76,-8.7 -13.56,-9.43c-12.23,-1.54 -24.77,-0.35 -37.26,-0.03c-3.41,0.09 -6.67,1.45 -9.13,3.82l-9.25,8.91c-6.11,0.37 -12.18,1.36 -18.09,2.93c-2.39,0.64 -4.82,1.41 -6.72,2.99c-1.9,1.58 -3.47,4.29 -2.83,6.68c-1.39,3.35 -1.05,7.37 0.88,10.45c0.07,0 0.17,0.38 0.23,0.38l99.71,0.19l-0.01,-0.01z" fill="rgb(0,116,120)" fill-rule="nonzero" id="svg_49" stroke="rgb(46,67,79)" stroke-dashoffset="0" stroke-miterlimit="10" transform=" translate(-90.91, -128.19)"/>
   </g>
   <g id="svg_50" transform="matrix(2.55321 0 0 2.51823 325.34 469.842)">
    <path d="m139.53,147.53l0,0l-99.71,-0.19c-0.55,0 -0.76,-0.48 -0.84,-0.66c0,0 0,0 0,0c-0.02,-0.03 -0.04,-0.06 -0.06,-0.09c-2.03,-3.22 -2.42,-7.39 -1.04,-10.94c-0.57,-2.71 1.14,-5.56 3.15,-7.23c2.08,-1.73 4.72,-2.53 7.03,-3.15c5.86,-1.57 11.9,-2.55 17.96,-2.94l9.04,-8.7c2.61,-2.51 6.04,-3.95 9.66,-4.04c3.03,-0.08 27.7,0.04 37.38,0.04c6.1,0 11.35,4.45 14.16,9.85c0.56,1.07 1.11,2.13 1.67,3.19c1.71,0.37 3.28,1.72 4.26,3.69c0.87,1.75 1.13,3.73 1.36,5.48l1.15,8.78c0.22,1.71 -0.42,3.73 -1.65,5.14c-0.98,1.13 -2.22,1.75 -3.5,1.76l0,0l-0.02,0.01zm-99.95,-0.57l0,0l0,0zm0,0l0,0l0,0zm-0.09,0c0,0 0.06,0 0.09,0c-0.03,0 -0.06,0 -0.09,0zm0,0c0,0 0,0 0,0c0,0 0,0 0,0zm0.79,-1.22l99.25,0.19c0.81,0 1.63,-0.44 2.3,-1.22c0.94,-1.08 1.44,-2.61 1.27,-3.89l-1.15,-8.78c-0.22,-1.7 -0.45,-3.47 -1.2,-4.98c-0.63,-1.28 -1.87,-2.71 -3.44,-2.89c-0.26,-0.03 -0.49,-0.19 -0.61,-0.42c-0.61,-1.17 -1.23,-2.35 -1.85,-3.54c-2.58,-4.94 -7.37,-9.01 -12.95,-9.01c-11.04,0 -34.1,-0.11 -37.14,-0.03c-3.22,0.08 -6.27,1.36 -8.6,3.59l-9.25,8.91c-0.14,0.13 -0.32,0.21 -0.51,0.22c-6.05,0.37 -12.08,1.35 -17.94,2.91c-2.15,0.57 -4.59,1.31 -6.42,2.83c-1.63,1.36 -3.13,3.77 -2.57,5.86c0.05,0.17 0.03,0.35 -0.03,0.51c-1.29,3.1 -0.99,6.78 0.77,9.63c0.02,0.03 0.05,0.06 0.07,0.09l0,0.02z" fill="rgb(46,67,79)" fill-rule="nonzero" id="svg_51" stroke="rgb(46,67,79)" stroke-dashoffset="0" stroke-miterlimit="10" transform=" translate(-90.9, -128.55)"/>
   </g>
   <g id="svg_52" transform="matrix(2.55321 0 0 2.51823 282.267 444.937)">
    <path d="m71.55,124.66l10.18,-12.02l-4.16,0c-0.69,0.46 -1.35,0.98 -1.96,1.56l-9.25,8.91l5.2,1.55l-0.01,0z" fill="rgb(255,255,255)" fill-rule="nonzero" id="svg_53" stroke="rgb(46,67,79)" stroke-dashoffset="0" stroke-miterlimit="10" transform=" translate(-74.04, -118.65)"/>
   </g>
   <g id="svg_54" transform="matrix(2.55321 0 0 2.51823 282.242 444.912)">
    <path d="m71.55,125.45c-0.08,0 -0.15,-0.01 -0.23,-0.03l-5.2,-1.55c-0.27,-0.08 -0.48,-0.3 -0.55,-0.58c-0.07,-0.28 0.02,-0.57 0.22,-0.76l9.25,-8.91c0.64,-0.61 1.33,-1.17 2.07,-1.66c0.13,-0.09 0.28,-0.13 0.44,-0.13l4.16,0c0.31,0 0.59,0.18 0.72,0.46c0.13,0.28 0.09,0.61 -0.12,0.85l-10.18,12.02c-0.15,0.18 -0.38,0.28 -0.61,0.28l0.03,0.01zm-3.66,-2.72l3.39,1.01l8.73,-10.31l-2.2,0c-0.59,0.4 -1.14,0.85 -1.65,1.34l-8.27,7.96z" fill="rgb(46,67,79)" fill-rule="nonzero" id="svg_55" stroke="rgb(46,67,79)" stroke-dashoffset="0" stroke-miterlimit="10" transform=" translate(-74.03, -118.64)"/>
   </g>
   <g id="svg_56" transform="matrix(2.55321 0 0 2.51823 322.531 444.937)">
    <polygon fill="rgb(255,255,255)" fill-rule="nonzero" id="svg_57" points="14.66,-6.01 -5.29,-6.01 -14.67,6.01 14.66,5.41 14.66,-6.01 " stroke="rgb(46,67,79)" stroke-dashoffset="0" stroke-miterlimit="10"/>
   </g>
   <g id="svg_58" transform="matrix(2.55321 0 0 2.51823 322.557 444.912)">
    <path d="m75.14,125.45c-0.3,0 -0.58,-0.17 -0.71,-0.44c-0.14,-0.28 -0.11,-0.61 0.08,-0.85l9.38,-12.02c0.15,-0.19 0.38,-0.31 0.63,-0.31l19.96,0c0.44,0 0.8,0.36 0.8,0.8l0,11.42c0,0.43 -0.35,0.79 -0.78,0.8l-29.33,0.6c0,0 -0.01,0 -0.02,0l-0.01,0zm9.77,-12.01l-8.11,10.39l26.87,-0.55l0,-9.84l-18.77,0l0.01,0z" fill="rgb(46,67,79)" fill-rule="nonzero" id="svg_59" stroke="rgb(46,67,79)" stroke-dashoffset="0" stroke-miterlimit="10" transform=" translate(-89.81, -118.64)"/>
   </g>
   <g id="svg_60" transform="matrix(2.55321 0 0 2.51823 406.736 444.106)">
    <path d="m128.61,112.64l-20.44,0l0,11.35l29.24,-0.59c-0.61,-1.17 -1.23,-2.35 -1.85,-3.54c-1.6,-3.07 -4.03,-5.55 -6.95,-7.22z" fill="rgb(255,255,255)" fill-rule="nonzero" id="svg_61" stroke="rgb(46,67,79)" stroke-dashoffset="0" stroke-miterlimit="10" transform=" translate(-122.79, -118.31)"/>
   </g>
   <g id="svg_62" transform="matrix(2.55321 0 0 2.51823 406.736 444.081)">
    <path d="m108.17,124.78c-0.21,0 -0.41,-0.08 -0.56,-0.23c-0.15,-0.15 -0.24,-0.36 -0.24,-0.57l0,-11.35c0,-0.44 0.36,-0.8 0.8,-0.8l20.44,0c0.14,0 0.28,0.04 0.4,0.11c3.11,1.78 5.62,4.38 7.26,7.54c0.62,1.19 1.24,2.37 1.85,3.54c0.13,0.25 0.12,0.54 -0.02,0.78c-0.14,0.24 -0.39,0.39 -0.67,0.39l-29.24,0.59c0,0 -0.01,0 -0.02,0zm0.79,-11.34l0,9.73l27.13,-0.55c-0.42,-0.8 -0.83,-1.6 -1.25,-2.4c-1.47,-2.82 -3.7,-5.16 -6.45,-6.79l-19.43,0l0,0.01z" fill="rgb(46,67,79)" fill-rule="nonzero" id="svg_63" stroke="rgb(46,67,79)" stroke-dashoffset="0" stroke-miterlimit="10" transform=" translate(-122.79, -118.31)"/>
   </g>
   <g id="svg_64" transform="matrix(2.55321 0 0 2.51823 278.31 495.201)">
    <path d="m72.49,146.44c-0.44,0 -0.8,-0.36 -0.8,-0.8l0,-14.07c0,-0.44 0.36,-0.8 0.8,-0.8c0.44,0 0.8,0.36 0.8,0.8l0,14.07c0,0.44 -0.36,0.8 -0.8,0.8z" fill="rgb(46,67,79)" fill-rule="nonzero" id="svg_65" stroke="rgb(46,67,79)" stroke-dashoffset="0" stroke-miterlimit="10" transform=" translate(-72.49, -138.6)"/>
   </g>
   <g id="svg_66" transform="matrix(2.55321 0 0 2.51823 369.408 490.819)">
    <path d="m108.17,146.44c-0.44,0 -0.8,-0.36 -0.8,-0.8l0,-17.55c0,-0.44 0.36,-0.8 0.8,-0.8c0.44,0 0.8,0.36 0.8,0.8l0,17.55c0,0.44 -0.36,0.8 -0.8,0.8z" fill="rgb(46,67,79)" fill-rule="nonzero" id="svg_67" stroke="rgb(46,67,79)" stroke-dashoffset="0" stroke-miterlimit="10" transform=" translate(-108.17, -136.86)"/>
   </g>
   <g id="svg_68" transform="matrix(2.55321 0 0 2.51823 348.344 468.709)">
    <path d="m102.41,128.89l-4.99,0c-0.44,0 -0.8,-0.36 -0.8,-0.8c0,-0.44 0.36,-0.8 0.8,-0.8l4.99,0c0.44,0 0.8,0.36 0.8,0.8c0,0.44 -0.36,0.8 -0.8,0.8z" fill="rgb(46,67,79)" fill-rule="nonzero" id="svg_69" stroke="rgb(46,67,79)" stroke-dashoffset="0" stroke-miterlimit="10" transform=" translate(-99.91, -128.09)"/>
   </g>
   <g id="svg_70" transform="matrix(2.55321 0 0 2.51823 412.277 497.845)">
    <path d="m124.96,132.85l0,0c-6.49,0 -11.75,5.26 -11.75,11.75l0,1.87l23.5,0l0,-1.87c0,-6.49 -5.26,-11.75 -11.75,-11.75z" fill="rgb(46,67,79)" fill-rule="nonzero" id="svg_71" stroke="rgb(46,67,79)" stroke-dashoffset="0" stroke-miterlimit="10" transform=" translate(-124.96, -139.66)"/>
   </g>
   <g id="svg_72" transform="matrix(2.55321 0 0 2.51823 412.277 497.845)">
    <path d="m136.71,147.27l-23.5,0c-0.44,0 -0.8,-0.36 -0.8,-0.8l0,-1.87c0,-6.92 5.63,-12.55 12.55,-12.55c6.92,0 12.55,5.63 12.55,12.55l0,1.87c0,0.44 -0.36,0.8 -0.8,0.8zm-22.7,-1.6l21.9,0l0,-1.07c0,-6.04 -4.91,-10.95 -10.95,-10.95c-6.04,0 -10.95,4.91 -10.95,10.95l0,1.07z" fill="rgb(46,67,79)" fill-rule="nonzero" id="svg_73" stroke="rgb(46,67,79)" stroke-dashoffset="0" stroke-miterlimit="10" transform=" translate(-124.96, -139.66)"/>
   </g>
   <g id="svg_74" transform="matrix(2.55321 0 0 2.51823 412.277 506.105)">
    <circle cx="0" cy="0" fill="rgb(255,255,255)" fill-rule="nonzero" id="svg_75" r="9.85" stroke="rgb(46,67,79)" stroke-dashoffset="0" stroke-miterlimit="10"/>
   </g>
   <g id="svg_76" transform="matrix(2.55321 0 0 2.51823 412.277 506.105)">
    <path d="m124.96,153.59c-5.87,0 -10.65,-4.78 -10.65,-10.65c0,-5.87 4.78,-10.65 10.65,-10.65c5.87,0 10.65,4.78 10.65,10.65c0,5.87 -4.78,10.65 -10.65,10.65zm0,-19.7c-4.99,0 -9.05,4.06 -9.05,9.05c0,4.99 4.06,9.05 9.05,9.05c4.99,0 9.05,-4.06 9.05,-9.05c0,-4.99 -4.06,-9.05 -9.05,-9.05z" fill="rgb(46,67,79)" fill-rule="nonzero" id="svg_77" stroke="rgb(46,67,79)" stroke-dashoffset="0" stroke-miterlimit="10" transform=" translate(-124.96, -142.94)"/>
   </g>
   <g id="svg_78" transform="matrix(2.55321 0 0 2.51823 412.277 506.105)">
    <path d="m124.96,147.53c-2.53,0 -4.59,-2.06 -4.59,-4.59c0,-2.53 2.06,-4.59 4.59,-4.59c2.53,0 4.59,2.06 4.59,4.59c0,2.53 -2.06,4.59 -4.59,4.59zm0,-7.58c-1.65,0 -2.99,1.34 -2.99,2.99c0,1.65 1.34,2.99 2.99,2.99c1.65,0 2.99,-1.34 2.99,-2.99c0,-1.65 -1.34,-2.99 -2.99,-2.99z" fill="rgb(241,104,88)" fill-rule="nonzero" id="svg_79" stroke="rgb(46,67,79)" stroke-dashoffset="0" stroke-miterlimit="10" transform=" translate(-124.96, -142.94)"/>
   </g>
   <g id="svg_80" transform="matrix(2.55321 0 0 2.51823 235.39 497.845)">
    <path d="m55.68,132.85l0,0c-6.49,0 -11.75,5.26 -11.75,11.75l0,1.87l23.5,0l0,-1.87c0,-6.49 -5.26,-11.75 -11.75,-11.75z" fill="rgb(46,67,79)" fill-rule="nonzero" id="svg_81" stroke="rgb(46,67,79)" stroke-dashoffset="0" stroke-miterlimit="10" transform=" translate(-55.68, -139.66)"/>
   </g>
   <g id="svg_82" transform="matrix(2.55321 0 0 2.51823 235.39 497.845)">
    <path d="m67.43,147.27l-23.5,0c-0.44,0 -0.8,-0.36 -0.8,-0.8l0,-1.87c0,-6.92 5.63,-12.55 12.55,-12.55c6.92,0 12.55,5.63 12.55,12.55l0,1.87c0,0.44 -0.36,0.8 -0.8,0.8zm-22.71,-1.6l21.9,0l0,-1.07c0,-6.04 -4.91,-10.95 -10.95,-10.95c-6.04,0 -10.95,4.91 -10.95,10.95l0,1.07z" fill="rgb(46,67,79)" fill-rule="nonzero" id="svg_83" stroke="rgb(46,67,79)" stroke-dashoffset="0" stroke-miterlimit="10" transform=" translate(-55.68, -139.66)"/>
   </g>
   <g id="svg_84" transform="matrix(2.55321 0 0 2.51823 235.39 506.105)">
    <circle cx="0" cy="0" fill="rgb(255,255,255)" fill-rule="nonzero" id="svg_85" r="9.85" stroke="rgb(46,67,79)" stroke-dashoffset="0" stroke-miterlimit="10"/>
   </g>
   <g id="svg_86" transform="matrix(2.55321 0 0 2.51823 235.39 506.105)">
    <path d="m55.68,153.59c-5.87,0 -10.65,-4.78 -10.65,-10.65c0,-5.87 4.78,-10.65 10.65,-10.65c5.87,0 10.65,4.78 10.65,10.65c0,5.87 -4.78,10.65 -10.65,10.65zm0,-19.7c-4.99,0 -9.05,4.06 -9.05,9.05c0,4.99 4.06,9.05 9.05,9.05c4.99,0 9.05,-4.06 9.05,-9.05c0,-4.99 -4.06,-9.05 -9.05,-9.05z" fill="rgb(46,67,79)" fill-rule="nonzero" id="svg_87" stroke="rgb(46,67,79)" stroke-dashoffset="0" stroke-miterlimit="10" transform=" translate(-55.68, -142.94)"/>
   </g>
   <g id="svg_88" transform="matrix(2.55321 0 0 2.51823 235.39 506.105)">
    <path d="m55.68,147.53c-2.53,0 -4.59,-2.06 -4.59,-4.59c0,-2.53 2.06,-4.59 4.59,-4.59c2.53,0 4.59,2.06 4.59,4.59c0,2.53 -2.06,4.59 -4.59,4.59zm0,-7.58c-1.65,0 -2.99,1.34 -2.99,2.99c0,1.65 1.34,2.99 2.99,2.99c1.65,0 2.99,-1.34 2.99,-2.99c0,-1.65 -1.34,-2.99 -2.99,-2.99z" fill="rgb(241,104,88)" fill-rule="nonzero" id="svg_89" stroke="rgb(46,67,79)" stroke-dashoffset="0" stroke-miterlimit="10" transform=" translate(-55.68, -142.94)"/>
   </g>
   <g id="svg_90" transform="matrix(2.55321 0 0 2.51823 197.271 479.135)">
    <path d="m42.95,131.49c0,-0.97 -0.47,-1.87 -1.25,-2.58c-0.05,0.04 -0.11,0.08 -0.17,0.13c-1.85,1.54 -3.38,4.15 -2.87,6.5c2.47,-0.51 4.28,-2.12 4.28,-4.04l0.01,-0.01z" fill="rgb(255,255,255)" fill-rule="nonzero" id="svg_91" stroke="rgb(46,67,79)" stroke-dashoffset="0" stroke-miterlimit="10" transform=" translate(-40.76, -132.22)"/>
   </g>
   <g id="svg_92" transform="matrix(2.55321 0 0 2.51823 197.296 479.135)">
    <path d="m38.66,136.33c-0.37,0 -0.7,-0.25 -0.78,-0.63c-0.6,-2.73 1.14,-5.62 3.14,-7.28c0.04,-0.04 0.09,-0.07 0.13,-0.1l0.05,-0.04c0.31,-0.24 0.75,-0.23 1.04,0.04c0.97,0.89 1.51,2.01 1.51,3.17c0,2.25 -2.02,4.23 -4.92,4.83c-0.05,0.01 -0.11,0.02 -0.16,0.02l-0.01,-0.01zm2.97,-6.31c-1.2,1.15 -2.24,2.85 -2.27,4.5c1.68,-0.58 2.78,-1.75 2.78,-3.03c0,-0.59 -0.23,-1.08 -0.52,-1.47l0.01,0z" fill="rgb(46,67,79)" fill-rule="nonzero" id="svg_93" stroke="rgb(46,67,79)" stroke-dashoffset="0" stroke-miterlimit="10" transform=" translate(-40.75, -132.22)"/>
   </g>
   <g id="svg_94" transform="matrix(2.55321 0 0 2.51823 450.422 472.134)">
    <path d="m141.47,126.72c-0.4,-0.8 -0.96,-1.58 -1.65,-2.18c-1.83,0.85 -3.08,2.61 -3.08,4.64c0,2.87 2.5,5.19 5.59,5.19c0.25,0 0.49,-0.02 0.73,-0.05c-0.1,-0.79 -0.21,-1.58 -0.31,-2.37c-0.23,-1.79 -0.48,-3.62 -1.28,-5.23z" fill="rgb(255,255,255)" fill-rule="nonzero" id="svg_95" stroke="rgb(46,67,79)" stroke-dashoffset="0" stroke-miterlimit="10" transform=" translate(-139.9, -129.45)"/>
   </g>
   <g id="svg_96" transform="matrix(2.55321 0 0 2.51823 450.396 472.134)">
    <path d="m142.32,135.17c-3.52,0 -6.39,-2.69 -6.39,-5.99c0,-2.28 1.36,-4.34 3.54,-5.36c0.29,-0.13 0.63,-0.09 0.86,0.12c0.73,0.64 1.37,1.48 1.84,2.42l0,0c0.87,1.75 1.13,3.73 1.36,5.48l0.31,2.37c0.03,0.21 -0.03,0.42 -0.16,0.59c-0.13,0.17 -0.32,0.28 -0.53,0.3c-0.31,0.04 -0.58,0.06 -0.83,0.06l0,0.01zm-2.64,-9.65c-1.34,0.81 -2.15,2.17 -2.15,3.66c0,2.37 2.06,4.31 4.62,4.39l-0.2,-1.51c-0.22,-1.7 -0.45,-3.47 -1.2,-4.98c-0.29,-0.58 -0.65,-1.11 -1.07,-1.56z" fill="rgb(241,104,88)" fill-rule="nonzero" id="svg_97" stroke="rgb(46,67,79)" stroke-dashoffset="0" stroke-miterlimit="10" transform=" translate(-139.89, -129.46)"/>
   </g>
   <g id="svg_98" transform="matrix(2.55321 0 0 2.51823 285.076 460.047)">
    <path d="m78.73,127.85l-3.99,0c-1.76,0 -3.2,-1.43 -3.2,-3.2l0,0c0,-1.76 1.43,-3.2 3.2,-3.2l3.99,0l0,6.39l0,0.01z" fill="rgb(241,104,88)" fill-rule="nonzero" id="svg_99" stroke="rgb(46,67,79)" stroke-dashoffset="0" stroke-miterlimit="10" transform=" translate(-75.14, -124.65)"/>
   </g>
   <g id="svg_100" transform="matrix(2.55321 0 0 2.51823 285.076 460.097)">
    <path d="m78.73,128.65l-3.99,0c-2.2,0 -3.99,-1.79 -3.99,-3.99c0,-2.2 1.79,-3.99 3.99,-3.99l3.99,0c0.44,0 0.8,0.36 0.8,0.8l0,6.39c0,0.44 -0.36,0.8 -0.8,0.8l0,-0.01zm-3.99,-6.39c-1.32,0 -2.4,1.08 -2.4,2.4c0,1.32 1.08,2.4 2.4,2.4l3.19,0l0,-4.8l-3.19,0z" fill="rgb(46,67,79)" fill-rule="nonzero" id="svg_101" stroke="rgb(46,67,79)" stroke-dashoffset="0" stroke-miterlimit="10" transform=" translate(-75.14, -124.67)"/>
   </g>
   <g id="svg_102" transform="matrix(2.55321 0 0 2.51823 332.744 534.259)">
    <path d="m146.11,154.92l-104.61,0c-0.44,0 -0.8,-0.36 -0.8,-0.8c0,-0.44 0.36,-0.8 0.8,-0.8l104.61,0c0.44,0 0.8,0.36 0.8,0.8c0,0.44 -0.36,0.8 -0.8,0.8z" fill="rgb(46,67,79)" fill-rule="nonzero" id="svg_103" stroke="rgb(46,67,79)" stroke-dashoffset="0" stroke-miterlimit="10" transform=" translate(-93.81, -154.12)"/>
   </g>
   <g id="svg_104" transform="matrix(2.55321 0 0 2.51823 182.488 534.259)">
    <path d="m37.21,154.92l-4.49,0c-0.44,0 -0.8,-0.36 -0.8,-0.8c0,-0.44 0.36,-0.8 0.8,-0.8l4.49,0c0.44,0 0.8,0.36 0.8,0.8c0,0.44 -0.36,0.8 -0.8,0.8z" fill="rgb(46,67,79)" fill-rule="nonzero" id="svg_105" stroke="rgb(46,67,79)" stroke-dashoffset="0" stroke-miterlimit="10" transform=" translate(-34.96, -154.12)"/>
   </g>
   <g id="svg_106" transform="matrix(2.55321 0 0 2.51823 474.958 534.259)">
    <path d="m150.7,154.92l-2.39,0c-0.44,0 -0.8,-0.36 -0.8,-0.8c0,-0.44 0.36,-0.8 0.8,-0.8l2.39,0c0.44,0 0.8,0.36 0.8,0.8c0,0.44 -0.36,0.8 -0.8,0.8z" fill="rgb(46,67,79)" fill-rule="nonzero" id="svg_107" stroke="rgb(46,67,79)" stroke-dashoffset="0" stroke-miterlimit="10" transform=" translate(-149.5, -154.12)"/>
   </g>
   <g id="svg_108" transform="matrix(2.55321 0 0 2.51823 278.31 470.774)">
    <circle cx="0" cy="0" fill="rgb(46,67,79)" fill-rule="nonzero" id="svg_109" r="0.86" stroke="rgb(46,67,79)" stroke-dashoffset="0" stroke-miterlimit="10"/>
   </g>
   <g id="svg_110" transform="matrix(2.55321 0 0 2.51823 334.94 468.105)">
    <path d="m95.53,127.85c0,0.47 -0.38,0.86 -0.86,0.86c-0.48,0 -0.86,-0.38 -0.86,-0.86c0,-0.48 0.38,-0.86 0.86,-0.86c0.48,0 0.86,0.38 0.86,0.86z" fill="rgb(46,67,79)" fill-rule="nonzero" id="svg_111" stroke="rgb(46,67,79)" stroke-dashoffset="0" stroke-miterlimit="10" transform=" translate(-94.67, -127.85)"/>
   </g>
   <g id="svg_112" transform="matrix(2.55321 0 0 2.51823 295.825 575.633)">
    <path d="m83.2,164.31l-17.14,0l0,-4.48c0,-1.16 -1.77,-1.82 -3.04,-1.16l-20.92,10.98c-0.42,0.22 -0.64,0.57 -0.64,0.91c0,0.34 0.21,0.69 0.64,0.91l20.92,10.98c1.28,0.67 3.04,0 3.04,-1.15l0,-4.51l50.65,0l0.53,-0.13l0,-1.94l-0.53,-0.13l-53.63,0l0,5.2l-17.55,-9.21l17.55,-9.21l0,5.17l20.12,0c0.41,0 0.78,-0.12 1.06,-0.32c0.27,-0.2 0.44,-0.48 0.44,-0.78c0,-0.61 -0.67,-1.11 -1.49,-1.11l-0.01,-0.02z" fill="rgb(46,67,79)" fill-rule="nonzero" id="svg_113" stroke-dashoffset="0" stroke-miterlimit="4" stroke-width="0" transform=" translate(-79.35, -170.56)"/>
   </g>
   <g id="svg_114" transform="matrix(2.55321 0 0 2.51823 295.825 590.944)">
    <path d="m117.24,174.71l0,1.94l-0.53,0.13l-50.65,0l0,4.51c0,1.15 -1.77,1.82 -3.04,1.15l-20.92,-10.98c-0.42,-0.22 -0.64,-0.57 -0.64,-0.91l4.06,0l17.55,9.21l0,-5.2l53.63,0l0.53,0.13l0.01,0.02z" fill="rgb(46,67,79)" fill-rule="nonzero" id="svg_115" stroke-dashoffset="0" stroke-miterlimit="4" stroke-width="0" transform=" translate(-79.35, -176.63)"/>
   </g>
   <g id="svg_116" transform="matrix(2.55321 0 0 2.51823 410.285 601.42)">
    <path d="m145.16,179.89l-20.92,-10.98c-1.28,-0.67 -3.04,0 -3.04,1.15l0,4.51l-8.79,0l0,2.21l11.77,0l0,-5.2l17.55,9.21l-17.55,9.21l0,-5.17l-20.12,0c-0.41,0 -0.78,0.12 -1.06,0.32c-0.27,0.2 -0.44,0.48 -0.44,0.78c0,0.61 0.67,1.11 1.49,1.11l17.14,0l0,4.48c0,1.16 1.77,1.82 3.04,1.16l20.92,-10.98c0.42,-0.22 0.64,-0.57 0.64,-0.91c0,-0.34 -0.21,-0.69 -0.64,-0.91l0.01,0.01z" fill="rgb(46,67,79)" fill-rule="nonzero" id="svg_117" stroke-dashoffset="0" stroke-miterlimit="4" stroke-width="0" transform=" translate(-124.17, -180.79)"/>
   </g>
   <g id="svg_118" transform="matrix(2.55321 0 0 2.51823 410.311 616.756)">
    <path d="m145.8,180.8c0,0.35 -0.21,0.69 -0.64,0.91l-20.92,10.98c-1.28,0.67 -3.04,0 -3.04,-1.16l0,-4.48l-17.14,0c-0.82,0 -1.49,-0.5 -1.49,-1.11c0,-0.31 0.17,-0.58 0.44,-0.78c0.27,-0.2 0.64,-0.32 1.06,-0.32l20.12,0l0,5.17l17.55,-9.21l4.06,0z" fill="rgb(46,67,79)" fill-rule="nonzero" id="svg_119" stroke-dashoffset="0" stroke-miterlimit="4" stroke-width="0" transform=" translate(-124.19, -186.88)"/>
   </g>
  </g>
 </g>
</svg>