<?xml version="1.0" encoding="UTF-8"?>
<svg id="Layer_1" data-name="Layer 1" xmlns="http://www.w3.org/2000/svg" version="1.1" viewBox="0 0 360.88 283.46">
  <defs>
    <style>
      .cls-1 {
        fill: #2e434f;
      }

      .cls-1, .cls-2, .cls-3 {
        stroke-width: 0px;
      }

      .cls-2 {
        fill: #ff7f19;
      }

      .cls-4 {
        opacity: .55;
      }

      .cls-3, .cls-5 {
        fill: #fff;
      }

      .cls-5 {
        stroke: #fff;
        stroke-miterlimit: 10;
        stroke-width: 5.67px;
      }
    </style>
  </defs>
  <path class="cls-5" d="M151.06,141.75v-33.64c0-.83-.1-1.67-.29-2.48-.87-3.82-3.2-6.54-6.53-8.47-6.23-3.6-12.46-7.19-18.69-10.8-9.7-5.61-19.39-11.24-29.1-16.85-3.26-1.89-6.54-3.74-9.82-5.58-.48-.27-1-.47-1.53-.65-2.86-.94-5.69-.68-8.41.49-1.75.75-3.45,1.66-5.1,2.62-17.18,9.89-34.35,19.79-51.52,29.71-1.34.77-2.7,1.53-3.91,2.47-3.14,2.46-4.89,5.7-4.9,9.74-.03,8.65-.02,17.3-.02,25.95,0,13.69,0,27.38.02,41.06,0,.8.1,1.61.27,2.39.87,3.82,3.17,6.56,6.5,8.49,4.59,2.67,9.2,5.31,13.79,7.97,13.89,8.05,27.78,16.11,41.69,24.13,1.17.68,2.41,1.27,3.69,1.7,3.23,1.09,6.43,1.05,9.5-.65,1.7-.94,3.44-1.82,5.12-2.79,16.99-9.79,33.97-19.59,50.94-29.4,1.15-.66,2.31-1.33,3.35-2.14,3.11-2.43,4.91-5.63,4.93-9.63.04-11.22.02-22.43.02-33.65h0Z"/>
  <g>
    <path class="cls-2" d="M146.7,101.6h194.44c4.69,0,8.5,3.81,8.5,8.5v59.13c0,4.69-3.81,8.5-8.5,8.5h-194.44v-76.14h0Z"/>
    <g>
      <path class="cls-1" d="M41.77,123.3l-.32-.05c.1,0,.21.02.32.05Z"/>
      <path class="cls-1" d="M45.84,119.72"/>
    </g>
    <path class="cls-1" d="M151.3,141.76v-33.64c0-.83-.1-1.67-.29-2.48-.87-3.82-3.2-6.54-6.53-8.47-6.23-3.6-12.46-7.19-18.69-10.8-9.7-5.61-19.39-11.24-29.1-16.85-3.26-1.89-6.54-3.74-9.82-5.58-.48-.27-1-.47-1.53-.65-2.86-.94-5.69-.68-8.41.49-1.75.75-3.45,1.66-5.1,2.62-17.18,9.89-34.35,19.79-51.52,29.71-1.34.77-2.7,1.53-3.91,2.47-3.14,2.46-4.89,5.7-4.9,9.74-.03,8.65-.02,17.3-.02,25.95,0,13.69,0,27.38.02,41.06,0,.8.1,1.61.27,2.39.87,3.82,3.17,6.56,6.5,8.49,4.59,2.67,9.2,5.31,13.79,7.97,13.89,8.05,27.78,16.11,41.69,24.13,1.17.68,2.41,1.27,3.69,1.7,3.23,1.09,6.43,1.05,9.5-.65,1.7-.94,3.44-1.82,5.12-2.79,16.99-9.79,33.97-19.59,50.94-29.4,1.15-.66,2.31-1.33,3.35-2.14,3.11-2.43,4.91-5.63,4.93-9.63.04-11.22.02-22.43.02-33.65h0ZM146.63,173.48c0,3.99-1.72,7.03-5.16,9.01-16.28,9.36-32.57,18.68-48.85,28.02-2.19,1.26-4.43,2.45-6.58,3.8-3.14,1.97-6.19,1.84-9.34.02-10.94-6.31-21.9-12.58-32.84-18.88-7.49-4.31-14.97-8.64-22.45-12.98-3.5-2.03-5.26-5.07-5.26-9.15v-42.03c0-7.03,0-14.07-.02-21.1,0-3.23,1.14-5.9,3.58-8,.51-.44,1.09-.81,1.68-1.14,5.49-3.17,10.98-6.34,16.48-9.51,9.16-5.29,18.33-10.57,27.5-15.85,3.94-2.26,7.89-4.48,11.86-6.7,2.13-1.19,4.38-1.68,6.77-.9.72.24,1.41.61,2.08,1,5.58,3.2,11.15,6.39,16.72,9.6.01,0,.02,0,.03.02,3.73,2.14,7.46,4.29,11.19,6.44,9.18,5.29,18.34,10.58,27.5,15.9,3.07,1.78,4.8,4.48,5.11,8.02.12,1.35-.02,2.72-.02,4.07-.02,15.11-.03,30.22-.04,45.32,0,5.01.03,10.01.04,15.02h.02Z"/>
    <g>
      <path class="cls-3" d="M165.54,137.25c-3.2,0-5.78-2.67-5.78-5.86s2.61-5.78,5.72-5.78c2.23,0,4.44,1.3,5.3,3.4h-2.35c-.69-.85-1.81-1.39-2.93-1.39-2.04,0-3.67,1.77-3.67,3.85s1.69,3.77,3.68,3.77c1.1,0,2.05-.5,2.81-1.3h2.4c-.85,2.02-3.02,3.3-5.18,3.3h0Z"/>
      <path class="cls-3" d="M178.47,125.83v2.01h-3.92v2.57h3.76v2.01h-3.76v2.57h3.92v2.01h-5.99v-11.15h5.99v-.02Z"/>
      <path class="cls-3" d="M180.71,125.83h2.63c1.07,0,2.08-.04,3.02.59.92.62,1.48,1.69,1.48,2.81s-.45,2.16-1.33,2.85c-.92.74-2.22.68-3.32.68h-.41v4.23h-2.07v-11.15h0ZM184.75,130.63c.6-.2,1.01-.72,1.01-1.37s-.45-1.16-1.07-1.33c-.45-.12-1.09-.09-1.54-.09h-.38v2.91h.38c.51,0,1.1.03,1.6-.12h0Z"/>
      <path class="cls-3" d="M188.55,127.84v-2.01h6.23v2.01h-2.08v9.15h-2.07v-9.15h-2.08,0Z"/>
      <path class="cls-3" d="M205.36,136.98h-2.07v-8.12l-4.75,8.12h-2.29v-11.15h2.07v8.15l4.72-8.15h2.32v11.15h0Z"/>
      <path class="cls-3" d="M207.29,131.46c0-3.24,2.61-5.84,5.83-5.84h2.07c3.21,0,5.83,2.6,5.83,5.84s-2.66,5.79-5.83,5.79h-2.07c-3.17,0-5.83-2.57-5.83-5.79ZM209.36,131.41c0,2.07,1.72,3.83,3.76,3.83v-7.62c-2.08,0-3.76,1.69-3.76,3.79ZM215.18,135.25c2.04,0,3.76-1.77,3.76-3.83s-1.67-3.79-3.76-3.79v7.62Z"/>
      <path class="cls-3" d="M232.07,136.98h-2.07v-8.12l-4.75,8.12h-2.29v-11.15h2.07v8.15l4.72-8.15h2.32v11.15h0Z"/>
      <path class="cls-3" d="M234.5,136.98v-11.15h2.07v9.15h4.06v-9.15h2.07v9.15h.75v3.41h-2.07v-1.4h-6.88Z"/>
      <path class="cls-3" d="M254.25,136.98h-2.07v-8.12l-4.75,8.12h-2.29v-11.15h2.07v8.15l4.72-8.15h2.32v11.15h0Z"/>
      <path class="cls-3" d="M256.67,125.83h2.62c1.07,0,2.08-.04,3.02.59.92.62,1.48,1.69,1.48,2.81s-.45,2.16-1.33,2.85c-.92.74-2.22.68-3.32.68h-.41v4.23h-2.07v-11.15h.01ZM260.72,130.63c.6-.2,1.01-.72,1.01-1.37s-.45-1.16-1.07-1.33c-.45-.12-1.09-.09-1.54-.09h-.38v2.91h.38c.51,0,1.1.03,1.6-.12h0Z"/>
      <path class="cls-3" d="M270.81,137.25c-3.17,0-5.81-2.57-5.81-5.79s2.6-5.84,5.81-5.84,5.81,2.6,5.81,5.84-2.64,5.79-5.81,5.79ZM270.81,135.25c2.04,0,3.74-1.77,3.74-3.83s-1.66-3.79-3.74-3.79-3.74,1.69-3.74,3.79,1.71,3.83,3.74,3.83Z"/>
      <path class="cls-3" d="M280.57,125.83c1.01,0,2.04-.04,2.97.42.92.47,1.57,1.46,1.57,2.5,0,.88-.41,1.74-1.22,2.13,1.22.39,1.9,1.43,1.9,2.7,0,1.09-.5,2.01-1.36,2.66-.89.65-2.02.71-3.09.74h-2.79v-11.15s2.02,0,2.02,0ZM282.42,129.95c.39-.18.63-.6.63-1.03s-.29-.81-.69-.98c-.39-.18-.92-.11-1.36-.11h-.38v2.28h.39c.44,0,1.01,0,1.4-.17h0ZM283.18,134.58c.38-.26.54-.62.54-1.09,0-.54-.26-.88-.74-1.15-.47-.24-.97-.23-1.46-.23h-.91v2.85h.86c.6,0,1.16-.03,1.71-.39h0Z"/>
      <path class="cls-3" d="M292.46,125.83l4.69,11.15h-2.28l-1.21-2.88h-3.95l-1.24,2.88h-2.28l4.65-11.15s1.62,0,1.62,0ZM291.66,128.71l-1.19,3.38h2.38l-1.19-3.38Z"/>
      <path class="cls-3" d="M300.73,125.83v4.47h4.07v-4.47h2.07v11.15h-2.07v-4.68h-4.07v4.68h-2.07v-11.15s2.07,0,2.07,0Z"/>
      <path class="cls-3" d="M311.37,125.83v4.47h4.07v-4.47h2.07v11.15h-2.07v-4.68h-4.07v4.68h-2.07v-11.15s2.07,0,2.07,0Z"/>
      <path class="cls-3" d="M322.01,125.83v4.23h.41c1.1,0,2.4-.06,3.32.68.88.69,1.33,1.75,1.33,2.85s-.56,2.19-1.48,2.81c-.94.63-1.95.59-3.02.59h-2.63v-11.15h2.07ZM322.01,132.06v2.91h.38c.45,0,1.09.03,1.54-.09.62-.17,1.07-.65,1.07-1.33s-.41-1.18-1.01-1.37c-.5-.15-1.09-.12-1.6-.12h-.38ZM330.56,125.83v11.15h-2.07v-11.15s2.07,0,2.07,0Z"/>
      <path class="cls-3" d="M338.98,125.83v2.01h-3.92v2.57h3.76v2.01h-3.76v2.57h3.92v2.01h-5.99v-11.15h5.99v-.02Z"/>
      <path class="cls-3" d="M165.43,143.24l4.75,13.56,4.82-13.56h4.46v17.74h-3.29v-13.3l-4.58,13.3h-2.78l-4.58-13.3v13.3h-3.29v-17.74h4.49,0Z"/>
      <path class="cls-3" d="M191.64,143.24l7.46,17.74h-3.62l-1.92-4.58h-6.29l-1.97,4.58h-3.62l7.39-17.74h2.57,0ZM190.37,147.83l-1.9,5.38h3.79l-1.9-5.38h0Z"/>
      <path class="cls-3" d="M198.21,146.44v-3.19h9.91v3.19h-3.31v14.54h-3.29v-14.54h-3.31Z"/>
      <path class="cls-3" d="M219.98,143.24v3.19h-6.24v4.08h5.98v3.19h-5.98v4.08h6.24v3.19h-9.53v-17.74h9.53Z"/>
      <path class="cls-3" d="M223.53,143.24h4.18c1.7,0,3.31-.07,4.8.94,1.46.98,2.35,2.69,2.35,4.46s-.72,3.43-2.11,4.54c-1.46,1.18-3.53,1.08-5.28,1.08h-.65v6.72h-3.29v-17.74h0ZM229.97,150.88c.96-.31,1.61-1.15,1.61-2.18s-.72-1.85-1.7-2.11c-.72-.19-1.73-.14-2.45-.14h-.6v4.63h.6c.82,0,1.75.05,2.54-.19h0Z"/>
      <path class="cls-3" d="M252.07,160.98h-3.29v-12.91l-7.56,12.91h-3.65v-17.74h3.29v12.96l7.51-12.96h3.7v17.74Z"/>
      <path class="cls-3" d="M264.43,143.24l7.46,17.74h-3.62l-1.92-4.58h-6.29l-1.97,4.58h-3.62l7.39-17.74h2.57ZM263.16,147.83l-1.9,5.38h3.79l-1.9-5.38h0Z"/>
      <path class="cls-3" d="M286.87,160.98h-3.29v-14.54h-3.26l-4.01,14.54h-3.48l5.16-17.74h8.88v17.74h0Z"/>
      <path class="cls-3" d="M294.02,143.24v6.72h.65c1.75,0,3.82-.1,5.28,1.08,1.39,1.1,2.11,2.78,2.11,4.54s-.89,3.48-2.35,4.46c-1.49,1.01-3.1.94-4.8.94h-4.18v-17.74h3.29ZM294.02,153.16v4.63h.6c.72,0,1.73.05,2.45-.14.98-.26,1.7-1.03,1.7-2.11s-.65-1.87-1.61-2.18c-.79-.24-1.73-.19-2.54-.19h-.6ZM307.63,143.24v17.74h-3.29v-17.74h3.29Z"/>
    </g>
  </g>
  <g>
    <g>
      <g>
        <path class="cls-1" d="M116.54,98.8c-2.03,0-3.68-1.65-3.68-3.68s1.65-3.68,3.68-3.68,3.68,1.65,3.68,3.68-1.65,3.68-3.68,3.68ZM116.54,92.35c-1.53,0-2.77,1.24-2.77,2.77s1.24,2.77,2.77,2.77,2.77-1.24,2.77-2.77-1.24-2.77-2.77-2.77Z"/>
        <path class="cls-1" d="M116.54,99.34c-2.33,0-4.22-1.89-4.22-4.22s1.89-4.22,4.22-4.22,4.22,1.89,4.22,4.22-1.89,4.22-4.22,4.22ZM116.54,92.89c-1.23,0-2.23,1-2.23,2.23s1,2.23,2.23,2.23,2.23-1,2.23-2.23-1-2.23-2.23-2.23Z"/>
      </g>
      <g>
        <path class="cls-1" d="M111.64,117.55c-1.68,0-3.05-1.37-3.05-3.05s1.37-3.05,3.05-3.05,3.05,1.37,3.05,3.05-1.37,3.05-3.05,3.05ZM111.64,112.37c-1.18,0-2.13.96-2.13,2.13s.96,2.13,2.13,2.13,2.13-.96,2.13-2.13-.96-2.13-2.13-2.13Z"/>
        <path class="cls-1" d="M111.64,118.09c-1.98,0-3.59-1.61-3.59-3.59s1.61-3.59,3.59-3.59,3.59,1.61,3.59,3.59-1.61,3.59-3.59,3.59ZM111.64,112.91c-.88,0-1.59.71-1.59,1.59s.71,1.59,1.59,1.59,1.59-.71,1.59-1.59-.71-1.59-1.59-1.59Z"/>
      </g>
      <g>
        <path class="cls-1" d="M81.41,101.67c-1.68,0-3.05-1.37-3.05-3.05s1.37-3.05,3.05-3.05,3.05,1.37,3.05,3.05-1.37,3.05-3.05,3.05ZM81.41,96.49c-1.18,0-2.13.96-2.13,2.13s.96,2.13,2.13,2.13,2.13-.96,2.13-2.13-.96-2.13-2.13-2.13Z"/>
        <path class="cls-1" d="M81.41,102.21c-1.98,0-3.59-1.61-3.59-3.59s1.61-3.59,3.59-3.59,3.59,1.61,3.59,3.59-1.61,3.59-3.59,3.59ZM81.41,97.03c-.88,0-1.59.72-1.59,1.59s.72,1.59,1.59,1.59,1.59-.71,1.59-1.59-.71-1.59-1.59-1.59Z"/>
      </g>
      <g>
        <path class="cls-1" d="M93.99,91.07c-1.33,0-2.41-1.08-2.41-2.41s1.08-2.41,2.41-2.41,2.41,1.08,2.41,2.41-1.08,2.41-2.41,2.41ZM93.99,87.17c-.82,0-1.49.67-1.49,1.49s.67,1.49,1.49,1.49,1.49-.67,1.49-1.49-.67-1.49-1.49-1.49Z"/>
        <path class="cls-1" d="M93.99,91.61c-1.63,0-2.95-1.32-2.95-2.95s1.32-2.95,2.95-2.95,2.95,1.32,2.95,2.95-1.32,2.95-2.95,2.95ZM93.99,87.71c-.53,0-.95.43-.95.95s.43.95.95.95.95-.43.95-.95-.43-.95-.95-.95Z"/>
      </g>
      <g>
        <g>
          <path class="cls-1" d="M101.75,116.62c-.42,0-.84-.09-1.23-.27l-11.6-5.33c-1.46-.67-2.12-2.42-1.46-3.89l2.14-4.76c.66-1.47,2.4-2.14,3.87-1.49l11.39,5c1.44.63,2.13,2.28,1.57,3.74l-1.93,5.1c-.29.76-.89,1.37-1.64,1.68-.36.15-.74.22-1.12.22h.01ZM92.3,101.91c-.64,0-1.25.37-1.53.98l-2.14,4.77h0c-.37.83,0,1.82.83,2.2l11.6,5.33c.42.2.9.2,1.33.03.43-.18.76-.52.93-.95l1.93-5.1c.32-.83-.08-1.76-.89-2.12l-11.39-5c-.22-.09-.44-.14-.67-.14ZM88.05,107.4h0Z"/>
          <path class="cls-1" d="M101.75,117.16c-.5,0-1-.11-1.46-.32l-11.6-5.33c-1.73-.8-2.51-2.86-1.73-4.6l2.14-4.76c.78-1.74,2.84-2.53,4.58-1.77l11.39,5c1.7.75,2.52,2.69,1.86,4.43l-1.93,5.1c-.34.9-1.05,1.63-1.94,1.99-.42.17-.86.26-1.32.26h.01ZM88.05,107.15l-.09.2c-.54,1.2,0,2.62,1.19,3.17l11.6,5.33c.31.14.66.22,1,.22h0c.32,0,.62-.06.91-.18.62-.25,1.1-.75,1.34-1.37l1.93-5.1c.45-1.2-.11-2.54-1.28-3.06l-11.39-5c-1.21-.53-2.62.02-3.16,1.22l-2.05,4.56v.51c.02-.08.05-.15.09-.23l2.14-4.76c.36-.79,1.15-1.3,2.02-1.3.31,0,.6.06.88.19l11.39,5c1.08.47,1.6,1.71,1.18,2.81l-1.93,5.1c-.22.58-.66,1.03-1.23,1.26s-1.2.22-1.76-.04l-11.6-5.33c-1.02-.47-1.52-1.63-1.18-2.68v-.51h0ZM92.3,102.45c-.45,0-.85.26-1.03.66l-2.14,4.77c-.25.56,0,1.23.56,1.49l11.6,5.33c.29.13.61.14.9.02s.51-.35.63-.64l1.93-5.1c.21-.56-.05-1.19-.6-1.43l-11.39-5c-.14-.06-.29-.09-.45-.09h-.01Z"/>
        </g>
        <g>
          <path class="cls-1" d="M104.62,107.1c-.09,0-.18-.02-.26-.05l-11.39-5c-.17-.07-.3-.22-.35-.39-.06-.17-.03-.36.06-.52l3.4-5.71c.6-1,1.85-1.4,2.92-.91l6.9,3.13c1.05.47,1.58,1.66,1.25,2.76l-1.91,6.25c-.05.17-.18.32-.34.39-.08.04-.18.06-.27.06h-.01ZM94.14,101.17l10.07,4.42,1.7-5.56c.15-.49-.09-1.01-.55-1.22l-6.9-3.13c-.47-.21-1.03-.04-1.29.4,0,0-3.03,5.09-3.03,5.09Z"/>
          <path class="cls-1" d="M104.62,107.64c-.16,0-.32-.03-.48-.1l-11.39-5c-.31-.14-.55-.4-.65-.72s-.06-.67.11-.96l3.4-5.71c.74-1.24,2.29-1.73,3.61-1.13l6.9,3.13c1.29.59,1.95,2.05,1.54,3.41l-1.91,6.25c-.1.32-.33.59-.64.73-.16.07-.32.11-.49.11h0ZM98.04,94.85c-.6,0-1.18.31-1.51.86l-3.4,5.71s-.02.05,0,.08c0,.03.03.05.05.06l11.43,5.01h.04s.04-.03.05-.06l1.91-6.25c.26-.84-.15-1.75-.95-2.11l-6.9-3.13c-.23-.11-.48-.16-.72-.16h0ZM104.55,106.33l-11.19-4.91,3.34-5.61c.41-.68,1.26-.95,1.98-.62l6.9,3.13c.71.32,1.07,1.13.84,1.87l-1.88,6.14h.01ZM94.92,100.92l8.95,3.93,1.52-4.98c.07-.23-.04-.47-.26-.57l-6.9-3.13c-.22-.1-.48-.02-.6.19l-2.72,4.56h.01Z"/>
        </g>
        <g>
          <path class="cls-1" d="M96.02,102.69c-.08,0-.15-.02-.22-.06-.22-.12-.3-.4-.17-.62l3.76-6.66c.12-.22.4-.3.62-.17.22.12.3.4.17.62l-3.76,6.66c-.08.15-.24.23-.4.23Z"/>
          <path class="cls-1" d="M96.02,103.23c-.17,0-.34-.04-.49-.13-.48-.27-.65-.88-.38-1.36l3.76-6.66c.13-.23.34-.4.6-.47s.53-.04.76.09c.48.27.65.88.38,1.36l-3.76,6.66c-.18.31-.51.51-.87.51Z"/>
        </g>
        <g>
          <path class="cls-1" d="M98.86,104.27c-.07,0-.13-.01-.2-.05-.23-.11-.32-.38-.21-.61l3.35-6.96c.11-.23.38-.32.61-.21s.32.38.21.61l-3.35,6.96c-.08.16-.24.26-.41.26Z"/>
          <path class="cls-1" d="M98.86,104.81c-.15,0-.3-.03-.43-.1-.24-.12-.42-.32-.51-.57-.09-.25-.07-.52.04-.76l3.35-6.96c.12-.24.32-.42.57-.51.25-.09.52-.07.76.04.24.12.42.32.51.57.09.25.07.52-.04.76l-3.35,6.96c-.16.34-.52.57-.9.57Z"/>
        </g>
        <g>
          <path class="cls-1" d="M95.51,111.79c-.07,0-.13-.01-.2-.05-.23-.11-.32-.38-.21-.61l3.35-6.96c.11-.23.38-.32.61-.21s.32.38.21.61l-3.35,6.96c-.08.16-.24.26-.41.26Z"/>
          <path class="cls-1" d="M95.51,112.33c-.15,0-.3-.03-.43-.1-.24-.12-.42-.32-.51-.57-.09-.25-.07-.52.04-.76l3.35-6.96c.12-.24.32-.42.57-.51.25-.09.52-.07.76.04.49.24.7.84.47,1.33l-3.35,6.96c-.17.34-.52.57-.9.57Z"/>
        </g>
        <g>
          <path class="cls-1" d="M92.96,110.4c-.07,0-.13-.01-.2-.05-.23-.11-.32-.38-.21-.61l3.35-6.96c.11-.23.38-.32.61-.21s.32.38.21.61l-3.35,6.96c-.08.16-.24.26-.41.26Z"/>
          <path class="cls-1" d="M92.96,110.94c-.15,0-.3-.03-.43-.1-.5-.24-.7-.84-.47-1.33l3.35-6.96c.24-.5.84-.7,1.33-.47.5.24.71.84.47,1.33l-3.35,6.96c-.16.34-.52.57-.9.57Z"/>
        </g>
        <g>
          <path class="cls-1" d="M90.32,109.46c-.07,0-.13-.01-.2-.05-.23-.11-.32-.38-.21-.61l3.35-6.96c.11-.23.38-.32.61-.21s.32.38.21.61l-3.35,6.96c-.08.16-.24.26-.41.26Z"/>
          <path class="cls-1" d="M90.32,110c-.15,0-.3-.03-.43-.1-.5-.24-.71-.84-.47-1.33l3.35-6.96c.12-.24.32-.42.57-.51.25-.09.52-.07.76.04.24.12.42.32.51.57.09.25.07.52-.04.76l-3.35,6.96c-.16.34-.52.57-.9.57Z"/>
        </g>
        <g>
          <path class="cls-1" d="M98.11,113.13c-.07,0-.13-.01-.2-.05-.23-.11-.32-.38-.21-.61l3.35-6.96c.11-.23.38-.32.61-.21s.32.38.21.61l-3.35,6.96c-.08.16-.24.26-.41.26Z"/>
          <path class="cls-1" d="M98.11,113.67c-.15,0-.3-.03-.43-.1-.5-.24-.71-.84-.47-1.33l3.35-6.96c.12-.24.32-.42.57-.51.25-.09.52-.07.76.04.24.12.42.32.51.57.09.25.07.52-.04.76l-3.35,6.96c-.16.34-.52.57-.9.57Z"/>
        </g>
        <g>
          <path class="cls-1" d="M101.01,113.88c-.06,0-.12-.01-.18-.04-.23-.1-.34-.37-.24-.6l3.05-6.96c.1-.23.37-.34.6-.24.23.1.34.37.24.6l-3.05,6.96c-.08.17-.24.27-.42.27h0Z"/>
          <path class="cls-1" d="M101.01,114.42c-.14,0-.27-.03-.4-.08-.24-.11-.43-.3-.53-.55s-.09-.52.02-.76l3.05-6.96c.22-.5.81-.73,1.31-.51.24.11.43.3.53.55s.09.52-.02.76l-3.05,6.96c-.16.36-.52.6-.91.6h0Z"/>
        </g>
        <g>
          <path class="cls-1" d="M101.55,105.38c-.06,0-.13-.01-.19-.04-.23-.11-.33-.38-.22-.61l3.13-6.73c.11-.23.38-.33.61-.22s.33.38.22.61l-3.13,6.73c-.08.17-.24.26-.41.26h0Z"/>
          <path class="cls-1" d="M101.55,105.92c-.15,0-.29-.03-.42-.09-.5-.23-.72-.83-.48-1.32l3.13-6.73c.11-.24.31-.43.56-.52s.52-.08.76.03c.5.23.72.83.48,1.33l-3.13,6.73c-.16.35-.52.58-.91.58h.01Z"/>
        </g>
        <g>
          <path class="cls-3" d="M103.79,116.14c-.25-.32-.54-.64-.88-.95-.78-.74-1.8-1.48-3.12-2.19-2.28-1.23-5.64-2.69-9.46-3.98-1.52-.52-3.11-1.01-4.73-1.44h-.02c-8.79-2.37-18.53-3.27-23.03,1.23-7.42,7.42-20.85,42.57-26.56,56.52-3,7.32-3.64,11.51-3.01,14.23.05.2.1.39.16.57.21.65.49,1.21.84,1.71.45.65,1,1.19,1.61,1.69.43.35.89.69,1.36,1.02,3.19,2.25,19.78,9.3,25.08,11.53,1.45.61,2.96,1.1,4.5,1.41,2.06.42,3.59.27,5.1-.41,1.24-.56,2.41-1.41,2.93-2.67l30.08-71.53s1.92-3.24-.84-6.72v-.02h-.01ZM53.09,136.99c2.03-4.46,9.52-20.86,12.78-23.47,2.83-2.27,8.34-2.82,8.98-.21.1.39.08.86-.07,1.4-2.88,7.95-7.51,17.41-12.65,27.3,0,0-1.38,3.56-6,2.66-1.03-.2-1.85-.47-2.49-.82-2.21-1.22-2.13-3.39-.56-6.85h.01Z"/>
          <g class="cls-4">
            <path class="cls-3" d="M100.88,113.73c-3.19-1.72-8.49-3.88-14.19-5.43h-.02c-8.79-2.37-18.53-3.27-23.03,1.23-7.42,7.42-20.85,42.57-26.56,56.52-3.22,7.86-3.72,12.11-2.85,14.81.47,1.49,1.37,2.51,2.44,3.39-.42-.56-.77-1.19-1.01-1.94-.86-2.7-.36-6.95,2.85-14.81,5.71-13.95,19.14-49.1,26.56-56.52,4.5-4.5,14.24-3.6,23.03-1.23h.02c5.71,1.54,11,3.71,14.19,5.43,1.03.55,1.87,1.12,2.56,1.7-.84-1.06-2.11-2.13-3.99-3.15h0ZM75.94,114.04c.1.39.08.86-.07,1.4-2.88,7.95-7.51,17.41-12.65,27.3,0,0-1.38,3.56-6,2.66-1.03-.2-1.85-.47-2.49-.82.51,1.12,1.76,1.85,3.92,2.27,4.62.9,6-2.66,6-2.66,5.14-9.9,9.77-19.35,12.65-27.3.42-1.51-.22-2.43-1.37-2.85,0,0,.01,0,.01,0Z"/>
          </g>
          <g>
            <path class="cls-1" d="M68.63,198.34c-.7,0-1.43-.08-2.23-.25-1.52-.31-3.07-.8-4.62-1.45-6.52-2.74-22.04-9.37-25.2-11.6-2.05-1.45-3.8-2.88-4.31-5.8-.55-3.13.45-7.64,3.13-14.19.77-1.87,1.66-4.09,2.69-6.65,6.54-16.29,17.5-43.56,24.01-50.08,4.27-4.27,12.66-3.72,18.94-2.49,7.39,1.44,14.89,4.34,19.06,6.59,3.06,1.65,4.94,3.66,5.58,5.98.69,2.47-.3,4.41-.47,4.73l-30.06,71.5h0c-.53,1.25-1.62,2.26-3.26,3-1.04.47-2.1.7-3.27.7h.01ZM72.74,106.23c-3.83,0-7.47.75-9.74,3.01-6.33,6.33-17.22,33.45-23.73,49.65-1.03,2.57-1.92,4.78-2.69,6.66-2.59,6.32-3.56,10.6-3.05,13.48.43,2.44,1.9,3.65,3.78,4.97,3.15,2.22,19.9,9.34,24.96,11.46,1.47.62,2.95,1.08,4.38,1.38,1.88.38,3.28.27,4.71-.37,1.33-.6,2.21-1.39,2.61-2.33l30.08-71.53s.02-.05.04-.08c0-.01.96-1.69.36-3.81-.55-1.96-2.22-3.7-4.95-5.17-4.08-2.2-11.44-5.05-18.7-6.46-2.49-.48-5.32-.87-8.06-.87h0ZM74.56,194.39h0Z"/>
            <path class="cls-1" d="M68.63,198.88c-.73,0-1.49-.08-2.34-.26-1.55-.32-3.14-.82-4.72-1.48-6.54-2.75-22.1-9.4-25.3-11.65-2.08-1.46-3.98-3.03-4.53-6.15-.56-3.23.44-7.84,3.16-14.48.76-1.86,1.64-4.06,2.66-6.6l.02-.06c6.56-16.34,17.54-43.66,24.13-50.26,4.44-4.44,13.02-3.89,19.43-2.64,7.44,1.45,15.01,4.38,19.21,6.64,3.2,1.72,5.16,3.85,5.85,6.31.72,2.6-.26,4.66-.51,5.11l-30.05,71.47c-.58,1.38-1.77,2.49-3.54,3.29-1.12.51-2.26.75-3.49.75h.02ZM72.77,105.49c-4.01,0-7.86.8-10.28,3.22-6.44,6.44-17.36,33.64-23.89,49.89l-.03.06c-1.02,2.54-1.9,4.74-2.67,6.6-2.64,6.45-3.63,10.87-3.1,13.89.47,2.72,2.06,4.02,4.08,5.45,3.12,2.2,18.59,8.8,25.1,11.54,1.52.64,3.04,1.12,4.52,1.42,2.05.42,3.57.3,5.16-.42,1.42-.64,2.39-1.49,2.89-2.52v-.49l-.09.22c-.45,1.08-1.42,1.96-2.88,2.62-1.54.7-3.04.82-5.04.41-1.47-.3-2.98-.77-4.48-1.41-5.07-2.13-21.87-9.27-25.06-11.52-1.92-1.35-3.54-2.69-4-5.32-.52-2.98.46-7.36,3.09-13.78.77-1.88,1.66-4.09,2.69-6.66,6.52-16.24,17.44-43.42,23.85-49.83,2.1-2.1,5.51-3.17,10.12-3.17,2.43,0,5.17.29,8.16.88,7.31,1.42,14.73,4.29,18.85,6.51,2.87,1.54,4.62,3.4,5.22,5.5.64,2.25-.3,4.02-.41,4.22l-30,71.33v.49c.03-.06.06-.13.09-.2l30.09-71.55c.11-.2,1.06-2.03.43-4.33-.6-2.17-2.39-4.07-5.32-5.65-4.13-2.22-11.57-5.11-18.91-6.53-2.52-.49-5.39-.87-8.17-.87h0ZM72.74,106.77c-4.31,0-7.46.96-9.35,2.85-6.25,6.25-17.12,33.3-23.61,49.46-1.03,2.57-1.92,4.79-2.69,6.67-2.55,6.22-3.51,10.41-3.02,13.18.39,2.24,1.72,3.33,3.56,4.62,3.1,2.19,19.81,9.29,24.86,11.41,1.44.61,2.88,1.06,4.28,1.35,1.75.36,3.06.26,4.38-.33,1.2-.54,1.99-1.23,2.33-2.05l30.08-71.53c.02-.05.05-.1.07-.14.03-.05.83-1.52.3-3.38-.51-1.81-2.09-3.45-4.69-4.85-4.04-2.18-11.34-5-18.54-6.4-2.92-.57-5.6-.86-7.96-.86Z"/>
          </g>
          <g>
            <path class="cls-1" d="M57.57,145.45c-.48,0-1-.05-1.55-.16-2.3-.45-3.67-1.24-4.31-2.49-.72-1.4-.47-3.27.81-6.08,6.34-13.92,10.7-21.9,12.96-23.71,2.56-2.05,6.88-2.73,8.89-1.4,1.06.7,1.43,1.85,1.04,3.26,0,.02,0,.03-.02.05-3.15,8.68-8.42,19.18-12.67,27.36-.17.39-1.53,3.16-5.14,3.17h-.01ZM71.6,112.2c-1.74,0-3.91.68-5.33,1.82-1.18.95-4.4,5.23-12.6,23.24-1.09,2.39-1.35,3.96-.83,4.97.44.86,1.56,1.46,3.42,1.82,4.02.78,5.23-2.14,5.28-2.26,0-.02.02-.04.03-.06,4.23-8.14,9.48-18.59,12.61-27.2.23-.85.06-1.45-.52-1.83-.5-.33-1.23-.48-2.06-.48,0,0,0-.02,0-.02ZM74.79,114.7h0Z"/>
            <path class="cls-1" d="M57.57,145.99h0c-.53,0-1.09-.06-1.66-.17-2.47-.48-3.96-1.36-4.69-2.77-.8-1.56-.56-3.58.8-6.55,6.46-14.19,10.75-22.01,13.11-23.9,2.77-2.21,7.31-2.89,9.53-1.43,1.25.82,1.71,2.23,1.26,3.86l-.03.09c-3.16,8.72-8.45,19.23-12.7,27.42-.14.33-1.64,3.46-5.62,3.46h0ZM71.6,111.47c-1.91,0-4.23.72-5.79,1.97-1.51,1.21-4.96,6.27-12.81,23.51-1.2,2.64-1.46,4.37-.82,5.61.56,1.09,1.81,1.79,3.94,2.21.5.1.99.15,1.45.15,3.3,0,4.52-2.55,4.65-2.84,4.21-8.11,9.42-18.47,12.57-27.08v-.76c-.02.13-.05.28-.09.43-3.15,8.69-8.41,19.16-12.65,27.31-.06.15-1.44,3.47-5.89,2.61-2.03-.39-3.27-1.08-3.8-2.1-.61-1.18-.35-2.85.82-5.44,7.83-17.21,11.26-22.24,12.75-23.43,1.45-1.16,3.73-1.94,5.67-1.94.97,0,1.79.2,2.36.57.48.31.98.91.83,1.98v.78c.03-.08.06-.17.09-.25.23-.83.27-1.96-.81-2.67-.61-.4-1.49-.59-2.47-.59v-.03ZM71.6,112.74c-1.72,0-3.72.68-4.99,1.7-.92.74-3.98,4.46-12.44,23.04-1,2.19-1.27,3.66-.85,4.49.36.7,1.38,1.21,3.04,1.54,3.58.7,4.63-1.82,4.68-1.93.02-.04.03-.08.05-.11,4.22-8.13,9.47-18.55,12.58-27.14.2-.74-.04-1.02-.31-1.19-.39-.26-1.01-.4-1.76-.4Z"/>
          </g>
          <path class="cls-2" d="M82.76,159.19s-10.73,27.04-13.74,28.93c-1.11.7-3.51.3-6.42-.64-4.93-1.58-11.32-4.71-15.33-6.58-6.38-2.97-7.98-5.73-6.6-10.98,1.38-5.26,5.33-13.01,5.33-13.01,3.22-5.95,10.51-1.06,15.35-1.06s8.26-13.89,11.88-14.98c3.59-1.08,11.12,2.53,12.17,6.81,0,.03.02.06.02.09.82,3.72-2.66,11.42-2.66,11.42h0Z"/>
          <g>
            <path class="cls-1" d="M67.42,189.1c-3.84,0-11-3.2-18.66-6.8-.62-.29-1.21-.57-1.76-.82-6.59-3.07-8.41-6.14-6.95-11.73,1.38-5.26,5.21-12.82,5.38-13.14h0c2.48-4.6,7.11-3.38,11.19-2.29,1.72.46,3.34.89,4.73.89,2.31,0,4.53-4.24,6.49-7.99,1.8-3.44,3.35-6.41,5.21-6.97,2.04-.61,5.24.09,8.14,1.79,2.64,1.55,4.42,3.59,4.86,5.59.85,3.84-2.48,11.32-2.7,11.81-.14.35-2.78,6.99-5.74,13.76-6.2,14.17-7.74,15.14-8.24,15.46-.49.3-1.14.44-1.95.44ZM46.57,157.2c-.14.27-3.95,7.82-5.28,12.88-1.3,4.95.22,7.43,6.25,10.24.55.25,1.14.53,1.76.83,3.39,1.6,7.62,3.58,11.41,5,5.59,2.08,7.39,1.79,7.96,1.43,2.06-1.29,9.36-18.24,13.48-28.62,0,0,0-.02.01-.03.03-.08,3.39-7.55,2.62-11.02-.37-1.66-1.92-3.4-4.26-4.77-2.57-1.5-5.43-2.17-7.12-1.66-1.34.4-2.92,3.42-4.44,6.33-2.23,4.26-4.54,8.67-7.62,8.67-1.55,0-3.25-.45-5.05-.93-3.97-1.06-7.73-2.05-9.73,1.65h0Z"/>
            <path class="cls-1" d="M67.42,189.64c-4,0-11.22-3.24-18.89-6.85l-.17-.08c-.56-.26-1.09-.51-1.59-.74-6.81-3.17-8.77-6.52-7.24-12.35,1.39-5.31,5.25-12.93,5.42-13.25,2.7-5,7.75-3.65,11.82-2.57,1.69.45,3.28.87,4.59.87,1.98,0,4.21-4.27,6.01-7.69,1.86-3.55,3.46-6.61,5.53-7.24,2.18-.66,5.54.07,8.57,1.84,2.77,1.63,4.64,3.79,5.12,5.94.88,3.96-2.36,11.32-2.73,12.15-.28.69-2.85,7.15-5.74,13.76-6.26,14.32-7.85,15.32-8.45,15.7-.57.35-1.3.53-2.23.53l-.02-.02h0ZM51.03,153.85c-2.05,0-3.87.71-5.11,3.01-.16.32-3.98,7.84-5.34,13.04-1.4,5.33.28,8.13,6.65,11.1.5.23,1.03.48,1.59.75l.17.08c7.25,3.41,14.65,6.74,18.42,6.74.72,0,1.28-.12,1.66-.36,1.57-.99,5.24-8.82,8.03-15.21,2.88-6.59,5.45-13.03,5.74-13.75.15-.34,3.49-7.81,2.67-11.49-.41-1.86-2.09-3.77-4.61-5.24-2.78-1.63-5.8-2.31-7.71-1.73-1.64.49-3.22,3.51-4.89,6.7-2.13,4.07-4.33,8.28-6.97,8.28-1.45,0-3.11-.44-4.86-.9-1.86-.49-3.75-.99-5.47-.99l.03-.03h0ZM67.43,188.37c-1.52,0-3.82-.57-6.9-1.72-3.82-1.42-8.05-3.41-11.46-5.01-.62-.29-1.21-.57-1.76-.83-6.26-2.92-7.91-5.66-6.54-10.87,1.35-5.14,5.16-12.67,5.32-12.99h0c2.21-4.09,6.34-2.99,10.34-1.93,1.77.47,3.44.91,4.92.91,2.76,0,4.99-4.26,7.14-8.38,1.65-3.15,3.21-6.13,4.77-6.6,1.85-.56,4.82.12,7.55,1.72,2.47,1.45,4.11,3.31,4.51,5.12.81,3.65-2.52,11.04-2.66,11.36-.11.27-10.75,27.04-13.7,28.88-.36.22-.87.34-1.54.34h.01ZM47.05,157.45c-.13.26-3.93,7.8-5.23,12.76-1.22,4.67.17,6.92,5.95,9.61.55.26,1.14.53,1.77.83,3.38,1.59,7.59,3.57,11.37,4.98,5.88,2.19,7.27,1.61,7.49,1.48,1.65-1.04,8.17-15.53,13.27-28.36l.02-.05c.93-2.04,3.19-7.94,2.59-10.68-.34-1.51-1.8-3.12-4-4.42-2.41-1.41-5.16-2.07-6.69-1.61-1.12.34-2.79,3.51-4.12,6.07-2.3,4.41-4.69,8.96-8.1,8.96-1.62,0-3.35-.46-5.19-.95-3.93-1.04-7.31-1.94-9.12,1.38h0Z"/>
          </g>
        </g>
      </g>
    </g>
    <g>
      <g>
        <polygon class="cls-2" points="99.67 156.81 99.67 180.03 107.54 171.83 115.74 180.03 115.74 156.81 99.67 156.81"/>
        <path class="cls-1" d="M99.67,181.42c-.17,0-.35-.03-.52-.1-.52-.21-.87-.72-.87-1.28v-23.22c0-.76.62-1.38,1.38-1.38h16.07c.76,0,1.38.62,1.38,1.38v23.22c0,.56-.34,1.06-.85,1.28s-1.11.1-1.51-.3l-7.2-7.2-6.89,7.18c-.27.28-.63.43-1,.43h.01ZM107.54,170.45c.37,0,.72.15.98.41l5.84,5.84v-18.5h-13.3v18.4l5.49-5.72c.26-.27.61-.42.98-.43,0,0,.01,0,0,0h0Z"/>
      </g>
      <g>
        <path class="cls-3" d="M124.36,129.29c1.25,1.73.79,4.3,1.42,6.23.65,2,2.51,3.82,2.51,5.87s-1.88,3.9-2.52,5.87c-.63,1.95-.18,4.53-1.42,6.23-1.19,1.64-3.76,2.01-5.49,3.27-1.73,1.25-2.88,3.58-4.81,4.21-2,.65-4.31-.58-6.36-.58s-4.39,1.21-6.36.57c-1.95-.63-3.11-2.97-4.81-4.2-1.64-1.19-4.23-1.55-5.48-3.28s-.79-4.3-1.42-6.23c-.65-2-2.51-3.82-2.51-5.87s1.88-3.9,2.52-5.87c.63-1.95.18-4.53,1.42-6.23,1.19-1.64,3.76-2.01,5.49-3.27,1.73-1.25,2.88-3.58,4.81-4.21,2-.65,4.31.58,6.36.58s4.39-1.21,6.36-.57c1.95.63,3.11,2.97,4.81,4.2,1.64,1.19,4.23,1.55,5.48,3.28h0Z"/>
        <path class="cls-1" d="M112.77,162.54c-1,0-1.98-.22-2.88-.42-.8-.18-1.53-.46-2.21-.35-.67,0-1.43.17-2.23.35-1.41.31-3,.66-4.55.16-1.54-.5-2.61-1.71-3.56-2.79-.55-.62-1.08-1.21-1.63-1.61-.51-.37-1.21-.68-1.95-.99-1.33-.58-2.85-1.23-3.84-2.59s-1.14-3.01-1.27-4.45c-.07-.8-.14-1.55-.34-2.16-.21-.65-.61-1.33-1.03-2.05-.73-1.24-1.55-2.64-1.55-4.26s.83-3.04,1.56-4.28c.42-.71.82-1.38,1.02-2.02.2-.62.28-1.39.35-2.2.14-1.44.29-3.07,1.26-4.41.94-1.28,2.41-1.93,3.71-2.5.78-.34,1.51-.66,2.08-1.08.57-.41,1.1-1.01,1.67-1.65.94-1.06,2.02-2.27,3.53-2.76,1.57-.51,3.17-.15,4.58.17.8.18,1.55.35,2.2.35h0c.67,0,1.43-.17,2.23-.35,1.4-.31,2.99-.66,4.55-.16,1.54.5,2.62,1.71,3.57,2.79.55.62,1.08,1.21,1.63,1.61.52.38,1.21.68,1.95,1,1.33.58,2.85,1.23,3.83,2.59h0c.99,1.36,1.14,3,1.28,4.45.07.8.14,1.55.34,2.16.21.65.61,1.33,1.03,2.05.73,1.24,1.55,2.64,1.54,4.26,0,1.63-.83,3.04-1.56,4.27-.42.71-.82,1.38-1.02,2.02-.2.62-.27,1.39-.35,2.2-.14,1.44-.29,3.07-1.26,4.41-.93,1.28-2.41,1.93-3.71,2.5-.78.34-1.51.66-2.08,1.07s-1.1,1.01-1.67,1.65c-.94,1.06-2.02,2.27-3.53,2.76-.57.19-1.14.26-1.71.26h.02ZM107.68,159h.01c.96,0,1.9.21,2.81.42,1.17.26,2.27.51,3.13.23.8-.26,1.53-1.09,2.31-1.96.64-.72,1.3-1.46,2.11-2.05s1.72-.99,2.6-1.37c1.08-.47,2.09-.91,2.59-1.59.53-.72.63-1.85.75-3.04.09-.93.18-1.88.47-2.8.3-.93.79-1.76,1.27-2.57.61-1.03,1.18-2,1.18-2.87s-.56-1.83-1.16-2.86c-.48-.81-.97-1.65-1.27-2.59-.29-.9-.38-1.84-.46-2.76-.11-1.2-.22-2.34-.76-3.08h0c-.54-.75-1.59-1.2-2.69-1.68-.84-.37-1.72-.74-2.48-1.3-.79-.58-1.44-1.31-2.07-2.02-.79-.89-1.53-1.73-2.35-1.99-.84-.27-1.93-.03-3.1.23-.91.2-1.86.41-2.83.41-.94.07-1.91-.21-2.82-.42-1.17-.26-2.27-.51-3.12-.24-.8.26-1.53,1.09-2.32,1.97-.64.71-1.29,1.45-2.11,2.05-.81.59-1.72.99-2.6,1.37-1.08.47-2.09.91-2.58,1.59-.53.72-.63,1.85-.75,3.04-.09.93-.18,1.88-.47,2.8-.3.93-.79,1.76-1.27,2.57-.61,1.03-1.18,2-1.18,2.87s.57,1.83,1.17,2.85c.48.81.97,1.66,1.27,2.59.29.9.38,1.84.46,2.76.11,1.2.22,2.34.76,3.09s1.59,1.2,2.7,1.68c.84.36,1.72.74,2.48,1.3.79.58,1.44,1.31,2.07,2.02.79.89,1.53,1.72,2.35,1.99.83.27,1.93.03,3.1-.23.91-.2,1.86-.41,2.83-.41h-.03,0Z"/>
      </g>
      <g>
        <circle class="cls-2" cx="107.7" cy="141.38" r="9.5"/>
        <path class="cls-1" d="M107.7,152.26c-6,0-10.88-4.88-10.88-10.88s4.88-10.88,10.88-10.88,10.88,4.88,10.88,10.88-4.88,10.88-10.88,10.88ZM107.7,133.27c-4.47,0-8.11,3.64-8.11,8.11s3.64,8.12,8.11,8.12,8.11-3.64,8.11-8.12-3.64-8.11-8.11-8.11Z"/>
      </g>
      <g>
        <rect class="cls-1" x="98.74" y="154.66" width="9.17" height="1.99" transform="translate(-77.48 202.7) rotate(-71.01)"/>
        <rect class="cls-1" x="91.09" y="149.16" width="9.17" height="1.99" transform="translate(-67.12 78.06) rotate(-33.61)"/>
        <rect class="cls-1" x="88.13" y="139.85" width="9.17" height="1.99"/>
        <rect class="cls-1" x="94.87" y="127.3" width="1.99" height="9.17" transform="translate(-66.46 116.54) rotate(-48.59)"/>
        <rect class="cls-1" x="102.51" y="122.6" width="1.99" height="9.17" transform="translate(-34.47 38.57) rotate(-18.15)"/>
      </g>
      <g>
        <rect class="cls-1" x="111.22" y="151.07" width="1.99" height="9.17" transform="translate(-44.54 44.99) rotate(-18.99)"/>
        <rect class="cls-1" x="118.88" y="145.55" width="1.99" height="9.17" transform="translate(-71.52 166.86) rotate(-56.39)"/>
        <rect class="cls-1" x="118.22" y="139.84" width="9.17" height="1.99"/>
        <rect class="cls-1" x="115.1" y="130.89" width="9.17" height="1.99" transform="translate(-57.32 112.14) rotate(-41.41)"/>
        <rect class="cls-1" x="107.44" y="126.2" width="9.17" height="1.99" transform="translate(-43.74 194.03) rotate(-71.85)"/>
      </g>
    </g>
  </g>
</svg>