<?xml version="1.0" encoding="UTF-8"?>
<svg id="Layer_1" data-name="Layer 1" xmlns="http://www.w3.org/2000/svg" version="1.1" viewBox="0 0 360.88 283.46">
  <defs>
    <style>
      .cls-1 {
        stroke: #fff;
        stroke-width: 5.67px;
      }

      .cls-1, .cls-2, .cls-3, .cls-4, .cls-5 {
        stroke-miterlimit: 10;
      }

      .cls-1, .cls-2, .cls-6 {
        fill: #fff;
      }

      .cls-2, .cls-3, .cls-4, .cls-5 {
        stroke: #2e434f;
      }

      .cls-7, .cls-8, .cls-9, .cls-6 {
        stroke-width: 0px;
      }

      .cls-7, .cls-3 {
        fill: #2e434f;
      }

      .cls-8 {
        fill: #2e434f;
      }

      .cls-4, .cls-9 {
        fill: #ff7f19;
      }

      .cls-5 {
        fill: #f16858;
      }
    </style>
  </defs>
  <path class="cls-1" d="M162.85,141.72v-17.42c0-5.41.01-10.82-.01-16.22,0-.83-.1-1.67-.29-2.48-.87-3.82-3.2-6.54-6.53-8.47-6.23-3.6-12.46-7.19-18.69-10.8-9.7-5.61-19.39-11.24-29.1-16.85-3.26-1.88-6.54-3.74-9.82-5.58-.48-.27-1-.47-1.53-.65-2.86-.94-5.69-.68-8.41.49-1.75.75-3.45,1.66-5.1,2.62-17.18,9.89-34.35,19.79-51.52,29.71-1.34.77-2.7,1.53-3.91,2.47-3.14,2.46-4.89,5.7-4.9,9.74-.03,8.65-.02,17.3-.02,25.95,0,13.69,0,27.38.02,41.06,0,.8.1,1.61.27,2.39.87,3.82,3.17,6.56,6.5,8.49,4.59,2.67,9.2,5.31,13.79,7.97,13.89,8.05,27.78,16.11,41.69,24.13,1.17.68,2.41,1.27,3.69,1.7,3.23,1.09,6.43,1.05,9.5-.65,1.7-.94,3.44-1.82,5.12-2.79,16.99-9.79,33.97-19.59,50.94-29.4,1.15-.66,2.31-1.33,3.35-2.14,3.11-2.43,4.91-5.63,4.93-9.63.04-11.22.02-22.43.02-33.65Z"/>
  <g>
    <path class="cls-9" d="M158.24,104.16h171.11c4.69,0,8.5,3.81,8.5,8.5v59.13c0,4.69-3.81,8.5-8.5,8.5h-171.11v-76.14h0Z"/>
    <g>
      <path class="cls-8" d="M53.32,123.31l-.32-.05c.1,0,.21.02.32.05Z"/>
      <path class="cls-8" d="M57.38,119.73"/>
    </g>
    <path class="cls-8" d="M162.85,141.77v-17.42c0-5.41.01-10.82-.01-16.22,0-.83-.1-1.67-.29-2.48-.87-3.82-3.2-6.54-6.53-8.47-6.23-3.6-12.46-7.19-18.69-10.8-9.7-5.61-19.39-11.24-29.1-16.85-3.26-1.89-6.54-3.74-9.82-5.58-.48-.27-1-.47-1.53-.65-2.86-.94-5.69-.68-8.41.49-1.75.75-3.45,1.66-5.1,2.62-17.18,9.89-34.35,19.79-51.52,29.71-1.34.77-2.7,1.53-3.91,2.47-3.14,2.46-4.89,5.7-4.9,9.74-.03,8.65-.02,17.3-.02,25.95,0,13.69,0,27.38.02,41.06,0,.8.1,1.61.27,2.39.87,3.82,3.17,6.56,6.5,8.49,4.59,2.67,9.2,5.31,13.79,7.97,13.89,8.05,27.78,16.11,41.69,24.13,1.17.68,2.41,1.27,3.69,1.7,3.23,1.09,6.43,1.05,9.5-.65,1.7-.94,3.44-1.82,5.12-2.79,16.99-9.79,33.97-19.59,50.94-29.4,1.15-.66,2.31-1.33,3.35-2.14,3.11-2.43,4.91-5.63,4.93-9.63.04-11.22.02-22.43.02-33.65ZM158.18,173.49c0,3.99-1.72,7.03-5.16,9.01-16.28,9.36-32.57,18.68-48.85,28.02-2.19,1.26-4.43,2.45-6.58,3.79-3.14,1.97-6.19,1.84-9.34.02-10.94-6.31-21.9-12.58-32.84-18.88-7.49-4.31-14.97-8.64-22.45-12.98-3.5-2.03-5.26-5.07-5.26-9.15,0-4.16,0-8.32,0-12.48,0-6.34,0-12.69,0-19.04v-1.49c0-3.01,0-6.01,0-9.02,0-7.03,0-14.07-.02-21.1,0-3.23,1.14-5.9,3.58-8,.51-.44,1.09-.81,1.68-1.14,5.49-3.17,10.98-6.34,16.48-9.51,9.16-5.29,18.33-10.57,27.5-15.85,3.94-2.26,7.89-4.48,11.86-6.7,2.13-1.19,4.38-1.68,6.77-.9.72.24,1.41.61,2.08,1,5.58,3.2,11.15,6.39,16.72,9.6.01,0,.02,0,.03.02,3.73,2.14,7.46,4.29,11.19,6.44,9.18,5.29,18.34,10.58,27.5,15.9,3.07,1.78,4.8,4.48,5.11,8.02.12,1.35-.02,2.72-.02,4.07-.02,15.11-.03,30.22-.04,45.32,0,5.01.03,10.01.04,15.02Z"/>
    <g>
      <path class="cls-6" d="M177.99,121.99h-6.24v3.53h.65c1.75,0,3.82-.1,5.28,1.08,1.39,1.1,2.11,2.78,2.11,4.54s-.89,3.48-2.35,4.46c-1.49,1.01-3.1.94-4.8.94h-4.18v-17.74h9.53v3.19ZM171.75,128.71v4.63h.6c.72,0,1.73.05,2.45-.14.98-.26,1.7-1.03,1.7-2.11s-.65-1.87-1.61-2.18c-.79-.24-1.73-.19-2.54-.19h-.6Z"/>
      <path class="cls-6" d="M192.03,118.79v3.19h-6.24v4.08h5.98v3.19h-5.98v4.08h6.24v3.19h-9.53v-17.74h9.53Z"/>
      <path class="cls-6" d="M203.86,136.96c-5.09,0-9.19-4.25-9.19-9.31s4.15-9.19,9.1-9.19c3.55,0,7.06,2.06,8.42,5.4h-3.74c-1.1-1.34-2.88-2.21-4.66-2.21-3.24,0-5.83,2.81-5.83,6.12s2.69,6,5.86,6c1.75,0,3.26-.79,4.46-2.06h3.82c-1.34,3.22-4.8,5.26-8.23,5.26Z"/>
      <path class="cls-6" d="M227.96,118.79v17.74h-3.29v-14.54h-6.48v14.54h-3.29v-17.74h13.06Z"/>
      <path class="cls-6" d="M244.4,136.53h-3.29v-14.54h-3.26l-4.01,14.54h-3.48l5.16-17.74h8.88v17.74Z"/>
      <path class="cls-6" d="M256.76,118.79l7.46,17.74h-3.62l-1.92-4.58h-6.29l-1.97,4.58h-3.62l7.39-17.74h2.57ZM255.48,123.38l-1.9,5.38h3.79l-1.9-5.38Z"/>
      <path class="cls-6" d="M263.33,121.99v-3.19h9.91v3.19h-3.31v14.54h-3.29v-14.54h-3.31Z"/>
      <path class="cls-6" d="M278.86,118.79v7.1h6.48v-7.1h3.29v17.74h-3.29v-7.44h-6.48v7.44h-3.29v-17.74h3.29Z"/>
      <path class="cls-6" d="M295.78,118.79v6.72h.65c1.75,0,3.82-.1,5.28,1.08,1.39,1.1,2.11,2.78,2.11,4.54s-.89,3.48-2.35,4.46c-1.49,1.01-3.1.94-4.8.94h-4.18v-17.74h3.29ZM295.78,128.71v4.63h.6c.72,0,1.73.05,2.45-.14.98-.26,1.7-1.03,1.7-2.11s-.65-1.87-1.61-2.18c-.79-.24-1.73-.19-2.54-.19h-.6ZM309.39,118.79v17.74h-3.29v-17.74h3.29Z"/>
      <path class="cls-6" d="M327.75,136.53h-3.29v-12.91l-7.56,12.91h-3.65v-17.74h3.29v12.96l7.51-12.96h3.7v17.74ZM320.5,115.41c.65,0,1.32-.34,1.58-.96h2.38c-.26,2.18-1.85,3.26-3.96,3.26s-3.7-1.08-3.96-3.26h2.38c.26.62.94.96,1.58.96Z"/>
      <path class="cls-6" d="M166.9,150.79v-3.19h9.91v3.19h-3.31v14.54h-3.29v-14.54h-3.31Z"/>
      <path class="cls-6" d="M179.14,147.59h4.18c1.7,0,3.31-.07,4.8.94,1.46.98,2.35,2.69,2.35,4.46s-.72,3.43-2.11,4.54c-1.46,1.18-3.53,1.08-5.28,1.08h-.65v6.72h-3.29v-17.74ZM185.57,155.23c.96-.31,1.61-1.15,1.61-2.18s-.72-1.85-1.7-2.11c-.72-.19-1.73-.14-2.45-.14h-.6v4.63h.6c.82,0,1.75.05,2.54-.19Z"/>
      <path class="cls-6" d="M199.47,147.59l7.46,17.74h-3.62l-1.92-4.58h-6.29l-1.97,4.58h-3.62l7.39-17.74h2.57ZM198.2,152.18l-1.9,5.38h3.79l-1.9-5.38Z"/>
      <path class="cls-6" d="M212.62,147.59v7.1h6.48v-7.1h3.29v17.74h-3.29v-7.44h-6.48v7.44h-3.29v-17.74h3.29Z"/>
      <path class="cls-6" d="M234.53,165.76c-5.09,0-9.19-4.25-9.19-9.31s4.15-9.19,9.1-9.19c3.55,0,7.06,2.06,8.42,5.4h-3.74c-1.1-1.34-2.88-2.21-4.66-2.21-3.24,0-5.83,2.81-5.83,6.12s2.69,6,5.86,6c1.75,0,3.26-.79,4.46-2.06h3.82c-1.34,3.22-4.8,5.26-8.23,5.26Z"/>
      <path class="cls-6" d="M244.78,156.55c0-5.16,4.15-9.29,9.26-9.29h3.29c5.11,0,9.26,4.13,9.26,9.29s-4.22,9.22-9.26,9.22h-3.29c-5.04,0-9.26-4.08-9.26-9.22ZM248.07,156.47c0,3.29,2.74,6.1,5.98,6.1v-12.12c-3.31,0-5.98,2.69-5.98,6.02ZM257.33,162.57c3.24,0,5.98-2.81,5.98-6.1s-2.67-6.02-5.98-6.02v12.12Z"/>
      <path class="cls-6" d="M279.22,147.59v3.19h-6.24v4.08h5.98v3.19h-5.98v4.08h6.24v3.19h-9.53v-17.74h9.53Z"/>
      <path class="cls-6" d="M282.77,147.59h4.18c1.7,0,3.31-.07,4.8.94,1.46.98,2.35,2.69,2.35,4.46s-.72,3.43-2.11,4.54c-1.46,1.18-3.53,1.08-5.28,1.08h-.65v6.72h-3.29v-17.74ZM289.21,155.23c.96-.31,1.61-1.15,1.61-2.18s-.72-1.85-1.7-2.11c-.72-.19-1.73-.14-2.45-.14h-.6v4.63h.6c.82,0,1.75.05,2.54-.19Z"/>
    </g>
  </g>
  <g>
    <path class="cls-4" d="M139.53,146.73c2.67-.02,4.71-3.36,4.37-6-.38-2.93-.76-5.85-1.15-8.78-.23-1.79-.48-3.62-1.28-5.23-.8-1.62-2.27-3.12-4.06-3.33-.61-1.17-1.23-2.35-1.85-3.54-2.7-5.18-7.76-8.7-13.56-9.43-12.23-1.54-24.77-.35-37.26-.03-3.41.09-6.67,1.45-9.13,3.82l-9.25,8.91c-6.11.37-12.18,1.36-18.09,2.93-2.39.64-4.82,1.41-6.72,2.99s-3.47,4.29-2.83,6.68c-1.39,3.35-1.05,7.37.88,10.45.07,0,.17.38.23.38l99.71.19Z"/>
    <path class="cls-3" d="M139.53,147.53h0l-99.71-.19c-.55,0-.76-.48-.84-.66,0,0,0,0,0,0-.02-.03-.04-.06-.06-.09-2.03-3.22-2.42-7.39-1.04-10.94-.57-2.71,1.14-5.56,3.15-7.23,2.08-1.73,4.72-2.53,7.03-3.15,5.86-1.57,11.9-2.55,17.96-2.94l9.04-8.7c2.61-2.51,6.04-3.95,9.66-4.04,3.03-.08,27.7.04,37.38.04,6.1,0,11.35,4.45,14.16,9.85.56,1.07,1.11,2.13,1.67,3.19,1.71.37,3.28,1.72,4.26,3.69.87,1.75,1.13,3.73,1.36,5.48l1.15,8.78c.22,1.71-.42,3.73-1.65,5.14-.98,1.13-2.22,1.75-3.5,1.76h0ZM39.58,146.96h0,0ZM39.58,146.96h0,0ZM39.49,146.96s.06,0,.09,0c-.03,0-.06,0-.09,0ZM39.49,146.96s0,0,0,0c0,0,0,0,0,0ZM40.28,145.74l99.25.19c.81,0,1.63-.44,2.3-1.22.94-1.08,1.44-2.61,1.27-3.89l-1.15-8.78c-.22-1.7-.45-3.47-1.2-4.98-.63-1.28-1.87-2.71-3.44-2.89-.26-.03-.49-.19-.61-.42-.61-1.17-1.23-2.35-1.85-3.54-2.58-4.94-7.37-9.01-12.95-9.01-11.04,0-34.1-.11-37.14-.03-3.22.08-6.27,1.36-8.6,3.59l-9.25,8.91c-.14.13-.32.21-.51.22-6.05.37-12.08,1.35-17.94,2.91-2.15.57-4.59,1.31-6.42,2.83-1.63,1.36-3.13,3.77-2.57,5.86.05.17.03.35-.03.51-1.29,3.1-.99,6.78.77,9.63.02.03.05.06.07.09Z"/>
    <g>
      <path class="cls-2" d="M71.55,124.66l10.18-12.02h-4.16c-.69.46-1.35.98-1.96,1.56l-9.25,8.91,5.2,1.55Z"/>
      <path class="cls-3" d="M71.55,125.45c-.08,0-.15-.01-.23-.03l-5.2-1.55c-.27-.08-.48-.3-.55-.58-.07-.28.02-.57.22-.76l9.25-8.91c.64-.61,1.33-1.17,2.07-1.66.13-.09.28-.13.44-.13h4.16c.31,0,.59.18.72.46.13.28.09.61-.12.85l-10.18,12.02c-.15.18-.38.28-.61.28ZM67.89,122.73l3.39,1.01,8.73-10.31h-2.2c-.59.4-1.14.85-1.65,1.34l-8.27,7.96Z"/>
    </g>
    <g>
      <polygon class="cls-2" points="104.47 112.64 84.52 112.64 75.14 124.66 104.47 124.06 104.47 112.64"/>
      <path class="cls-3" d="M75.14,125.45c-.3,0-.58-.17-.71-.44-.14-.28-.11-.61.08-.85l9.38-12.02c.15-.19.38-.31.63-.31h19.96c.44,0,.8.36.8.8v11.42c0,.43-.35.79-.78.8l-29.33.6s-.01,0-.02,0ZM84.91,113.44l-8.11,10.39,26.87-.55v-9.84h-18.77Z"/>
    </g>
    <g>
      <path class="cls-2" d="M128.61,112.64h-20.44v11.35l29.24-.59c-.61-1.17-1.23-2.35-1.85-3.54-1.6-3.07-4.03-5.55-6.95-7.22Z"/>
      <path class="cls-3" d="M108.17,124.78c-.21,0-.41-.08-.56-.23-.15-.15-.24-.36-.24-.57v-11.35c0-.44.36-.8.8-.8h20.44c.14,0,.28.04.4.11,3.11,1.78,5.62,4.38,7.26,7.54.62,1.19,1.24,2.37,1.85,3.54.13.25.12.54-.02.78-.14.24-.39.39-.67.39l-29.24.59s-.01,0-.02,0ZM108.96,113.44v9.73l27.13-.55c-.42-.8-.83-1.6-1.25-2.4-1.47-2.82-3.7-5.16-6.45-6.79h-19.43Z"/>
    </g>
    <path class="cls-3" d="M72.49,146.44c-.44,0-.8-.36-.8-.8v-14.07c0-.44.36-.8.8-.8s.8.36.8.8v14.07c0,.44-.36.8-.8.8Z"/>
    <path class="cls-3" d="M108.17,146.44c-.44,0-.8-.36-.8-.8v-17.55c0-.44.36-.8.8-.8s.8.36.8.8v17.55c0,.44-.36.8-.8.8Z"/>
    <path class="cls-3" d="M102.41,128.89h-4.99c-.44,0-.8-.36-.8-.8s.36-.8.8-.8h4.99c.44,0,.8.36.8.8s-.36.8-.8.8Z"/>
    <g>
      <g>
        <path class="cls-3" d="M124.96,132.85h0c-6.49,0-11.75,5.26-11.75,11.75v1.87h23.5v-1.87c0-6.49-5.26-11.75-11.75-11.75Z"/>
        <path class="cls-3" d="M136.71,147.27h-23.5c-.44,0-.8-.36-.8-.8v-1.87c0-6.92,5.63-12.55,12.55-12.55s12.55,5.63,12.55,12.55v1.87c0,.44-.36.8-.8.8ZM114.01,145.67h21.9v-1.07c0-6.04-4.91-10.95-10.95-10.95s-10.95,4.91-10.95,10.95v1.07Z"/>
      </g>
      <g>
        <circle class="cls-2" cx="124.96" cy="142.94" r="9.85"/>
        <path class="cls-3" d="M124.96,153.59c-5.87,0-10.65-4.78-10.65-10.65s4.78-10.65,10.65-10.65,10.65,4.78,10.65,10.65-4.78,10.65-10.65,10.65ZM124.96,133.89c-4.99,0-9.05,4.06-9.05,9.05s4.06,9.05,9.05,9.05,9.05-4.06,9.05-9.05-4.06-9.05-9.05-9.05Z"/>
      </g>
      <path class="cls-3" d="M124.96,147.53c-2.53,0-4.59-2.06-4.59-4.59s2.06-4.59,4.59-4.59,4.59,2.06,4.59,4.59-2.06,4.59-4.59,4.59ZM124.96,139.95c-1.65,0-2.99,1.34-2.99,2.99s1.34,2.99,2.99,2.99,2.99-1.34,2.99-2.99-1.34-2.99-2.99-2.99Z"/>
    </g>
    <g>
      <g>
        <path class="cls-3" d="M55.68,132.85h0c-6.49,0-11.75,5.26-11.75,11.75v1.87h23.5v-1.87c0-6.49-5.26-11.75-11.75-11.75Z"/>
        <path class="cls-3" d="M67.43,147.27h-23.5c-.44,0-.8-.36-.8-.8v-1.87c0-6.92,5.63-12.55,12.55-12.55s12.55,5.63,12.55,12.55v1.87c0,.44-.36.8-.8.8ZM44.72,145.67h21.9v-1.07c0-6.04-4.91-10.95-10.95-10.95s-10.95,4.91-10.95,10.95v1.07Z"/>
      </g>
      <g>
        <circle class="cls-2" cx="55.68" cy="142.94" r="9.85"/>
        <path class="cls-3" d="M55.68,153.59c-5.87,0-10.65-4.78-10.65-10.65s4.78-10.65,10.65-10.65,10.65,4.78,10.65,10.65-4.78,10.65-10.65,10.65ZM55.68,133.89c-4.99,0-9.05,4.06-9.05,9.05s4.06,9.05,9.05,9.05,9.05-4.06,9.05-9.05-4.06-9.05-9.05-9.05Z"/>
      </g>
      <path class="cls-3" d="M55.68,147.53c-2.53,0-4.59-2.06-4.59-4.59s2.06-4.59,4.59-4.59,4.59,2.06,4.59,4.59-2.06,4.59-4.59,4.59ZM55.68,139.95c-1.65,0-2.99,1.34-2.99,2.99s1.34,2.99,2.99,2.99,2.99-1.34,2.99-2.99-1.34-2.99-2.99-2.99Z"/>
    </g>
    <g>
      <path class="cls-2" d="M42.95,131.49c0-.97-.47-1.87-1.25-2.58-.05.04-.11.08-.17.13-1.85,1.54-3.38,4.15-2.87,6.5,2.47-.51,4.28-2.12,4.28-4.04Z"/>
      <path class="cls-3" d="M38.66,136.33c-.37,0-.7-.25-.78-.63-.6-2.73,1.14-5.62,3.14-7.28.04-.04.09-.07.13-.1l.05-.04c.31-.24.75-.23,1.04.04.97.89,1.51,2.01,1.51,3.17,0,2.25-2.02,4.23-4.92,4.83-.05.01-.11.02-.16.02ZM41.63,130.02c-1.2,1.15-2.24,2.85-2.27,4.5,1.68-.58,2.78-1.75,2.78-3.03,0-.59-.23-1.08-.52-1.47Z"/>
    </g>
    <g>
      <path class="cls-2" d="M141.47,126.72c-.4-.8-.96-1.58-1.65-2.18-1.83.85-3.08,2.61-3.08,4.64,0,2.87,2.5,5.19,5.59,5.19.25,0,.49-.02.73-.05-.1-.79-.21-1.58-.31-2.37-.23-1.79-.48-3.62-1.28-5.23Z"/>
      <path class="cls-3" d="M142.32,135.17c-3.52,0-6.39-2.69-6.39-5.99,0-2.28,1.36-4.34,3.54-5.36.29-.13.63-.09.86.12.73.64,1.37,1.48,1.84,2.42h0c.87,1.75,1.13,3.73,1.36,5.48l.31,2.37c.03.21-.03.42-.16.59-.13.17-.32.28-.53.3-.31.04-.58.06-.83.06ZM139.68,125.52c-1.34.81-2.15,2.17-2.15,3.66,0,2.37,2.06,4.31,4.62,4.39l-.2-1.51c-.22-1.7-.45-3.47-1.2-4.98-.29-.58-.65-1.11-1.07-1.56Z"/>
    </g>
    <g>
      <path class="cls-5" d="M78.73,127.85h-3.99c-1.76,0-3.2-1.43-3.2-3.2h0c0-1.76,1.43-3.2,3.2-3.2h3.99v6.39Z"/>
      <path class="cls-3" d="M78.73,128.65h-3.99c-2.2,0-3.99-1.79-3.99-3.99s1.79-3.99,3.99-3.99h3.99c.44,0,.8.36.8.8v6.39c0,.44-.36.8-.8.8ZM74.74,122.26c-1.32,0-2.4,1.08-2.4,2.4s1.08,2.4,2.4,2.4h3.19v-4.8h-3.19Z"/>
    </g>
    <g>
      <path class="cls-3" d="M146.11,154.92H41.5c-.44,0-.8-.36-.8-.8s.36-.8.8-.8h104.61c.44,0,.8.36.8.8s-.36.8-.8.8Z"/>
      <path class="cls-3" d="M37.21,154.92h-4.49c-.44,0-.8-.36-.8-.8s.36-.8.8-.8h4.49c.44,0,.8.36.8.8s-.36.8-.8.8Z"/>
      <path class="cls-3" d="M150.7,154.92h-2.39c-.44,0-.8-.36-.8-.8s.36-.8.8-.8h2.39c.44,0,.8.36.8.8s-.36.8-.8.8Z"/>
    </g>
    <circle class="cls-3" cx="72.49" cy="128.91" r=".86"/>
    <path class="cls-3" d="M95.53,127.85c0,.47-.38.86-.86.86s-.86-.38-.86-.86.38-.86.86-.86.86.38.86.86Z"/>
  </g>
  <g>
    <g>
      <path class="cls-7" d="M83.2,164.31h-17.14v-4.48c0-1.16-1.77-1.82-3.04-1.16l-20.92,10.98c-.42.22-.64.57-.64.91s.21.69.64.91l20.92,10.98c1.28.67,3.04,0,3.04-1.15v-4.51h50.65l.53-.13v-1.94l-.53-.13h-53.63v5.2l-17.55-9.21,17.55-9.21v5.17h20.12c.41,0,.78-.12,1.06-.32.27-.2.44-.48.44-.78,0-.61-.67-1.11-1.49-1.11Z"/>
      <path class="cls-7" d="M117.24,174.71v1.94l-.53.13h-50.65v4.51c0,1.15-1.77,1.82-3.04,1.15l-20.92-10.98c-.42-.22-.64-.57-.64-.91h4.06l17.55,9.21v-5.2h53.63l.53.13Z"/>
    </g>
    <g>
      <path class="cls-7" d="M145.16,179.89l-20.92-10.98c-1.28-.67-3.04,0-3.04,1.15v4.51h-8.79v2.21h11.77v-5.2l17.55,9.21-17.55,9.21v-5.17h-20.12c-.41,0-.78.12-1.06.32-.27.2-.44.48-.44.78,0,.61.67,1.11,1.49,1.11h17.14v4.48c0,1.16,1.77,1.82,3.04,1.16l20.92-10.98c.42-.22.64-.57.64-.91s-.21-.69-.64-.91Z"/>
      <path class="cls-7" d="M145.8,180.8c0,.35-.21.69-.64.91l-20.92,10.98c-1.28.67-3.04,0-3.04-1.16v-4.48h-17.14c-.82,0-1.49-.5-1.49-1.11,0-.31.17-.58.44-.78.27-.2.64-.32,1.06-.32h20.12v5.17l17.55-9.21h4.06Z"/>
    </g>
  </g>
</svg>