<?xml version="1.0"?>
<svg width="1080" height="1080" xmlns="http://www.w3.org/2000/svg" xmlns:svg="http://www.w3.org/2000/svg" version="1.1" xml:space="preserve">
 <desc>Created with Fabric.js 5.2.4</desc>

 <g class="layer">
  <title>Layer 1</title>
  <g id="svg_77" transform="matrix(NaN NaN NaN NaN 0 0)">
   <g id="svg_78"/>
  </g>
  <g id="svg_79" transform="matrix(NaN NaN NaN NaN 0 0)">
   <g id="svg_80"/>
  </g>
  <g id="svg_81" transform="matrix(NaN NaN NaN NaN 0 0)">
   <g id="svg_82"/>
  </g>
  <g id="svg_83">
   <g id="75b38909-aa0f-4f0a-8a3e-5d0ba6dc2281" transform="matrix(2.89389 0 0 3.1262 282.105 536.454)"/>
   <g id="svg_3" transform="matrix(2.89389 0 0 3.1262 92.7872 536.454)">
    <path d="m276.41,115.06l0,-17.42c0,-5.41 0.01,-10.82 -0.01,-16.22c0,-0.83 -0.1,-1.67 -0.29,-2.48c-0.87,-3.82 -3.2,-6.54 -6.53,-8.47c-6.23,-3.6 -12.46,-7.19 -18.69,-10.8c-9.7,-5.61 -19.39,-11.24 -29.1,-16.85c-3.26,-1.88 -6.54,-3.74 -9.82,-5.58c-0.48,-0.27 -1,-0.47 -1.53,-0.65c-2.86,-0.94 -5.69,-0.68 -8.41,0.49c-1.75,0.75 -3.45,1.66 -5.1,2.62c-17.18,9.89 -34.35,19.79 -51.52,29.71c-1.34,0.77 -2.7,1.53 -3.91,2.47c-3.14,2.46 -4.89,5.7 -4.9,9.74c-0.03,8.65 -0.02,17.3 -0.02,25.95c0,13.69 0,27.38 0.02,41.06c0,0.8 0.1,1.61 0.27,2.39c0.87,3.82 3.17,6.56 6.5,8.49c4.59,2.67 9.2,5.31 13.79,7.97c13.89,8.05 27.78,16.11 41.69,24.13c1.17,0.68 2.41,1.27 3.69,1.7c3.23,1.09 6.43,1.05 9.5,-0.65c1.7,-0.94 3.44,-1.82 5.12,-2.79c16.99,-9.79 33.97,-19.59 50.94,-29.4c1.15,-0.66 2.31,-1.33 3.35,-2.14c3.11,-2.43 4.91,-5.63 4.93,-9.63c0.04,-11.22 0.02,-22.43 0.02,-33.65l0.01,0.01z" fill="rgb(255,255,255)" fill-rule="nonzero" id="svg_4" stroke="rgb(255,255,255)" stroke-dashoffset="0" stroke-miterlimit="10" stroke-width="5.67" transform="translate(-113.61 -141.72)"/>
   </g>
   <g id="svg_5" transform="matrix(2.89389 0 0 3.1262 93.1056 528.107)">
    <path d="m201.21,112.08l7.01,5.91c0,0 2.67,0.27 3.37,-0.94c0.7,-1.21 0.29,-4.46 0.29,-4.46l-8.09,-5.88l-2.2,0.77l-0.38,4.6z" fill="rgb(241,104,88)" fill-rule="nonzero" id="svg_6" stroke-dashoffset="0" stroke-miterlimit="4" stroke-width="0" transform="translate(-113.71 -139.05)"/>
   </g>
   <g id="svg_7" transform="matrix(2.89389 0 0 3.1262 14.6522 466.395)">
    <path d="m154.62,77.24c0,0 6.72,-5.59 8.52,-4.41c1.8,1.18 40.68,28.13 40.68,28.13c0,0 3.29,3.7 -0.02,5.75c-3.31,2.05 -6.41,5.87 -6.41,5.87l-13.82,-10.58l-9.06,3.43l-3.57,0l-1.86,-3.21l-0.26,-2.24l4.03,-3.16l-18.9,-15.06c0,0 -0.84,-3.34 0.67,-4.53l0,0.01z" fill="rgb(0,116,120)" fill-rule="nonzero" id="svg_8" stroke-dashoffset="0" stroke-miterlimit="4" stroke-width="0" transform="translate(-86.61 -119.31)"/>
   </g>
   <g id="svg_9" transform="matrix(2.89389 0 0 3.1262 59.4496 510.443)">
    <path d="m210.85,117.99c-0.77,0.38 -1.38,0.81 -2.06,1c-0.99,0.27 -1.93,-0.06 -2.69,-0.74c-1.96,-1.75 -3.89,-3.53 -5.83,-5.29c-0.1,-0.09 -0.19,-0.21 -0.29,-0.32c-2.1,0.99 -4.16,1.09 -6.15,-0.3c-0.52,-0.37 -1.01,-0.77 -1.52,-1.15c-2.72,-2.03 -5.48,-4.02 -8.16,-6.11c-0.98,-0.77 -1.98,-0.76 -3.06,-0.63c-2.14,0.27 -4.08,1.09 -5.96,2.09c-0.27,0.14 -0.55,0.26 -0.81,0.42c-1.55,0.95 -2.83,0.6 -4.11,-0.55c-0.84,-0.76 -1.67,-1.54 -2.48,-2.34c-1.58,-1.55 -1.62,-3.12 -0.14,-4.79c1.11,-1.26 2.2,-2.53 3.34,-3.85c-1.64,-1.18 -3.28,-2.36 -4.93,-3.54c-3.91,-2.8 -7.84,-5.58 -11.74,-8.4c-2.92,-2.11 -3.4,-5.4 -1.08,-8.17c1.54,-1.85 3.25,-3.6 5.64,-4.37c2.74,-0.89 5.27,-0.28 7.57,1.32c9.62,6.71 19.22,13.44 28.81,20.18c2.78,1.95 5.56,3.92 8.26,5.98c1.64,1.25 2.65,2.97 2.54,5.11c-0.04,0.87 -0.35,1.73 -0.56,2.69c1.55,1.47 3.22,3.04 4.86,4.63c0.56,0.54 1.1,1.11 1.57,1.73c0.74,0.99 0.95,2.09 0.41,3.25c-0.16,0.35 -0.09,0.56 0.21,0.83c2.52,2.33 5.02,4.68 7.52,7.03c2.15,2.02 4.29,4.04 6.56,6.01c-0.33,-1.21 -0.66,-2.43 -0.99,-3.64c-0.22,-0.81 -0.46,-1.63 -0.68,-2.44c-0.2,-0.75 0.04,-1.18 0.77,-1.38c0.61,-0.17 1.17,0.12 1.35,0.78c0.6,2.24 1.17,4.49 1.75,6.74c0,0.03 0.05,0.06 0.11,0.13c2.01,-2.37 4.01,-4.72 6,-7.08c0.34,-0.41 0.7,-0.8 1.31,-0.62c0.85,0.26 1.12,1.14 0.52,1.85c-1.45,1.72 -2.92,3.41 -4.39,5.11c-0.68,0.79 -1.37,1.56 -2.13,2.43c1.25,0.13 2.41,0.25 3.56,0.35c1.15,0.11 2.31,0.18 3.46,0.3c0.68,0.07 1.06,0.53 1.02,1.13c-0.04,0.61 -0.46,1.02 -1.15,0.97c-2.04,-0.12 -4.07,-0.29 -5.67,-0.41c0.62,0.7 1.49,1.7 2.38,2.68c0.38,0.42 0.81,0.79 1.2,1.21c0.42,0.46 0.47,0.99 0.09,1.48c-0.39,0.5 -0.94,0.42 -1.41,0.16c-0.36,-0.2 -0.66,-0.53 -0.96,-0.82c-1.16,-1.14 -2.32,-2.29 -3.53,-3.48c0,2.25 0,4.37 0,6.5c0,0.74 -0.45,1.23 -1.09,1.22c-0.71,-0.01 -1.17,-0.48 -1.17,-1.22c0,-2.15 0,-4.31 0,-6.67c-0.49,0.52 -0.88,0.9 -1.25,1.31c-1.21,1.33 -2.4,2.68 -3.63,3.99c-0.5,0.54 -1.21,0.56 -1.71,0.12c-0.53,-0.47 -0.51,-1.11 0.07,-1.73c1.46,-1.58 2.93,-3.16 4.39,-4.74c0.12,-0.13 0.22,-0.28 0.39,-0.49c-1.31,-0.13 -2.52,-0.24 -3.74,-0.36c-1.08,-0.1 -2.16,-0.18 -3.24,-0.3c-0.72,-0.08 -1.16,-0.61 -1.1,-1.23c0.06,-0.65 0.53,-1.02 1.32,-0.94c1.88,0.18 3.75,0.39 5.63,0.58c0.22,0.02 0.45,0 0.8,0c-4.76,-4.48 -9.43,-8.88 -14.02,-13.21l0.02,0zm-49.56,-45.16c-1.16,-0.08 -2.3,0.3 -3.21,1.06c-1.23,1.03 -2.39,2.16 -3.46,3.34c-0.75,0.82 -0.91,1.9 -0.29,2.89c0.4,0.65 0.91,1.29 1.52,1.74c5.29,3.87 10.62,7.7 15.94,11.55c3.94,2.85 7.86,5.72 11.78,8.59c3.87,2.83 7.72,5.67 11.6,8.49c1.34,0.97 2.73,0.96 3.85,-0.18c1.42,-1.45 2.77,-2.98 3.99,-4.59c1.14,-1.51 1.04,-3.42 -0.11,-4.79c-0.52,-0.63 -1.17,-1.18 -1.84,-1.66c-6.64,-4.7 -13.3,-9.39 -19.97,-14.06c-5.37,-3.76 -10.77,-7.48 -16.16,-11.22c-1.07,-0.74 -2.24,-1.2 -3.64,-1.17l0,0.01zm11.56,24c-1.26,1.46 -2.48,2.91 -3.74,4.31c-0.37,0.41 -0.39,0.74 -0.03,1.09c1,0.94 1.99,1.88 3.05,2.74c0.21,0.17 0.72,0.12 1.02,0c1.73,-0.72 3.42,-1.51 5.15,-2.23c0.57,-0.24 1.21,-0.32 1.9,-0.49c-2.48,-1.82 -4.88,-3.59 -7.36,-5.41l0.01,-0.01zm35.38,20.21c0.67,-0.73 1.27,-1.32 1.81,-1.97c0.4,-0.49 0.46,-0.99 -0.09,-1.48c-0.58,-0.52 -1.09,-1.11 -1.66,-1.65c-1.35,-1.28 -2.72,-2.54 -4.11,-3.84c-0.9,1.03 -1.74,2 -2.59,2.97c2.18,1.96 4.35,3.91 6.64,5.97z" fill="rgb(46,67,79)" fill-rule="nonzero" id="svg_10" stroke="rgb(46,67,79)" stroke-dashoffset="0" stroke-miterlimit="10" transform="translate(-102.08 -133.4)"/>
   </g>
   <g id="svg_11" transform="matrix(2.89389 0 0 3.1262 101.758 647.246)">
    <path d="m163.6,147.14l0,6.65l92.05,0l0,-6.65c-0.5,0 -0.97,0 -1.44,0c-2.77,0 -5.54,0 -8.31,0c-0.9,0 -1.49,-0.63 -1.21,-1.37c0.12,-0.32 0.55,-0.72 0.85,-0.73c3.76,-0.05 7.53,-0.04 11.29,-0.03c0.68,0 1.04,0.36 1.04,1.07c0.02,2.91 0.02,5.82 0,8.74c0,0.82 -0.44,1.13 -1.37,1.13c-16.95,0 -33.9,0 -50.86,0c-14.28,0 -28.55,0 -42.83,0c-1.16,0 -1.52,-0.34 -1.52,-1.52c0,-2.68 0,-5.35 0,-8.03c0,-1.03 0.38,-1.41 1.4,-1.41c15.58,0 31.16,0 46.74,0c0.19,0 0.38,0 0.57,0.02c0.68,0.04 1.01,0.35 1.03,0.99c0.02,0.62 -0.38,1.08 -1.01,1.13c-0.21,0.02 -0.43,0 -0.64,0l-45.78,0l0,0.01z" fill="rgb(46,67,79)" fill-rule="nonzero" id="svg_12" stroke="rgb(46,67,79)" stroke-dashoffset="0" stroke-miterlimit="10" transform="translate(-116.7 -177.16)"/>
   </g>
   <g id="svg_13" transform="matrix(2.89389 0 0 3.1262 214.62 564.902)">
    <path d="m248.59,125.26c-1.75,0 -3.5,0 -5.25,0c-0.88,0 -1.36,-0.43 -1.35,-1.18c0.01,-0.7 0.49,-1.08 1.36,-1.08c3.5,0 7,0 10.5,0c0.88,0 1.36,0.4 1.34,1.09c-0.02,0.79 -0.45,1.17 -1.35,1.17c-1.75,0 -3.5,0 -5.25,0z" fill="rgb(46,67,79)" fill-rule="nonzero" id="svg_14" stroke="rgb(46,67,79)" stroke-dashoffset="0" stroke-miterlimit="10" transform="translate(-155.7 -150.82)"/>
   </g>
   <g id="svg_15" transform="matrix(2.89389 0 0 3.1262 178.475 527.2)">
    <path d="m237.16,112.08c0,1.82 0,3.64 0,5.46c0,0.7 -0.44,1.2 -1.02,1.18c-0.67,-0.02 -1.1,-0.46 -1.1,-1.2c0,-3.67 0,-7.33 0,-11c0,-0.67 0.4,-1.08 1.03,-1.1c0.65,-0.02 1.09,0.41 1.09,1.11c0.01,1.85 0,3.69 0,5.54l0,0.01z" fill="rgb(46,67,79)" fill-rule="nonzero" id="svg_16" stroke="rgb(46,67,79)" stroke-dashoffset="0" stroke-miterlimit="10" transform="translate(-143.21 -138.76)"/>
   </g>
   <g id="svg_17" transform="matrix(2.89389 0 0 3.1262 116.72 636.336)">
    <path d="m211.35,151.94c-0.37,-0.27 -0.83,-0.42 -0.92,-0.7c-0.12,-0.37 -0.08,-0.92 0.13,-1.24c0.47,-0.7 1.07,-1.31 1.63,-1.95c1.61,-1.85 3.23,-3.7 4.84,-5.55c0.49,-0.56 1.16,-0.65 1.69,-0.22c0.53,0.44 0.6,0.98 0.07,1.61c-1.52,1.78 -3.07,3.52 -4.61,5.28c-0.59,0.68 -1.15,1.38 -1.77,2.03c-0.28,0.29 -0.66,0.48 -1.05,0.75l-0.01,-0.01z" fill="rgb(46,67,79)" fill-rule="nonzero" id="svg_18" stroke="rgb(46,67,79)" stroke-dashoffset="0" stroke-miterlimit="10" transform="translate(-121.87 -173.67)"/>
   </g>
   <g id="svg_19" transform="matrix(2.89389 0 0 3.1262 201.568 540.299)">
    <path d="m248.43,112.47c-0.2,0.4 -0.29,0.71 -0.48,0.93c-1.33,1.59 -2.69,3.17 -4.04,4.75c-0.69,0.81 -1.39,1.61 -2.11,2.39c-0.56,0.6 -1.23,0.64 -1.74,0.16c-0.46,-0.42 -0.47,-1.03 0.06,-1.64c2.05,-2.35 4.11,-4.69 6.19,-7.02c0.33,-0.37 0.76,-0.74 1.3,-0.43c0.33,0.19 0.55,0.55 0.83,0.85l-0.01,0.01z" fill="rgb(46,67,79)" fill-rule="nonzero" id="svg_20" stroke="rgb(46,67,79)" stroke-dashoffset="0" stroke-miterlimit="10" transform="translate(-151.19 -142.95)"/>
   </g>
   <g id="svg_21" transform="matrix(2.89389 0 0 3.1262 191.295 636.586)">
    <path d="m243.43,151.83c-0.16,-0.11 -0.5,-0.26 -0.71,-0.51c-2.04,-2.39 -4.06,-4.79 -6.09,-7.19c-0.45,-0.54 -0.45,-1.21 -0.04,-1.59c0.41,-0.37 1.12,-0.35 1.59,0.16c1.63,1.81 3.23,3.64 4.83,5.47c0.54,0.62 1.11,1.23 1.56,1.92c0.53,0.8 -0.02,1.73 -1.14,1.74z" fill="rgb(46,67,79)" fill-rule="nonzero" id="svg_22" stroke="rgb(46,67,79)" stroke-dashoffset="0" stroke-miterlimit="10" transform="translate(-147.64 -173.75)"/>
   </g>
   <g id="svg_23" transform="matrix(2.89389 0 0 3.1262 202.465 590.787)">
    <path d="m241.49,128.16c0.38,0.24 0.7,0.36 0.92,0.58c1.82,1.92 3.63,3.85 5.43,5.78c0.1,0.1 0.18,0.22 0.26,0.33c0.39,0.57 0.37,1.13 -0.06,1.53c-0.43,0.4 -1.1,0.39 -1.59,-0.09c-0.57,-0.57 -1.07,-1.19 -1.61,-1.78c-1.34,-1.46 -2.69,-2.91 -4.03,-4.38c-0.31,-0.34 -0.59,-0.75 -0.25,-1.2c0.23,-0.31 0.6,-0.51 0.93,-0.77z" fill="rgb(46,67,79)" fill-rule="nonzero" id="svg_24" stroke="rgb(46,67,79)" stroke-dashoffset="0" stroke-miterlimit="10" transform="translate(-151.5 -159.1)"/>
   </g>
   <g id="svg_25" transform="matrix(2.89389 0 0 3.1262 153.53 537.735)">
    <path d="m231.18,117.98c0.01,0.98 -0.71,1.51 -1.45,1.22c-0.23,-0.09 -0.48,-0.23 -0.65,-0.41c-1.65,-1.78 -3.3,-3.56 -4.93,-5.36c-0.46,-0.51 -0.48,-1.16 -0.11,-1.53c0.39,-0.4 1.17,-0.41 1.66,0.08c1.07,1.07 2.1,2.18 3.14,3.27c0.6,0.63 1.22,1.25 1.8,1.9c0.25,0.29 0.42,0.65 0.54,0.84l0,-0.01z" fill="rgb(46,67,79)" fill-rule="nonzero" id="svg_26" stroke="rgb(46,67,79)" stroke-dashoffset="0" stroke-miterlimit="10" transform="translate(-134.59 -142.13)"/>
   </g>
   <g id="svg_27" transform="matrix(2.89389 0 0 3.1262 171.501 637.711)">
    <path d="m234.88,151.83c-0.14,-0.11 -0.58,-0.3 -0.72,-0.62c-1.02,-2.24 -2,-4.5 -2.95,-6.77c-0.24,-0.56 0.07,-1.1 0.61,-1.32c0.64,-0.26 1.21,-0.05 1.51,0.62c0.54,1.22 1.04,2.46 1.56,3.69c0.42,0.99 0.88,1.97 1.27,2.98c0.31,0.79 -0.16,1.42 -1.27,1.42l-0.01,0z" fill="rgb(46,67,79)" fill-rule="nonzero" id="svg_28" stroke="rgb(46,67,79)" stroke-dashoffset="0" stroke-miterlimit="10" transform="translate(-140.8 -174.11)"/>
   </g>
   <g id="svg_29" transform="matrix(2.89389 0 0 3.1262 137.44 637.711)">
    <path d="m220.48,151.84c-0.9,0.01 -1.37,-0.65 -1.01,-1.51c0.94,-2.23 1.92,-4.44 2.91,-6.65c0.28,-0.63 0.97,-0.83 1.53,-0.54c0.57,0.3 0.74,0.85 0.45,1.5c-0.94,2.13 -1.88,4.25 -2.82,6.37c-0.21,0.48 -0.51,0.86 -1.06,0.82l0,0.01z" fill="rgb(46,67,79)" fill-rule="nonzero" id="svg_30" stroke="rgb(46,67,79)" stroke-dashoffset="0" stroke-miterlimit="10" transform="translate(-129.03 -174.11)"/>
   </g>
   <g id="svg_31" transform="matrix(2.89389 0 0 3.1262 154.89 641.306)">
    <path d="m229.06,148.56c0,0.71 0,1.42 0,2.12c-0.01,0.69 -0.38,1.11 -0.98,1.15c-0.72,0.04 -1.21,-0.3 -1.23,-1.05c-0.03,-1.48 0,-2.97 0.05,-4.45c0.02,-0.63 0.62,-1.07 1.22,-1.02c0.53,0.04 0.93,0.52 0.94,1.13c0,0.71 0,1.42 0,2.12z" fill="rgb(46,67,79)" fill-rule="nonzero" id="svg_32" stroke="rgb(46,67,79)" stroke-dashoffset="0" stroke-miterlimit="10" transform="translate(-135.06 -175.26)"/>
   </g>
   <g id="svg_33" transform="matrix(2.89389 0 0 3.1262 102.684 605.449)">
    <path d="m211.6,137.08c0.02,0.95 -0.66,1.68 -1.58,1.69c-1.01,0.01 -1.77,-0.71 -1.79,-1.69c-0.01,-0.93 0.68,-1.62 1.66,-1.64c0.97,-0.03 1.69,0.66 1.71,1.64z" fill="rgb(46,67,79)" fill-rule="nonzero" id="svg_34" stroke="rgb(46,67,79)" stroke-dashoffset="0" stroke-miterlimit="10" transform="translate(-117.03 -163.79)"/>
   </g>
   <g id="svg_35" transform="matrix(2.89389 0 0 3.1262 81.2406 591.6)">
    <path d="m203.79,132.66c0,0.79 -0.47,1.27 -1.26,1.27c-0.83,0 -1.31,-0.43 -1.32,-1.21c-0.01,-0.77 0.57,-1.34 1.34,-1.31c0.72,0.02 1.24,0.55 1.24,1.25z" fill="rgb(46,67,79)" fill-rule="nonzero" id="svg_36" stroke="rgb(46,67,79)" stroke-dashoffset="0" stroke-miterlimit="10" transform="translate(-109.61 -159.36)"/>
   </g>
   <g id="svg_37" transform="matrix(2.89389 0 0 3.1262 66.4239 613.296)">
    <path d="m198.67,139.61c0,0.77 -0.5,1.28 -1.26,1.28c-0.75,0 -1.29,-0.52 -1.31,-1.26c-0.01,-0.69 0.59,-1.28 1.29,-1.29c0.77,0 1.27,0.49 1.27,1.27l0.01,0z" fill="rgb(46,67,79)" fill-rule="nonzero" id="svg_38" stroke="rgb(46,67,79)" stroke-dashoffset="0" stroke-miterlimit="10" transform="translate(-104.49 -166.31)"/>
   </g>
   <g id="svg_39" transform="matrix(2.89389 0 0 3.1262 484.533 529.951)">
    <path d="m273.64,74.89l127.94,0c4.69,0 8.5,3.81 8.5,8.5l0,59.13c0,4.69 -3.81,8.5 -8.5,8.5l-127.94,0l0,-76.14l0,0l0,0.01z" fill="rgb(0,116,120)" fill-rule="nonzero" id="svg_40" stroke-dashoffset="0" stroke-miterlimit="4" stroke-width="0" transform="translate(-248.97 -139.64)"/>
   </g>
   <g id="svg_41" transform="matrix(2.89389 0 0 3.1262 -22.3316 478.713)">
    <path d="m166.87,96.59l-0.32,-0.05c0.1,0 0.21,0.02 0.32,0.05z" fill="rgb(46,67,79)" fill-rule="nonzero" id="svg_42" stroke-dashoffset="0" stroke-miterlimit="4" stroke-width="0" transform="translate(-73.82 -123.25)"/>
   </g>
   <g id="svg_43" transform="matrix(2.89389 0 0 3.1262 -10.0905 467.646)">
    <path d="m170.94,93.02" fill="rgb(46,67,79)" fill-rule="nonzero" id="svg_44" stroke-dashoffset="0" stroke-miterlimit="4" stroke-width="0" transform="translate(-78.05 -119.71)"/>
   </g>
   <g id="svg_45" transform="matrix(2.89389 0 0 3.1262 92.7872 536.454)">
    <path d="m276.41,115.06l0,-17.42c0,-5.41 0.01,-10.82 -0.01,-16.22c0,-0.83 -0.1,-1.67 -0.29,-2.48c-0.87,-3.82 -3.2,-6.54 -6.53,-8.47c-6.23,-3.6 -12.46,-7.19 -18.69,-10.8c-9.7,-5.61 -19.39,-11.24 -29.1,-16.85c-3.26,-1.88 -6.54,-3.74 -9.82,-5.58c-0.48,-0.27 -1,-0.47 -1.53,-0.65c-2.86,-0.94 -5.69,-0.68 -8.41,0.49c-1.75,0.75 -3.45,1.66 -5.1,2.62c-17.18,9.89 -34.35,19.79 -51.52,29.71c-1.34,0.77 -2.7,1.53 -3.91,2.47c-3.14,2.46 -4.89,5.7 -4.9,9.74c-0.03,8.65 -0.02,17.3 -0.02,25.95c0,13.69 0,27.38 0.02,41.06c0,0.8 0.1,1.61 0.27,2.39c0.87,3.82 3.17,6.56 6.5,8.49c4.59,2.67 9.2,5.31 13.79,7.97c13.89,8.05 27.78,16.11 41.69,24.13c1.17,0.68 2.41,1.27 3.69,1.7c3.23,1.09 6.43,1.05 9.5,-0.65c1.7,-0.94 3.44,-1.82 5.12,-2.79c16.99,-9.79 33.97,-19.59 50.94,-29.4c1.15,-0.66 2.31,-1.33 3.35,-2.14c3.11,-2.43 4.91,-5.63 4.93,-9.63c0.04,-11.22 0.02,-22.43 0.02,-33.65l0.01,0.01zm-4.67,31.72c0,3.99 -1.72,7.03 -5.16,9.01c-16.28,9.36 -32.57,18.68 -48.85,28.02c-2.19,1.26 -4.43,2.45 -6.58,3.8c-3.14,1.97 -6.19,1.84 -9.34,0.02c-10.94,-6.31 -21.9,-12.58 -32.84,-18.88c-7.49,-4.31 -14.97,-8.64 -22.45,-12.98c-3.5,-2.03 -5.26,-5.07 -5.26,-9.15c0,-4.16 0,-8.32 0,-12.48c0,-6.34 0,-12.69 0,-19.04l0,-1.49c0,-3.01 0,-6.01 0,-9.02c0,-7.03 0,-14.07 -0.02,-21.1c0,-3.23 1.14,-5.9 3.58,-8c0.51,-0.44 1.09,-0.81 1.68,-1.14c5.49,-3.17 10.98,-6.34 16.48,-9.51c9.16,-5.29 18.33,-10.57 27.5,-15.85c3.94,-2.26 7.89,-4.48 11.86,-6.7c2.13,-1.19 4.38,-1.68 6.77,-0.9c0.72,0.24 1.41,0.61 2.08,1c5.58,3.2 11.15,6.39 16.72,9.6c0.01,0 0.02,0 0.03,0.02c3.73,2.14 7.46,4.29 11.19,6.44c9.18,5.29 18.34,10.58 27.5,15.9c3.07,1.78 4.8,4.48 5.11,8.02c0.12,1.35 -0.02,2.72 -0.02,4.07c-0.02,15.11 -0.03,30.22 -0.04,45.32c0,5.01 0.03,10.01 0.04,15.02l0.02,0z" fill="rgb(46,67,79)" fill-rule="nonzero" id="svg_46" stroke-dashoffset="0" stroke-miterlimit="4" stroke-width="0" transform="translate(-113.61 -141.72)"/>
   </g>
   <g id="svg_47" transform="matrix(2.89389 0 0 3.1262 327.424 483.746)">
    <path d="m294.59,107.04l-3.29,0l0,-14.54l-3.26,0l-4.01,14.54l-3.48,0l5.16,-17.74l8.88,0l0,17.74z" fill="rgb(255,255,255)" fill-rule="nonzero" id="svg_48" stroke-dashoffset="0" stroke-miterlimit="4" stroke-width="0" transform="translate(-194.68 -124.86)"/>
   </g>
   <g id="svg_49" transform="matrix(2.89389 0 0 3.1262 379.89 483.746)">
    <path d="m306.95,89.3l7.46,17.74l-3.62,0l-1.92,-4.58l-6.29,0l-1.97,4.58l-3.62,0l7.39,-17.74l2.57,0zm-1.27,4.59l-1.9,5.38l3.79,0l-1.9,-5.38l0.01,0z" fill="rgb(255,255,255)" fill-rule="nonzero" id="svg_50" stroke-dashoffset="0" stroke-miterlimit="4" stroke-width="0" transform="translate(-212.81 -124.86)"/>
   </g>
   <g id="svg_51" transform="matrix(2.89389 0 0 3.1262 423.703 483.902)">
    <path d="m326.61,101.85c0,3.22 -2.59,5.62 -5.79,5.62c-3.02,0 -5.74,-2.33 -5.74,-5.42l3.43,0c0,1.42 1.15,2.23 2.47,2.23c1.25,0 2.3,-0.94 2.3,-2.23c0,-1.68 -1.1,-2.74 -2.59,-2.74l-1.51,0l0,-3.19l1.32,0c1.18,0 2.21,-0.79 2.18,-2.09c0.02,-1.06 -0.77,-1.87 -1.85,-1.87c-1.08,0 -1.85,0.74 -1.9,1.85l-3.34,0c-0.02,-2.78 2.45,-5.04 5.18,-5.04c2.73,0 5.23,2.14 5.23,5.04c0,1.32 -0.72,2.62 -1.68,3.58c1.22,0.77 2.26,2.42 2.26,4.27l0.03,-0.01z" fill="rgb(255,255,255)" fill-rule="nonzero" id="svg_52" stroke-dashoffset="0" stroke-miterlimit="4" stroke-width="0" transform="translate(-227.95 -124.91)"/>
   </g>
   <g id="svg_53" transform="matrix(2.89389 0 0 3.1262 462.423 483.715)">
    <path d="m338.99,89.3l0,3.19l-6.24,0l0,4.08l5.98,0l0,3.19l-5.98,0l0,4.08l6.24,0l0,3.19l-9.53,0l0,-17.74l9.53,0l0,0.01z" fill="rgb(255,255,255)" fill-rule="nonzero" id="svg_54" stroke-dashoffset="0" stroke-miterlimit="4" stroke-width="0" transform="translate(-241.33 -124.85)"/>
   </g>
   <g id="svg_55" transform="matrix(2.89389 0 0 3.1262 502.909 483.746)">
    <path d="m342.55,89.3l4.18,0c1.7,0 3.31,-0.07 4.8,0.94c1.46,0.98 2.35,2.69 2.35,4.46c0,1.77 -0.72,3.43 -2.11,4.54c-1.46,1.18 -3.53,1.08 -5.28,1.08l-0.65,0l0,6.72l-3.29,0l0,-17.74zm6.43,7.63c0.96,-0.31 1.61,-1.15 1.61,-2.18c0,-1.03 -0.72,-1.85 -1.7,-2.11c-0.72,-0.19 -1.73,-0.14 -2.45,-0.14l-0.6,0l0,4.63l0.6,0c0.82,0 1.75,0.05 2.54,-0.19l0,-0.01z" fill="rgb(255,255,255)" fill-rule="nonzero" id="svg_56" stroke-dashoffset="0" stroke-miterlimit="4" stroke-width="0" transform="translate(-255.32 -124.86)"/>
   </g>
   <g id="svg_57" transform="matrix(2.89389 0 0 3.1262 546.028 483.746)">
    <path d="m359.87,89.3l0,7.1l6.48,0l0,-7.1l3.29,0l0,17.74l-3.29,0l0,-7.44l-6.48,0l0,7.44l-3.29,0l0,-17.74l3.29,0z" fill="rgb(255,255,255)" fill-rule="nonzero" id="svg_58" stroke-dashoffset="0" stroke-miterlimit="4" stroke-width="0" transform="translate(-270.22 -124.86)"/>
   </g>
   <g id="svg_59" transform="matrix(2.89389 0 0 3.1262 597.076 483.746)">
    <path d="m382,89.3l7.46,17.74l-3.62,0l-1.92,-4.58l-6.29,0l-1.97,4.58l-3.62,0l7.39,-17.74l2.57,0zm-1.27,4.59l-1.9,5.38l3.79,0l-1.9,-5.38l0.01,0z" fill="rgb(255,255,255)" fill-rule="nonzero" id="svg_60" stroke-dashoffset="0" stroke-miterlimit="4" stroke-width="0" transform="translate(-287.86 -124.86)"/>
   </g>
   <g id="svg_61" transform="matrix(2.89389 0 0 3.1262 640.108 483.777)">
    <path d="m401.63,107.04l-3.29,0l0,-6.79l-4.66,6.79l-4.06,0l4.8,-6.55c-1.2,-0.26 -2.28,-0.77 -3.14,-1.7c-0.86,-0.96 -1.46,-2.57 -1.46,-3.86c0,-1.66 0.79,-3.31 2.06,-4.37c1.34,-1.13 2.93,-1.22 4.61,-1.25l5.14,0l0,17.74l0,-0.01zm-3.28,-9.29l0,-5.26l-1.82,0c-0.91,-0.02 -1.68,0.02 -2.45,0.6c-0.62,0.46 -0.96,1.22 -0.96,1.99c0,0.77 0.29,1.42 0.82,1.92c0.65,0.62 1.75,0.74 2.62,0.74l1.8,0l-0.01,0.01z" fill="rgb(255,255,255)" fill-rule="nonzero" id="svg_62" stroke-dashoffset="0" stroke-miterlimit="4" stroke-width="0" transform="translate(-302.74 -124.87)"/>
   </g>
   <g id="svg_63" transform="matrix(2.89389 0 0 3.1262 335.816 573.905)">
    <path d="m290.47,136.27c-5.04,0 -9.24,-4.08 -9.24,-9.22c0,-5.14 4.13,-9.29 9.24,-9.29c5.11,0 9.24,4.13 9.24,9.29c0,5.16 -4.2,9.22 -9.24,9.22zm0,-3.19c3.24,0 5.95,-2.81 5.95,-6.1c0,-3.29 -2.64,-6.02 -5.95,-6.02c-3.31,0 -5.95,2.69 -5.95,6.02c0,3.33 2.71,6.1 5.95,6.1z" fill="rgb(255,255,255)" fill-rule="nonzero" id="svg_64" stroke-dashoffset="0" stroke-miterlimit="4" stroke-width="0" transform="translate(-197.58 -153.71)"/>
   </g>
   <g id="svg_65" transform="matrix(2.89389 0 0 3.1262 386.546 573.78)">
    <path d="m304.82,118.1l0,5.42c0,1.92 1.32,2.81 2.93,2.81c1.1,0 2.35,-0.41 3.43,-1.13l0,-7.1l3.29,0l0,17.74l-3.29,0l0,-7.44c-1.18,0.77 -2.57,1.15 -3.89,1.15c-3.02,0 -5.76,-1.85 -5.76,-5.06l0,-6.38l3.29,0l0,-0.01z" fill="rgb(255,255,255)" fill-rule="nonzero" id="svg_66" stroke-dashoffset="0" stroke-miterlimit="4" stroke-width="0" transform="translate(-215.11 -153.66)"/>
   </g>
   <g id="svg_67" transform="matrix(2.89389 0 0 3.1262 437.42 573.78)">
    <path d="m332.83,135.84l-3.29,0l0,-12.91l-7.56,12.91l-3.65,0l0,-17.74l3.29,0l0,12.96l7.51,-12.96l3.7,0l0,17.74z" fill="rgb(255,255,255)" fill-rule="nonzero" id="svg_68" stroke-dashoffset="0" stroke-miterlimit="4" stroke-width="0" transform="translate(-232.69 -153.66)"/>
   </g>
   <g id="svg_69" transform="matrix(2.89389 0 0 3.1262 492.288 573.937)">
    <path d="m344.97,136.27c-5.09,0 -9.19,-4.25 -9.19,-9.31c0,-5.06 4.15,-9.19 9.1,-9.19c3.55,0 7.06,2.06 8.42,5.4l-3.74,0c-1.1,-1.34 -2.88,-2.21 -4.66,-2.21c-3.24,0 -5.83,2.81 -5.83,6.12c0,3.31 2.69,6 5.86,6c1.75,0 3.26,-0.79 4.46,-2.06l3.82,0c-1.34,3.22 -4.8,5.26 -8.23,5.26l-0.01,-0.01z" fill="rgb(255,255,255)" fill-rule="nonzero" id="svg_70" stroke-dashoffset="0" stroke-miterlimit="4" stroke-width="0" transform="translate(-251.65 -153.72)"/>
   </g>
   <g id="svg_71" transform="matrix(2.89389 0 0 3.1262 531.471 573.749)">
    <path d="m353.13,121.29l0,-3.19l9.91,0l0,3.19l-3.31,0l0,14.54l-3.29,0l0,-14.54l-3.31,0z" fill="rgb(255,255,255)" fill-rule="nonzero" id="svg_72" stroke-dashoffset="0" stroke-miterlimit="4" stroke-width="0" transform="translate(-265.2 -153.65)"/>
   </g>
   <g id="svg_73" transform="matrix(2.89389 0 0 3.1262 571.002 573.749)">
    <path d="m368.66,118.1l0,7.68l5.52,-7.68l3.94,0l-6.7,8.71l6.7,9.02l-3.94,0l-5.52,-7.78l0,7.78l-3.29,0l0,-17.74l3.29,0l0,0.01z" fill="rgb(255,255,255)" fill-rule="nonzero" id="svg_74" stroke-dashoffset="0" stroke-miterlimit="4" stroke-width="0" transform="translate(-278.85 -153.65)"/>
   </g>
   <g id="svg_75" transform="matrix(2.89389 0 0 3.1262 613.137 573.78)">
    <path d="m387.55,118.1l7.46,17.74l-3.62,0l-1.92,-4.58l-6.29,0l-1.97,4.58l-3.62,0l7.39,-17.74l2.57,0zm-1.28,4.59l-1.9,5.38l3.79,0l-1.9,-5.38l0.01,0z" fill="rgb(255,255,255)" fill-rule="nonzero" id="svg_76" stroke-dashoffset="0" stroke-miterlimit="4" stroke-width="0" transform="translate(-293.41 -153.66)"/>
   </g>
  </g>
 </g>
</svg>