<?xml version="1.0" encoding="UTF-8"?>
<svg id="Layer_1" data-name="Layer 1" xmlns="http://www.w3.org/2000/svg" version="1.1" viewBox="0 0 360.88 283.46">
  <defs>
    <style>
      .cls-1 {
        stroke: #fff;
        stroke-miterlimit: 10;
        stroke-width: 5.67px;
      }

      .cls-1, .cls-2 {
        fill: #fff;
      }

      .cls-3 {
        fill: #2e434f;
      }

      .cls-3, .cls-4, .cls-2 {
        stroke-width: 0px;
      }

      .cls-4 {
        fill: #ff7f19;
      }
    </style>
  </defs>
  <path class="cls-1" d="M183.52,141.75v-17.42c0-5.41.01-10.82-.01-16.22,0-.83-.1-1.67-.29-2.48-.87-3.82-3.2-6.54-6.53-8.47-6.23-3.6-12.46-7.19-18.69-10.8-9.7-5.61-19.39-11.24-29.1-16.85-3.26-1.89-6.54-3.74-9.82-5.58-.48-.27-1-.47-1.53-.65-2.86-.94-5.69-.68-8.41.49-1.75.75-3.45,1.66-5.1,2.62-17.18,9.89-34.35,19.79-51.52,29.71-1.34.77-2.7,1.53-3.91,2.47-3.14,2.46-4.89,5.7-4.9,9.74-.03,8.65-.02,17.3-.02,25.95,0,13.69,0,27.38.02,41.06,0,.8.1,1.61.27,2.39.87,3.82,3.17,6.56,6.5,8.49,4.59,2.67,9.2,5.31,13.79,7.97,13.89,8.05,27.78,16.11,41.69,24.13,1.17.68,2.41,1.27,3.69,1.7,3.23,1.09,6.43,1.05,9.5-.65,1.7-.94,3.44-1.82,5.12-2.79,16.99-9.79,33.97-19.59,50.94-29.4,1.15-.66,2.31-1.33,3.35-2.14,3.11-2.43,4.91-5.63,4.93-9.63.04-11.22.02-22.43.02-33.65Z"/>
  <g>
    <path class="cls-4" d="M180.75,101.59h127.94c4.69,0,8.5,3.81,8.5,8.5v59.13c0,4.69-3.81,8.5-8.5,8.5h-127.94v-76.14h0Z"/>
    <g>
      <path class="cls-3" d="M73.98,123.28l-.32-.05c.1,0,.21.02.32.05Z"/>
      <path class="cls-3" d="M78.05,119.71"/>
    </g>
    <g>
      <g>
        <path class="cls-3" d="M148.35,130.52c-1.04-2.42-2.08-4.83-3.12-7.25-1.66-3.87-3.32-7.74-5.01-11.61-.26-.6-.17-.99.12-1.65l.57-1.27c.87-1.92,1.77-3.91,2.38-5.96,1.58-5.24.84-10.16-2.2-14.62-4.09-6-11.5-8.01-18.45-5-5.25,2.27-8.78,6.31-10.49,12.01-1.11,3.67-1.26,7.59-.44,11.64-.13.07-.26.13-.4.19-1.03.44-2.05.89-3.08,1.34-2.55,1.11-5.18,2.25-7.79,3.33-2.45,1.01-4.14,2.76-5.17,5.35-4.02,10.13-8.06,20.26-12.1,30.38l-5.54,13.89c-1.78,4.46-3.55,8.91-5.34,13.37-.83,2.05-.8,4.17.09,6.29.89,2.15,2.57,3.65,5.29,4.74,4.8,1.92,9.59,3.85,14.38,5.78l11.9,4.79c3.51,1.42,7.02,2.83,10.54,4.21,1.15.45,2.28.66,3.36.66,3.02,0,5.64-1.7,6.99-4.76,1.67-3.77,3.22-7.66,4.72-11.42l1.29-3.22c2.62-6.52,5.24-13.05,7.86-19.58,3.24-8.06,6.47-16.13,9.72-24.19,1.02-2.54,1-4.98-.07-7.46ZM119.16,121.65c.48.45.97.92,1.51,1.34.55.42,1.21.8,2.02,1.15.99.43,1.9.07,2.33-.91.28-.64.37-1.56-.8-2.33-.79-.53-1.57-1.07-2.36-1.62l-.49-.34c1.35-.85,3.56-.67,4.92.5,1.83,1.59,2.1,4.26.63,6.21-1.44,1.9-4.15,2.33-6.18.98-1.69-1.13-2.37-3.27-1.68-5.1.04.04.08.08.12.11ZM139.33,102.73c-.33.99-.77,1.97-1.18,2.93-.08.19-.17.39-.25.58-1.06-2.22-2.56-3.8-4.57-4.81-1.43-.72-2.88-1.08-4.38-1.08s-3.06.36-4.67,1.09c-1.97.89-3.99,1.74-5.95,2.57-.87.37-1.75.74-2.62,1.12l-.45.19c-.02-.39-.05-.77-.07-1.15-.08-1.29-.16-2.51-.1-3.72.22-4.22,1.75-7.83,4.56-10.71,3.66-3.76,9.15-5.04,13.65-3.18,2.68,1.11,4.59,3.12,5.84,6.16,1.32,3.19,1.38,6.46.19,10.01ZM116.12,118.57c-1.78,2.96-1.74,6.05.1,8.91,1.83,2.85,4.63,4.13,8.09,3.72,2.34-.28,4.48-1.53,5.88-3.44,1.37-1.85,1.9-4.08,1.5-6.27-.43-2.36-1.71-4.34-3.6-5.59-1.9-1.25-4.24-1.64-6.6-1.1-.63.15-1.25.36-1.85.57-.17.06-.34.12-.5.18-1.06-1.36-2.35-4.18-2.97-6.47l9.94-4.25c1.68-.72,3.41-.76,4.99-.12,1.61.66,2.92,1.96,3.59,3.57,2.96,7.14,6.07,14.35,9.09,21.33l1,2.33c.66,1.52.68,3.01.07,4.53l-3.34,8.36c-2.1,5.26-4.2,10.51-6.3,15.77-3.07,7.66-6.16,15.31-9.24,22.97l-4.33,10.74c-1.09,2.71-3.16,3.62-5.82,2.56-9.68-3.87-19.35-7.76-29.02-11.65l-5.03-2.02c-1.24-.49-2.52-1-3.72-1.59-2.2-1.08-3.04-3.27-2.12-5.58,5.9-14.87,11.81-29.73,17.73-44.6.96-2.41,1.92-4.81,2.89-7.22.82-2.03,1.63-4.06,2.44-6.09.53-1.33,1.44-2.28,2.72-2.84,2.75-1.19,5.5-2.37,8.25-3.55l2.61-1.12.84,1.67c.94,1.88,1.85,3.71,2.8,5.53.15.28.12.38-.1.75Z"/>
        <g>
          <path class="cls-4" d="M98.5,168.14c-.73,0-1.48.14-2.25.44-1.6.61-2.89,1.64-3.85,3.05-1.87,2.74-1.38,6.17,1.14,7.97,2.41,1.72,5.53,1.46,7.94-.68l.32-.27c.21-.17.42-.35.61-.54,1.79-1.81,2.18-5.18.84-7.22-1.19-1.8-2.88-2.76-4.75-2.76Z"/>
          <path class="cls-4" d="M128.38,137.99c-1.05-.73-2.22-1.09-3.41-1.09-1.57,0-3.17.63-4.53,1.86h0s-.31.27-.31.27c-.21.18-.42.35-.6.55-1.77,1.83-2.12,5.2-.75,7.23,1.68,2.48,4.31,3.32,7.02,2.23,1.59-.64,2.87-1.68,3.82-3.1,1.83-2.77,1.3-6.18-1.24-7.95Z"/>
          <path class="cls-4" d="M119.88,193.59l4.33-10.74c3.08-7.65,6.16-15.31,9.24-22.97,2.04-5.09,4.08-10.19,6.11-15.29l3.52-8.83c.42-1.04.4-2.01-.05-3.06l-1-2.32c-3.03-7.01-6.13-14.19-9.1-21.35-.47-1.14-1.4-2.07-2.54-2.53-1.1-.45-2.31-.41-3.51.11l-8.34,3.57c.4,1.1.91,2.21,1.4,3.1.36-.12.74-.23,1.13-.32,2.87-.66,5.74-.18,8.09,1.36,2.33,1.53,3.91,3.96,4.44,6.84.5,2.72-.16,5.47-1.84,7.76-1.71,2.33-4.34,3.86-7.2,4.2-4.18.5-7.71-1.12-9.93-4.58-2.13-3.32-2.27-7.01-.4-10.46-.86-1.63-1.67-3.26-2.47-4.85l-.06-.12-.95.41c-2.75,1.17-5.5,2.35-8.24,3.54-.8.35-1.36.94-1.7,1.79-.81,2.03-1.63,4.06-2.44,6.09l-.13.32c-.92,2.3-1.84,4.59-2.76,6.89-5.91,14.86-11.83,29.73-17.73,44.59-.55,1.39-.13,2.5,1.19,3.15,1.15.56,2.38,1.05,3.58,1.53l5.04,2.02c9.67,3.89,19.34,7.78,29.02,11.65,1.67.67,2.64.23,3.33-1.5ZM114.4,142.86c.27-2.85,1.79-5.46,4.28-7.35,1.89-1.43,3.94-2.17,6.09-2.19,3.83-.02,6.77,1.66,8.49,4.91,1.63,3.07,1.43,6.39-.57,9.61-2.06,3.31-5.55,5.25-9.08,5.25-.89,0-1.78-.12-2.65-.38-1.71-.5-3.13-1.43-4.22-2.77-1.76-1.95-2.6-4.46-2.35-7.08ZM107.58,174.9c-.3,2.84-1.85,5.43-4.37,7.29-1.9,1.4-3.95,2.11-6.1,2.11h-.02c-3.83,0-6.75-1.74-8.43-5.01-1.59-3.09-1.35-6.41.69-9.6,2.63-4.11,7.48-6.05,11.78-4.73,1.71.52,3.11,1.47,4.18,2.82,1.74,1.97,2.54,4.5,2.26,7.11ZM104.78,162.51c-6.58,1.17-13.39,2.38-18.73,3.42-.22.04-.45.06-.71.06h-.02c-.52,0-1.02-.25-1.34-.67-.31-.4-.41-.9-.28-1.38.06-.2.14-.37.26-.52.47-.6,1.37-1.18,2.05-1.34,1.61-.37,5.24-1.01,8.44-1.57,1.97-.35,3.75-.66,4.74-.85,5.19-1.02,10.53-1.99,15.69-2.93,5.35-.97,10.88-1.98,16.25-3.04.54-.11,1.98-.39,2.38.91.16.51.09,1.05-.19,1.53-.4.68-1.17,1.2-2.13,1.4-2.21.48-4.45.93-6.35,1.31-5.69,1.12-12.99,2.42-20.04,3.67Z"/>
        </g>
      </g>
      <path class="cls-3" d="M183.52,141.75v-17.42c0-5.41.01-10.82-.01-16.22,0-.83-.1-1.67-.29-2.48-.87-3.82-3.2-6.54-6.53-8.47-6.23-3.6-12.46-7.19-18.69-10.8-9.7-5.61-19.39-11.24-29.1-16.85-3.26-1.89-6.54-3.74-9.82-5.58-.48-.27-1-.47-1.53-.65-2.86-.94-5.69-.68-8.41.49-1.75.75-3.45,1.66-5.1,2.62-17.18,9.89-34.35,19.79-51.52,29.71-1.34.77-2.7,1.53-3.91,2.47-3.14,2.46-4.89,5.7-4.9,9.74-.03,8.65-.02,17.3-.02,25.95,0,13.69,0,27.38.02,41.06,0,.8.1,1.61.27,2.39.87,3.82,3.17,6.56,6.5,8.49,4.59,2.67,9.2,5.31,13.79,7.97,13.89,8.05,27.78,16.11,41.69,24.13,1.17.68,2.41,1.27,3.69,1.7,3.23,1.09,6.43,1.05,9.5-.65,1.7-.94,3.44-1.82,5.12-2.79,16.99-9.79,33.97-19.59,50.94-29.4,1.15-.66,2.31-1.33,3.35-2.14,3.11-2.43,4.91-5.63,4.93-9.63.04-11.22.02-22.43.02-33.65ZM178.85,173.47c0,3.99-1.72,7.03-5.16,9.01-16.28,9.36-32.57,18.68-48.85,28.02-2.19,1.26-4.43,2.45-6.58,3.8-3.14,1.97-6.19,1.84-9.34.02-10.94-6.31-21.9-12.58-32.84-18.88-7.49-4.31-14.97-8.64-22.45-12.98-3.5-2.03-5.26-5.07-5.26-9.15,0-4.16,0-8.32,0-12.48,0-6.34,0-12.69,0-19.04v-1.49c0-3.01,0-6.01,0-9.02,0-7.03,0-14.07-.02-21.1,0-3.23,1.14-5.9,3.58-8,.51-.44,1.09-.81,1.68-1.14,5.49-3.17,10.98-6.34,16.48-9.51,9.16-5.29,18.33-10.57,27.5-15.85,3.94-2.26,7.89-4.48,11.86-6.7,2.13-1.19,4.38-1.68,6.77-.9.72.24,1.41.61,2.08,1,5.58,3.2,11.15,6.39,16.72,9.6.01,0,.02,0,.03.02,3.73,2.14,7.46,4.29,11.19,6.44,9.18,5.29,18.34,10.58,27.5,15.9,3.07,1.78,4.8,4.48,5.11,8.02.12,1.35-.02,2.72-.02,4.07-.02,15.11-.03,30.22-.04,45.32,0,5.01.03,10.01.04,15.02Z"/>
    </g>
    <g>
      <path class="cls-2" d="M200.38,137.42c-5.09,0-9.19-4.25-9.19-9.31s4.15-9.19,9.1-9.19c3.55,0,7.06,2.06,8.42,5.4h-3.74c-1.1-1.34-2.88-2.21-4.66-2.21-3.24,0-5.83,2.81-5.83,6.12s2.69,6,5.86,6c1.75,0,3.26-.79,4.46-2.06h3.82c-1.34,3.22-4.8,5.26-8.23,5.26Z"/>
      <path class="cls-2" d="M225.91,136.98h-3.29v-12.91l-7.56,12.91h-3.65v-17.74h3.29v12.96l7.51-12.96h3.7v17.74Z"/>
      <path class="cls-2" d="M238.06,137.42c-5.09,0-9.19-4.25-9.19-9.31s4.15-9.19,9.1-9.19c3.55,0,7.06,2.06,8.42,5.4h-3.74c-1.1-1.34-2.88-2.21-4.66-2.21-3.24,0-5.83,2.81-5.83,6.12s2.69,6,5.86,6c1.75,0,3.26-.79,4.46-2.06h3.82c-1.34,3.22-4.8,5.26-8.23,5.26Z"/>
      <path class="cls-2" d="M246.22,122.44v-3.19h9.91v3.19h-3.31v14.54h-3.29v-14.54h-3.31Z"/>
      <path class="cls-2" d="M267.98,119.25v3.19h-6.24v4.08h5.98v3.19h-5.98v4.08h6.24v3.19h-9.53v-17.74h9.53Z"/>
      <path class="cls-2" d="M276.02,119.25l4.75,13.56,4.82-13.56h4.46v17.74h-3.29v-13.3l-4.58,13.3h-2.78l-4.58-13.3v13.3h-3.29v-17.74h4.49Z"/>
      <path class="cls-2" d="M302.23,119.25l7.46,17.74h-3.62l-1.92-4.58h-6.29l-1.97,4.58h-3.62l7.39-17.74h2.57ZM300.96,123.83l-1.9,5.38h3.79l-1.9-5.38Z"/>
      <path class="cls-2" d="M207.94,166.22c-5.09,0-9.19-4.25-9.19-9.31s4.15-9.19,9.1-9.19c3.55,0,7.06,2.06,8.42,5.4h-3.74c-1.1-1.34-2.88-2.21-4.66-2.21-3.24,0-5.83,2.81-5.83,6.12s2.69,6,5.86,6c1.75,0,3.26-.79,4.46-2.06h3.82c-1.34,3.22-4.8,5.26-8.23,5.26Z"/>
      <path class="cls-2" d="M222.26,148.05v7.68l5.52-7.68h3.94l-6.7,8.71,6.7,9.02h-3.94l-5.52-7.78v7.78h-3.29v-17.74h3.29Z"/>
      <path class="cls-2" d="M248.47,165.78h-3.29v-12.91l-7.56,12.91h-3.65v-17.74h3.29v12.96l7.51-12.96h3.7v17.74Z"/>
      <path class="cls-2" d="M262.82,168.02v-2.23h-8.4v2.23h-3.29v-5.42h1.1l3.79-14.54h8.88v14.54h1.2v5.42h-3.29ZM261.62,151.24h-3.26l-2.71,11.35h5.98v-11.35Z"/>
      <path class="cls-2" d="M277.22,166.22c-5.04,0-9.24-4.08-9.24-9.22s4.13-9.29,9.24-9.29,9.24,4.13,9.24,9.29-4.2,9.22-9.24,9.22ZM277.22,163.02c3.24,0,5.95-2.81,5.95-6.1s-2.64-6.02-5.95-6.02-5.95,2.69-5.95,6.02,2.71,6.1,5.95,6.1Z"/>
      <path class="cls-2" d="M292.82,148.05v7.68l5.52-7.68h3.94l-6.7,8.71,6.7,9.02h-3.94l-5.52-7.78v7.78h-3.29v-17.74h3.29Z"/>
    </g>
  </g>
</svg>