<?xml version="1.0" encoding="UTF-8"?>
<svg id="Layer_1" data-name="Layer 1" xmlns="http://www.w3.org/2000/svg" version="1.1" xmlns:xlink="http://www.w3.org/1999/xlink" viewBox="0 0 595.3 841.9">
  <defs>
    <style>
      .cls-1, .cls-2, .cls-3, .cls-4, .cls-5, .cls-6, .cls-7, .cls-8, .cls-9, .cls-10, .cls-11, .cls-12 {
        stroke-width: 0px;
      }

      .cls-1, .cls-2, .cls-3, .cls-4, .cls-7, .cls-8, .cls-9, .cls-10, .cls-11 {
        isolation: isolate;
      }

      .cls-1, .cls-2, .cls-4 {
        opacity: .1;
      }

      .cls-1, .cls-3, .cls-8 {
        fill: #fff;
      }

      .cls-2 {
        fill: url(#linear-gradient);
      }

      .cls-3 {
        opacity: .4;
      }

      .cls-4 {
        fill: #d1d3d4;
      }

      .cls-5 {
        fill: #151e2e;
      }

      .cls-6 {
        fill: none;
      }

      .cls-7 {
        fill: url(#linear-gradient-2);
      }

      .cls-7, .cls-9, .cls-11 {
        opacity: .2;
      }

      .cls-8, .cls-10 {
        opacity: .3;
      }

      .cls-9 {
        fill: url(#linear-gradient-3);
      }

      .cls-10 {
        fill: url(#New_Pattern_Swatch_4);
      }

      .cls-13 {
        clip-path: url(#clippath);
      }

      .cls-11 {
        fill: #a7a9ac;
      }

      .cls-12 {
        fill: #0c1e3e;
      }
    </style>
    <clipPath id="clippath">
      <rect class="cls-6" width="563.7" height="521.8"/>
    </clipPath>
    <linearGradient id="linear-gradient" x1="-28538.1" y1="-21790.9" x2="-28428.4" y2="-21944.5" gradientTransform="translate(33308.1 -13605.7) rotate(14.8) scale(1 -1)" gradientUnits="userSpaceOnUse">
      <stop offset=".3" stop-color="#e6e7e8"/>
      <stop offset="1" stop-color="#bcbec0"/>
    </linearGradient>
    <linearGradient id="linear-gradient-2" x1="10075" y1="-83021.2" x2="10171.4" y2="-83156.2" gradientTransform="translate(80500.2 -24777.6) rotate(79.7) scale(1 -1)" gradientUnits="userSpaceOnUse">
      <stop offset=".3" stop-color="#f1f2f2"/>
      <stop offset="1" stop-color="#939598"/>
    </linearGradient>
    <linearGradient id="linear-gradient-3" x1="9974.2" y1="-83576" x2="10070.7" y2="-83710.9" gradientTransform="translate(80500.2 -24777.6) rotate(79.7) scale(1 -1)" gradientUnits="userSpaceOnUse">
      <stop offset=".3" stop-color="#f1f2f2"/>
      <stop offset="1" stop-color="#939598"/>
    </linearGradient>
    <pattern id="New_Pattern_Swatch_4" data-name="New Pattern Swatch 4" x="0" y="0" width="563.7" height="521.8" patternTransform="translate(0 18065.9)" patternUnits="userSpaceOnUse" viewBox="0 0 563.7 521.8">
      <g>
        <rect class="cls-6" width="563.7" height="521.8"/>
        <g>
          <rect class="cls-6" width="563.7" height="521.8"/>
          <g>
            <rect class="cls-6" width="563.7" height="521.8"/>
            <g class="cls-13">
              <g>
                <g>
                  <rect class="cls-12" x="2" y="-1.4" width="563.7" height="521.8"/>
                  <path class="cls-2" d="M255,293.9c.8-3,.1-5.5-2.1-7.7-10.2-10.1-20.5-20.2-30.7-30.3-1.4-1.4-2.8-2.7-4.1-4.1-1.9-2.1-4.2-2.6-6.9-1.8-9.3,2.5-18.7,5-28,7.6-6.4,1.7-12.8,3.5-19.2,5.2-3,.8-4.9,2.7-5.7,5.7-.8,3.1-1.6,6.2-2.4,9.2-1.2,4.7-2.5,9.4-3.7,14.1l-.3,1.1c-.6,2.2-1.2,4.5-1.8,6.7-1.4,5.2-2.7,10.4-4.1,15.6-.6,2.4-.3,4.6,1.1,6.6.3.4.7.8,1,1.2,3.4,3.4,6.9,6.8,10.3,10.3,5.8,5.7,11.5,11.4,17.3,17.1,2.5,2.4,5,4.9,7.5,7.3,1.3,1.3,2.9,2.1,4.8,2,.6,0,1.2-.2,1.7-.3,4.8-1.3,9.5-2.6,14.3-3.8h0c3.2-.9,6.4-1.7,9.5-2.6,7.8-2.1,15.6-4.3,23.5-6.4,2.6-.7,4.4-2.4,5.3-4.9.3-1,.5-2,.8-3,2.9-11.2,5.9-22.4,8.8-33.6,1-3.7,2-7.4,3-11.1h0Z"/>
                  <path class="cls-7" d="M568.9,99.4c2.6-.5,4.4-2,5.3-4.5,4.2-11.9,8.5-23.8,12.7-35.7.6-1.6,1.1-3.2,1.7-4.8.9-2.3.5-4.3-1.1-6.2l-16.5-19.5c-3.8-4.4-7.5-8.9-11.3-13.3-1.8-2.1-4-2.9-6.7-2.4-2.8.5-5.5,1-8.3,1.5-4.2.8-8.4,1.5-12.6,2.3l-1,.2c-2,.4-4,.7-6,1.1-4.7.8-9.3,1.7-14,2.5-2.1.4-3.8,1.5-4.9,3.3-.2.4-.4.8-.6,1.2-1.4,4-2.9,8-4.3,12.1-2.4,6.7-4.8,13.4-7.2,20.1-1,2.9-2,5.8-3,8.7-.5,1.6-.6,3.1.2,4.6.2.5.6.9.9,1.3,2.8,3.3,5.6,6.6,8.4,9.9h0c1.9,2.2,3.7,4.4,5.6,6.6,4.6,5.4,9.2,10.9,13.8,16.3,1.5,1.8,3.5,2.6,5.9,2.4.9,0,1.8-.3,2.7-.5,10-1.8,20-3.7,30-5.5,3.3-.6,6.6-1.2,10-1.8h.3,0Z"/>
                  <path class="cls-8" d="M215.2,124.6l6.5,18c2,5.6,4,11.2,6,16.8.3.9.5,1.8.6,2.7.5,4.3-.9,8-3.6,11.2-5.1,6-10.2,12.1-15.3,18.1-8,9.4-15.9,18.9-23.8,28.3-2.7,3.2-5.4,6.3-8.1,9.4-.4.5-.9.9-1.3,1.2-2.6,2-5.6,2.8-8.9,2.6-2.1-.1-4.2-.4-6.3-.8-21.5-3.8-42.9-7.7-64.4-11.6-1.7-.3-3.4-.6-5-1.1-4.2-1.4-7.2-4.1-8.7-8.3-3.3-8.9-6.5-17.9-9.7-26.9-5.1-14.2-10.2-28.3-15.3-42.5-.3-.8-.5-1.7-.6-2.6-.5-4.3.8-8,3.6-11.2,3.8-4.5,7.5-8.9,11.3-13.4,11.4-13.5,22.8-27,34.2-40.5,1-1.1,2-2.2,3.2-3.1,2.9-2.3,6.3-3.5,10.1-2.9,2.1.3,4.2.6,6.3,1,21.2,3.8,42.5,7.6,63.7,11.5,1.4.3,2.9.5,4.3,1,4.1,1.4,7.2,4,8.7,8.1,4.2,11.6,8.4,23.2,12.5,34.8v.2h0ZM198.6,93.5c-1.5-4.1-4.4-6.6-8.7-7.4-20.3-3.6-40.7-7.2-61-10.8-2.7-.5-5.5-.9-8.2-1.5-4-.9-7.1.4-9.7,3.5-9,10.6-18,21.2-27,31.8-6.1,7.3-12.3,14.5-18.4,21.8-2.9,3.4-3.6,7.2-2,11.4,1.6,4.3,3.1,8.6,4.7,12.9,2.4,6.6,4.7,13.1,7.1,19.7l.6,1.5c1.1,3.1,2.2,6.2,3.4,9.3,2.6,7.3,5.2,14.6,7.8,21.8,1.2,3.3,3.4,5.7,6.7,6.9.7.3,1.4.4,2.2.6,6.9,1.2,13.7,2.5,20.6,3.7,11.5,2.1,22.9,4.1,34.4,6.2,4.9.9,9.8,1.7,14.8,2.5,2.6.4,5.2.1,7.3-1.6.7-.5,1.2-1.2,1.8-1.8,4.6-5.4,9.2-10.8,13.7-16.2h0c3.1-3.6,6.1-7.2,9.2-10.8,7.5-8.9,15-17.8,22.5-26.7,2.5-3,3.3-6.4,2.3-10.2-.4-1.4-1-2.8-1.5-4.2-5.6-15.6-11.3-31.3-16.9-46.9-1.9-5.2-3.7-10.4-5.5-15.6h-.2Z"/>
                  <path class="cls-3" d="M511.5,358.9l15,11.9c4.7,3.7,9.3,7.4,14,11.1.7.6,1.4,1.2,1.9,1.9,2.7,3.4,3.5,7.2,2.9,11.4-1.1,7.8-2.3,15.7-3.4,23.5-1.8,12.2-3.5,24.4-5.3,36.6-.6,4.1-1.2,8.2-1.9,12.3,0,.6-.3,1.2-.5,1.8-1.1,3.1-3.3,5.4-6.2,6.9-1.8,1-3.8,1.8-5.7,2.6-20.3,8.1-40.5,16.1-60.8,24.2-1.6.6-3.2,1.3-4.8,1.7-4.3,1-8.3.3-11.7-2.4-7.5-5.9-14.9-11.8-22.4-17.7-11.8-9.3-23.6-18.7-35.4-28-.7-.5-1.3-1.2-1.9-1.9-2.7-3.4-3.5-7.2-2.9-11.4.8-5.8,1.7-11.6,2.5-17.3,2.5-17.5,5-35,7.6-52.4.2-1.5.5-3,1-4.3,1.3-3.5,3.5-6.3,7-7.8,2-.8,3.9-1.7,5.9-2.5,20-8,40.1-15.9,60.1-23.9,1.4-.5,2.7-1.1,4.1-1.4,4.2-1,8.2-.4,11.7,2.3,9.7,7.6,19.4,15.3,29.1,22.9h0ZM480.9,341.3c-3.4-2.7-7.2-3.3-11.3-1.7-19.2,7.7-38.3,15.4-57.5,23-2.6,1-5.1,2.2-7.8,3.1-3.8,1.4-5.8,4.1-6.4,8-2,13.7-4.1,27.5-6.1,41.2-1.4,9.4-2.8,18.8-4.1,28.2-.6,4.4.8,8,4.3,10.8,3.6,2.8,7.2,5.7,10.8,8.5,5.5,4.3,11,8.7,16.4,13l1.3,1c2.6,2.1,5.2,4.1,7.8,6.1,6.1,4.8,12.1,9.6,18.2,14.4,2.8,2.2,5.9,3,9.4,2.4.7-.1,1.4-.4,2.1-.7,6.5-2.6,13-5.2,19.4-7.7,10.8-4.3,21.6-8.6,32.4-12.9,4.6-1.9,9.3-3.8,13.9-5.7,2.5-1,4.4-2.6,5.4-5.2.3-.8.4-1.6.6-2.5,1-7,2.1-14,3.1-21h0c.7-4.7,1.4-9.4,2.1-14,1.7-11.5,3.4-23,5-34.6.6-3.9-.6-7.2-3.4-9.9-1.1-1-2.4-1.8-3.5-2.8-13.1-10.3-26.1-20.6-39.1-30.9-4.3-3.4-8.6-6.9-12.9-10.3v.2h0Z"/>
                  <path class="cls-1" d="M372.4,303.3l15-3.8c4.6-1.2,9.3-2.4,13.9-3.5.7-.2,1.5-.3,2.2-.3,3.5,0,6.3,1.3,8.7,3.8,4.5,4.6,8.9,9.1,13.4,13.7,6.9,7.1,13.9,14.2,20.8,21.3,2.3,2.4,4.6,4.8,6.9,7.2.3.4.6.8.9,1.2,1.4,2.3,1.8,4.7,1.4,7.3-.3,1.7-.7,3.3-1.1,5-4.7,16.9-9.5,33.8-14.3,50.7-.4,1.3-.7,2.7-1.3,3.9-1.4,3.2-3.8,5.4-7.3,6.3-7.4,1.9-14.9,3.8-22.3,5.7-11.8,3-23.5,6-35.3,9-.7.2-1.4.3-2.1.3-3.5,0-6.3-1.3-8.7-3.7-3.3-3.4-6.6-6.7-9.9-10.1-9.9-10.2-19.9-20.3-29.8-30.5-.8-.9-1.6-1.8-2.3-2.8-1.6-2.5-2.3-5.3-1.5-8.3.4-1.7.8-3.3,1.3-5,4.7-16.7,9.4-33.4,14.1-50.2.3-1.1.6-2.3,1.1-3.3,1.4-3.2,3.8-5.4,7.2-6.3,9.6-2.5,19.3-4.9,28.9-7.4v-.2h0ZM346.2,314.3c-3.4.9-5.7,3-6.6,6.4-4.5,16-8.9,32-13.4,48.1-.6,2.2-1.1,4.3-1.8,6.5-1,3.1-.2,5.7,2,8,7.8,8,15.6,16.1,23.4,24.1,5.3,5.5,10.7,11,16,16.4,2.5,2.6,5.5,3.4,9,2.5,3.6-.9,7.1-1.8,10.7-2.7,5.4-1.4,10.9-2.8,16.3-4.2l1.3-.3c2.6-.7,5.2-1.3,7.7-2,6-1.5,12.1-3.1,18.1-4.6s4.8-2.3,6.1-4.8c.3-.5.5-1.1.6-1.7,1.5-5.4,3-10.8,4.6-16.2,2.5-9,5.1-18,7.6-27.1,1.1-3.9,2.1-7.8,3.2-11.6.6-2.1.5-4.1-.7-6-.4-.6-.8-1.1-1.3-1.6-4-4.1-7.9-8.2-11.9-12.3h0c-2.7-2.7-5.3-5.5-8-8.2-6.5-6.7-13.1-13.4-19.7-20.1-2.2-2.2-4.9-3.1-8-2.6-1.2.2-2.3.6-3.5.9-13,3.3-25.9,6.6-38.9,9.9-4.3,1.1-8.6,2.2-12.9,3.2h0Z"/>
                  <path class="cls-4" d="M314.1,143.5l-3.8,13.7c-1.2,4.3-2.3,8.5-3.5,12.8-.2.7-.4,1.3-.8,1.9-1.5,2.8-3.9,4.5-7,5.3-5.7,1.5-11.4,3-17,4.5-8.8,2.3-17.7,4.7-26.5,7-3,.8-6,1.5-8.9,2.3-.4.1-.9.2-1.3.2-2.5.1-4.6-.7-6.5-2.2-1.2-1-2.4-2.1-3.5-3.2-11.4-11.5-22.8-23-34.1-34.5-.9-.9-1.8-1.8-2.5-2.8-1.9-2.6-2.6-5.5-1.8-8.7,1.8-6.8,3.7-13.6,5.6-20.4,3-10.8,5.9-21.6,8.9-32.3.2-.6.4-1.2.7-1.8,1.5-2.8,3.9-4.5,7-5.3,4.2-1.1,8.4-2.2,12.6-3.3,12.7-3.3,25.3-6.7,38-10,1.1-.3,2.2-.5,3.3-.5,2.8-.2,5.3.6,7.3,2.6s2.3,2.2,3.4,3.3c11.3,11.4,22.5,22.7,33.8,34.1.8.8,1.5,1.5,2.2,2.4,1.9,2.6,2.7,5.5,1.8,8.6-2.4,8.8-4.8,17.7-7.2,26.5l-.2-.2h0ZM317.3,117.6c.9-3.1.2-5.9-2.1-8.2-10.8-10.9-21.6-21.7-32.4-32.6-1.5-1.5-3-2.9-4.4-4.4-2-2.2-4.5-2.8-7.3-2-10,2.6-19.9,5.2-29.9,7.8-6.8,1.8-13.6,3.6-20.5,5.4-3.2.8-5.2,2.9-6.1,6.1-.9,3.3-1.8,6.5-2.7,9.8-1.4,5-2.7,10-4.1,15l-.3,1.2c-.6,2.4-1.3,4.7-1.9,7.1-1.5,5.5-3,11.1-4.6,16.6-.7,2.5-.4,4.9,1.1,7.1.3.5.7.9,1.1,1.3,3.6,3.7,7.3,7.4,10.9,11,6.1,6.1,12.1,12.3,18.2,18.4s5.2,5.2,7.9,7.8c1.4,1.4,3.1,2.3,5.1,2.2.6,0,1.2-.2,1.9-.3,5.1-1.3,10.2-2.6,15.2-3.9h0c3.4-.9,6.8-1.8,10.2-2.7,8.4-2.2,16.7-4.4,25.1-6.6,2.8-.7,4.7-2.5,5.8-5.2.4-1,.6-2.1.9-3.2,3.2-11.9,6.5-23.8,9.7-35.7,1.1-3.9,2.2-7.9,3.3-11.8v-.2h-.1Z"/>
                  <path class="cls-11" d="M146.7,419.1v27.4c0,.7,0,1.4-.2,2-.7,3.1-2.6,5.3-5.3,6.9-5.1,2.9-10.2,5.9-15.3,8.8-7.9,4.6-15.8,9.2-23.7,13.8-2.7,1.5-5.3,3-8,4.6-.4.2-.8.4-1.2.5-2.3.8-4.6.6-6.9-.4-1.4-.6-2.8-1.4-4.2-2.1-14-8.1-28-16.2-42-24.2-1.1-.6-2.2-1.2-3.2-2-2.6-2-4-4.7-4-7.9v-54.7c0-.7,0-1.3.2-1.9.7-3.1,2.6-5.4,5.3-6.9,3.7-2.2,7.5-4.3,11.3-6.5,11.3-6.6,22.7-13.1,34-19.7,1-.6,2-1,3-1.4,2.6-.9,5.2-.9,7.8.5,1.4.8,2.8,1.5,4.2,2.3,13.9,8,27.7,16,41.6,24,.9.5,1.9,1.1,2.7,1.7,2.5,2,4,4.6,4,7.9v27.5-.2h-.1ZM142.9,393.2c0-3.3-1.4-5.7-4.2-7.4-13.3-7.6-26.6-15.3-39.9-22.9-1.8-1-3.6-2-5.4-3.1-2.6-1.6-5-1.5-7.6,0-8.9,5.2-17.9,10.3-26.8,15.4-6.1,3.5-12.2,7.1-18.3,10.6-2.9,1.7-4.3,4.1-4.3,7.5v51.5c0,2.6.9,4.8,2.9,6.5.4.4.9.7,1.4.9,4.5,2.6,9,5.2,13.4,7.8,7.5,4.3,15,8.6,22.4,12.9,3.2,1.8,6.4,3.7,9.7,5.5,1.7,1,3.6,1.4,5.5.7.6-.2,1.2-.5,1.7-.8,4.6-2.6,9.1-5.2,13.6-7.8h0c3-1.8,6.1-3.5,9.1-5.3,7.5-4.3,15-8.6,22.4-13,2.5-1.5,3.9-3.7,4.2-6.5v-52.6h.2Z"/>
                </g>
                <g>
                  <rect class="cls-12" x="-561.7" y="-1.4" width="563.7" height="521.8"/>
                  <path class="cls-9" d="M5.2,99.4c2.6-.5,4.4-2,5.3-4.5,4.2-11.9,8.5-23.8,12.7-35.7.6-1.6,1.1-3.2,1.7-4.8.9-2.3.5-4.3-1.1-6.2L7.3,28.7C3.5,24.3-.2,19.8-4,15.4c-1.8-2.1-4-2.9-6.7-2.4-2.8.5-5.5,1-8.3,1.5-4.2.8-8.4,1.5-12.6,2.3l-1,.2c-2,.4-4,.7-6,1.1-4.7.8-9.3,1.7-14,2.5-2.1.4-3.8,1.5-4.9,3.3-.2.4-.4.8-.6,1.2-1.4,4-2.9,8-4.3,12.1-2.4,6.7-4.8,13.4-7.2,20.1-1,2.9-2,5.8-3,8.7-.5,1.6-.6,3.1.2,4.6.2.5.6.9.9,1.3,2.8,3.3,5.6,6.6,8.4,9.9h0c1.9,2.2,3.7,4.4,5.6,6.6,4.6,5.4,9.2,10.9,13.8,16.3,1.5,1.8,3.5,2.6,5.9,2.4.9,0,1.8-.3,2.7-.5,10-1.8,20-3.7,30-5.5,3.3-.6,6.6-1.2,10-1.8h.3,0Z"/>
                </g>
                <rect class="cls-12" x="2" y="520.4" width="563.7" height="521.8"/>
                <rect class="cls-12" x="-561.7" y="520.4" width="563.7" height="521.8"/>
              </g>
            </g>
          </g>
        </g>
      </g>
    </pattern>
  </defs>
  <rect class="cls-5" x="-4" y="0" width="603.3" height="841.9"/>
  <rect class="cls-10" x="-4" y="0" width="603.3" height="841.9"/>
</svg>