<?xml version="1.0" encoding="UTF-8"?>
<svg id="Layer_1" data-name="Layer 1" xmlns="http://www.w3.org/2000/svg" version="1.1" viewBox="0 0 505 181.2">
  <defs>
    <style>
      .cls-1 {
        fill: #f47e21;
      }

      .cls-1, .cls-2, .cls-3, .cls-4, .cls-5 {
        stroke-width: 0px;
      }

      .cls-6 {
        isolation: isolate;
      }

      .cls-2 {
        fill: #2e434f;
      }

      .cls-3 {
        fill: #f16858;
      }

      .cls-4 {
        fill: #fff;
      }

      .cls-5 {
        fill: #007478;
      }
    </style>
  </defs>
  <path class="cls-4" d="M162.2,90.6v-37.4c0-.9-.1-1.9-.3-2.8-1-4.2-3.6-7.3-7.3-9.4-6.9-4-13.9-8-20.8-12-10.8-6.2-21.6-12.5-32.3-18.7-3.6-2.1-7.3-4.2-10.9-6.2-.5-.3-1.1-.5-1.7-.7-3.2-1-6.3-.8-9.3.5-1.9.8-3.8,1.8-5.7,2.9-19.1,11-38.2,22-57.2,33-1.5.9-3,1.7-4.3,2.8-3.5,2.7-5.4,6.3-5.4,10.8v74.4c0,.9,0,1.8.3,2.6,1,4.2,3.5,7.3,7.2,9.4,5.1,3,10.2,5.9,15.3,8.9,15.4,8.9,30.9,17.9,46.3,26.8,1.3.8,2.7,1.4,4.1,1.9,3.6,1.2,7.1,1.2,10.6-.7,1.9-1,3.8-2,5.7-3.1,18.9-10.9,37.8-21.8,56.6-32.7,1.3-.7,2.6-1.5,3.7-2.4,3.5-2.7,5.5-6.2,5.5-10.7v-37.4h0v.2Z"/>
  <g>
    <polygon class="cls-5" points="49.8 119.4 72.7 122.5 74.9 124 76.2 133.3 61.9 134.7 46 125.5 49.8 119.4"/>
    <path class="cls-2" d="M146.1,124.1c0-.3,0-.5.1-.7,1.1-3.8,1.5-7.6,1.5-11.6v-1c0-2.9-.5-5.8-1.4-8.6-.8-2.3-1.8-4.4-3.5-6.1s-1-.9-1.6-1.1c-1.9-1-4.1-.9-6.1.5-1.1.7-2.1,1.7-2.9,2.8-1.3,1.7-2.3,3.6-3.1,5.7,0,.2-.2.5-.3.8,0,0,0,.2-.1.3,0,.2-.1.4-.2.6v.2c0,.2-.1.4-.2.6v.2c0,0,0,.2-.1.4h0v.3c0,0,0,.3-.1.4h0c0,.3,0,.5,0,.7s0,.3,0,.4h0c0,.3,0,.5-.2.8v.2c0,.3,0,.6-.2.9v.9h0v.8c0,.3,0,.5,0,.8h0v2.1h0v3.9c0,.6,0,1.1,0,1.7v1.5h0v.8c.2,1.6.6,3.1,1.1,4.6h0c0,1.4,2.9,6.1,2.9,6.1-.5-.7-1.1-1.4-1.6-2.1-1.3-2-2.2-4.2-2.8-6.5,0-.4-.2-.8-.3-1.2,0-.3,0-.5-.2-.8h0c-.2-1-.4-2-.5-2.9,0-.3,0-.6,0-1v-5.5c0-.7,0-1.3,0-2v-.8c0-.3,0-.6,0-.9,0-.3,0-.6,0-.9v-.9h0c0-.6.2-1.1.3-1.6v-.3h0c0-.2,0-.4,0-.6h0c0-.2,0-.4,0-.5h0c0-.2,0-.4.2-.6,0-.2,0-.5.2-.7.2-.5.3-.9.5-1.4h0c0-.2,0-.3.2-.5h0c0-.2.2-.4.3-.6,0,0,0,0,.1-.2,0-.2.1-.3.2-.5v-.2c.2-.2.3-.4.4-.6h0c0-.3.2-.5.3-.6.1-.2.2-.4.3-.6s.2-.4.4-.6c0,0,0,0,.1-.2.1-.2.3-.5.4-.7h0c.2-.3.3-.5.5-.8h0l.4-.6v-.2c.1,0,.6-.7.6-.7h0s-.2,0-.4,0c0,0-.2,0-.3,0h-.1c-.1,0-.3.2-.5.3,0,0-.2,0-.2.2-.1,0-.2,0-.3.2-.1,0-.2,0-.3.2,0,0-.1,0-.2,0,0,0-.1,0-.2,0s-.1,0-.2.2h0c-.3.3-.6.6-.9,1,0,0-.1.2-.2.3l-.2.2-.2.2c-.2.2-.4.5-.6.8,0,0,0,0,0,.2,0,.2-.3.5-.4.7s-.3.5-.4.7h0s0,0,0,.2h0c0,.2,0,.3,0,.4,0,.2-.2.4-.3.6,0,.3-.2.6-.4.8h0c0,0,0,.3-.2.4h0v.3h0c0,.3-.2.5-.3.8,0,0,0,.3,0,.4s0,.3,0,.4c0,.2,0,.4-.2.6h0c-1.3,4.4-1.7,8.7-1.5,13.2.3,4.7,1.2,9.2,3.5,13.4,0,.2,0,.4.2.6-.4-.4-.8-.8-1.1-1.3-1.3-2-2.1-4.2-2.8-6.5-.2-.6-.2-1.2-.3-1.8,0-2-.2-4-.4-5.9,0-1.4-.4-2.9-.4-4.3s.2-2.9.4-4.3c.6-4.6,2.1-8.9,4.8-12.7,0-.2.3-.4.4-.6-4.1,3-6.8,6.9-7.7,11.9-.3-.4-.4-.8-.6-1.1-.6-.9-.6-1.9-.3-2.9,1.4-4.9,4.5-8.4,9.2-10.5.6-.2,1.2-.4,1.8-.4h4.7c.5,0,1,0,1.5,0,.6,0,1.2,0,1.7.2h0c1.6.2,3.2.7,4.4,1.3,1.6-1,2.7-2.6,3.4-4.4.1-.4.1-.7.2-1.1.1-.7-.2-1.4-.8-1.6-.6-.3-1.3-.2-1.9.4-.4.4-.9.7-1.5,1.2v-3.1c-.1,0-2.4-.9-2.4-.9l-2.4,1.9-.8-4.6-2.9-1.7h0l-.6-.4-.4-.2-.4.3h0l-.3.2h0l-2.3,1.5-.4-6.2-2.9-1.8-.7-.4-.4-.3-2.7,1.2v-4.9c-1.1-.8-4.1-2.9-5.2-3.8l-5.2,2.3c-.3,0-.6.3-1,.4,0-.4-.2-.7-.2-1l-.9-6.8-7.5-2c-2,2.1-4.9,5.1-6.9,7.1l-.9.9c-1.2-3.4-2.3-6.8-3.5-10.1h-.6c-2.5.3-5.2.6-7.7.8l-3.7,5.9c-.2.3-.4.6-.6.9-1.5-.6-2.8,0-4.1.5-1.6-1.8-3.2-3.5-4.9-5.2l-4.1,1.5-.4.9-.2.5v.2l-.3.5v.2c0,.2-.2.4-.3.6,0,.2-.2.3-.2.5v.2c-.4.9-.8,1.8-1.1,2.6,0,0,0,.2-.2.3h0c0,.2-.2.3-.2.5,0,0,0,.2,0,.2v.2s0,.2,0,.3c0,0,0,.2-.2.3h0l-6,.3-1.3-1.2-1.5-1.3-3.2,1.4-1.1,2-1.8,3.1c-1.2-1.3-2.4-2.3-4-2.8h-.3c-1.4-.5-2.9-.7-4.6,0,0,0,.2,0,.3.2.9.5,1.7.9,2.4,1.3.8.5,1.5,1.1,2,2.2-.3-.2-.4-.2-.5-.3-1.6-1.2-3.3-2-5.1-2.7h-.3c-.2,0-.3,0-.5-.2h0c-.2,0-.4,0-.6-.2-4.4-1.4-5.3-.6-5.3-.6v.8c0,.6,0,1.2-.2,1.8-.1.7-.3,1.3-.4,1.9-.5,2.7-.2,5.3.7,7.9v.5h0v.2c-.2.4-.7,1.2-1.2,2.5-.2.4-.4.9-.6,1.4h0c0,.2-.1.4-.2.5-.2.4-.3.9-.4,1.4l.6,7-1.5-.3c0,.2-.2.5-.4.7,0,0-.2,0-.2.2-.7.5-.7,1.1-.3,1.7,0,0,.1.2.2.2.3.3.3.6.2,1-1.7.4-2.5.8-3.2,1.7-1,1.3-1.1,2.7-.2,4.1.2.4.5.8.8,1.2.1.2.2.5.2.8-.1,1.4.9,2.9,2.3,3.3h1.2l9.1-.2h6.7c0,0,0,0,0,0h0,0c-.2.4-.3.8-.4,1.3h-2.7l-8.8.2h-5.1c0,.2.2.5.3.6h0c.5.4.5.9.3,1.5-.2,1.2-.3,2.5-.1,3.8.3,2.5,1.1,4.8,1.9,7.1,1,2.9,2.5,5.6,4.6,7.9,0,.1.2.3.4.7-4.6-2.6-6.6-8.5-7.1-10.2h0v-.2h0c0,0-1.1.4-1.1.4h0c-2.4,1.1-4.8,2.2-7.2,3.3v.6c.2.4.3.8.5,1.1,1.2,2.4,3.2,4.2,5.5,5.5,5.6,3.2,11.2,6.5,16.8,9.7l10.4,6h0l7.3,4,8.9,5.3h0l2.7,1.6h0c3,1.7,5.9,3.4,8.9,5.1.6.3,1.2.5,1.8.8,2.8,1,5.6,1.1,8.3,0,1.2-.7,2.4-1.4,3.6-2.1.8-.4,1.6-.9,2.3-1.3l12.3-7.1c3-1.7,6.1-3.5,9.2-5.3l2.6-1.6.8-.4,2.8-1.6c8-4.6,16-9.2,23.9-13.7,2.5-1.6,4.4-3.8,5.4-6.7.1-.3.2-.7.3-1.1-2-.6-3.9-1.1-5.9-1.7h0l-.6.6ZM26.6,104.7c-.2-.5-.4-.9-.6-1.3,0,0-.4-.3-.5-.2-.1,0-.3.3-.3.5,0,.3,0,.6.1.9,0,.3.4.8-.2,1s-.6-.4-.8-.7c-.2-.5-.5-1-.7-1.5,0-.2-.2-.3-.2-.5,0-.8.5-1.1,1.1-1.5s1.2-.6,1.8,0c0,0,.2.2.2.3,0,.9.2,1.8.2,2.8,0,0-.1,0-.3.3h.2ZM29.3,97.6c0,0-.1.3-.2.4v.2h0c0,0,0,0,0,0h0v-1.1h0v-.5q0,0,0,0c0,.2,0,0,0,0v-.8h0v-3.1h0v-1.1h0v-2.3h0v.4h0c0,.4.2.7.3,1.1v.2c0,.3.1.6.2.9v.9h0v2.4h0v.4h0v.4h0v.8c0,0,0,.3-.1.4h0l-.2.5ZM34.6,103.9c-.9,0-1.8-.3-2.7.2-.9.5-1.1,1.3-1.2,2.3-.4,0-.7,0-1.1,0,0-.4-.2-.8-.2-1.2.2-2,2.4-3.5,4.4-3,1,.3,1.1.5.8,1.7h0ZM27.3,114.7l.2-.5c.1,0,.3,0,.4.2,2.7,1.8,5.8,2.6,8.9,2.9,1.2,0,2.3.2,3.5.2s.4,0,.5,0c.4.2.8.5,1.3.8-10.6,1.4-14.7-3.7-14.7-3.7h0ZM29.1,123.9c-.3-1.4-.5-2.9-.5-4.4s.2-1.4.3-2.3c.6.3,1,.5,1.5.8-.3,2.6-.1,5.1.6,7.6.7,2.5,1.8,4.8,3.1,7.1,0,0-3.4-3.5-4.9-8.8h0ZM33.9,119.2c.5,0,.9,0,1.4.2-.3,2.5-.2,4.9.4,7.3.6,2.3,1.6,4.5,2.7,6.6-3.4-4-4.8-8.8-4.5-14.1ZM38.2,119.6h1c0,4.6.9,9,2.9,13.1-2.7-2.2-5.1-9.3-3.9-13.1h0ZM42.5,96.6h0s0,0,.3-.2c0,0,.2,0,.2,0h.2c.2,0,.5-.3.9-.5h.2c0,0,1.5-1.1,1.5-1.1h0c.8-.5,1.6-1,2.6-1.5,0,.6,0,1.2.2,1.7v.8c0,0,0,.3,0,.4,0,0,0,.2,0,.3,0,0,0,.2.2.3,0,0,0,.2.2.3,0,0,0,.2.2.3,0,0,0,.2.2.3,0,0,0,0,.2.2,0,0,0,0,0,0,.3.4.7.6,1.1.8h.7c.8,0,1.6-.3,2.3-.9,0,0,0,0,.2-.2,1-1,1.7-2.7,1.8-4.6,0-.8,0-1.5,0-2.2,0-.5-.2-1-.4-1.4,0,0,0-.2-.2-.3,1.1-.6,2.1-1.1,2.9-1.6,0,0,.3,0,.4-.2h0c.4-.2.8-.4,1.2-.6h0c.4-.2.8-.4,1.3-.5l.2.3-.2-.3h0s3.3,1.3,4.1,4.4c.5,2.1-.6,5.4-.6,5.4-.7.3-1.3.7-1.9,1-2.1,1-4.1,2.1-6.2,3.1,0,0-.2,0-.2,0-.3,0-.7.2-1,.2h-6.3c-1.2.2-2.3.5-3.5.9l-.9-1.4-2.2-3.4h0ZM49.8,92.5h0v-.3s.2,0,.3-.2c.5-.3,1.1-.6,1.7-1h0c.2.2.2.5.3.8v1.1h0c-.2.8-.7,1.3-1.2,1.3h-.3s0,0-.2,0h0c0,0-.2-.3-.3-.4h0c0-.3-.2-.7-.2-1.1h0ZM63.3,108.7l-1.1.3-4.7,1.2-2.7.7-1.4.4c0-.4-.3-.8-.4-1.3.3,0,.6-.2.8-.3.2,0,.3,0,.4,0l2.3-.8c1.1-.4,2.3-.7,3.4-1.1.7-.2,1.4-.4,2.1-.7.9-.3,1.8-.4,2.7,0,1.3.4,1.8,1.5,1,2.6s-2.4,2.4-4.7,1.8l2.6-1.6-.4-1.1h.1ZM51.6,111.5h-7.6c0-.2,0-.3,0-.4,0,0,0-.3.2-.5v-.2h0c0,0,0-.2.2-.3,0,0,0-.2.2-.4,0,0,0,0,0-.2,0,0,0,0,0-.2h0v-.2s0,0,.2-.2h0c0,0,.2-.2.3-.3h0c.2-.2.3-.4.5-.5,0,0,0,0,.2,0h2.6c0,0,.2,0,.3.2h0s.2,0,.2,0h0s0,0,.2,0c0,0,0,0,.2,0,0,0,0,0,.2,0,0,0,.2,0,.2.2,0,0,0,0,.2.2h0c0,0,0,.2,0,.2h0c0,0,0,.2,0,.3,0,0,0,.2.2.3,0,0,0,.2,0,.2h0c0,.2,0,.4.2.5h0v.2h0v.3h0v.3h0l.4.2ZM72.9,129.3c-5,.2-9.6-.8-13.8-2.8h0c-1.2-.6-2.3-1.2-3.4-1.9h0c-2-1.4-3.4-2.9-3.5-3,.3,0,.6.3.9.4,5.2,2.6,10.7,4.2,16.5,4.6,1.4,0,2.8,0,4.1,0h.9l.4,2.8c-.7.2-1.4.2-2,.2h0v-.2ZM73.9,68.6s-.2,0-.3,0h0c-6.4,3.1-13.8,10.1-14.3,10.5,1.4-1.7,2.8-3.5,4.2-5.3,0,0-4.5-.2-11,2.9,0,0-.3,0-.4.2h0s-.2,0-.3,0c-.2,0-.3.2-.4.2-.2,0-.3.2-.5.2s-.3,0-.4.2c-.2,0-.3.2-.5.3h-.2s-.2,0-.2.2c-.6.3-1.1.7-1.7,1.1h0c-5,3.5-8.1,7.5-8.5,8.1h0c0-.3.2-.5.3-.8h0c1.1-2.7,3.9-9.5,3.2-11.2h0l.4-.2h0s.2,0,.3-.2h0c0,0,.2,0,.3-.2.3-.2.6-.3,1-.5,0,0,.3,0,.4-.2,0,0,.2,0,.2,0,0,0,.2,0,.3,0,.2,0,.3,0,.5-.2h.5c.2,0,.4-.2.6-.2h.3c0,0,.2,0,.4,0s.2,0,.4,0,.2,0,.4,0c.2,0,.4,0,.6-.2,0,0,.3,0,.4,0h.2c.2,0,.5,0,.8-.2.2,0,.3,0,.5,0h.4c.2,0,.4,0,.6,0,.3,0,.6,0,.9-.2h6c1.5,0,3,.2,4.5.6.2,0,.3-.2.5-.4,2.5-2.4,5.4-4.4,8.6-5.7.5-.2,1-.3,1.4-.5.7-.3,1.3,0,1.9.4,1.4,1.1,2.4,2.5,3.2,4.1,1.3,2.6,1.9,5.4,2.2,8.3.3,2.7.3,5.4,0,8.1v.5c-.3-4.1-1.6-8-2.5-10.3v-.2s0-.2,0-.3c0-.2-.2-.5-.3-.7v-.4h0v-.4h0c-.5-1.3-1.2-2.3-1.8-3.4-.3-.5-.7-1-1.2-1.4-.8-.8-1.2-1.1-1.7-.9h0v-1.1ZM93.5,131.2h0c.3,2.8.9,5.4,1.7,8,.6,2.1,1,3.5,1,3.6-3.9-6.8-5-17.5-5.1-18.8h0v-3.6c0-3.9.6-7.8,1.9-11.5.2-.5.4-1.1.6-1.6,0-.2.2-.5.3-.8h0c0-.2.2-.4.3-.6h0s0-.2,0-.3h0c0,0,0-.2.2-.4,0,0,0,0,0-.2,0,0,0-.3.2-.4h0s0-.2,0-.3c0-.2.2-.4.4-.6,0-.2.3-.4.4-.6s.2-.4.4-.5c0-.2.2-.3.3-.5h0c0-.2.2-.3.4-.5,0-.2.3-.3.4-.5h0c.3-.4.6-.7,1-1.1l.3-.3.4-.4.4-.4.3-.3c0,0,.3-.2.4-.3-.3,0-.5.2-.8.3-.3,0-.6.3-.9.4,0,0-.2,0-.3,0-.3,0-.5.3-.8.4,0,0,0,0-.2,0h0c0,0-.2,0-.3.2h0c0,0-.3.2-.4.3,0,0-.2.2-.3.3h0s-.2,0-.3.2l-.2.2c0,0-.2.2-.4.3l-.3.3h0q0,0,0,.2h0s0,.2-.2.3c0,0,0,0,0,.2l-.2.2-.2.2h0c0,0,0,.2-.2.3,0,0-.2.3-.3.5,0,.2-.2.3-.3.5-2.1,3.5-3.4,7.4-4.2,11.3-.8,3.5-1.1,7-1.2,10.6h0c0,1.3,0,2.7,0,4v.7c.2,2.6.6,5.2,1.3,7.7h0c.3,1.2.5,1.9.5,2-2.2-4-3.1-10.1-3.3-11.6h0v-.3c-.3-3-.4-6-.2-9.1.2-2.4.5-4.7,1-7,.9-4.1,2.7-8.1,5-11.6l.4-.6,1.5-2.3c-.2.2-.4.4-.6.5,0,0-.2.2-.4.3-.2.2-.4.3-.6.5s-.3.2-.4.4c-.2,0-.3.3-.5.4-3.9,3.8-6.4,8.4-7.9,13.7-1.6,6.1-2,12-1,17.9h0c0,.7.2,1.3.4,2h0q0-.1,0,0h0c.6,2.6,1.4,5.1,2.5,7.7h0c.4,1.2.8,2,.8,2.1-3.1-3.3-4.7-10.4-5.1-12.3h0c-1.4-7.4-1-14.6,1.4-21.8.8-2.3,1.7-4.6,3.1-6.6.8-1.2,1.9-2.3,2.8-3.4.2-.2.3-.3.4-.6-.3.2-.6.4-.9.6-3.1,2.2-5.2,5.1-6.8,8.5-1.8,3.9-2.7,8-2.9,12.2-.2,3.1,0,6.2.4,9.2.5,5.4,4.1,14,4.2,14.2-3.4-3.5-5.3-9.3-5.8-10.8h0v-.2c0-.1,0,0,0,0h0c-.6-2.2-.9-4.4-1.1-6.7-.5-7.4,1.2-14.2,5-20.4,2.1-3.5,4.9-6.3,8.3-8.6,1.3-.8,2.7-1.2,4.2-1.2h2.5c.9,0,1.8,0,2.8,0h3.8c.5,0,1,0,1.5,0h2.6c.2,0,.4,0,.5,0h.6c.2,0,.4,0,.5.2,0,0,.3,0,.4,0,0,0,.3,0,.4.2.2,0,.3,0,.5.2,0,0,.2,0,.3,0,0,0,.2,0,.4.2h0s0,0,.2,0h0c0,0,.3,0,.4.2,0,0,.3.2.4.3,0,0,.2,0,.2.2,0,0,.2,0,.3.2.4.2.7.5,1.1.8l.2.2c0,0,.2.2.3.3s.3.3.5.4c0,0,0,0,0,.2-.4-.2-.8-.5-1.2-.7-.4-.2-.8-.4-1.1-.5-.2,0-.4,0-.5-.2s-.4,0-.5-.2h-4.1c0,0-.3,0-.4,0s-.3,0-.4,0c0,0-.2,0-.3,0,0,0-.2,0-.3,0,0,0-.3,0-.4.2h-.2c-.2,0-.4.2-.5.3-1.6.9-2.9,2.1-4.1,3.6-1.8,2.3-3,4.8-3.9,7.5-1.5,4.3-2.1,8.7-2.2,13.2-.2,2.2,0,4.9.4,7.5h0l-.7.7ZM115.3,134.5c-.5,1.3-1.1,2.5-1.8,3.6,0,.2-.3.4-.4.6s-.3.4-.4.5c-.2.3-.5.6-.8.8-.2.2-.4.4-.7.6-.2.2-.5.4-.7.6-1.7,1.2-3.6,1.1-5.4,0,0,0-.2-.2-.3-.3-.8-.6-1.3-1.4-1.8-2.2l-.2-.4c0-.3-.3-.5-.4-.8h0l-.3-.6c0-.2-.2-.4-.3-.6-.6-1.6-1-3.2-1.2-4.9,0-.5,0-1-.2-1.5-.4-3.9-.4-7.8.4-11.7.4-2.4,1.1-4.6,2.1-6.9.6-1.5,1.4-3,2.5-4.2.2-.3.5-.6.8-.8.5-.4.9-.9,1.5-1.2,0,0,.3-.2.4-.2s.3,0,.4-.2.3,0,.4,0h.4c0,0,0,0,0,0h1.4c.2,0,.4,0,.6.2h.2s.2,0,.3,0c.2,0,.4.2.5.3,0,0,0,0,.2,0,0,0,.3.2.4.3l.3.3.3.3c.6.6,1.1,1.4,1.6,2.2,1,1.8,1.6,3.8,2,5.8,1.3,7,.8,13.9-1.8,20.5h0v-.2ZM117.8,81.6v.2h0v.3s0,.2,0,.3c0,0-.2.3-.3.4,0,0,0,0,0,0h0c0,.2-.2.3-.3.4h0c0,0,0,0-.2.2h-1.9c-1.1,0-2.2-.4-3.2-1.3h1.1c1.4-.4,1.7-1.5.6-2.5l-.2-.2h-.3s0,0-.2,0c0,0-.2,0-.3-.2-2.7-1.5-5.6-2.2-8.7-2.1h-.7c0,.2,0,.3,0,.4,0,0,0,.2,0,.4,0,.2,0,.4-.2.6,0,0,0,.2,0,.3s0,.2,0,.3h0s0,0,0,.2h0c0,0,0,.3-.2.4,0,0,0,.2-.2.2h0q0,0,0,0l-.2.2-.2.2h0s0,0-.2.2h0s0,0-.2,0h-.3s0,0-.2,0-.2,0-.3,0c0,0-.2,0-.4,0-2.4.7-4.6.2-6.8-1.2.5-.2.8-.3,1-.4.8-.3,1.6-.7,2.3-1.1h0s0,0,0-.2h0v-.5c0-.5-.6-.6-1-.7-1.7-.4-3.3,0-5,.3h-.5c-.2.2-.4.2-.5.2h-1c-.2,0-.4.2-.7.3,0,0-.2,0-.3,0-.5.3-1.1.6-1.6,1-.4-1.8-.6-3.4-.8-5.2.4-.2.7-.3,1.1-.4,2.9-1,5.8-1.5,8.9-1.7,6.9-.3,13.6,1.2,19.9,4,.5.2,1,.5,1.5.8,0,0,.3.2.4.2s.3.2.4.2h0c0,0,.2,0,.3.2.6.4,1.3.8,1.9,1.2,1.8,1.2,3.6,2.4,5.4,3.6s1.8,1.2,2.7,1.8c.2,0,.4.3.6.4.4.2.7.4,1.1.6s.3.2.5.3c.2,0,.4.2.6.4l.6.3.6.3c.4.2.7.4,1.1.5.1,0,.2,0,.3,0s.1,0,.2,0c.2,0,.5.2.8.3h0c.1,0,.2,0,.3,0,.2,0,.5.2.7.3.2,0,.5.2.7.3,1.5.6,3.1,1,4.7,1.2h1.7c.6,0,1.3-.2,2.1-.5h.2c.1,0,.2,0,.4-.2h.1s.1,0,.2,0c.1,0,.2-.2.3-.2h0v.2c0,0,0,.2-.2.4h0v.2h0s-.1,0-.1.2c0,0-.1,0-.2.2-.1,0-.3.2-.4.3-.1,0-.2,0-.3.2-.2,0-.4.2-.6.3h-4.6c-.3,0-.6,0-1-.2h-.3c-.2,0-.5,0-.7-.2s-.5,0-.8-.2c-.2,0-.5,0-.8-.2-.2,0-.4,0-.6-.2h-.1c-.1,0-.2,0-.3,0h0c-.1,0-.2,0-.4,0l-.5-.2c-.2,0-.5-.2-.7-.3-.3,0-.5-.2-.8-.3-4-1.6-7.8-3.7-11.3-6.2,0,0-.2,0-.3-.2,0,0,0,0-.2,0h-.2c0,0,0,0-.2,0h0l-1.5.6ZM145.3,118.8v.2h0v.5c-.3,1.5-.7,3-1.3,4.5-.4,1.2-1.1,2.3-1.8,3.4-.2.4-.5.7-.8,1s-.5.4-.7.6c0,0-.2.1-.2.2-.3.2-.6.4-.8.5s-.5.2-.8.2h-.2c-.5,0-1,0-1.4-.3-.1,0-.3-.1-.4-.2-.2-.1-.4-.3-.6-.5h-.1c0-.1-.1-.1-.1-.1-.6-.7-1.1-1.4-1.5-2.1-.3-.5-.5-1-.7-1.5-.7-1.7-1.1-3.6-1.3-5.4-.2-1.3-.2-2.7-.3-3.4,0-1.5.1-3,.3-4.4,0-.5.1-1,.2-1.5h0c.2-1.3.5-2.6.9-3.8,0-.2.1-.4.2-.7.2-.4.3-.9.5-1.3.5-1.3,1.2-2.5,2.1-3.5,0,0,.1,0,.2-.2h0s.1,0,.2-.2c.3-.3.6-.5.9-.7.1,0,.2,0,.4-.2s.5-.2.7-.3c.5,0,.9-.2,1.4,0,.2,0,.4,0,.6,0,.2,0,.4,0,.5.2,0,0,.2,0,.3.2.3.2.5.4.8.6.3.3.5.6.8.9,1.2,1.7,1.9,3.6,2.3,5.6.3,1.6.6,3.2.6,4.8.1,2.3,0,4.6-.4,6.9h-.5Z"/>
    <path class="cls-3" d="M54.9,29.2c-2.8,1.6-5.6,3.2-8.6,5l49.2-3.1-40.6-1.9h0ZM105.3,24l-27-2.3,20.9-1.2c-4-2.3-8-4.6-11.8-6.8-.5-.3-1.1-.6-1.5-.7-.4-.1-.8-.2-1.2-.2-.8,0-1.7.3-2.7.8-3.9,2.2-8.6,4.8-13.1,7.4-2.3,1.3-4.7,2.7-7.1,4.1l43.9-.9c0,0-.3-.2-.4-.2h0ZM120.9,33l-12,2,16.1.3c-1.3-.8-2.7-1.5-4-2.3h0ZM51.6,111.2h0v-.2h0v-.3h0c0-.2,0-.3-.2-.4h0v-.3c-.2,0-.2-.2-.3-.3,0,0,0,0,0-.2,0,0,0,0,0,0,0,0,0,0,0,0h0c0,0,0-.2-.2-.3,0,0-.2,0-.2-.2h-.2c0,0,0,0-.2-.2,0,0,0,0-.2,0h0s-.2,0-.2,0h0c0,0-.2,0-.3-.2h-2.6s0,0-.2,0c-.2,0-.3.2-.5.4h0q0,0,0,.2s0,0-.2.2h0s0,0-.2.2h0v.2s0,0,0,.2c0,0,0,0,0,.2,0,0,0,.2-.2.4,0,0,0,.2-.2.3h0v.2c0,.2,0,.3-.2.5,0,0,0,.2,0,.3h1.4c1.8,0,3.5,0,5.2,0h1v-.3h0l-.4-.2ZM47.8,79.5c.6-.4,1.1-.8,1.7-1.1,0,0,.2,0,.2-.2h.2c.2,0,.3-.2.5-.3h0c-.9.5-1.8,1.1-2.7,1.7h0ZM42.4,110.4h0,0ZM29.8,93v2-2ZM29.7,95.9h0v-.4.4h0ZM29.2,92.7v1.4-1.4ZM29.1,96h0v-.2.2h0ZM29.1,89.7v.3-.3ZM29,89.5h0v.5-.5h0c0,0,0,0,0,0ZM152.6,54.7c-.2-2.4-1.3-4.2-3.4-5.4-4.9-2.8-10.1-5.8-15.5-9l-78.8,4.1,34.2-4.8-45-4.1c-7.2,4.2-15.1,8.7-23.8,13.8-.4.2-.9.5-1.2.8-1.7,1.4-2.4,3.1-2.4,5.5v56.3h6.6c-1.3-1.1-2.2-2.7-2.1-4.3,0-.2-.2-.3-.3-.5,0,0-.2-.3-.3-.4-1.3-2.1-1.2-4.6.4-6.5.7-.8,1.3-1.4,2.2-1.7v-.3l-3.6-.6,3.7-.5c.1-.6.5-1.2,1.3-1.9h0l.6-1.6h.6c0,0-.4-4.6-.4-4.6v-.4c.2-.5.4-1,.6-1.5,0-.2.1-.4.2-.5l.3-.9-8.6-.7,9.6-1.4c.1-.3.2-.5.4-.7-1-3.2-1.2-6-.6-8.6,0-.3.2-.7.2-1.1s.1-.5.2-.8l-8.6-1.2,8.8-.3v-.4l-.2-1.2.9-.8c.6-.5,1.4-.7,2.5-.7s3,.3,5.1,1l.6-.2c1-.4,1.9-.6,2.9-.6s2.5.3,3.4.7c1,.3,1.9.8,2.8,1.5l1.9-3.4,5.1-2.3,2.1,1.9c.7-1.2,1.3-2.4,2.1-3.5l-36.2-3,40.6-2.5c2.4-2.5,5.1-4.7,8-6.6l-39.2-1.4,47.5-2.6c4.3-1.5,8.9-2.3,13.7-2.3s5.3.2,7.8.7h0c1.1,0,37.7,3.3,37.5,3.5-.1,0-14,1-24.2,1.6,3.8,2.3,7.2,5.1,10.1,8.4l29.7,2.2-26.3,2.3c1.3,1.9,2.4,4,3.3,6.2l22.1,1.8-20.7,1.9c.4,1.2.8,2.5,1,3.8l18.8.7-14.5,2.4,1.5.9.4,2.1.5-.4,4.7,1.8v.9h.8c.6,0,1.1,0,1.6.4,1.4.7,2.2,2.2,1.9,3.8v.2c0,.4-.1.8-.3,1.3-.6,1.7-1.4,3.1-2.6,4.2,1.7,1.7,2.9,3.8,3.8,6.7.9,2.8,1.4,5.9,1.6,9.2v1.1h2.7v-52.8h0v-4.3h0v-.4ZM125.9,108.3h0ZM143.2,88.7c-.1,0-.2,0-.4.2.2,0,.3,0,.4-.2h-.1.1ZM139.7,89.6h-.2.5-.3ZM139,89.6h.2-.2ZM137.9,90.4h.8-.8ZM136,90.1c.3,0,.7,0,1,.2-.3,0-.6,0-1-.2ZM139.9,99.3h-1.4c.5,0,.9-.2,1.4,0,.2,0,.4,0,.5,0-.2,0-.4,0-.6,0h.1Z"/>
    <path class="cls-2" d="M162.2,90.6v-37.4c0-.9-.1-1.9-.3-2.8-1-4.2-3.6-7.3-7.3-9.4-6.9-4-13.9-8-20.8-12-10.8-6.2-21.6-12.5-32.3-18.7-3.6-2.1-7.3-4.2-10.9-6.2-.5-.3-1.1-.5-1.7-.7-3.2-1-6.3-.8-9.3.5-1.9.8-3.8,1.8-5.7,2.9-19.1,11-38.2,22-57.2,33-1.5.9-3,1.7-4.3,2.8-3.5,2.7-5.4,6.3-5.4,10.8v74.4c0,.9,0,1.8.3,2.6,1,4.2,3.5,7.3,7.2,9.4,5.1,3,10.2,5.9,15.3,8.9,15.4,8.9,30.9,17.9,46.3,26.8,1.3.8,2.7,1.4,4.1,1.9,3.6,1.2,7.1,1.2,10.6-.7,1.9-1,3.8-2,5.7-3.1,18.9-10.9,37.8-21.8,56.6-32.7,1.3-.7,2.6-1.5,3.7-2.4,3.5-2.7,5.5-6.2,5.5-10.7v-37.4h0v.2ZM157,125.9c0,4.4-1.9,7.8-5.7,10-18.1,10.4-36.2,20.8-54.3,31.1-2.4,1.4-4.9,2.7-7.3,4.2-3.5,2.2-6.9,2.1-10.4,0-12.2-7-24.3-14-36.5-21-8.3-4.8-16.6-9.6-25-14.4-3.9-2.3-5.8-5.6-5.8-10.2V55.5c0-3.6,1.3-6.6,4-8.9.6-.5,1.2-.9,1.9-1.3,6.1-3.5,12.2-7.1,18.3-10.6,10.2-5.9,20.4-11.8,30.6-17.6,4.4-2.5,8.8-5,13.2-7.4,2.4-1.3,4.9-1.9,7.5-1,.8.3,1.6.7,2.3,1.1,6.2,3.5,12.4,7.1,18.6,10.7h0c4.1,2.4,8.3,4.8,12.4,7.2,10.2,5.9,20.4,11.8,30.6,17.7,3.4,2,5.3,5,5.7,8.9.1,1.5,0,3,0,4.5v67.1h0Z"/>
    <path class="cls-5" d="M145.7,111.8c0-1.6-.3-3.2-.6-4.8-.4-2-1.1-3.9-2.3-5.6-.3-.4-.5-.7-.8-.9-.2-.2-.5-.4-.8-.6,0,0-.2,0-.3-.2-.2,0-.4-.2-.5-.2s-.4,0-.5,0h-1.4c-.2,0-.5.2-.7.3-.1,0-.2,0-.4.2-.3.2-.6.4-.9.7,0,0-.1,0-.2.2h0c0,0-.1.2-.2.3-.9,1-1.6,2.2-2.1,3.5-.2.4-.4.9-.5,1.3,0,.2-.1.4-.2.7-.4,1.2-.7,2.5-.9,3.8h0c0,.5-.1,1-.2,1.5-.2,1.4-.2,2.9-.3,4.4,0,.7.1,2.1.3,3.4.2,1.9.6,3.7,1.3,5.4.2.5.5,1,.7,1.5.4.7.9,1.4,1.5,2h.1c0,.1,0,.2.1.2.2.2.4.4.6.5.1,0,.3.2.4.2.5.2,1,.3,1.4.3h.2c.2,0,.5-.1.8-.2.3-.1.6-.3.8-.5,0,0,.2-.1.2-.2.2-.2.5-.4.7-.6s.6-.6.8-1c.7-1.1,1.3-2.2,1.8-3.4.6-1.5,1-3,1.3-4.5v-.5h0c.4-2.4.5-4.7.4-7h.4ZM143.6,117.8c-.2,1.5-.5,3-1.1,4.3-.4,1-1,1.9-1.7,2.7-1.2,1.3-3.1,1.3-4.3,0-1.1-1.2-1.7-2.8-2-4.4-.6-2.9-.7-5.8-.2-8.6.2-1.2.5-2.4.9-3.5s.9-2.1,1.7-2.9c1.5-1.6,3.3-1.5,4.7.2,1.1,1.4,1.6,3,1.9,4.7,0,.2,0,.4.1.6,0,.3,0,.6.1.9.2,2,.2,4,0,6h0Z"/>
    <path class="cls-5" d="M141.6,118.6c-.3.8-.8,1.5-1.8,1.4-1,0-1.4-.8-1.7-1.6-.1-.4-.2-.8-.3-1.2-.3-1.4-.3-2.9.1-4.4.1-.4.2-.7.4-1h0c.4-.7.9-1.4,1.8-1.4s1.3.7,1.6,1.4v.2c.8,2.2.7,4.4-.2,6.6h0Z"/>
    <path class="cls-2" d="M140.9,111.3v-.2c-.3-.7-.8-1.4-1.6-1.4s-1.4.7-1.8,1.4h0c-.2.3-.3.7-.4,1-.4,1.4-.4,2.9-.1,4.4,0,.4.2.8.3,1.2.2.8.7,1.5,1.7,1.6,1,0,1.5-.7,1.8-1.4,1-2.1,1.1-4.4.2-6.6h0Z"/>
    <path class="cls-5" d="M111.7,128.4c-.4,1-1.1,1.9-2.4,1.9s-1.9-1-2.2-2.1c-.2-.5-.3-1-.4-1.6-.4-1.9-.4-3.9.2-5.7,0-.5.3-.9.5-1.4h0c.5-1,1.1-1.9,2.4-1.8,1.1,0,1.8.9,2.1,1.8v.2c1.2,2.9,1,5.8-.2,8.7h0Z"/>
    <path class="cls-2" d="M110.7,118.9v-.2c-.5-.9-1.1-1.8-2.2-1.8s-1.9.9-2.4,1.8h0c-.2.4-.4.9-.5,1.4-.6,1.9-.6,3.8-.2,5.7,0,.5.2,1.1.4,1.6.3,1,.9,2,2.2,2.1,1.3,0,1.9-.9,2.4-1.9,1.3-2.8,1.4-5.7.3-8.7h0Z"/>
    <path class="cls-5" d="M117.1,114c-.4-2-1-4-2-5.8-.4-.8-.9-1.5-1.6-2.2l-.3-.3-.3-.3c0,0-.3-.2-.4-.3,0,0,0,0-.2,0-.2,0-.4-.2-.5-.3,0,0-.2,0-.3,0h-.2c-.2,0-.4,0-.6-.2h-1.4s0,0,0,0h-.4c0,0-.3,0-.4,0,0,0-.3,0-.4.2,0,0-.3,0-.4.2-.5.4-1,.8-1.5,1.2-.3.3-.5.6-.8.8-1.1,1.2-1.9,2.7-2.5,4.2-.9,2.2-1.6,4.5-2.1,6.9-.7,3.9-.8,7.8-.4,11.7,0,.5,0,1,.2,1.5.2,1.7.6,3.3,1.2,4.9,0,.2.2.4.3.6l.3.6h0c0,.3.3.6.4.8l.2.4c.5.8,1.1,1.6,1.8,2.2,0,0,.2.2.3.3,1.7,1.2,3.6,1.3,5.4,0,.2-.2.5-.4.7-.6.2-.2.5-.4.7-.6l.8-.8c0-.2.3-.4.4-.5s.3-.4.4-.6c.8-1.1,1.4-2.4,1.8-3.6,2.6-6.7,3.1-13.5,1.8-20.5h0v.2ZM115.7,121.9c0,3-.5,5.9-1.6,8.8-.6,1.5-1.4,2.9-2.5,4.1-2.5,2.5-5.3,2.2-7.2-.8-1-1.5-1.5-3.2-1.8-4.9-.6-4.2-.3-8.3,1.2-12.3.5-1.4,1.1-2.7,2.1-3.8.6-.6,1.2-1.3,1.9-1.7,1.4-.9,3.2-.8,4.5.2.9.7,1.5,1.6,2,2.6,1,2.2,1.4,4.6,1.4,7v.7h0Z"/>
    <path class="cls-5" d="M84.9,75.4c2.9-1,5.8-1.5,8.9-1.7,6.9-.3,13.6,1.2,19.9,4,.5.2,1,.5,1.5.8,0,0,.3.2.4.2s.3.2.4.2h0c0,0,.2,0,.3.2.6.4,1.3.8,1.9,1.2,1.8,1.2,3.6,2.4,5.4,3.6s1.8,1.2,2.7,1.8c.2,0,.4.3.6.4.4.2.7.4,1.1.6.2,0,.3.2.5.3.2,0,.4.2.6.4l.6.3.6.3c.4.2.7.4,1.1.5,0,0,.2,0,.3,0,.2,0,.3,0,.5.2.1,0,.2,0,.4,0h0c.1,0,.2,0,.3,0h.1c.2,0,.4,0,.6.2.3,0,.5.2.8.2s.5,0,.8.2.5,0,.7.2h.3c.3,0,.7,0,1,.2h4.6c.2,0,.4-.2.6-.3.1,0,.2,0,.3-.2.2,0,.3-.2.4-.3,0,0,.1,0,.2-.2,0,0,.1,0,.1-.2h0c.1-.2.2-.4.2-.5h0s-.2.2-.3.2c0,0-.1,0-.2,0h-.1c-.1,0-.2,0-.4.2h-.2c-.7.3-1.5.4-2.1.5h-1.7c-1.6,0-3.2-.6-4.7-1.2-.2,0-.5-.2-.7-.3-.2,0-.5-.2-.7-.3-.1,0-.2,0-.3,0h0c-.3,0-.5-.2-.8-.3h-.2c-.1,0-.2,0-.3,0-.4-.2-.7-.4-1.1-.5l-.6-.3-.6-.3c-.2,0-.4-.2-.6-.4-.2,0-.3-.2-.5-.3-.4-.2-.7-.4-1.1-.6-.2,0-.4-.2-.6-.4-.9-.6-1.8-1.1-2.7-1.8-1.8-1.2-3.6-2.4-5.4-3.6-.6-.4-1.3-.8-1.9-1.2,0,0-.2,0-.3-.2h0c0,0-.3-.2-.4-.2s-.3-.2-.4-.2c-.5-.3-1-.5-1.5-.8-6.3-2.9-12.9-4.3-19.9-4-3,0-6,.6-8.9,1.7-.3,0-.7.3-1.1.4,0,.5,0,1,.2,1.5.3,0,.6-.2.8-.3h.6Z"/>
  </g>
  <g class="cls-6">
    <g class="cls-6">
      <g class="cls-6">
        <g class="cls-6">
          <path class="cls-1" d="M222.4,48.4l20.7,49.1h-10l-5.3-12.7h-17.4l-5.5,12.7h-10l20.5-49.1h7.1ZM218.8,61.1l-5.3,14.9h10.5l-5.3-14.9Z"/>
          <path class="cls-1" d="M256.7,60.7c3.3,0,6.6-.2,9.7,1.3,3.2,1.5,5.2,5.1,5.2,8.8s-.9,4.8-2.7,6.4c3,1.7,5,5,5,8.6s-1.9,7-4.9,9.1c-3.3,2.3-7.3,2.5-10.9,2.5h-11v-36.8h9.6ZM259.7,68.4h-3.7v5.9h3.7c1.7,0,3.1-1.2,3.1-2.9s-1.2-2.9-3.1-2.9ZM260.9,82.1h-4.9v7.6h4.8c2.5,0,4.3-1.3,4.3-3.8s-1.6-3.9-4.1-3.9Z"/>
          <path class="cls-1" d="M308.2,97.5v-5c-2.8,3.8-8,6.2-12.6,6.2s-10.4-2.4-13.6-6.2c-2.9-3.5-4.6-8.3-4.6-13.4s1.3-9.4,4.7-13.2c3.7-4.3,8.3-6.4,13.7-6.4s9.4,2.3,12.4,6.4v-5.2h8.1v36.8h-8.1ZM286.3,79.4c0,6.1,4.9,10.7,10.9,10.6,6.4,0,10.8-4.7,10.8-11s-4.4-11-10.6-10.9c-6.5,0-11,4.9-11,11.3Z"/>
          <path class="cls-1" d="M331.8,60.7v14.2h13.7v-14.2h8.8v36.8h-8.8v-14.8h-13.7v14.8h-8.8v-36.8h8.8Z"/>
        </g>
      </g>
    </g>
    <g class="cls-6">
      <g class="cls-6">
        <g class="cls-6">
          <path class="cls-4" d="M371.6,48.4v21.3l15.3-21.3h10.9l-18.6,24.1,18.6,25h-10.9l-15.3-21.5v21.5h-9.1v-49.1h9.1Z"/>
          <path class="cls-4" d="M419.4,98.7c-10.6,0-19.5-8.8-19.5-19.6s8.8-19.7,19.9-19.7,19.3,9,19.3,19.7-8.8,19.6-19.7,19.6ZM408.7,79.1c0,5.9,4.6,10.9,10.6,10.9s10.8-4.7,10.8-10.9-4.7-11-10.8-11-5.7,1.4-7.6,3.4c-2.1,2.1-3.1,4.7-3.1,7.6Z"/>
          <path class="cls-4" d="M452.2,60.7v4.8c2.9-4.1,7-6,12-6s9.6,1.7,13.4,6c3.4,3.5,5.1,8.4,5.1,13.6,0,10.4-7.7,19.6-18.5,19.6s-8.2-1.5-11.2-5.2v16.3h-8.8v-49.1h8.1ZM455.8,87.3c1.9,1.7,4.6,2.8,7,2.8,6.3,0,10.9-4.9,10.9-11s-4.6-10.9-10.6-10.9-10.8,4.9-10.8,11,1.1,6.1,3.5,8.2Z"/>
        </g>
      </g>
    </g>
  </g>
  <g>
    <polygon class="cls-4" points="498.1 126.1 458.8 122 458.8 130 498.1 126.1"/>
    <g>
      <g class="cls-6">
        <g class="cls-6">
          <g class="cls-6">
            <g class="cls-6">
              <path class="cls-4" d="M251,132.7v-1.8c-1,1.3-2.8,2.2-4.5,2.2s-3.7-.8-4.8-2.2c-1-1.2-1.6-2.9-1.6-4.7s.5-3.3,1.7-4.7c1.3-1.5,2.9-2.3,4.8-2.3s3.3.8,4.4,2.3v-1.8h2.9v13h-2.9ZM243.2,126.3c0,2.1,1.7,3.8,3.9,3.8,2.3,0,3.8-1.7,3.8-3.9s-1.6-3.9-3.8-3.9c-2.3,0-3.9,1.7-3.9,4Z"/>
              <path class="cls-4" d="M259.3,119.7v5h4.8v-5h3.1v13h-3.1v-5.2h-4.8v5.2h-3.1v-13h3.1Z"/>
              <path class="cls-4" d="M268.5,119.7h8.9v2.8h-2.9v10.2h-3.1v-10.2h-2.9v-2.8Z"/>
              <path class="cls-4" d="M290.8,132.7h-3.1v-8.5l-5.5,8.5h-3.4v-13h3.1v8.5l5.5-8.5h3.4v13Z"/>
              <path class="cls-4" d="M296.4,119.7v6.1l4.2-6.1h3.7l-4.7,6.4,5.5,6.7h-4.2l-4.5-6.1v6.1h-3.1v-13h3.1Z"/>
              <path class="cls-4" d="M312.4,133.1c-3.8,0-6.9-3.1-6.9-6.9s3.1-7,7-7,6.8,3.2,6.8,7-3.1,6.9-7,6.9ZM308.6,126.2c0,2.1,1.6,3.9,3.8,3.9s3.8-1.7,3.8-3.9-1.7-3.9-3.8-3.9-2,.5-2.7,1.2c-.7.7-1.1,1.7-1.1,2.7Z"/>
              <path class="cls-4" d="M324,119.7v1.7c1-1.4,2.5-2.1,4.2-2.1s3.4.6,4.7,2.1c1.2,1.2,1.8,3,1.8,4.8,0,3.7-2.7,6.9-6.5,6.9s-2.9-.5-4-1.8v5.8h-3.1v-17.4h2.9ZM325.2,129.1c.7.6,1.6,1,2.5,1,2.2,0,3.9-1.7,3.9-3.9s-1.6-3.9-3.7-3.9-3.8,1.7-3.8,3.9.4,2.1,1.2,2.9Z"/>
              <path class="cls-4" d="M339.5,119.7v1.7c1-1.4,2.5-2.1,4.2-2.1s3.4.6,4.7,2.1c1.2,1.2,1.8,3,1.8,4.8,0,3.7-2.7,6.9-6.5,6.9s-2.9-.5-4-1.8v5.8h-3.1v-17.4h2.9ZM340.8,129.1c.7.6,1.6,1,2.5,1,2.2,0,3.9-1.7,3.9-3.9s-1.6-3.9-3.7-3.9-3.8,1.7-3.8,3.9.4,2.1,1.2,2.9Z"/>
              <path class="cls-4" d="M358.4,133.1c-3.8,0-6.9-3.1-6.9-6.9s3.1-7,7-7,6.8,3.2,6.8,7-3.1,6.9-7,6.9ZM354.7,126.2c0,2.1,1.6,3.9,3.8,3.9s3.8-1.7,3.8-3.9-1.7-3.9-3.8-3.9-2,.5-2.7,1.2c-.7.7-1.1,1.7-1.1,2.7Z"/>
              <path class="cls-4" d="M371,133.1c-2.5,0-4.7-1.7-4.7-4.5h3.2c0,.9.6,1.5,1.5,1.5s1.6-.5,1.6-1.4-.8-1.4-1.6-1.4h-.8v-2.8h.8c.7,0,1.1-.4,1.1-1.1s-.4-1.1-1.1-1.1-1.2.4-1.2,1h-3.1c0-2.2,2-4,4.2-4s4.3,1.6,4.3,3.9-.4,1.8-1.1,2.5c.8.7,1.6,1.4,1.6,3,0,2.5-2.2,4.3-4.7,4.3Z"/>
              <path class="cls-4" d="M389.5,132.7h-3.1v-8.5l-5.5,8.5h-3.4v-13h3.1v8.5l5.5-8.5h3.4v13Z"/>
              <path class="cls-4" d="M404.1,132.7h-3.1v-8.5l-5.5,8.5h-3.4v-13h3.1v8.5l5.5-8.5h3.4v13ZM398.1,116.1c.6,0,1.3-.3,1.6-.9h2.3c-.3,2.1-1.8,3.2-3.9,3.2s-3.6-1.1-3.9-3.2h2.3c.3.6.9.9,1.6.9Z"/>
              <path class="cls-4" d="M409.7,119.7v5h4.8v-5h3.1v13h-3.1v-5.2h-4.8v5.2h-3.1v-13h3.1Z"/>
              <path class="cls-4" d="M430.6,132.7v-1.8c-1,1.3-2.8,2.2-4.5,2.2s-3.7-.8-4.8-2.2c-1-1.2-1.6-2.9-1.6-4.7s.5-3.3,1.7-4.7c1.3-1.5,2.9-2.3,4.8-2.3s3.3.8,4.4,2.3v-1.8h2.9v13h-2.9ZM422.8,126.3c0,2.1,1.7,3.8,3.9,3.8,2.3,0,3.8-1.7,3.8-3.9s-1.6-3.9-3.8-3.9c-2.3,0-3.9,1.7-3.9,4Z"/>
              <path class="cls-4" d="M444.1,132.7h-3.1v-4.5l-3,4.5h-3.9l3.5-4.7c-2.1-.8-2.9-2.2-2.9-4.1s.6-2.5,1.6-3.3c1.1-.8,2.4-.9,3.6-.9h4.1v13ZM441,122.5h-1.3c-1.1,0-1.9.5-1.9,1.6s.8,1.6,1.9,1.6h1.3v-3.2Z"/>
            </g>
          </g>
        </g>
        <g class="cls-6">
          <g class="cls-6">
            <g class="cls-6">
              <path class="cls-4" d="M286,158.7c-3.8,0-6.9-3.1-6.9-6.9s3.1-7,7-7,6.8,3.2,6.8,7-3.1,6.9-7,6.9ZM282.2,151.8c0,2.1,1.6,3.9,3.8,3.9s3.8-1.7,3.8-3.9-1.7-3.9-3.8-3.9-2,.5-2.7,1.2c-.7.7-1.1,1.7-1.1,2.7Z"/>
              <path class="cls-4" d="M303.2,139.7c.7-.4,1.2-1,1.5-1.7l2.2,1.6c-.4,1.2-.9,2.2-1.9,2.8-1.5.8-4.5.7-6,1.5-2,1.1-1.7,3.1-1.7,3.1.8-1.3,2.5-2.1,4.1-2.1,3.8,0,6.6,3,6.6,7s-3.1,6.9-7,6.9-6.9-3.1-6.9-6.9c0-5.4.7-9,3.4-10.6,2-1.2,4.8-1,5.7-1.5ZM301,155.7c2.2,0,3.8-1.7,3.8-3.9s-1.7-3.9-3.8-3.9-3.8,1.9-3.8,3.9,1.6,3.9,3.8,3.9Z"/>
              <path class="cls-4" d="M312.6,145.3v1.7c1-1.4,2.5-2.1,4.2-2.1s3.4.6,4.7,2.1c1.2,1.2,1.8,3,1.8,4.8,0,3.7-2.7,6.9-6.5,6.9s-2.9-.5-4-1.8v5.8h-3.1v-17.4h2.9ZM313.9,154.7c.7.6,1.6,1,2.5,1,2.2,0,3.9-1.7,3.9-3.9s-1.6-3.9-3.7-3.9-3.8,1.7-3.8,3.9.4,2.1,1.2,2.9Z"/>
              <path class="cls-4" d="M335.6,158.3v-1.8c-1,1.3-2.8,2.2-4.5,2.2s-3.7-.8-4.8-2.2c-1-1.2-1.6-2.9-1.6-4.7s.5-3.3,1.7-4.7c1.3-1.5,2.9-2.3,4.8-2.3s3.3.8,4.4,2.3v-1.8h2.9v13h-2.9ZM327.8,151.9c0,2.1,1.7,3.8,3.9,3.8,2.3,0,3.8-1.7,3.8-3.9s-1.6-3.9-3.8-3.9c-2.3,0-3.9,1.7-3.9,4Z"/>
              <path class="cls-4" d="M349.3,139.7c.7-.4,1.2-1,1.5-1.7l2.2,1.6c-.4,1.2-.9,2.2-1.9,2.8-1.5.8-4.5.7-6,1.5-2,1.1-1.7,3.1-1.7,3.1.8-1.3,2.5-2.1,4.1-2.1,3.8,0,6.6,3,6.6,7s-3.1,6.9-7,6.9-6.9-3.1-6.9-6.9c0-5.4.7-9,3.4-10.6,2-1.2,4.8-1,5.7-1.5ZM347.1,155.7c2.2,0,3.8-1.7,3.8-3.9s-1.7-3.9-3.8-3.9-3.8,1.9-3.8,3.9,1.6,3.9,3.8,3.9Z"/>
              <path class="cls-4" d="M362.1,158.7c-3.8,0-6.9-3.1-6.9-6.9s3.1-7,7-7,6.8,3.2,6.8,7-3.1,6.9-7,6.9ZM358.4,151.8c0,2.1,1.6,3.9,3.8,3.9s3.8-1.7,3.8-3.9-1.7-3.9-3.8-3.9-2,.5-2.7,1.2c-.7.7-1.1,1.7-1.1,2.7Z"/>
              <path class="cls-4" d="M369.2,145.3h8.9v2.8h-2.9v10.2h-3.1v-10.2h-2.9v-2.8Z"/>
              <path class="cls-4" d="M382.5,145.3v6.1l4.2-6.1h3.7l-4.7,6.4,5.5,6.7h-4.2l-4.5-6.1v6.1h-3.1v-13h3.1Z"/>
              <path class="cls-4" d="M402.8,158.3v-1.8c-1,1.3-2.8,2.2-4.5,2.2s-3.7-.8-4.8-2.2c-1-1.2-1.6-2.9-1.6-4.7s.5-3.3,1.7-4.7c1.3-1.5,2.9-2.3,4.8-2.3s3.3.8,4.4,2.3v-1.8h2.9v13h-2.9ZM395.1,151.9c0,2.1,1.7,3.8,3.9,3.8,2.3,0,3.8-1.7,3.8-3.9s-1.6-3.9-3.8-3.9c-2.3,0-3.9,1.7-3.9,4Z"/>
            </g>
          </g>
        </g>
      </g>
      <polygon class="cls-4" points="189 126.1 228.3 122 228.3 130 189 126.1"/>
    </g>
  </g>
</svg>