<?xml version="1.0" encoding="UTF-8"?>
<svg id="Layer_1" data-name="Layer 1" xmlns="http://www.w3.org/2000/svg" version="1.1" viewBox="0 0 566.93 283.46">
  <defs>
    <style>
      .cls-1, .cls-2, .cls-3, .cls-4 {
        isolation: isolate;
      }

      .cls-1, .cls-3, .cls-5 {
        fill: #fff;
      }

      .cls-1, .cls-3, .cls-4 {
        font-family: AGAvalancheC-Bold, AGAvalancheC;
        font-weight: 700;
      }

      .cls-1, .cls-4 {
        font-size: 66.54px;
      }

      .cls-3 {
        font-size: 23.51px;
      }

      .cls-6 {
        fill: #2e434f;
      }

      .cls-6, .cls-7, .cls-5, .cls-8 {
        stroke-width: 0px;
      }

      .cls-7 {
        fill: #f16858;
      }

      .cls-8 {
        fill: #007478;
      }

      .cls-4 {
        fill: #f47e21;
      }
    </style>
  </defs>
  <path class="cls-5" d="M198.38,137.33v-19.36c0-6.01,0-12.02,0-18.02,0-.92-.11-1.86-.32-2.75-.97-4.24-3.55-7.27-7.26-9.41-6.92-4-13.85-7.99-20.77-12-10.78-6.24-21.55-12.49-32.33-18.72-3.62-2.09-7.27-4.15-10.92-6.2-.53-.3-1.12-.53-1.7-.72-3.18-1.05-6.32-.76-9.34.54-1.95.84-3.83,1.85-5.67,2.91-19.1,10.99-38.17,21.99-57.25,33.01-1.48.86-3,1.7-4.34,2.75-3.49,2.73-5.43,6.33-5.44,10.82-.03,9.61-.02,19.23-.02,28.84,0,15.21,0,30.43.02,45.63,0,.89.11,1.79.3,2.65.96,4.24,3.52,7.29,7.23,9.44,5.11,2.96,10.22,5.9,15.33,8.86,15.44,8.94,30.87,17.9,46.32,26.82,1.3.75,2.68,1.42,4.1,1.89,3.59,1.21,7.14,1.17,10.55-.72,1.89-1.04,3.82-2.03,5.69-3.1,18.88-10.88,37.75-21.77,56.61-32.67,1.28-.74,2.57-1.48,3.72-2.38,3.46-2.71,5.46-6.25,5.48-10.7.05-12.46.02-24.93.02-37.4h0Z"/>
  <g>
    <polygon class="cls-8" points="85.96 166.08 108.86 169.17 111.1 170.72 112.4 180 98.04 181.4 82.19 172.25 85.96 166.08"/>
    <path class="cls-6" d="M182.23,170.81c.06-.34.08-.54.14-.74,1.09-3.78,1.52-7.63,1.48-11.55,0-.33,0-.66-.02-.98-.09-2.93-.53-5.8-1.45-8.6-.75-2.27-1.78-4.39-3.54-6.07-.51-.48-1.04-.86-1.58-1.15-1.93-1.02-4.08-.87-6.13.46-1.14.74-2.07,1.7-2.89,2.77-1.33,1.73-2.32,3.65-3.08,5.68-.09.25-.18.5-.27.75-.03.1-.07.2-.1.3-.07.19-.13.39-.2.59-.02.08-.05.16-.08.24-.07.21-.13.42-.19.63-.02.07-.04.13-.06.19-.04.12-.07.25-.11.37,0,.02,0,.04-.02.06s0,.04-.02.06c-.02.09-.05.18-.07.27-.03.13-.07.26-.1.39-.02.05-.03.1-.04.15-.06.2-.1.41-.15.61-.04.14-.07.28-.1.42h0c-.06.26-.11.51-.16.76,0,.07-.03.14-.04.2-.06.29-.11.58-.17.87,0,.05-.02.11-.02.16-.03.15-.05.29-.07.43-.02.1-.03.2-.05.31,0,.04,0,.09-.02.13h0v.03s0,.07,0,.1c0,.1-.03.19-.04.29,0,.1-.03.19-.04.29-.03.26-.07.53-.1.79v.07c-.02.17-.03.34-.05.51,0,.1-.02.2-.02.31-.02.21-.04.43-.05.65,0,.06,0,.11,0,.17,0,.14-.02.27-.02.41v.12c0,.16-.02.31-.02.46,0,.25-.02.5-.02.75-.02.83,0,1.66.03,2.49.02.58.06,1.15.11,1.73.02.18.03.37.05.55,0,.11.02.23.03.34.02.19.04.37.07.57v.07c.03.23.06.45.09.68.23,1.58.57,3.13,1.06,4.61h0c.09,1.38,2.86,6.09,2.86,6.09-.54-.7-1.12-1.37-1.61-2.1-1.34-1.98-2.21-4.18-2.84-6.48-.11-.39-.2-.79-.3-1.18-.06-.27-.12-.54-.18-.81,0-.03,0-.05-.02-.08,0-.04-.02-.09-.02-.13-.19-.94-.35-1.88-.46-2.82-.04-.32-.07-.65-.1-.96-.03-.3-.05-.6-.07-.89,0-.08,0-.16-.02-.24-.02-.27-.03-.54-.04-.8,0-.16,0-.31-.02-.46-.02-.57-.02-1.13,0-1.7,0-.47.02-.94.05-1.41.03-.66.08-1.32.15-1.99.02-.2.04-.4.06-.6,0-.06,0-.12.02-.18.04-.32.08-.63.12-.95.04-.3.08-.59.14-.89.02-.16.05-.33.08-.49.02-.13.05-.26.07-.39v-.02h0c.1-.53.22-1.06.34-1.58.03-.11.05-.22.08-.32,0-.02,0-.04,0-.06.04-.16.08-.32.13-.49,0-.05.02-.1.04-.15.04-.15.08-.29.12-.44h0s0-.04.02-.06c0,0,0-.02,0-.03.06-.21.12-.42.19-.62.08-.24.15-.48.23-.71.16-.48.34-.95.52-1.42h0s.02-.06.03-.08c.07-.17.14-.34.21-.51,0,0,0-.03.02-.05.09-.21.18-.41.27-.62.03-.08.07-.15.1-.23.08-.16.15-.32.23-.49l.09-.18c.09-.19.19-.39.29-.58.02-.04.04-.08.06-.12.09-.18.19-.36.29-.54.11-.2.22-.4.33-.6.12-.21.24-.41.36-.62.03-.05.06-.1.1-.16.14-.23.29-.46.44-.69l.02-.03c.17-.26.34-.51.52-.76l.04-.06h0l.36-.54.11-.17.49-.72h0s-.18.04-.42.14c-.08.03-.17.07-.27.12-.03.02-.07.03-.1.05-.14.07-.3.16-.46.26-.08.05-.16.1-.25.16-.1.06-.19.14-.3.22-.1.07-.2.15-.3.24-.05.04-.1.09-.16.13-.05.05-.1.09-.16.14s-.11.1-.17.16c-.02.03-.05.05-.08.08-.02.03-.05.05-.08.08-.29.28-.59.61-.91,1-.07.08-.14.17-.2.26-.06.08-.12.15-.18.23-.05.07-.1.14-.16.21-.18.25-.37.52-.56.82-.05.07-.09.15-.14.22-.14.23-.28.46-.43.71-.13.23-.26.47-.4.72,0,0-.02.03-.02.05-.04.07-.08.15-.11.22h0c-.02.05-.05.09-.07.14h0c-.05.11-.1.21-.15.32-.09.19-.18.39-.27.59-.13.27-.25.55-.37.83,0,.03-.03.06-.04.09h0c-.06.14-.11.27-.17.41-.02.05-.04.1-.06.15,0,0,0,.02,0,.04-.02.04-.03.08-.05.12h0c-.1.26-.2.53-.31.8-.05.14-.1.28-.15.42-.05.14-.1.29-.15.43-.07.2-.14.4-.2.6,0,.04-.02.08-.04.12h0c-1.32,4.27-1.73,8.65-1.48,13.12.26,4.72,1.23,9.24,3.46,13.45.1.18.14.4.21.6-.45-.37-.78-.81-1.06-1.27-1.26-2.03-2.14-4.22-2.77-6.51-.16-.59-.21-1.21-.26-1.82-.15-1.98-.25-3.97-.4-5.95-.11-1.43-.37-2.86-.37-4.3s.17-2.88.35-4.3c.61-4.6,2.15-8.85,4.78-12.69.14-.2.27-.41.41-.61-4.09,2.99-6.79,6.86-7.7,11.92-.27-.36-.41-.75-.64-1.07-.64-.89-.63-1.85-.34-2.85,1.43-4.91,4.46-8.45,9.16-10.47.55-.24,1.16-.35,1.78-.41h.07c.35-.03.71-.05,1.06-.06.25,0,.49,0,.74,0,.21,0,.43,0,.64,0h.26c.17,0,.33,0,.5.02.17,0,.33,0,.5.02.34.02.67.04,1,.06.5.03,1.01.07,1.53.12.58.05,1.16.11,1.73.22.03,0,.06,0,.09,0,1.64.25,3.2.66,4.35,1.29,1.61-1.04,2.74-2.56,3.38-4.45.12-.35.14-.74.19-1.11.11-.73-.2-1.36-.79-1.65-.62-.31-1.32-.21-1.89.35-.42.41-.93.74-1.51,1.19l-.14-3.12-2.28-.86-2.37,1.93-.79-4.61-2.85-1.65-.07-.04-.58-.34-.4-.23-.42.28h-.02l-.26.18h-.02l-2.3,1.52-.43-6.18-2.85-1.8-.67-.42-.44-.28-2.66,1.21.09-4.89c-1.22-.83-4.15-2.94-5.33-3.83l-5.21,2.33c-.31.14-.61.26-.99.41-.1-.39-.2-.67-.25-.97l-.91-6.84-7.53-2.04c-1.96,2.07-4.89,5.05-6.89,7.08-.26.26-.53.51-.89.86-1.2-3.45-2.35-6.82-3.49-10.1-.29,0-.44.04-.57.05-2.49.26-5.22.55-7.71.78l-3.67,5.93c-.18.32-.38.62-.57.94-1.5-.56-2.76.08-4.07.51-1.63-1.75-3.23-3.48-4.86-5.22l-4.09,1.54-.39.88-.24.54-.08.17-.22.5c-.03.07-.06.15-.1.22-.09.21-.19.42-.28.64-.07.17-.15.33-.22.5-.02.05-.05.1-.07.15-.38.9-.78,1.81-1.14,2.64-.05.12-.1.24-.15.35-.02.03-.03.06-.04.09-.08.17-.15.34-.22.5-.04.08-.07.16-.11.24-.02.05-.05.1-.07.16-.05.1-.09.2-.14.3-.05.11-.1.21-.16.3h0l-6.01.31-1.31-1.16-1.53-1.35-3.23,1.44-1.12,1.98-1.76,3.11c-1.15-1.35-2.45-2.29-4-2.82-.1-.03-.2-.07-.31-.1-1.43-.46-2.89-.7-4.61-.01.09.05.18.1.27.15.9.49,1.66.86,2.38,1.32.79.51,1.53,1.09,2.04,2.15-.28-.15-.41-.19-.51-.27-1.57-1.15-3.27-2.02-5.07-2.67h0c-.09-.03-.18-.07-.27-.09-.16-.06-.33-.11-.49-.17h-.02c-.21-.07-.41-.14-.61-.19-4.43-1.37-5.34-.59-5.34-.59.05.25.07.5.08.75.02.62-.06,1.21-.18,1.8-.13.65-.31,1.29-.44,1.94-.54,2.69-.15,5.33.68,7.92.06.19.09.36.09.52v.02l-.03.06-.04.11-.02.05c-.22.37-.7,1.25-1.23,2.49-.19.43-.37.89-.56,1.4h0c-.06.18-.12.36-.18.53-.15.44-.3.9-.44,1.38l.61,7.04-1.52-.29c-.09.24-.22.46-.44.68-.07.07-.16.14-.25.21-.67.5-.69,1.08-.26,1.67.06.08.13.17.2.25.3.32.33.63.21,1-1.71.36-2.5.78-3.24,1.7-1.02,1.28-1.1,2.73-.24,4.11.25.41.54.8.76,1.22.12.22.19.51.17.75-.13,1.43.92,2.86,2.28,3.32l1.15-.02,9.12-.19,4.29-.09,2.45-.05h.11-.11.11c-.16.45-.28.82-.43,1.28l-2.69.04-8.76.14-4.63.07h-.46c0,.22.19.5.27.61.02.03.03.04.03.04.46.43.45.91.33,1.49-.25,1.25-.27,2.51-.11,3.79.3,2.48,1.09,4.81,1.92,7.14,1.03,2.91,2.51,5.56,4.6,7.86.14.15.22.34.44.69-4.55-2.59-6.59-8.48-7.12-10.25,0-.03-.02-.07-.03-.09-.02-.06-.03-.11-.05-.16,0-.02,0-.05-.02-.07-.02-.06-.03-.11-.04-.14l-1.13.46s-.02,0-.03,0h0c-2.44,1.14-4.79,2.24-7.15,3.34.05.28.04.46.1.61.15.38.31.76.5,1.13,1.25,2.42,3.16,4.19,5.51,5.54,5.62,3.23,11.23,6.49,16.85,9.73,3.47,2,6.94,4,10.41,6h0l7.34,4.02,8.89,5.29h.02l2.66,1.6.06.03.04.02c2.96,1.7,5.93,3.41,8.89,5.12.59.28,1.19.54,1.8.76,2.8,1,5.58,1.11,8.28-.02,1.21-.71,2.41-1.39,3.6-2.05.77-.43,1.55-.87,2.32-1.31l12.3-7.05c3.04-1.74,6.11-3.5,9.19-5.26l2.61-1.55.75-.42,2.8-1.57c7.96-4.56,15.98-9.16,23.94-13.74,2.52-1.61,4.41-3.76,5.41-6.68.11-.34.17-.7.27-1.08-2.03-.57-3.94-1.1-5.95-1.67l.03-.05ZM62.72,151.4c-.24-.5-.41-.9-.63-1.26-.09-.14-.37-.26-.51-.21-.14.05-.27.31-.27.48,0,.3.1.6.14.9.04.34.36.77-.17.97-.61.23-.62-.37-.79-.69-.25-.48-.45-1-.67-1.49-.07-.16-.18-.32-.18-.48-.02-.76.53-1.14,1.08-1.48.57-.35,1.19-.55,1.82-.13.1.07.19.21.21.33.09.92.17,1.83.24,2.75,0,.07-.12.14-.26.3h-.01ZM65.45,144.35c-.05.15-.11.3-.17.45-.03.07-.06.15-.09.22-.02.04-.03.08-.06.12h0s0-.05.01-.09v-.03s0-.09.01-.15v-.09c0-.06.01-.12.02-.19,0-.08.02-.16.02-.24s.01-.17.02-.26c0-.09.01-.19.02-.3,0-.07,0-.08,0,0h0c.01-.16.02-.33.03-.5,0-.11,0-.12,0,0-.01.16,0,0,0,0,0-.09.01-.18.02-.27,0-.09,0-.19.01-.29,0-.06,0-.13.01-.19h0c0-.15.01-.28.02-.43,0-.16.01-.32.01-.49v-.79c0-.44,0-.9-.01-1.37h0v-.03c0-.35-.02-.7-.04-1.05h0v-.02c-.02-.36-.05-.72-.08-1.09-.01-.19-.03-.38-.05-.57-.02-.18-.04-.37-.07-.55h0s.02.04.05.12c0,0,0,.02.01.03,0,0,.01.03.02.05.01.02.02.05.03.08.03.07.06.16.09.27.01.04.03.08.04.12.08.26.18.58.26.96.02.07.03.14.05.21.06.26.11.55.16.86.02.1.03.21.05.32.01.09.02.17.03.26s.02.18.03.27v.05c.06.62.08,1.29.02,1.99-.01.14-.02.28-.04.42v.04c-.01.13-.03.26-.05.4v.05h0c-.01.12-.03.24-.06.35,0,0,0,.03-.01.05-.03.14-.06.29-.09.43-.02.07-.04.15-.06.22s-.04.15-.06.22c-.05.15-.09.29-.14.44l.04.02ZM70.73,150.63c-.92-.03-1.8-.28-2.65.17-.91.48-1.09,1.34-1.21,2.26-.36.05-.66.08-1.08.13-.06-.44-.19-.84-.16-1.21.17-1.98,2.45-3.54,4.36-3.02.98.27,1.11.51.75,1.66h0ZM63.47,161.42l.16-.54c.13.06.27.11.39.19,2.71,1.77,5.75,2.55,8.91,2.94,1.15.14,2.32.22,3.49.22.19,0,.37.02.54.05.37.24.83.54,1.26.84-10.63,1.39-14.74-3.7-14.74-3.7h-.01ZM65.28,170.59c-.34-1.4-.51-2.86-.51-4.4,0-.7.17-1.4.29-2.3.61.34,1,.54,1.46.79-.35,2.6-.12,5.15.58,7.65.7,2.49,1.82,4.79,3.14,7.08,0,0-3.44-3.46-4.95-8.82h-.01ZM70.08,165.86c.53.08.94.15,1.43.22-.28,2.5-.17,4.9.45,7.28.61,2.33,1.56,4.52,2.66,6.65-3.44-4.04-4.79-8.76-4.54-14.15ZM74.41,166.33h1.04c-.13,4.64.87,9,2.92,13.11-2.68-2.17-5.13-9.34-3.95-13.11h-.01ZM78.7,143.35h.01s.12-.07.26-.16c.07-.05.16-.09.25-.15.05-.03.1-.06.15-.09.24-.14.52-.32.86-.52l.23-.14,1.52-.91s.05-.03.07-.05c.77-.46,1.64-.98,2.56-1.52,0,.59.06,1.17.16,1.7.03.13.06.26.09.38.03.12.07.25.1.37.05.15.09.28.14.42.04.09.07.18.11.27.05.11.1.22.15.32.05.11.11.21.17.31.06.1.12.19.18.29.06.09.12.18.19.26.06.08.12.15.18.22.04.05.08.1.13.14.34.35.73.62,1.14.77.05.02.09.03.14.05.03,0,.07.02.11.03.07.02.15.04.22.05.1.02.19.03.29.04.82.05,1.6-.29,2.26-.9.07-.07.14-.14.21-.21.98-1.03,1.67-2.68,1.79-4.58.05-.78,0-1.53-.14-2.22-.1-.52-.25-1.01-.44-1.45-.05-.11-.1-.22-.15-.33,1.05-.58,2.05-1.12,2.92-1.56.14-.07.27-.14.4-.2h0c.42-.21.81-.4,1.16-.56.02,0,.03,0,.05-.02.42-.18.85-.35,1.28-.51l.22.33-.22-.33h0s3.3,1.32,4.06,4.45c.52,2.13-.57,5.35-.57,5.35-.65.33-1.3.66-1.95.98-2.05,1.03-4.1,2.07-6.16,3.08-.08.04-.15.07-.24.1-.33.14-.69.23-1.03.2-.38-.02-.75-.05-1.13-.06-.15,0-.3,0-.45,0h-1.18c-.15,0-.3,0-.45,0h-.02c-.2,0-.41.02-.62.03-.16,0-.32.02-.48.03-.21.02-.43.04-.64.06-.05,0-.1,0-.15.02-.11,0-.22.02-.33.04-.11,0-.22.02-.32.04-.19.03-.37.06-.56.08-1.17.19-2.34.47-3.52.86l-.88-1.39-2.18-3.42h.05ZM85.97,139.24v-.02c0-.08.01-.16.02-.24.1-.06.19-.11.29-.17.54-.32,1.1-.64,1.65-.96.01,0,.02.03.03.04.15.2.25.46.32.75.05.22.06.47.05.72-.01.15-.03.29-.06.42,0,.02-.01.05-.02.06-.19.77-.68,1.31-1.22,1.27-.04,0-.08,0-.11,0-.08-.02-.16-.05-.23-.09-.06-.03-.12-.08-.18-.13,0,0-.01,0-.02-.02-.12-.11-.23-.26-.31-.43h0s-.01-.04-.02-.07c-.14-.31-.21-.71-.18-1.13h-.01ZM99.5,155.45l-1.07.28-4.66,1.24-2.74.72-1.4.37c-.14-.4-.27-.81-.43-1.26.33-.13.57-.24.82-.32.15-.05.29-.09.44-.14l2.34-.75c1.13-.36,2.26-.72,3.39-1.08.68-.22,1.37-.44,2.05-.66.91-.3,1.8-.38,2.72-.1,1.33.4,1.77,1.5.99,2.63-.77,1.12-2.38,2.43-4.67,1.78l2.6-1.64-.4-1.08h.02ZM87.79,158.22c-.37.02-.68.05-.98.05-1.74,0-3.49-.03-5.24-.06l-1.45-.08h0c.03-.11.07-.22.11-.34.05-.15.11-.31.19-.46.02-.05.05-.11.07-.16.01-.03.02-.05.03-.07h0c.05-.1.09-.2.15-.31.06-.12.13-.24.2-.36.03-.06.07-.12.11-.18.03-.06.07-.11.11-.16.02-.05.06-.09.09-.13.03-.05.06-.09.1-.13.05-.07.1-.13.16-.2,0,0,0,0,.01,0,.08-.1.18-.2.28-.29.05-.05.09-.09.14-.12.16-.14.33-.26.51-.36.06-.04.12-.07.18-.1.04-.02.09-.04.13-.06.06-.03.12-.05.18-.07.05-.02.09-.03.14-.05.06-.02.11-.03.17-.05.04,0,.09-.02.13-.03.05,0,.09-.02.14-.03h.11c.06,0,.12-.02.18-.02h.05c.07,0,.15,0,.22,0h.24s.09,0,.14,0h0c.06,0,.11,0,.17.03.12.02.24.05.36.09.06,0,.11.03.17.06.11.05.23.1.34.16h0c.08.04.15.08.22.13h0c.06.03.12.07.18.12.06.04.11.08.16.12.06.04.11.08.16.13.08.06.15.13.22.2.07.06.13.13.19.19.04.04.08.09.12.13.04.05.08.1.12.15.03.05.07.09.11.14.05.07.1.14.14.21.06.09.11.18.16.27.05.08.09.16.12.24.02.05.05.1.07.15.07.14.12.29.17.45,0,0,.01.03.02.05.02.06.04.12.06.19.01.04.02.07.03.11.02.06.03.11.04.17v.03c.02.09.03.17.05.26h.02ZM109.06,175.98c-5,.19-9.62-.76-13.85-2.8h-.01s-.02,0-.03-.02c-1.17-.57-2.3-1.21-3.41-1.94-.02,0-.05-.03-.07-.05-1.96-1.41-3.4-2.89-3.48-2.98.3.14.6.27.89.43,5.21,2.6,10.71,4.18,16.51,4.65,1.38.11,2.78.14,4.14-.12.08,0,.16-.03.23-.05.06,0,.11-.02.16-.03.08-.02.16-.04.24-.06.05,0,.09-.02.13-.04.08-.02.14-.04.2-.07l.38,2.83c-.68.22-1.38.21-2.04.24h.01ZM110.05,115.27c-.09.03-.18.08-.28.13,0,0-.01,0-.02.01-6.43,3.11-13.85,10.05-14.31,10.48,1.38-1.74,2.76-3.48,4.19-5.28,0,0-4.54-.22-10.96,2.89-.13.06-.26.13-.4.19-.04.02-.08.04-.11.06-.09.05-.18.09-.28.14-.15.08-.3.16-.45.24-.15.08-.31.16-.46.25-.13.07-.26.14-.39.22-.16.09-.32.18-.49.28-.03.02-.06.03-.08.05-.05.03-.1.06-.15.09-.08.05-.16.1-.25.15-.55.33-1.12.69-1.69,1.08h0s-.08.06-.12.08c-4.97,3.5-8.09,7.5-8.51,8.06-.01.02-.02.03-.03.05,0,0-.01,0-.01.02,0,0,.02-.04.04-.09.11-.27.22-.53.34-.79.02-.05.05-.1.07-.15,0,0,0-.02.01-.03,1.13-2.64,3.89-9.37,3.25-11.07,0,0,.02-.02.07-.05.02-.01.04-.03.07-.05.02-.01.03-.02.06-.04.01-.01.03-.02.05-.03.09-.06.22-.14.37-.24.04-.02.08-.05.13-.08.09-.06.18-.11.28-.17.05-.03.09-.05.14-.08.11-.06.22-.12.34-.19.29-.16.63-.33,1.01-.52.13-.06.26-.12.4-.19.08-.03.16-.07.24-.11.09-.04.19-.08.28-.12.16-.07.32-.14.49-.21.08-.03.17-.07.25-.1s.17-.07.26-.1c.19-.08.4-.15.6-.23.09-.03.19-.07.28-.1.12-.04.24-.08.36-.12s.24-.08.36-.12.25-.08.37-.12c.2-.06.4-.12.61-.18.13-.04.26-.08.4-.11.06-.02.11-.03.17-.05.25-.07.5-.13.75-.19.17-.04.34-.08.51-.12.14-.03.29-.07.44-.1.18-.04.37-.08.55-.11.31-.06.62-.11.93-.17.09-.01.19-.03.28-.05.14-.02.27-.04.42-.06.19-.03.37-.05.57-.08.18-.02.35-.04.53-.06.07-.01.15-.02.23-.02.13-.01.25-.03.38-.04.12-.01.25-.02.38-.03.23-.02.46-.03.7-.05.09,0,.19-.01.28-.02.2-.01.4-.02.6-.02.15,0,.3-.01.45-.01h1.2-.02c1.47.04,3.03.21,4.52.64.17-.07.34-.2.52-.37,2.51-2.43,5.38-4.36,8.6-5.74.47-.21.98-.32,1.45-.52.73-.31,1.32-.07,1.9.38,1.41,1.1,2.39,2.54,3.16,4.13,1.26,2.63,1.89,5.44,2.22,8.31.31,2.7.3,5.41.02,8.12-.02.16-.06.31-.08.46-.34-4.06-1.6-7.98-2.46-10.28-.02-.05-.04-.11-.06-.17-.04-.1-.08-.2-.12-.31-.1-.25-.19-.48-.27-.67-.03-.08-.06-.16-.1-.24-.02-.06-.05-.12-.08-.18-.01-.03-.02-.06-.03-.08-.02-.05-.04-.1-.06-.15-.03-.07-.05-.12-.07-.16-.03-.07-.05-.11-.05-.11-.52-1.15-1.18-2.25-1.84-3.33-.32-.52-.74-.99-1.17-1.43-.82-.84-1.17-1.13-1.7-.94l.02.02ZM129.66,177.95v.07c.33,2.7.87,5.36,1.66,7.97.55,2.09,1,3.49,1.03,3.6-3.91-6.79-4.98-17.46-5.11-18.76,0-.09-.01-.13-.01-.13-.06-1.17-.08-2.35-.05-3.53.1-3.93.63-7.8,1.86-11.54.17-.53.36-1.05.56-1.56.1-.25.2-.5.31-.75h0c.08-.21.17-.41.26-.6,0-.02.02-.05.03-.07.04-.09.08-.18.13-.27,0-.02.02-.05.03-.07.06-.13.12-.25.18-.37.03-.07.07-.15.11-.22.07-.15.15-.29.23-.43,0,0,0-.02.02-.03.05-.09.1-.18.15-.27.11-.2.23-.41.35-.6.13-.22.27-.44.41-.65.11-.17.23-.35.35-.52.11-.16.23-.33.34-.49,0-.02.02-.03.04-.06.11-.16.23-.32.35-.47.12-.17.26-.33.39-.49.02-.03.05-.06.08-.09.31-.37.63-.74.96-1.09.1-.11.21-.22.31-.32l.36-.36c.14-.14.28-.27.43-.41.11-.1.22-.2.33-.3.13-.12.26-.23.39-.34-.26.1-.52.18-.77.29-.3.13-.59.27-.87.43-.09.05-.17.09-.26.14-.26.14-.51.29-.76.45-.07.04-.14.09-.2.14h0c-.1.06-.2.13-.29.2h0c-.15.11-.29.21-.43.32-.12.09-.23.18-.34.27-.02,0-.03.03-.05.05-.09.07-.18.15-.26.23-.07.06-.14.12-.2.18-.12.11-.23.22-.35.33-.11.1-.22.22-.32.33l-.06.06c-.05.05-.09.09-.12.14,0,0-.02.02-.02.03-.03.03-.05.05-.07.08,0,0,0,0,0,0,0,0-.02,0-.02.02l-.03.03s0,0,0,0c0,0-.02,0-.02.02-.02.02-.04.04-.06.07,0,0-.03.03-.04.05-.08.08-.15.17-.22.26-.05.06-.1.12-.15.18-.06.07-.11.14-.16.21-.06.07-.11.14-.16.21-.02.03-.04.06-.06.09-.08.1-.15.2-.22.31-.1.15-.2.31-.31.46-.1.16-.2.32-.29.48-2.08,3.54-3.37,7.35-4.23,11.33-.76,3.49-1.12,7.01-1.15,10.55l-.03-.1c-.04,1.37.02,2.77.14,4.15.01.22.02.43.04.66.19,2.61.6,5.2,1.33,7.71,0,0,0,.02.01.03.27,1.16.48,1.89.5,1.98-2.15-4.01-3.13-10.15-3.34-11.59,0-.05-.01-.09-.02-.12-.02-.12-.02-.18-.02-.18-.35-3.01-.38-6.03-.17-9.05.16-2.37.48-4.69.99-6.97.92-4.15,2.66-8.07,5-11.62l.36-.55,1.52-2.31c-.2.17-.41.35-.62.52-.12.1-.25.21-.37.31-.19.16-.39.32-.59.49-.14.11-.27.23-.4.35-.16.14-.32.28-.47.43-3.94,3.8-6.44,8.45-7.86,13.67-1.64,6.05-1.97,12-.98,17.85v.03s0,.03.01.05v.02h0v.03c.11.65.24,1.29.38,1.94,0-.03-.02-.07-.02-.1,0,.03.01.07.02.1,0,0,0,.02.01.04.58,2.59,1.42,5.15,2.51,7.69,0,0,.01.02.02.04.45,1.18.77,1.98.8,2.06-3.05-3.28-4.74-10.45-5.14-12.33,0-.03-.01-.06-.02-.09,0-.03-.01-.06-.02-.08,0-.02-.01-.05-.01-.07-.01-.06-.02-.1-.03-.14-.01-.06-.02-.09-.02-.09-1.36-7.28-1.01-14.52,1.38-21.69.77-2.32,1.7-4.58,3.12-6.58.85-1.2,1.87-2.27,2.82-3.4.15-.17.34-.3.39-.59-.31.19-.62.38-.91.59-3.06,2.19-5.24,5.11-6.81,8.5-1.8,3.88-2.68,7.98-2.92,12.23-.18,3.14-.03,6.2.41,9.22.47,5.42,4.13,13.98,4.24,14.25-3.43-3.53-5.35-9.33-5.81-10.84-.01-.05-.03-.09-.04-.14-.01-.04-.02-.07-.03-.1s-.02-.06-.02-.08v-.04h0c-.59-2.18-.94-4.41-1.09-6.7-.46-7.35,1.16-14.17,5.02-20.45,2.13-3.46,4.9-6.34,8.32-8.57,1.29-.84,2.7-1.21,4.2-1.16.83.03,1.66.06,2.5.08h0c.92.03,1.83.06,2.75.1.46.02.92.04,1.38.06.19,0,.38,0,.57.02.22,0,.44.02.66.03h.15c.07,0,.15,0,.22,0,.25,0,.49.03.73.04.5.03,1,.06,1.49.1.35.02.71.05,1.06.08.17,0,.35.03.52.06.15.02.29.04.44.06.06,0,.12.02.18.03.15.02.3.05.44.08.18.04.35.08.52.12.09.02.18.05.27.07.09.02.18.05.27.08.18.05.36.11.54.17.14.05.27.09.41.15.14.05.28.11.42.17.17.07.34.14.51.22.09.04.19.09.28.13.12.06.25.12.37.19.02,0,.05.02.07.04.07.03.13.07.19.1,0,0,.02,0,.03.02.14.08.28.15.42.24.15.09.3.18.45.28.08.05.17.11.25.16.09.06.18.12.27.18.36.25.72.52,1.08.8.07.05.14.11.2.17.11.09.22.18.33.27.15.13.31.27.46.41-.03.06-.07.12-.1.18-.41-.24-.81-.5-1.23-.71-.37-.19-.75-.37-1.12-.51-.17-.07-.35-.13-.52-.19s-.35-.11-.52-.16c-.02,0-.05,0-.08-.02-.12-.03-.23-.06-.35-.08-.14-.03-.28-.06-.42-.08-.1-.02-.21-.03-.31-.05-.1,0-.19-.02-.29-.03h-.02c-.15,0-.29-.02-.43-.03-.14,0-.27,0-.41,0h-.35c-.11,0-.23,0-.34.02h-.05s-.07,0-.1,0c-.11,0-.23.02-.34.04-.13.02-.25.04-.38.06h0c-.09.02-.18.03-.27.06-.15.03-.3.07-.45.11s-.3.08-.45.13c-.1.03-.19.06-.29.1-.11.04-.23.08-.34.13-.14.06-.28.12-.43.18-.06.02-.11.05-.17.08-.17.08-.35.17-.52.26-1.63.87-2.93,2.14-4.07,3.58-1.78,2.26-3.01,4.82-3.94,7.54-1.46,4.3-2.14,8.71-2.24,13.19-.23,2.25-.03,4.91.35,7.51v-.04ZM151.49,181.24c-.49,1.28-1.08,2.52-1.84,3.65-.12.19-.26.37-.4.55s-.28.36-.43.53c-.24.28-.49.56-.75.82-.22.22-.45.44-.68.64-.24.21-.48.4-.73.58-1.74,1.23-3.62,1.15-5.35-.09-.11-.08-.23-.17-.34-.26-.76-.62-1.34-1.4-1.83-2.23l-.24-.42c-.15-.27-.29-.54-.42-.82h0c-.1-.21-.19-.42-.29-.62-.09-.21-.18-.42-.26-.63-.61-1.56-1.01-3.18-1.25-4.85-.07-.5-.14-1.01-.19-1.51-.43-3.89-.38-7.84.35-11.69.45-2.35,1.11-4.65,2.06-6.89.65-1.52,1.41-3,2.5-4.24.25-.28.51-.57.79-.84.46-.45.95-.87,1.48-1.22.13-.09.26-.17.4-.24.14-.08.27-.14.41-.2s.27-.11.4-.15c.07-.02.13-.04.2-.06.07-.02.13-.03.2-.05t0,0c.08-.02.16-.03.25-.05.19-.03.39-.05.58-.05h.05c.09,0,.18,0,.26,0,.03,0,.07,0,.1,0,.07,0,.14.02.21.03h.05c.21.03.42.09.63.16.05.02.09.03.13.05.05.02.09.03.14.05.09.04.18.08.26.12.17.09.35.18.52.29.07.04.14.09.2.14.14.09.27.19.4.31.12.1.23.2.34.31.11.1.22.21.32.32.62.65,1.11,1.4,1.55,2.2,1,1.82,1.63,3.78,2.01,5.81,1.3,7.01.75,13.87-1.8,20.53h0ZM153.92,128.28c-.02.08-.05.15-.07.22,0,.04-.03.09-.05.13,0,0,0,.02,0,.04-.02.07-.05.13-.08.19-.03.09-.08.17-.12.26-.08.15-.17.3-.26.43-.04.05-.08.1-.11.15-.03.04-.07.08-.1.12-.1.11-.2.2-.31.28-.04.03-.09.07-.13.1-.06.04-.12.08-.18.11-.03.02-.07.04-.1.06s-.07.03-.11.05h0s-.07.03-.11.05c-.03,0-.06.02-.08.03-.06.02-.12.05-.18.06-.07.02-.13.04-.2.05-.04,0-.08.02-.12.03-.09.02-.17.03-.26.04h-.06c-.07,0-.15.02-.23.02h-.57c-1.15-.04-2.2-.39-3.25-1.27.11-.03.21-.05.3-.08h0s.09-.02.12-.03c.08-.02.16-.04.23-.06.08-.02.16-.04.23-.06.03,0,.07-.02.1-.03.07-.02.14-.04.2-.06,1.43-.45,1.68-1.48.61-2.54-.06-.06-.12-.12-.18-.17,0-.01-.02-.02-.03-.03-.03-.03-.07-.06-.1-.08,0,0,0-.01-.02-.02-.04-.03-.08-.07-.12-.1,0-.01-.03-.02-.04-.03-.05-.04-.09-.07-.14-.1,0,0,0-.01,0-.01-.06-.04-.11-.08-.17-.11-.11-.07-.22-.14-.33-.2-2.71-1.49-5.6-2.19-8.69-2.05-.17,0-.34.03-.51.06-.07.01-.12.06-.17.08-.03.15-.06.29-.1.43-.03.13-.07.25-.11.37-.07.22-.15.43-.24.63-.04.1-.09.19-.14.28s-.1.18-.15.27c0,.02-.02.03-.03.05-.03.06-.06.11-.1.16,0,0,0,.01,0,.01-.02.03-.05.07-.07.11-.06.1-.13.19-.2.28-.06.08-.12.16-.19.23h0s-.06.07-.09.1c-.04.05-.08.09-.12.13,0,.02-.03.04-.05.05,0,.01,0,.02-.02.02-.03.04-.07.07-.11.1-.08.07-.15.14-.23.2s-.15.12-.23.18c-.03.03-.07.06-.11.08-.07.05-.15.1-.23.15-.03.02-.07.04-.1.06-.08.05-.15.09-.24.13,0,0,0,0-.02.01-.06.03-.12.07-.19.09h0s0,.01-.02.01l-.12.06c-.07.03-.13.06-.2.08-.11.05-.22.09-.33.13-.11.04-.23.08-.35.11-2.37.71-4.58.25-6.81-1.23.46-.18.76-.28,1.04-.4.78-.35,1.57-.67,2.33-1.07.03-.02.06-.03.09-.05.03-.02.06-.04.09-.06.05-.03.09-.06.12-.1.03-.03.07-.06.09-.1h0s0-.01,0-.01c0-.01.02-.02.02-.03.05-.07.09-.14.12-.21.02-.04.03-.09.03-.13,0-.02,0-.05,0-.07s0-.05,0-.07v-.03c0-.07,0-.15-.03-.23-.13-.46-.55-.57-.96-.67-1.69-.38-3.35-.05-4.99.28l-.54.12c-.18.04-.36.09-.54.13-.09.02-.18.05-.27.07-.1.03-.19.06-.29.09-.08.02-.17.05-.25.08s-.17.06-.25.09h0c-.23.08-.45.17-.67.27-.1.04-.19.09-.29.14-.53.26-1.05.57-1.55.97-.36-1.76-.62-3.42-.84-5.18.37-.15.7-.31,1.05-.43,2.86-1.03,5.83-1.54,8.86-1.66,6.95-.27,13.56,1.15,19.87,4.04.51.23,1,.49,1.48.77.14.08.27.16.4.24.13.08.26.16.39.24h0c.11.07.21.14.32.21.63.42,1.26.83,1.89,1.25,1.8,1.2,3.59,2.41,5.36,3.64.87.61,1.76,1.2,2.66,1.76.2.13.41.26.61.38.35.22.71.43,1.07.64.17.1.33.19.5.29.2.12.41.23.62.35.19.1.37.2.57.31.19.1.38.2.57.3.36.19.73.37,1.1.54.1.05.2.09.3.14.06.03.11.06.17.08.25.11.5.23.76.34h0c.1.05.2.09.31.14.23.1.46.19.69.28.24.09.47.18.71.27,1.53.57,3.09,1.03,4.74,1.18h.12-.06.09s.08,0,.12,0h.75c.17,0,.36,0,.57-.03.61-.06,1.33-.21,2.07-.51,0,0,.02,0,.03-.02h0s.06-.02.09-.04c.06-.02.12-.05.18-.08.12-.06.24-.11.35-.18.03-.02.07-.03.1-.05,0,0,.02,0,.03,0,0,0,0,0,.02,0s.02,0,.03-.02c0,0,0,0,0,0h0c.06-.03.11-.07.16-.11.1-.08.19-.16.27-.24l.03-.03v.02s0,.03,0,.05c0,0,0,.03,0,.05s0,.03-.02.05c-.03.1-.09.24-.19.4l-.05.08s-.04.06-.06.08c-.02.03-.04.06-.07.09-.05.06-.1.12-.15.18-.07.07-.14.14-.22.21-.12.1-.26.21-.41.31-.1.07-.22.13-.34.19-.18.09-.39.18-.62.26-.08.02-.16.05-.24.08-.07.02-.14.04-.22.06-.05,0-.1.02-.15.03-.11.03-.22.05-.34.07-.05,0-.1.02-.16.02-.05,0-.11.02-.16.02-.11,0-.23.02-.34.03-.16,0-.33.02-.5.02h-.59c-.11,0-.22,0-.33,0-.25,0-.52-.03-.8-.07-.09,0-.19-.02-.28-.03-.19-.02-.39-.06-.6-.09-.31-.05-.63-.11-.96-.18-.11-.02-.22-.05-.34-.07-.23-.05-.46-.11-.71-.17s-.49-.13-.75-.2c-.25-.07-.52-.15-.78-.23-.18-.06-.36-.11-.55-.17-.05,0-.1-.03-.15-.05-.11-.03-.22-.07-.32-.11-.03,0-.06-.02-.09-.03-.12-.04-.24-.08-.35-.12l-.51-.18c-.23-.08-.47-.17-.71-.27-.26-.1-.52-.2-.79-.32-4.01-1.63-7.77-3.72-11.31-6.21-.09-.07-.19-.13-.29-.19-.05-.03-.11-.07-.16-.1-.08-.05-.16-.1-.25-.15-.05-.03-.13,0-.2,0l-.04.04ZM181.49,165.47c0,.06-.02.11-.03.17v.02c-.03.15-.06.3-.09.45-.31,1.5-.73,2.99-1.28,4.47-.44,1.18-1.09,2.29-1.78,3.35-.23.35-.51.68-.81.98-.23.23-.47.44-.72.64-.08.07-.17.13-.25.19-.28.2-.56.36-.84.48-.25.11-.51.18-.76.22-.08,0-.17.02-.25.03-.49.03-.98-.06-1.45-.27-.14-.06-.27-.14-.4-.22-.21-.13-.42-.29-.62-.48-.05-.04-.09-.08-.13-.12l-.12-.12c-.59-.59-1.1-1.28-1.51-2-.28-.49-.53-.99-.74-1.5-.72-1.73-1.1-3.58-1.33-5.45-.16-1.32-.22-2.66-.27-3.39.02-1.54.1-3,.26-4.39.06-.5.12-1,.2-1.48h0c.21-1.3.49-2.55.88-3.76.07-.23.15-.45.23-.68.16-.45.33-.89.51-1.34.53-1.27,1.19-2.47,2.12-3.51.07-.07.13-.15.2-.22l.04-.04h0c.05-.06.1-.11.16-.16.29-.28.59-.52.89-.72.12-.08.24-.15.36-.22.24-.13.48-.23.72-.3.47-.14.93-.17,1.39-.09.18.03.37.08.55.14.18.06.36.14.53.24.09.05.18.1.27.16.26.17.52.38.77.62.27.27.54.58.79.93,1.2,1.67,1.87,3.58,2.29,5.57.34,1.62.56,3.23.65,4.84.14,2.33,0,4.65-.41,6.94l-.02.02Z"/>
    <path class="cls-7" d="M91.05,75.94c-2.78,1.6-5.64,3.25-8.59,4.96l49.2-3.06-40.6-1.89h-.01ZM141.49,70.72l-26.98-2.28,20.94-1.19c-4.02-2.31-7.96-4.57-11.79-6.76-.53-.31-1.07-.6-1.49-.74-.4-.13-.78-.19-1.18-.19-.81,0-1.71.28-2.73.85-3.93,2.19-8.56,4.79-13.12,7.41-2.33,1.34-4.7,2.71-7.11,4.09l43.88-.94c-.15-.08-.29-.16-.43-.25h0ZM157.11,79.72l-12.03,2.01,16.06.31c-1.32-.76-2.66-1.54-4.03-2.32ZM87.74,157.95v-.03c-.01-.06-.02-.11-.04-.17,0-.04-.02-.07-.03-.11-.01-.06-.03-.13-.06-.19,0-.02-.01-.03-.02-.05-.05-.16-.11-.31-.17-.45-.02-.05-.05-.1-.07-.15l-.12-.24c-.05-.09-.11-.19-.16-.27-.05-.07-.09-.14-.14-.21-.03-.05-.07-.1-.11-.14-.04-.05-.08-.1-.12-.15-.04-.05-.08-.09-.12-.13-.06-.07-.12-.13-.19-.19-.07-.07-.15-.14-.22-.2-.05-.05-.1-.09-.16-.13-.05-.05-.11-.09-.16-.12-.06-.04-.12-.08-.18-.12h0c-.07-.05-.15-.09-.22-.13h0c-.11-.06-.23-.11-.34-.16-.06-.02-.11-.04-.17-.06-.12-.04-.24-.07-.36-.09-.06,0-.11-.02-.17-.03h0s-.09,0-.14,0h-.24c-.07,0-.15,0-.22,0h-.06c-.06,0-.12,0-.18.02h-.11c-.05,0-.09.02-.14.03s-.09.02-.13.03c-.06,0-.11.03-.17.05-.05.02-.09.03-.14.05-.06.02-.12.05-.18.07-.04.02-.09.04-.13.06-.06.03-.12.07-.18.1-.18.1-.35.23-.51.36-.05.04-.09.08-.14.12-.04.04-.08.09-.12.13-.05.05-.1.1-.15.16t-.01,0c-.06.07-.11.13-.16.2-.03.05-.07.09-.1.13s-.07.09-.09.13c-.04.05-.08.11-.11.16-.04.06-.08.11-.11.18-.08.12-.14.24-.2.36-.06.1-.1.2-.15.3h0s-.02.05-.03.08c-.03.05-.05.11-.07.16-.07.16-.14.32-.19.46-.04.12-.08.23-.11.34h0l1.45.08c1.75.02,3.5.04,5.24.06.3,0,.6-.03.98-.05h0c-.01-.09-.03-.18-.05-.27h-.02ZM83.92,126.25c.57-.38,1.13-.75,1.69-1.08.08-.05.16-.1.25-.15.05-.03.1-.06.15-.09.03-.02.06-.03.08-.05.16-.09.33-.19.49-.28h0v-.04c-.94.53-1.82,1.1-2.66,1.69ZM78.6,157.07h.11-.11ZM65.95,139.73c.06.62.07,1.29.02,1.99.05-.7.03-1.37-.02-1.99ZM65.88,142.59v.04h0v-.05c.02-.14.04-.27.05-.4-.02.14-.03.27-.06.41h0ZM65.36,139.44c.01.47.01.93.01,1.37,0-.44,0-.9-.01-1.37ZM65.31,142.71h0v-.19c0,.07,0,.13-.01.19h.01ZM65.23,136.42c.02.08.06.16.09.27-.03-.1-.06-.19-.09-.27ZM65.17,136.25s.01.03.02.04c0,0,0-.02-.01-.03-.03-.09-.05-.13-.05-.13h0c.02.18.05.37.07.55-.02-.18-.04-.36-.06-.54,0,.02.02.06.04.1h0ZM188.72,101.39c-.21-2.44-1.31-4.15-3.45-5.4-4.92-2.85-10.06-5.83-15.51-8.98l-78.8,4.13,34.18-4.81-45.01-4.1c-7.23,4.17-15.08,8.7-23.84,13.76-.39.22-.86.51-1.17.78-1.68,1.45-2.42,3.13-2.42,5.47.02,7.4.02,14.73.02,23.46v32.83h6.62c-1.33-1.05-2.16-2.68-2.11-4.34-.09-.16-.2-.33-.32-.51-.1-.15-.2-.3-.29-.45-1.32-2.12-1.18-4.55.38-6.51.65-.82,1.35-1.35,2.15-1.73-.02-.1-.04-.2-.05-.29l-3.61-.58,3.67-.53c.14-.57.49-1.25,1.29-1.85h0l.58-1.61.56.11-.41-4.67.1-.37c.14-.47.29-.96.48-1.48.06-.17.12-.36.19-.53l.29-.9-8.58-.69,9.59-1.41c.13-.27.25-.51.36-.71-.95-3.15-1.15-5.96-.62-8.59.07-.35.15-.7.24-1.05.06-.26.12-.52.17-.76l-8.62-1.19,8.79-.27c0-.15-.02-.29-.05-.44l-.21-1.17.9-.78c.56-.48,1.42-.73,2.54-.73,1.29,0,2.99.33,5.05.99l.62-.25c.97-.39,1.94-.58,2.95-.58,1.34,0,2.53.35,3.42.66,1.01.35,1.94.83,2.81,1.47l1.92-3.39,5.07-2.26,2.13,1.88c.65-1.21,1.35-2.38,2.11-3.51l-36.21-2.98,40.61-2.51c2.38-2.5,5.07-4.71,8.01-6.55l-39.22-1.39,47.48-2.59c4.3-1.52,8.92-2.34,13.74-2.34,2.67,0,5.29.25,7.82.74h.03c1.14.1,37.71,3.3,37.53,3.48-.11.11-13.96.97-24.21,1.59,3.8,2.27,7.21,5.13,10.1,8.45l29.69,2.2-26.3,2.28c1.28,1.95,2.4,4.02,3.34,6.18l22.08,1.8-20.69,1.86c.41,1.23.75,2.49,1.03,3.76l18.78.68-14.47,2.44,1.52.88.35,2.06.54-.44,4.68,1.78.04.87c.25-.06.51-.08.77-.08.56,0,1.11.13,1.63.38,1.43.71,2.18,2.21,1.94,3.83,0,.06-.02.13-.02.2-.04.35-.1.79-.26,1.27-.57,1.67-1.45,3.09-2.61,4.23,1.67,1.67,2.89,3.8,3.84,6.69.93,2.84,1.45,5.93,1.55,9.18,0,.35.02.7.02,1.05h2.72v-2.64c0-16.75.02-33.5.04-50.24v-.13c0-.6.02-1.18.04-1.73.03-.87.06-1.7,0-2.4l-.04.02ZM162.02,155.02v.02-.03h0ZM179.37,135.43c-.12.07-.24.12-.35.18.16-.07.31-.15.45-.23-.03.02-.07.03-.1.05h0ZM175.83,136.3h-.23c.1,0,.2,0,.29,0h.17-.23ZM175.19,136.27h-.09.21s-.08,0-.12,0h0ZM174.03,137.15c.28.03.55.06.8.07-.25,0-.52-.04-.8-.07ZM172.19,136.85c.33.07.66.13.96.18-.31-.05-.62-.11-.96-.18ZM176.05,146.02c-.46-.08-.93-.05-1.39.09.47-.14.94-.17,1.4-.09.18.03.36.08.54.14-.18-.07-.36-.11-.55-.14h0Z"/>
    <g>
      <path class="cls-7" d="M198.38,137.33v-19.36c0-6.01,0-12.02,0-18.02,0-.92-.11-1.86-.32-2.75-.97-4.24-3.55-7.27-7.26-9.41-6.92-4-13.85-7.99-20.77-12-10.78-6.24-21.55-12.49-32.33-18.72-3.62-2.09-7.27-4.15-10.92-6.2-.53-.3-1.12-.53-1.7-.72-3.18-1.05-6.32-.76-9.34.54-1.95.84-3.83,1.85-5.67,2.91-19.1,10.99-38.17,21.99-57.25,33.01-1.48.86-3,1.7-4.34,2.75-3.49,2.73-5.43,6.33-5.44,10.82-.03,9.61-.02,19.23-.02,28.84,0,15.21,0,30.43.02,45.63,0,.89.11,1.79.3,2.65.96,4.24,3.52,7.29,7.23,9.44,5.11,2.96,10.22,5.9,15.33,8.86,15.44,8.94,30.87,17.9,46.32,26.82,1.3.75,2.68,1.42,4.1,1.89,3.59,1.21,7.14,1.17,10.55-.72,1.89-1.04,3.82-2.03,5.69-3.1,18.88-10.88,37.75-21.77,56.61-32.67,1.28-.74,2.57-1.48,3.72-2.38,3.46-2.71,5.46-6.25,5.48-10.7.05-12.46.02-24.93.02-37.4h0ZM193.19,172.58c0,4.44-1.91,7.81-5.74,10.01-18.09,10.4-36.19,20.76-54.29,31.13-2.44,1.4-4.93,2.72-7.31,4.22-3.49,2.18-6.87,2.05-10.38.02-12.15-7.02-24.34-13.98-36.5-20.98-8.32-4.79-16.64-9.6-24.95-14.42-3.89-2.26-5.84-5.64-5.84-10.17s0-9.24,0-13.87v-32.83c0-7.82,0-15.63-.02-23.45,0-3.59,1.27-6.56,3.98-8.89.57-.49,1.21-.89,1.87-1.27,6.1-3.52,12.2-7.05,18.31-10.57,10.18-5.88,20.36-11.75,30.55-17.61,4.37-2.51,8.77-4.98,13.18-7.44,2.36-1.32,4.87-1.87,7.52-1,.8.27,1.57.68,2.31,1.11,6.2,3.55,12.39,7.1,18.59,10.66,0,0,.02.01.04.02,4.15,2.38,8.29,4.77,12.44,7.15,10.2,5.88,20.39,11.76,30.56,17.67,3.41,1.98,5.34,4.98,5.68,8.91.13,1.49-.02,3.02-.02,4.52-.02,16.79-.03,33.58-.04,50.37,0,5.57.03,11.13.05,16.69v.02Z"/>
      <path class="cls-7" d="M133.21,265.25l-.35-.06c.11,0,.23.03.35.06Z"/>
      <path class="cls-7" d="M137.73,261.28"/>
    </g>
    <path class="cls-8" d="M181.9,158.53c-.09-1.61-.31-3.22-.65-4.84-.42-1.99-1.08-3.9-2.29-5.57-.26-.35-.52-.67-.79-.93-.25-.25-.51-.45-.77-.62-.09-.06-.18-.11-.27-.16-.18-.1-.35-.18-.53-.24s-.36-.11-.54-.14c-.46-.08-.93-.05-1.4.09-.24.07-.48.17-.72.3-.12.06-.24.14-.36.22-.3.19-.6.43-.89.72-.06.05-.11.1-.16.16h0l-.04.04c-.07.07-.13.14-.2.22-.92,1.04-1.58,2.24-2.12,3.51-.19.44-.36.89-.51,1.34-.08.23-.15.45-.23.68-.39,1.22-.67,2.46-.88,3.76h0c-.08.49-.15.98-.2,1.49-.16,1.39-.24,2.85-.26,4.39.06.73.11,2.07.27,3.39.23,1.87.6,3.72,1.33,5.45.21.51.46,1.01.74,1.5.41.71.93,1.4,1.51,2l.12.12s.08.08.13.12c.2.19.41.35.62.48.13.08.27.16.4.22.47.22.96.31,1.45.27.08,0,.16,0,.25-.03.25-.04.51-.11.76-.22.28-.11.56-.27.84-.48.09-.06.17-.12.25-.19.25-.2.49-.41.72-.64.31-.31.58-.63.81-.98.69-1.05,1.34-2.17,1.78-3.35.55-1.48.98-2.97,1.28-4.47.03-.16.06-.32.09-.49,0-.05.02-.1.03-.15.41-2.29.54-4.61.41-6.94l.02-.03ZM179.78,164.5c-.2,1.54-.53,2.97-1.14,4.33-.43.96-.97,1.91-1.66,2.69-1.18,1.32-3.14,1.32-4.34,0-1.13-1.23-1.66-2.76-2.02-4.36-.64-2.91-.74-5.79-.24-8.64.21-1.18.52-2.35.93-3.52.38-1.07.91-2.08,1.7-2.91,1.52-1.6,3.27-1.54,4.66.18,1.11,1.37,1.64,3.01,1.94,4.71.03.22.07.43.1.65.05.3.08.6.12.89.22,1.98.22,3.98-.03,5.97h-.02Z"/>
    <path class="cls-8" d="M177.81,165.31c-.34.75-.8,1.48-1.8,1.43-.98-.06-1.44-.78-1.69-1.57-.12-.4-.22-.79-.31-1.2-.32-1.44-.31-2.94.12-4.36.1-.35.24-.7.41-1.04,0,0,0-.03.02-.04.38-.74.86-1.44,1.8-1.4.88.03,1.33.68,1.63,1.4.02.06.05.12.07.18.81,2.23.72,4.44-.24,6.59h-.01Z"/>
    <path class="cls-6" d="M177.06,158.01c-.02-.06-.05-.12-.07-.18-.29-.72-.75-1.37-1.63-1.4-.93-.03-1.42.66-1.8,1.4,0,0,0,.03-.02.04-.17.34-.31.68-.41,1.04-.43,1.41-.44,2.92-.12,4.36.09.41.19.8.31,1.2.25.79.7,1.51,1.69,1.57,1.01.05,1.47-.68,1.8-1.43.97-2.15,1.05-4.37.24-6.59h.01Z"/>
    <path class="cls-8" d="M147.85,175.15c-.44.98-1.05,1.94-2.37,1.88-1.29-.07-1.89-1.02-2.22-2.06-.16-.52-.29-1.04-.41-1.58-.41-1.89-.4-3.87.16-5.72.14-.46.31-.92.54-1.36,0-.02.02-.04.03-.05.5-.97,1.13-1.89,2.36-1.84,1.15.05,1.75.89,2.14,1.84l.09.24c1.07,2.92.95,5.83-.32,8.66h0Z"/>
    <path class="cls-6" d="M146.87,165.57l-.09-.24c-.39-.95-.98-1.79-2.14-1.84-1.22-.05-1.86.87-2.36,1.84,0,.02-.02.04-.03.05-.22.45-.4.9-.54,1.36-.56,1.85-.58,3.83-.16,5.72.12.53.25,1.06.41,1.58.33,1.04.92,1.99,2.22,2.06,1.32.07,1.93-.89,2.37-1.88,1.27-2.83,1.38-5.73.32-8.66h0Z"/>
    <path class="cls-8" d="M153.29,160.7c-.38-2.03-1.01-3.99-2.01-5.81-.44-.79-.93-1.54-1.55-2.2-.1-.11-.21-.22-.32-.32-.11-.11-.22-.21-.34-.31-.13-.11-.27-.21-.4-.31-.07-.05-.13-.09-.2-.14-.17-.11-.35-.21-.52-.29-.09-.05-.17-.08-.26-.12-.05-.02-.09-.03-.14-.05s-.09-.03-.13-.05c-.21-.07-.42-.13-.63-.16h-.05c-.07,0-.14-.02-.21-.03-.03,0-.07,0-.1,0-.09,0-.18,0-.26,0h-.05c-.19,0-.39.02-.58.05-.08,0-.17.03-.25.05q-.05.01,0,0c-.07,0-.14.03-.2.05-.07.02-.14.04-.2.06-.14.04-.27.09-.4.15-.14.06-.27.12-.41.2-.14.07-.27.15-.4.24-.53.35-1.03.77-1.48,1.22-.28.27-.54.55-.79.84-1.1,1.24-1.86,2.72-2.5,4.24-.95,2.24-1.61,4.54-2.06,6.89-.73,3.85-.78,7.8-.35,11.69.06.5.12,1.01.19,1.51.24,1.66.64,3.29,1.25,4.85.08.21.17.42.26.63s.19.41.29.62h0c.14.28.27.55.42.82l.24.42c.5.84,1.08,1.61,1.83,2.23.11.09.22.17.34.26,1.73,1.25,3.62,1.32,5.35.09.25-.18.49-.37.73-.57.24-.2.46-.42.68-.64.26-.26.51-.54.75-.82.15-.17.29-.35.43-.53s.27-.37.4-.55c.76-1.13,1.35-2.37,1.84-3.65,2.55-6.67,3.1-13.53,1.8-20.53h0ZM151.91,168.61c0,3.02-.53,5.94-1.64,8.75-.6,1.51-1.39,2.91-2.53,4.09-2.46,2.53-5.3,2.23-7.2-.76-.96-1.51-1.48-3.18-1.75-4.91-.65-4.18-.27-8.28,1.21-12.26.5-1.36,1.13-2.67,2.08-3.76.56-.65,1.2-1.27,1.91-1.74,1.4-.93,3.2-.83,4.51.22.88.71,1.49,1.63,1.96,2.65,1.02,2.22,1.39,4.58,1.44,7v.72h0Z"/>
    <path class="cls-8" d="M121.1,122.08c2.86-1.03,5.83-1.54,8.86-1.66,6.95-.27,13.56,1.15,19.87,4.04.51.23,1,.49,1.48.77.14.08.27.16.4.24.13.08.26.16.39.24h0c.11.07.21.14.32.21.63.42,1.26.83,1.89,1.25,1.8,1.2,3.59,2.41,5.36,3.64.87.61,1.76,1.2,2.66,1.76.2.13.41.26.61.38.35.22.71.43,1.07.64.17.1.33.19.5.29.2.12.41.23.62.35.19.1.37.2.57.31.19.1.38.2.57.3.36.19.73.37,1.1.54.09.05.19.09.28.13.17.07.34.12.51.18.12.05.24.08.35.12.03,0,.06.02.09.03.11.04.22.08.32.11.05.02.1.03.15.05.18.06.37.12.55.17.27.08.53.16.78.23s.5.14.75.2.48.12.71.17c.11.02.23.05.34.07.33.07.66.13.96.18.2.03.4.06.6.09.1,0,.19.02.28.03.28.03.55.06.8.07.11,0,.22,0,.33,0h.59c.17,0,.34,0,.5-.02.12,0,.23-.02.34-.03.06,0,.11,0,.16-.02.06,0,.11-.02.16-.02.12-.02.24-.04.34-.07.05,0,.1-.02.15-.03.08-.02.15-.03.22-.06.08-.03.16-.05.24-.08.23-.08.43-.16.62-.26.12-.06.24-.13.34-.19.16-.1.29-.2.41-.31.08-.07.15-.14.21-.21.06-.06.11-.12.15-.18.02-.03.05-.06.07-.09s.04-.06.06-.08l.05-.08c.1-.16.16-.3.19-.4,0-.02,0-.03.02-.05s0-.03,0-.05,0-.03,0-.05v-.02l-.03.03c-.08.09-.17.17-.27.24-.05.04-.11.08-.16.11h0s0,0,0,0c0,0-.02,0-.03.02,0,0,0,0-.02,0,0,0-.02,0-.03,0-.03.02-.07.03-.1.05-.12.07-.24.12-.35.18-.06.03-.12.05-.18.08-.03,0-.06.03-.09.04h0s-.02,0-.03.02c-.74.3-1.46.45-2.07.51-.2.02-.4.03-.57.03h-.75s-.08,0-.12,0h-.09.06-.12c-1.64-.15-3.2-.61-4.74-1.18-.24-.09-.48-.18-.71-.27-.23-.09-.46-.18-.69-.28-.1-.04-.2-.09-.31-.13h0c-.26-.11-.51-.23-.76-.34-.06-.02-.11-.05-.17-.08-.1-.05-.2-.09-.3-.14-.37-.17-.74-.35-1.1-.54-.19-.1-.38-.2-.57-.3s-.38-.2-.57-.31c-.21-.11-.42-.23-.62-.35-.17-.09-.33-.19-.5-.29-.36-.21-.71-.42-1.07-.64-.2-.12-.41-.25-.61-.38-.9-.57-1.78-1.15-2.66-1.76-1.78-1.23-3.57-2.44-5.36-3.64-.63-.42-1.26-.84-1.89-1.25-.11-.07-.21-.14-.32-.21h0c-.13-.08-.26-.16-.39-.24-.14-.08-.27-.16-.4-.24-.48-.28-.98-.54-1.48-.77-6.31-2.89-12.92-4.31-19.87-4.04-3.03.12-6,.63-8.86,1.66-.34.12-.68.27-1.05.43.06.49.13.98.19,1.46.29-.12.57-.25.85-.34h.02Z"/>
  </g>
  <g class="cls-2">
    <text class="cls-4" transform="translate(230.45 144.17)"><tspan x="0" y="0">Аван</tspan></text>
    <text class="cls-1" transform="translate(394.14 144.17)"><tspan x="0" y="0">Кор</tspan></text>
  </g>
  <g>
    <polygon class="cls-5" points="534.31 172.8 494.94 168.7 494.94 176.71 534.31 172.8"/>
    <g>
      <g class="cls-2">
        <text class="cls-3" transform="translate(275.56 179.36)"><tspan x="0" y="0">антикоррозийная</tspan></text>
        <text class="cls-3" transform="translate(314.58 204.97)"><tspan x="0" y="0">обработка</tspan></text>
      </g>
      <polygon class="cls-5" points="225.13 172.8 264.5 168.7 264.5 176.71 225.13 172.8"/>
    </g>
  </g>
</svg>