<?xml version="1.0" encoding="utf-8"?>
<!-- Generator: Adobe Illustrator 23.0.3, SVG Export Plug-In . SVG Version: 6.00 Build 0)  -->
<svg version="1.1" id="Layer_1" xmlns="http://www.w3.org/2000/svg" xmlns:xlink="http://www.w3.org/1999/xlink" x="0px" y="0px"
	 viewBox="0 0 505 181.2" style="enable-background:new 0 0 505 181.2;" xml:space="preserve">
<style type="text/css">
	.st0{fill:#FFFFFF;}
	.st1{fill:#007478;}
	.st2{fill:#2E434F;}
	.st3{fill:#F16858;}
	.st4{fill:#F47E21;}
</style>
<g>
	<path class="st0" d="M120.6,90.6V64.1c0-0.6,0-1.3-0.2-2c-0.7-3-2.6-5.2-5.2-6.7c-4.9-2.8-9.9-5.7-14.8-8.5
		c-7.7-4.4-15.3-8.9-22.9-13.3c-2.6-1.5-5.2-3-7.7-4.4c-0.4-0.2-0.8-0.4-1.2-0.5c-2.3-0.7-4.5-0.6-6.6,0.4c-1.3,0.6-2.7,1.3-4,2.1
		C44.4,39,30.9,46.8,17.4,54.6c-1.1,0.6-2.1,1.2-3.1,2c-2.5,1.9-3.8,4.5-3.8,7.7v52.8c0,0.6,0,1.3,0.2,1.8c0.7,3,2.5,5.2,5.1,6.7
		c3.6,2.1,7.2,4.2,10.9,6.3c10.9,6.3,21.9,12.7,32.9,19c0.9,0.6,1.9,1,2.9,1.3c2.6,0.9,5,0.9,7.5-0.5c1.3-0.7,2.7-1.4,4-2.2
		c13.4-7.7,26.8-15.5,40.2-23.2c0.9-0.5,1.8-1.1,2.6-1.7c2.5-1.9,3.9-4.4,3.9-7.6V90.5l0,0L120.6,90.6z"/>
	<polygon class="st1" points="40.8,111 57,113.2 58.6,114.3 59.5,120.9 49.4,121.9 38.1,115.4 	"/>
	<path class="st2" d="M109.1,114.4c0-0.2,0-0.4,0-0.5c0.8-2.7,1.1-5.4,1.1-8.2V105c0-2.1-0.4-4.1-1-6.1c-0.6-1.6-1.3-3.1-2.5-4.3
		s-0.7-0.6-1.1-0.8c-1.3-0.7-2.9-0.6-4.3,0.4c-0.8,0.5-1.5,1.2-2.1,2c-0.9,1.2-1.6,2.6-2.2,4c0,0.1-0.1,0.4-0.2,0.6c0,0,0,0.1,0,0.2
		s0,0.3-0.1,0.4l0,0c0,0.3,0,0.4-0.1,0.6l0,0c0,0.2,0,0.3,0,0.4l0,0v0.2c0,0,0,0.2,0,0.3l0,0c0,0.2,0,0.4,0,0.5s0,0.2,0,0.3l0,0
		c0,0.2,0,0.4-0.1,0.6l0,0c0,0.4,0,0.6-0.1,0.8l0,0v0.6l0,0v0.6c0,0.2,0,0.4,0,0.6l0,0v1.1l0,0v0.4l0,0v2.8c0,0.4,0,0.8,0,1.2v1.1
		l0,0v0.6c0.1,1.1,0.4,2.2,0.8,3.3l0,0c0,1,2.1,4.3,2.1,4.3c-0.4-0.5-0.8-1-1.1-1.5c-0.9-1.4-1.6-3-2-4.6c0-0.3-0.1-0.6-0.2-0.9
		c0-0.2,0-0.4-0.1-0.6l0,0c-0.1-0.7-0.3-1.4-0.4-2.1c0-0.2,0-0.4,0-0.7v-0.6l0,0v-3.3c0-0.5,0-0.9,0-1.4v-0.4l0,0c0-0.4,0-0.6,0-0.8
		c0-0.2,0-0.4,0-0.6v-0.6l0,0c0-0.4,0.1-0.8,0.2-1.1v-0.2l0,0c0-0.1,0-0.3,0-0.4l0,0c0-0.1,0-0.3,0-0.4l0,0c0-0.1,0-0.3,0.1-0.4
		c0-0.1,0-0.4,0.1-0.5c0.1-0.4,0.2-0.6,0.4-1l0,0c0-0.1,0-0.2,0.1-0.4l0,0c0-0.1,0.1-0.3,0.2-0.4c0,0,0,0,0-0.1s0-0.2,0.1-0.4l0,0
		c0.1-0.3,0.2-0.4,0.3-0.6l0,0c0-0.2,0.1-0.4,0.2-0.4c0-0.1,0.1-0.3,0.2-0.4s0.1-0.3,0.3-0.4c0,0,0,0,0-0.1s0.2-0.4,0.3-0.5l0,0
		c0.1-0.2,0.2-0.4,0.4-0.6l0,0l0.3-0.4l0,0c0-0.1,0.4-0.6,0.4-0.6l0,0c0,0-0.1,0-0.3,0c0,0-0.1,0-0.2,0l0,0c0,0-0.2,0.1-0.4,0.2
		c0,0-0.1,0-0.1,0.1c0,0-0.1,0-0.2,0.1c0,0-0.1,0-0.2,0.1c0,0,0,0-0.1,0c0,0,0,0-0.1,0s0,0-0.1,0.1l0,0c-0.2,0.2-0.4,0.4-0.6,0.7
		c0,0,0,0.1-0.1,0.2h-0.1c0,0.1,0,0.2-0.1,0.3c-0.1,0.1-0.3,0.4-0.4,0.6c0,0,0,0,0,0.1s-0.2,0.4-0.3,0.5s-0.2,0.4-0.3,0.5l0,0
		c0,0,0,0,0,0.1l0,0c0,0.1,0,0.2,0,0.3c0,0.1-0.1,0.3-0.2,0.4c0,0.2-0.1,0.4-0.3,0.6l0,0c0,0,0,0.2-0.1,0.3l0,0v0.2l0,0
		c0,0.2-0.1,0.4-0.2,0.6c0,0,0,0.2,0,0.3s0,0.2,0,0.3c0,0.1,0,0.3-0.1,0.4l0,0c-0.9,3.1-1.2,6.2-1.1,9.4c0.2,3.3,0.9,6.5,2.5,9.5
		c0,0.1,0,0.3,0.1,0.4c-0.3-0.3-0.6-0.6-0.8-0.9c-0.9-1.4-1.5-3-2-4.6c-0.1-0.4-0.1-0.9-0.2-1.3c0-1.4-0.1-2.8-0.3-4.2
		c0-1-0.3-2.1-0.3-3.1s0.1-2.1,0.3-3.1c0.4-3.3,1.5-6.3,3.4-9c0-0.1,0.2-0.3,0.3-0.4c-2.9,2.1-4.8,4.9-5.5,8.4
		c-0.2-0.3-0.3-0.6-0.4-0.8c-0.4-0.6-0.4-1.3-0.2-2.1c1-3.5,3.2-6,6.5-7.5c0.4-0.1,0.9-0.3,1.3-0.3h3.3c0.4,0,0.7,0,1.1,0
		s0.9,0,1.2,0.1l0,0c1.1,0.1,2.3,0.5,3.1,0.9c1.1-0.7,1.9-1.8,2.4-3.1c0-0.3,0-0.5,0.1-0.8c0-0.5-0.1-1-0.6-1.1
		c-0.4-0.2-0.9-0.1-1.3,0.3c-0.3,0.3-0.6,0.5-1.1,0.9v-2.2l-1.7-0.6l-1.7,1.3l-0.6-3.3l-2.1-1.2l0,0l-0.4-0.3h-0.3
		c0-0.1-0.3,0-0.3,0h-0.2c0,0.1-1.6,1.2-1.6,1.2l-0.3-4.4l-2.1-1.3l-0.5-0.3l-0.3-0.2l-1.9,0.9V75c-0.8-0.6-2.9-2.1-3.7-2.7L85,73.9
		c-0.2,0-0.4,0.2-0.7,0.3c0-0.3-0.1-0.5-0.1-0.7l-0.6-4.8l-5.3-1.4c-1.4,1.5-3.5,3.6-4.9,5l-0.6,0.6c-0.9-2.4-1.6-4.8-2.5-7.2h-0.4
		c-1.8,0.2-3.7,0.4-5.5,0.6l-2.6,4.2c-0.1,0.2-0.3,0.4-0.4,0.6c-1.1-0.4-2,0-2.9,0.4c-1.1-1.3-2.3-2.5-3.5-3.7l-2.9,1.1l-0.3,0.6
		v0.4c-0.1,0-0.1,0.1-0.1,0.1l-0.2,0.4l0,0c0,0.3-0.1,0.4-0.2,0.6c0,0.1-0.1,0.2-0.1,0.4l0,0c-0.3,0.8-0.6,1.4-0.8,2
		c0,0,0,0.1-0.1,0.2l0,0c0,0.1-0.1,0.2-0.1,0.4v0.1l0,0c0,0.1,0,0.3,0,0.4c0,0,0,0.1-0.1,0.2l0,0l-4.3,0.2L44.9,74l-1.1-0.9l-2.3,1
		l-0.8,1.4l-1.3,2.2c-0.9-0.9-1.7-1.6-2.8-2h-0.2c-1-0.4-2.1-0.5-3.3,0c0,0,0.1,0,0.2,0.1c0.6,0.4,1.2,0.6,1.7,0.9
		c0.6,0.4,1.1,0.8,1.4,1.6c-0.2-0.1-0.3-0.1-0.4-0.2c-1.1-0.9-2.3-1.4-3.6-1.9h-0.2c-0.1,0-0.2,0-0.4-0.1l0,0c-0.1,0-0.3,0-0.4-0.1
		c-3.1-1-3.8-0.4-3.8-0.4v0.6c0,0.4,0,0.9-0.1,1.3c0,0.5-0.2,0.9-0.3,1.3c-0.4,1.9-0.1,3.8,0.5,5.6v0.4l0,0c-0.1,0.4-0.5,1-0.9,1.9
		c-0.1,0.3-0.3,0.6-0.4,1l0,0c0,0.1,0,0.3-0.1,0.4c-0.1,0.3-0.2,0.6-0.3,1l0.4,5l-1.1-0.2c0,0.1-0.1,0.4-0.3,0.5c0,0-0.1,0-0.1,0.1
		c-0.5,0.4-0.5,0.8-0.2,1.2c0,0,0,0.1,0.1,0.1c0.2,0.2,0.2,0.4,0.1,0.7c-1.2,0.3-1.8,0.6-2.3,1.2c-0.7,0.9-0.8,1.9-0.1,2.9
		c0.1,0.3,0.4,0.6,0.6,0.9c0,0.1,0.1,0.4,0.1,0.6c0,1,0.6,2.1,1.6,2.3h7.3c0-0.1,3.1-0.1,3.1-0.1h1.7l0,0l0,0l0,0
		c-0.1,0.3-0.2,0.6-0.3,0.9h-8.2c0,0.1-3.3,0.1-3.3,0.1h-0.4c0,0.1,0.1,0.4,0.2,0.4l0,0c0.4,0.3,0.4,0.6,0.2,1.1
		c-0.1,0.9-0.2,1.8,0,2.7c0.2,1.8,0.8,3.4,1.3,5c0.7,2.1,1.8,4,3.3,5.6c0,0,0.1,0.2,0.3,0.5c-3.3-1.8-4.7-6-5-7.2l0,0v-0.2l-0.8,0.4
		l0,0c-1.7,0.8-3.4,1.6-5.1,2.3v0.4c0.1,0.3,0.2,0.6,0.4,0.8c0.9,1.7,2.3,3,3.9,3.9c4,2.3,7.9,4.6,11.9,6.9l7.4,4.3l0,0l5.2,2.8
		l6.3,3.8l0,0l1.9,1.1l0,0c2.1,1.2,4.2,2.4,6.3,3.6c0.4,0.2,0.9,0.4,1.3,0.6c2,0.7,4,0.8,5.9,0c0.9-0.5,1.7-1,2.6-1.5
		c0.6-0.3,1.1-0.6,1.6-0.9l8.7-5c2.1-1.2,4.3-2.5,6.5-3.8l1.8-1.1l0.6-0.3l2-1.1c5.7-3.3,11.4-6.5,17-9.7c1.8-1.1,3.1-2.7,3.8-4.8
		c0-0.2,0.1-0.5,0.2-0.8c-1.4-0.4-2.8-0.8-4.2-1.2l0,0l-0.4,0.4L109.1,114.4z M24.3,100.6c-0.1-0.4-0.3-0.6-0.4-0.9
		c0,0-0.3-0.2-0.4-0.1c0,0-0.2,0.2-0.2,0.4c0,0.2,0,0.4,0,0.6s0.3,0.6-0.1,0.7s-0.4-0.3-0.6-0.5c-0.1-0.4-0.4-0.7-0.5-1.1
		c0-0.1-0.1-0.2-0.1-0.4c0-0.6,0.4-0.8,0.8-1.1s0.9-0.4,1.3,0c0,0,0.1,0.1,0.1,0.2c0,0.6,0.1,1.3,0.1,2c0,0,0,0-0.2,0.2h0.1
		L24.3,100.6z M26.2,95.6c0,0,0,0.2-0.1,0.3l0,0v0.2l0,0v-0.4l0,0v-0.6l0,0v-0.4c0,0,0,0,0,0c0,0.1,0,0,0,0v-0.4l0,0V92l0,0v-0.8
		l0,0v-1.6l0,0v0.3l0,0c0,0.3,0.1,0.5,0.2,0.8l0,0c0,0.4,0,0.6,0.1,0.8v0.6l0,0v1.7l0,0v0.3l0,0v0.3l0,0v0.3l0,0V95c0,0,0,0.2,0,0.3
		l0,0v0.4L26.2,95.6z M30,100c-0.6,0-1.3-0.2-1.9,0.1c-0.6,0.4-0.8,0.9-0.9,1.6c-0.3,0-0.5,0-0.8,0c0-0.3-0.1-0.6-0.1-0.9
		c0.1-1.4,1.7-2.5,3.1-2.1c0.7,0.2,0.8,0.4,0.6,1.2l0,0L30,100z M24.8,107.7v-0.4c0.2,0,0.4,0,0.4,0.1c1.9,1.3,4.1,1.8,6.3,2.1
		c0.9,0,1.6,0.1,2.5,0.1s0.3,0,0.4,0c0.3,0.1,0.6,0.4,0.9,0.6c-7.5,1-10.4-2.6-10.4-2.6l0,0L24.8,107.7z M26.1,114.2
		c-0.2-1-0.4-2.1-0.4-3.1s0.1-1,0.2-1.6c0.4,0.2,0.7,0.4,1.1,0.6c-0.2,1.8,0,3.6,0.4,5.4c0.5,1.8,1.3,3.4,2.2,5c0,0-2.4-2.5-3.5-6.2
		l0,0L26.1,114.2z M29.5,110.9c0.4,0,0.6,0,1,0.1c-0.2,1.8-0.1,3.5,0.3,5.2c0.4,1.6,1.1,3.2,1.9,4.7
		C30.3,118.1,29.3,114.7,29.5,110.9z M32.6,111.2h0.7c0,3.3,0.6,6.4,2.1,9.3C33.5,118.9,31.8,113.9,32.6,111.2L32.6,111.2z
		 M35.6,94.9L35.6,94.9c0,0,0,0,0.2-0.1h0.1H36c0.1,0,0.4-0.2,0.6-0.4h0.1l1.1-0.8l0,0c0.6-0.4,1.1-0.7,1.8-1.1c0,0.4,0,0.9,0.1,1.2
		v0.6c0,0,0,0.2,0,0.3c0,0,0,0.1,0,0.2c0,0,0,0.1,0.1,0.2c0,0,0,0.1,0.1,0.2c0,0,0,0.1,0.1,0.2c0,0,0,0.1,0.1,0.2c0,0,0,0,0.1,0.1
		l0,0c0.2,0.3,0.5,0.4,0.8,0.6h0.5c0.6,0,1.1-0.2,1.6-0.6c0,0,0,0,0.1-0.1c0.7-0.7,1.2-1.9,1.3-3.3c0-0.6,0-1.1,0-1.6
		c0-0.4-0.1-0.7-0.3-1c0,0,0-0.1-0.1-0.2c0.8-0.4,1.5-0.8,2.1-1.1c0,0,0.2,0,0.3-0.1l0,0c0.3-0.1,0.6-0.3,0.9-0.4l0,0
		c0.3-0.1,0.6-0.3,0.9-0.4v0.2c0.1,0,0-0.2,0-0.2l0,0c0,0,2.3,0.9,2.9,3.1c0.4,1.5-0.4,3.8-0.4,3.8c-0.5,0.2-0.9,0.5-1.3,0.7
		c-1.5,0.7-2.9,1.5-4.4,2.2H45c-0.2,0-0.5,0.1-0.7,0.1h-4.5c-0.9,0.1-1.6,0.4-2.5,0.6l-0.6-1l-1.6-2.4l0,0L35.6,94.9z M40.8,92
		L40.8,92v-0.2c0,0,0.1,0,0.2-0.1c0.4-0.2,0.8-0.4,1.2-0.7l0,0c0.1,0.1,0.1,0.4,0.2,0.6v0.8l0,0c-0.1,0.6-0.5,0.9-0.9,0.9h-0.2
		c0,0,0,0-0.1,0l0,0c0,0-0.1-0.2-0.2-0.3l0,0c0-0.2-0.1-0.5-0.1-0.8l0,0L40.8,92z M50.4,103.5l-0.8,0.2l-3.3,0.9l-1.9,0.5l-1,0.3
		c0-0.3-0.2-0.6-0.3-0.9c0.2,0,0.4-0.1,0.6-0.2c0.1,0,0.2,0,0.3,0l1.6-0.6c0.8-0.3,1.6-0.5,2.4-0.8c0.5-0.1,1-0.3,1.5-0.5
		c0.6-0.2,1.3-0.3,1.9,0c0.9,0.3,1.3,1.1,0.7,1.8s-1.7,1.7-3.3,1.3l1.8-1.1l-0.3-0.8l0,0L50.4,103.5z M42.1,105.4h-5.4
		c0-0.1,0-0.2,0-0.3c0,0,0-0.2,0.1-0.4l0,0c0-0.2,0-0.3,0.1-0.4c0,0,0-0.1,0.1-0.3c0,0,0,0,0-0.1c0,0,0,0,0-0.1l0,0
		c0-0.1,0-0.2,0.1-0.3l0,0c0,0,0.1-0.1,0.2-0.2l0,0c0.1-0.1,0.2-0.3,0.4-0.4c0,0,0,0,0.1,0h1.8c0,0,0.1,0,0.2,0.1l0,0h0.1l0,0
		c0,0,0,0,0.1,0c0,0,0,0,0.1,0c0,0,0,0,0.1,0c0,0,0.1,0,0.1,0.1c0,0,0,0,0.1,0.1l0,0v0.1l0,0c0,0,0,0.1,0,0.2c0,0,0,0.1,0.1,0.2v0.1
		l0,0c0,0.1,0,0.3,0.1,0.4l0,0v0.2l0,0v0.4h0.3L42.1,105.4z M57.2,118.1c-3.5,0.1-6.8-0.6-9.8-2l0,0c-0.9-0.4-1.6-0.9-2.4-1.3l0,0
		c-1.4-1-2.4-2.1-2.5-2.1c0.2,0,0.4,0.2,0.6,0.3c3.7,1.8,7.6,3,11.7,3.3c1,0,2,0,2.9,0h0.6l0.3,2c-0.5,0.1-1,0.1-1.4,0.1l0,0
		L57.2,118.1z M57.9,75c0,0-0.1,0-0.2,0l0,0c-4.5,2.2-9.8,7.2-10.1,7.5c1-1.2,2-2.5,3-3.8c0,0-3.2-0.1-7.8,2.1c0,0-0.2,0-0.3,0.1
		l0,0c0,0-0.1,0-0.2,0c-0.1,0-0.2,0.1-0.3,0.1s-0.2,0.1-0.4,0.1s-0.2,0-0.3,0.1c-0.1,0-0.2,0.1-0.4,0.2h-0.1c0,0-0.1,0-0.1,0.1
		c-0.4,0.2-0.8,0.5-1.2,0.8l0,0c-3.5,2.5-5.7,5.3-6,5.7l0,0c0-0.2,0.1-0.4,0.2-0.6l0,0c0.8-1.9,2.8-6.7,2.3-7.9h0.3
		c0-0.1,0-0.1,0-0.1s0.1,0,0.2-0.1l0,0c0,0,0.1,0,0.2-0.1c0.2-0.1,0.4-0.2,0.7-0.4c0,0,0.2,0,0.3-0.1h0.1c0,0,0.1,0,0.2,0
		c0.1,0,0.2,0,0.4-0.1h0.4c0.1,0,0.3-0.1,0.4-0.1h0.2c0,0,0.1,0,0.3,0s0.1,0,0.3,0s0.1,0,0.3,0c0.1,0,0.3,0,0.4-0.1c0,0,0.2,0,0.3,0
		h0.1c0.1,0,0.4,0,0.6-0.1c0.1,0,0.2,0,0.4,0h0.3c0.1,0,0.3,0,0.4,0c0.2,0,0.4,0,0.6-0.1h4.3c1.1,0,2.1,0.1,3.2,0.4
		c0.1,0,0.2-0.1,0.4-0.3c1.8-1.7,3.8-3.1,6.1-4c0.4-0.1,0.7-0.2,1-0.4c0.5-0.2,0.9,0,1.3,0.3c1,0.8,1.7,1.8,2.3,2.9
		c0.9,1.8,1.3,3.8,1.6,5.9c0.2,1.9,0.2,3.8,0,5.7v0.4c-0.2-2.9-1.1-5.7-1.8-7.3l0,0c0-0.1,0-0.3,0-0.4s-0.1-0.4-0.2-0.5l0,0v-0.3
		l0,0v-0.3l0,0c-0.4-0.9-0.9-1.6-1.3-2.4c-0.2-0.4-0.5-0.7-0.9-1c-0.6-0.6-0.9-0.8-1.2-0.6l0,0v-0.8L57.9,75z M71.8,119.4
		L71.8,119.4c0.2,2,0.6,3.8,1.2,5.7c0.4,1.5,0.7,2.5,0.7,2.6c-2.8-4.8-3.5-12.4-3.6-13.3l0,0v-2.6c0-2.8,0.4-5.5,1.3-8.2
		c0.1-0.4,0.3-0.8,0.4-1.1c0-0.1,0.1-0.4,0.2-0.6l0,0c0-0.1,0.1-0.3,0.2-0.4l0,0c0,0,0-0.1,0-0.2l0,0c0,0,0-0.1,0.1-0.3
		c0,0,0,0,0-0.1c0,0,0-0.2,0.1-0.3l0,0c0,0,0-0.1,0-0.2s0.1-0.3,0.3-0.4c0-0.1,0.2-0.3,0.3-0.4s0.1-0.3,0.3-0.4
		c0-0.1,0.1-0.2,0.2-0.4l0,0c0-0.1,0.1-0.2,0.3-0.4c0-0.1,0.2-0.2,0.3-0.4l0,0c0.2-0.3,0.4-0.5,0.7-0.8L75,97l0.3-0.3l0.3-0.3
		l0.2-0.2c0,0,0.2-0.1,0.3-0.2c-0.2,0-0.4,0.1-0.6,0.2c-0.2,0-0.4,0.2-0.6,0.3c0,0-0.1,0-0.2,0c-0.2,0-0.4,0.2-0.6,0.3
		c0,0,0,0-0.1,0l0,0c0,0-0.1,0-0.2,0.1l0,0c0,0-0.2,0.1-0.3,0.2c0,0-0.1,0.1-0.2,0.2l0,0c0,0-0.1,0-0.2,0.1H73
		c0,0.2-0.1,0.3-0.3,0.4L72.5,98l0,0c0,0,0,0,0,0.1l0,0c0,0,0,0.1-0.1,0.2c0,0,0,0,0,0.1h-0.1c0,0.1,0,0.2-0.1,0.3l0,0
		c0,0,0,0.1-0.1,0.2c0,0-0.1,0.2-0.2,0.4c0,0.1-0.1,0.2-0.2,0.4c-1.5,2.5-2.4,5.3-3,8c-0.6,2.5-0.8,5-0.9,7.5l0,0c0,0.9,0,1.9,0,2.8
		v0.5c0.1,1.8,0.4,3.7,0.9,5.5l0,0c0.2,0.9,0.4,1.3,0.4,1.4c-1.6-2.8-2.2-7.2-2.3-8.2l0,0V117c-0.2-2.1-0.3-4.3-0.1-6.5
		c0.1-1.7,0.4-3.3,0.7-5c0.6-2.9,1.9-5.7,3.5-8.2l0.3-0.4l1.1-1.6c-0.1,0.1-0.3,0.3-0.4,0.4c0,0-0.1,0.1-0.3,0.2
		c-0.1,0.1-0.3,0.2-0.4,0.4s-0.2,0.1-0.3,0.3c-0.1,0-0.2,0.2-0.4,0.3c-2.8,2.7-4.5,6-5.6,9.7c-1.1,4.3-1.4,8.5-0.7,12.7l0,0
		c0,0.5,0.1,0.9,0.3,1.4l0,0c0,0,0,0,0,0l0,0c0.4,1.8,1,3.6,1.8,5.5l0,0c0.3,0.9,0.6,1.4,0.6,1.5c-2.2-2.3-3.3-7.4-3.6-8.7l0,0
		c-1-5.3-0.7-10.4,1-15.5c0.6-1.6,1.2-3.3,2.2-4.7c0.6-0.9,1.3-1.6,2-2.4c0.1-0.1,0.2-0.2,0.3-0.4c-0.2,0.1-0.4,0.3-0.6,0.4
		c-2.2,1.6-3.7,3.6-4.8,6c-1.3,2.8-1.9,5.7-2.1,8.7c-0.1,2.2,0,4.4,0.3,6.5c0.4,3.8,2.9,9.9,3,10.1c-2.4-2.5-3.8-6.6-4.1-7.7l0,0
		c0-0.2,0-0.1,0-0.1l0,0c-0.4-1.6-0.6-3.1-0.8-4.8c-0.4-5.3,0.9-10.1,3.5-14.5c1.5-2.5,3.5-4.5,5.9-6.1c0.9-0.6,1.9-0.9,3-0.9h1.8
		c0.6,0,1.3,0,2,0h2.7c0.4,0,0.7,0,1.1,0h1.8c0.1,0,0.3,0,0.4,0h0.4c0.1,0,0.3,0,0.4,0.1c0,0,0.2,0,0.3,0c0,0,0.2,0,0.3,0.1
		c0.1,0,0.2,0,0.4,0.1c0,0,0.1,0,0.2,0c0,0,0.1,0,0.3,0.1l0,0c0,0,0,0,0.1,0l0,0c0,0,0.2,0,0.3,0.1c0,0,0.2,0.1,0.3,0.2
		c0,0,0.1,0,0.1,0.1c0,0,0.1,0,0.2,0.1c0.3,0.1,0.5,0.4,0.8,0.6h0.1c0,0.1,0.1,0.3,0.2,0.4s0.2,0.2,0.4,0.3c0,0,0,0,0,0.1
		c-0.3-0.1-0.6-0.4-0.9-0.5S85.2,95.1,85,95c-0.1,0-0.3,0-0.4-0.1s-0.3,0-0.4-0.1h-2.9c0,0-0.2,0-0.3,0s-0.2,0-0.3,0
		c0,0-0.1,0-0.2,0c0,0-0.1,0-0.2,0c0,0-0.2,0-0.3,0.1h-0.1c-0.1,0-0.3,0.1-0.4,0.2c-1.1,0.6-2.1,1.5-2.9,2.6
		c-1.3,1.6-2.1,3.4-2.8,5.3c-1.1,3.1-1.5,6.2-1.6,9.4c-0.1,1.6,0,3.5,0.3,5.3l0,0l-0.5,0.5L71.8,119.4z M87.3,121.8
		c-0.4,0.9-0.8,1.8-1.3,2.6c0,0.1-0.2,0.3-0.3,0.4s-0.2,0.3-0.3,0.4c-0.1,0.2-0.4,0.4-0.6,0.6c-0.1,0.1-0.3,0.3-0.5,0.4
		c-0.1,0.1-0.4,0.3-0.5,0.4c-1.2,0.9-2.6,0.8-3.8,0c0,0-0.1-0.1-0.2-0.2c-0.6-0.4-0.9-1-1.3-1.6v-0.3c-0.2-0.2-0.4-0.4-0.4-0.6l0,0
		l-0.2-0.4c0-0.1-0.1-0.3-0.2-0.4c-0.4-1.1-0.7-2.3-0.9-3.5c0-0.4,0-0.7-0.1-1.1c-0.3-2.8-0.3-5.5,0.3-8.3c0.3-1.7,0.8-3.3,1.5-4.9
		c0.4-1.1,1-2.1,1.8-3c0.1-0.2,0.4-0.4,0.6-0.6c0.4-0.3,0.6-0.6,1.1-0.9c0,0,0.2-0.1,0.3-0.1s0.2,0,0.3-0.1s0.2,0,0.3,0h0.3l0,0h1
		c0.1,0,0.3,0,0.4,0.1h0.1c0,0,0.1,0,0.2,0s0.3,0.1,0.4,0.2c0,0,0,0,0.1,0c0,0,0.2,0.1,0.3,0.2l0.2,0.2l0.2,0.2
		c0.4,0.4,0.8,1,1.1,1.6c0.7,1.3,1.1,2.7,1.4,4.1c0.9,5,0.6,9.9-1.3,14.5l0,0V121.8z M89,84.2L89,84.2v0.2l0,0c0,0.1,0,0.3,0,0.4
		c0,0-0.1,0.2-0.2,0.3l0,0l0,0c0,0.1-0.1,0.2-0.2,0.3l0,0c0,0,0,0-0.1,0.1h-1.3c-0.8,0-1.6-0.3-2.3-0.9h0.8c1-0.3,1.2-1.1,0.4-1.8
		H86c0-0.1,0-0.1,0-0.1h-0.1c0,0,0,0-0.1,0c0,0-0.1,0-0.2-0.1c-1.9-1.1-4-1.6-6.2-1.5h-0.5c0,0.1,0,0.2,0,0.3c0,0,0,0.1,0,0.3
		c0,0.1,0,0.3-0.1,0.4c0,0,0,0.1,0,0.2s0,0.1,0,0.2l0,0c0,0,0,0,0,0.1l0,0c0,0,0,0.2-0.1,0.3c0,0,0,0.1-0.1,0.1l0,0l0,0h-0.1
		c0,0.1,0,0.2-0.1,0.3l0,0c0,0,0,0-0.1,0.1l0,0c0,0,0,0-0.1,0H78c0,0,0,0-0.1,0s-0.1,0-0.2,0c0,0-0.1,0-0.3,0
		c-1.7,0.5-3.3,0.1-4.8-0.9c0.4-0.1,0.6-0.2,0.7-0.3c0.6-0.2,1.1-0.5,1.6-0.8l0,0c0,0,0,0,0-0.1l0,0v-0.2l0,0c0-0.5-0.4-0.6-0.7-0.6
		c-1.2-0.3-2.3,0-3.5,0.2h-0.4c-0.1,0.1-0.3,0.1-0.4,0.1h-0.7c-0.1,0-0.3,0.1-0.5,0.2c0,0-0.1,0-0.2,0c-0.4,0.2-0.8,0.4-1.1,0.7
		c-0.3-1.3-0.4-2.4-0.6-3.7c0.3-0.1,0.5-0.2,0.8-0.3c2.1-0.7,4.1-1.1,6.3-1.2c4.9-0.2,9.7,0.9,14.1,2.8c0.4,0.1,0.7,0.4,1.1,0.6
		c0,0,0.2,0.1,0.3,0.1s0.2,0.1,0.3,0.1l0,0c0,0,0.1,0,0.2,0.1c0.4,0.3,0.9,0.6,1.3,0.9c1.3,0.9,2.6,1.7,3.8,2.6s1.3,0.9,1.9,1.3
		c0.1,0,0.3,0.2,0.4,0.3c0.3,0.1,0.5,0.3,0.8,0.4s0.2,0.1,0.4,0.2c0.1,0,0.3,0.1,0.4,0.3l0.4,0.2l0.4,0.2c0.3,0.1,0.5,0.3,0.8,0.4
		c0,0,0.1,0,0.2,0s0,0,0.1,0s0.4,0.1,0.6,0.2l0,0c0,0,0.1,0,0.2,0s0.4,0.1,0.5,0.2c0.1,0,0.4,0.1,0.5,0.2c1.1,0.4,2.2,0.7,3.3,0.9
		h1.2c0.4,0,0.9-0.1,1.5-0.4h0.1c0,0,0.1,0,0.3-0.1l0,0c0,0,0,0,0.1,0c0,0,0.1-0.1,0.2-0.1l0,0c0,0.2,0,0.3-0.1,0.4l0,0
		c0,0.1,0,0.2,0,0.3c0,0,0,0-0.1,0.1c0,0-0.2,0.1-0.3,0.2c0,0-0.1,0-0.2,0.1c-0.1,0-0.3,0.1-0.4,0.2h-3.3c-0.2,0-0.4,0-0.7-0.1H104
		c-0.1,0-0.4,0-0.5-0.1s-0.4,0-0.6-0.1c-0.1,0-0.4,0-0.6-0.1c-0.1,0-0.3,0-0.4-0.1l0,0c0,0-0.1,0-0.2,0l0,0c0,0-0.1,0-0.3,0H101
		c-0.1-0.1-0.4-0.3-0.5-0.4c-0.2,0-0.4-0.1-0.6-0.2c-2.8-1.1-5.5-2.6-8-4.4c0,0-0.1,0-0.2-0.1c0,0,0,0-0.1,0h-0.1c0,0,0,0-0.1,0l0,0
		L90.3,84L89,84.2z M108.6,110.6L108.6,110.6v0.5c-0.2,1.1-0.5,2.1-0.9,3.2c-0.3,0.9-0.8,1.6-1.3,2.4c-0.1,0.3-0.4,0.5-0.6,0.7
		s-0.4,0.3-0.5,0.4c0,0-0.1,0-0.1,0.1c-0.2,0.1-0.4,0.3-0.6,0.4s-0.4,0.1-0.6,0.1h-0.1c-0.4,0-0.7,0-1-0.2c0,0-0.2,0-0.3-0.1
		c-0.1,0-0.3-0.2-0.4-0.4l0,0l0,0c-0.4-0.5-0.8-1-1.1-1.5c-0.2-0.4-0.4-0.7-0.5-1.1c-0.5-1.2-0.8-2.6-0.9-3.8
		c-0.1-0.9-0.1-1.9-0.2-2.4c0-1.1,0-2.1,0.2-3.1c0-0.4,0-0.7,0.1-1.1l0,0c0.1-0.9,0.4-1.8,0.6-2.7c0-0.1,0-0.3,0.1-0.5
		c0.1-0.3,0.2-0.6,0.4-0.9c0.4-0.9,0.9-1.8,1.5-2.5c0,0,0,0,0.1-0.1l0,0c0,0,0,0,0.1-0.1c0.2-0.2,0.4-0.4,0.6-0.5c0,0,0.1,0,0.3-0.1
		s0.4-0.1,0.5-0.2c0.4,0,0.6-0.1,1,0c0.1,0,0.3,0,0.4,0s0.3,0,0.4,0.1c0,0,0.1,0,0.2,0.1c0.2,0.1,0.4,0.3,0.6,0.4
		c0.2,0.2,0.4,0.4,0.6,0.6c0.9,1.2,1.3,2.6,1.6,4c0.2,1.1,0.4,2.3,0.4,3.4c0,1.6,0,3.3-0.3,4.9h-0.4L108.6,110.6z"/>
	<path class="st3" d="M44.4,47c-2,1.1-4,2.3-6.1,3.5l34.9-2.2L44.4,47C44.4,47,44.4,47,44.4,47z M80.2,43.3L61,41.7l14.8-0.9
		c-2.8-1.6-5.7-3.3-8.4-4.8c-0.4-0.2-0.8-0.4-1.1-0.5c-0.3,0-0.6-0.1-0.9-0.1c-0.6,0-1.2,0.2-1.9,0.6c-2.8,1.6-6.1,3.4-9.3,5.3
		c-1.6,0.9-3.3,1.9-5,2.9l31.2-0.6c0,0-0.2-0.1-0.3-0.1l0,0L80.2,43.3z M91.2,49.7l-8.5,1.4l11.4,0.2C93.2,50.7,92.2,50.2,91.2,49.7
		L91.2,49.7L91.2,49.7z M42.1,105.2L42.1,105.2V105l0,0c0-0.3,0-0.4-0.1-0.4l0,0v-0.2c-0.1,0-0.1-0.1-0.2-0.2c0,0,0,0,0-0.1l0,0l0,0
		l0,0c0,0,0-0.1-0.1-0.2c0,0-0.1,0-0.1-0.1h-0.1c0,0,0,0-0.1-0.1c0,0,0,0-0.1,0l0,0h-0.1l0,0c0,0-0.1,0-0.2-0.1h-1.8c0,0,0,0-0.1,0
		s-0.2,0.1-0.4,0.3l0,0c0,0,0,0,0,0.1c0,0.1,0,0-0.1,0.1l0,0c0,0,0,0-0.1,0.1l0,0c0,0.1,0,0.2,0,0.3c0,0,0,0,0,0.1
		c0,0,0,0.1-0.1,0.3c0,0,0,0.1-0.1,0.2l0,0c0,0.3,0,0.4-0.1,0.5c0,0,0,0.1,0,0.2h1c1.3,0,2.5,0,3.7,0h0.7v-0.2h-0.3L42.1,105.2z
		 M39.4,82.7c0.4-0.3,0.8-0.6,1.2-0.8c0,0,0.1,0,0.1-0.1h0.1c0.1,0,0.2-0.1,0.4-0.2l0,0c-0.6,0.4-1.3,0.8-1.9,1.2l0,0L39.4,82.7z
		 M35.5,104.7L35.5,104.7L35.5,104.7z M26.6,92.3v1.4V92.3z M26.5,94.4L26.5,94.4v-0.3V94.4L26.5,94.4z M26.2,92.1v1V92.1z
		 M26.1,94.4L26.1,94.4C26.1,94.3,26.1,94.4,26.1,94.4L26.1,94.4z M26.1,90v0.2V90z M26,89.8L26,89.8v0.4V89.8L26,89.8L26,89.8z
		 M113.7,65.1c-0.1-1.7-0.9-3-2.4-3.8c-3.5-2-7.2-4.1-11-6.4l-55.9,2.9l24.3-3.4l-31.9-2.9c-5.1,3-10.7,6.2-16.9,9.8
		c-0.3,0.1-0.6,0.4-0.9,0.6c-1.2,1-1.7,2.2-1.7,3.9v40H22c-0.9-0.8-1.6-1.9-1.5-3.1c0-0.1-0.1-0.2-0.2-0.4c0,0-0.1-0.2-0.2-0.3
		c-0.9-1.5-0.9-3.3,0.3-4.6c0.5-0.6,0.9-1,1.6-1.2V96l-2.6-0.4l2.6-0.4c0-0.4,0.4-0.9,0.9-1.3l0,0l0.4-1.1h0.4l-0.3-3.3v-0.3
		c0.1-0.4,0.3-0.7,0.4-1.1c0-0.1,0-0.3,0.1-0.4l0.2-0.6L18,86.6l6.8-1c0-0.2,0.1-0.4,0.3-0.5c-0.7-2.3-0.9-4.3-0.4-6.1
		c0-0.2,0.1-0.5,0.1-0.8s0-0.4,0.1-0.6l-6.1-0.9l6.2-0.2v-1.1c-0.1,0,0.5-0.6,0.5-0.6c0.4-0.4,1-0.5,1.8-0.5s2.1,0.2,3.6,0.7h0.4
		c0.7-0.4,1.3-0.6,2.1-0.6s1.8,0.2,2.4,0.5c0.7,0.2,1.3,0.6,2,1.1l1.3-2.4l3.6-1.6l1.5,1.3c0.5-0.9,0.9-1.7,1.5-2.5L20,68.7
		l28.8-1.8c1.7-1.8,3.6-3.3,5.7-4.7l-27.8-1l33.7-1.8c3.1-1.1,6.3-1.6,9.7-1.6s3.8,0.1,5.5,0.5l0,0c0.8,0,26.8,2.3,26.6,2.5
		c0,0-9.9,0.7-17.2,1.1c2.7,1.6,5.1,3.6,7.2,6l21.1,1.6l-18.7,1.6c0.9,1.3,1.7,2.8,2.3,4.4l15.7,1.3l-14.7,1.3
		c0.3,0.9,0.6,1.8,0.7,2.7l13.3,0.5L101.6,83l1.1,0.6l0.3,1.5l0.4-0.3l3.3,1.3v0.6h0.6c0.4,0,0.8,0,1.1,0.3c1,0.5,1.6,1.6,1.3,2.7
		l0,0c0,0.4,0,0.7-0.2,1.1c-0.4,1.2-1,2.2-1.8,3c1.2,1.2,2.1,2.7,2.7,4.8c0.6,2,1,4.2,1.1,6.5v0.8h1.9V68.4l0,0v-3.1l0,0V65
		L113.7,65.1z M94.8,103.2L94.8,103.2z M107.1,89.3c0,0-0.1,0-0.3,0.1C106.9,89.4,107,89.4,107.1,89.3L107.1,89.3L107.1,89.3z
		 M104.6,89.9L104.6,89.9h0.3h-0.2H104.6z M104.1,89.9L104.1,89.9L104.1,89.9z M103.3,90.5h0.6H103.3z M102,90.3
		c0.2,0,0.5,0,0.7,0.1C102.5,90.4,102.3,90.4,102,90.3z M104.7,96.8h-1C104.1,96.8,104.3,96.7,104.7,96.8c0.1,0,0.3,0,0.4,0
		C105,96.8,104.8,96.8,104.7,96.8L104.7,96.8z"/>
	<path class="st2" d="M120.6,90.6V64.1c0-0.6,0-1.3-0.2-2c-0.7-3-2.6-5.2-5.2-6.7c-4.9-2.8-9.9-5.7-14.8-8.5
		c-7.7-4.4-15.3-8.9-22.9-13.3c-2.6-1.5-5.2-3-7.7-4.4c-0.4-0.2-0.8-0.4-1.2-0.5c-2.3-0.7-4.5-0.6-6.6,0.4c-1.3,0.6-2.7,1.3-4,2.1
		C44.4,39,30.9,46.8,17.4,54.6c-1.1,0.6-2.1,1.2-3.1,2c-2.5,1.9-3.8,4.5-3.8,7.7v52.8c0,0.6,0,1.3,0.2,1.8c0.7,3,2.5,5.2,5.1,6.7
		c3.6,2.1,7.2,4.2,10.9,6.3c10.9,6.3,21.9,12.7,32.9,19c0.9,0.6,1.9,1,2.9,1.3c2.6,0.9,5,0.9,7.5-0.5c1.3-0.7,2.7-1.4,4-2.2
		c13.4-7.7,26.8-15.5,40.2-23.2c0.9-0.5,1.8-1.1,2.6-1.7c2.5-1.9,3.9-4.4,3.9-7.6V90.5l0,0L120.6,90.6z M116.9,115.7
		c0,3.1-1.3,5.5-4,7.1c-12.8,7.4-25.7,14.8-38.5,22.1c-1.7,1-3.5,1.9-5.2,3c-2.5,1.6-4.9,1.5-7.4,0c-8.7-5-17.2-9.9-25.9-14.9
		c-5.9-3.4-11.8-6.8-17.7-10.2c-2.8-1.6-4.1-4-4.1-7.2V65.9c0-2.6,0.9-4.7,2.8-6.3c0.4-0.4,0.9-0.6,1.3-0.9c4.3-2.5,8.7-5,13-7.5
		c7.2-4.2,14.5-8.4,21.7-12.5c3.1-1.8,6.2-3.5,9.4-5.3c1.7-0.9,3.5-1.3,5.3-0.7c0.6,0.2,1.1,0.5,1.6,0.8c4.4,2.5,8.8,5,13.2,7.6l0,0
		c2.9,1.7,5.9,3.4,8.8,5.1c7.2,4.2,14.5,8.4,21.7,12.6c2.4,1.4,3.8,3.5,4,6.3c0,1.1,0,2.1,0,3.2v47.6l0,0L116.9,115.7z"/>
	<path class="st1" d="M108.8,105.7c0-1.1-0.2-2.3-0.4-3.4c-0.3-1.4-0.8-2.8-1.6-4c-0.2-0.3-0.4-0.5-0.6-0.6
		c-0.1-0.1-0.4-0.3-0.6-0.4c0,0-0.1,0-0.2-0.1c-0.1,0-0.3-0.1-0.4-0.1s-0.3,0-0.4,0h-1c-0.1,0-0.4,0.1-0.5,0.2c0,0-0.1,0-0.3,0.1
		c-0.2,0.1-0.4,0.3-0.6,0.5c0,0,0,0-0.1,0.1l0,0c0,0,0,0.1-0.1,0.2c-0.6,0.7-1.1,1.6-1.5,2.5c-0.1,0.3-0.3,0.6-0.4,0.9
		c0,0.1,0,0.3-0.1,0.5c-0.3,0.9-0.5,1.8-0.6,2.7l0,0c0,0.4,0,0.7-0.1,1.1c-0.1,1-0.1,2.1-0.2,3.1c0,0.5,0,1.5,0.2,2.4
		c0.1,1.3,0.4,2.6,0.9,3.8c0.1,0.4,0.4,0.7,0.5,1.1c0.3,0.5,0.6,1,1.1,1.4l0,0v0.1c0.1,0.1,0.3,0.3,0.4,0.4c0,0,0.2,0.1,0.3,0.1
		c0.4,0.1,0.7,0.2,1,0.2h0.1c0.1,0,0.4,0,0.6-0.1c0.2,0,0.4-0.2,0.6-0.4c0,0,0.1,0,0.1-0.1c0.1-0.1,0.4-0.3,0.5-0.4s0.4-0.4,0.6-0.7
		c0.5-0.8,0.9-1.6,1.3-2.4c0.4-1.1,0.7-2.1,0.9-3.2v-0.4l0,0c0.3-1.7,0.4-3.3,0.3-5L108.8,105.7L108.8,105.7z M107.4,109.9
		c-0.1,1.1-0.4,2.1-0.8,3.1c-0.3,0.7-0.7,1.3-1.2,1.9c-0.9,0.9-2.2,0.9-3.1,0c-0.8-0.9-1.2-2-1.4-3.1c-0.4-2.1-0.5-4.1-0.1-6.1
		c0.1-0.9,0.4-1.7,0.6-2.5s0.6-1.5,1.2-2.1c1.1-1.1,2.3-1.1,3.3,0.1c0.8,1,1.1,2.1,1.3,3.3c0,0.1,0,0.3,0,0.4c0,0.2,0,0.4,0,0.6
		c0.1,1.4,0.1,2.8,0,4.3l0,0L107.4,109.9z"/>
	<path class="st1" d="M105.9,110.5c-0.2,0.6-0.6,1.1-1.3,1c-0.7,0-1-0.6-1.2-1.1c0-0.3-0.1-0.6-0.2-0.9c-0.2-1-0.2-2.1,0-3.1
		c0-0.3,0.1-0.5,0.3-0.7l0,0c0.3-0.5,0.6-1,1.3-1s0.9,0.5,1.1,1l0,0C106.5,107.4,106.4,109,105.9,110.5L105.9,110.5L105.9,110.5z"/>
	<path class="st2" d="M105.4,105.3L105.4,105.3c-0.2-0.6-0.6-1.1-1.1-1.1s-1,0.5-1.3,1l0,0c-0.1,0.2-0.2,0.5-0.3,0.7
		c-0.3,1-0.3,2.1,0,3.1c0,0.3,0.1,0.6,0.2,0.9c0.1,0.6,0.5,1.1,1.2,1.1s1.1-0.5,1.3-1C106.1,108.5,106.2,106.9,105.4,105.3
		L105.4,105.3L105.4,105.3z"/>
	<path class="st1" d="M84.7,117.4c-0.3,0.7-0.8,1.3-1.7,1.3s-1.3-0.7-1.6-1.5c-0.1-0.4-0.2-0.7-0.3-1.1c-0.3-1.3-0.3-2.8,0.1-4
		c0-0.4,0.2-0.6,0.4-1l0,0c0.4-0.7,0.8-1.3,1.7-1.3c0.8,0,1.3,0.6,1.5,1.3l0,0C85.7,113.3,85.5,115.4,84.7,117.4
		C84.7,117.4,84.7,117.4,84.7,117.4z"/>
	<path class="st2" d="M84,110.7L84,110.7c-0.4-0.8-0.8-1.4-1.6-1.4s-1.3,0.6-1.7,1.3l0,0c-0.1,0.3-0.3,0.6-0.4,1
		c-0.4,1.3-0.4,2.7-0.1,4c0,0.4,0.1,0.8,0.3,1.1c0.2,0.7,0.6,1.4,1.6,1.5c0.9,0,1.3-0.6,1.7-1.3C84.7,114.9,84.8,112.9,84,110.7
		L84,110.7z"/>
	<path class="st1" d="M88.5,107.2c-0.3-1.4-0.7-2.8-1.4-4.1c-0.3-0.6-0.6-1.1-1.1-1.6l-0.2-0.2l-0.2-0.2c0,0-0.2-0.1-0.3-0.2
		c0,0,0,0-0.1,0s-0.3-0.1-0.4-0.2c0,0-0.1,0-0.2,0h-0.1c-0.1,0-0.3,0-0.4-0.1h-1l0,0h-0.3c0,0-0.2,0-0.3,0c0,0-0.2,0-0.3,0.1
		c0,0-0.2,0-0.3,0.1c-0.4,0.3-0.7,0.6-1.1,0.9c-0.2,0.2-0.4,0.4-0.6,0.6c-0.8,0.9-1.3,1.9-1.8,3c-0.6,1.6-1.1,3.2-1.5,4.9
		c-0.5,2.8-0.6,5.5-0.3,8.3c0,0.4,0,0.7,0.1,1.1c0.1,1.2,0.4,2.3,0.9,3.5c0,0.1,0.1,0.3,0.2,0.4l0.2,0.4l0,0c0,0.2,0.2,0.4,0.3,0.6
		v0.3c0.5,0.6,0.9,1.1,1.4,1.6c0,0,0.1,0.1,0.2,0.2c1.2,0.9,2.6,0.9,3.8,0c0.1-0.1,0.4-0.3,0.5-0.4s0.4-0.3,0.5-0.4l0.6-0.6
		c0-0.1,0.2-0.3,0.3-0.4s0.2-0.3,0.3-0.4c0.6-0.8,1-1.7,1.3-2.6c1.8-4.8,2.2-9.6,1.3-14.5l0,0V107.2z M87.6,112.8
		c0,2.1-0.4,4.2-1.1,6.2c-0.4,1.1-1,2.1-1.8,2.9c-1.8,1.8-3.8,1.6-5.1-0.6c-0.7-1.1-1.1-2.3-1.3-3.5c-0.4-3-0.2-5.9,0.9-8.7
		c0.4-1,0.8-1.9,1.5-2.7c0.4-0.4,0.9-0.9,1.3-1.2c1-0.6,2.3-0.6,3.2,0.1c0.6,0.5,1.1,1.1,1.4,1.8c0.7,1.6,1,3.3,1,5v0.5l0,0V112.8z"
		/>
	<path class="st1" d="M65.7,79.8c2.1-0.7,4.1-1.1,6.3-1.2c4.9-0.2,9.7,0.9,14.1,2.8c0.4,0.1,0.7,0.4,1.1,0.6c0,0,0.2,0.1,0.3,0.1
		s0.2,0.1,0.3,0.1l0,0c0,0,0.1,0,0.2,0.1c0.4,0.3,0.9,0.6,1.3,0.9c1.3,0.9,2.6,1.7,3.8,2.6s1.3,0.9,1.9,1.3c0.1,0,0.3,0.2,0.4,0.3
		c0.3,0.1,0.5,0.3,0.8,0.4c0.1,0,0.2,0.1,0.4,0.2c0.1,0,0.3,0.1,0.4,0.3l0.4,0.2l0.4,0.2c0.3,0.1,0.5,0.3,0.8,0.4c0,0,0.1,0,0.2,0
		s0.2,0,0.4,0.1c0,0,0.1,0,0.3,0l0,0c0,0,0.1,0,0.2,0l0,0c0.1,0,0.3,0,0.4,0.1c0.2,0,0.4,0.1,0.6,0.1s0.4,0,0.6,0.1s0.4,0,0.5,0.1
		h0.2c0.2,0,0.5,0,0.7,0.1h3.3c0.1,0,0.3-0.1,0.4-0.2c0,0,0.1,0,0.2-0.1c0.1,0,0.2-0.1,0.3-0.2c0,0,0,0,0.1-0.1c0,0,0,0,0-0.1l0,0
		c0-0.1,0.1-0.3,0.1-0.4l0,0c0,0-0.1,0.1-0.2,0.1c0,0,0,0-0.1,0l0,0c0,0-0.1,0-0.3,0.1h-0.1c-0.5,0.2-1.1,0.3-1.5,0.4h-1.2
		c-1.1,0-2.3-0.4-3.3-0.9c-0.1,0-0.4-0.1-0.5-0.2c-0.1,0-0.4-0.1-0.5-0.2c0,0-0.1,0-0.2,0l0,0c-0.2,0-0.4-0.1-0.6-0.2h-0.1
		c0,0-0.1,0-0.2,0c-0.3-0.1-0.5-0.3-0.8-0.4l-0.4-0.2l-0.4-0.2c-0.1,0-0.3-0.1-0.4-0.3c-0.1,0-0.2-0.1-0.4-0.2
		c-0.3-0.1-0.5-0.3-0.8-0.4c-0.1,0-0.3-0.1-0.4-0.3c-0.6-0.4-1.3-0.8-1.9-1.3c-1.3-0.9-2.6-1.7-3.8-2.6c-0.4-0.3-0.9-0.6-1.3-0.9
		c0,0-0.1,0-0.2-0.1l0,0c0,0-0.2-0.1-0.3-0.1s-0.2-0.1-0.3-0.1c-0.4-0.2-0.7-0.4-1.1-0.6c-4.5-2.1-9.2-3.1-14.1-2.8
		c-2.1,0-4.3,0.4-6.3,1.2c-0.2,0-0.5,0.2-0.8,0.3c0,0.4,0,0.7,0.1,1.1c0.2,0,0.4-0.1,0.6-0.2h0.4V79.8z"/>
</g>
<g>
	<g>
		<g>
			<g>
				<g>
					<path class="st4" d="M165.7,48.2l26.1,62.1h-12.7l-6.7-16.1h-22l-6.9,16.1h-12.7l25.9-62.1L165.7,48.2L165.7,48.2z M161.2,64.2
						L154.6,83h13.3L161.2,64.2L161.2,64.2z"/>
					<path class="st4" d="M209.1,63.7c4.2,0,8.3-0.3,12.3,1.7c4,1.9,6.6,6.5,6.6,11.2s-1.2,6.1-3.4,8.1c3.8,2.1,6.3,6.3,6.3,10.9
						s-2.4,8.8-6.1,11.5c-4.1,2.9-9.2,3.1-13.8,3.2h-14V63.7h12.2L209.1,63.7z M212.8,73.5h-4.7v7.4h4.7c2.2,0,4-1.5,4-3.7
						S215.3,73.5,212.8,73.5z M214.3,90.8h-6.2v9.7h6.1c3.2,0,5.4-1.6,5.4-4.8s-2-4.9-5.2-4.9L214.3,90.8z"/>
					<path class="st4" d="M274.2,110.3V104c-3.5,4.8-10.1,7.8-16,7.8s-13.1-3-17.1-7.8c-3.7-4.5-5.8-10.5-5.8-17s1.7-11.9,6-16.7
						c4.7-5.5,10.5-8.1,17.3-8.1c6.8,0,11.9,2.9,15.6,8.1v-6.6h10.3v46.6H274.2z M246.4,87.4c0,7.6,6.2,13.5,13.8,13.4
						c8.1,0,13.6-6,13.6-14s-5.5-13.9-13.4-13.8C252.2,73,246.4,79.1,246.4,87.4L246.4,87.4z"/>
					<path class="st4" d="M303.9,63.7v17.9h17.3V63.7h11.2v46.6h-11.2V91.6h-17.3v18.7h-11.2V63.7L303.9,63.7L303.9,63.7z"/>
				</g>
			</g>
		</g>
		<g>
			<g>
				<g>
					<path class="st2" d="M354.3,48.2v26.9l19.3-26.9h13.8L364,78.7l23.4,31.6h-13.8l-19.3-27.2v27.2h-11.5V48.2L354.3,48.2
						L354.3,48.2z"/>
					<path class="st2" d="M414.7,111.8c-13.4,0-24.6-11.2-24.6-24.7s11.2-24.9,25.1-24.9s24.4,11.3,24.4,24.9
						S428.4,111.8,414.7,111.8z M401.2,87.1c0,7.5,5.8,13.8,13.4,13.8s13.7-6,13.7-13.8s-6-14-13.7-14s-7.2,1.8-9.6,4.3
						c-2.6,2.6-3.9,6-3.9,9.7H401.2z"/>
					<path class="st2" d="M456.1,63.7v6.1c3.6-5.1,8.8-7.6,15.1-7.6s12.1,2.2,16.9,7.6c4.3,4.5,6.5,10.7,6.5,17.2
						c0,13.2-9.8,24.8-23.4,24.8s-10.4-1.9-14.2-6.6v20.6h-11.2V63.7L456.1,63.7L456.1,63.7z M460.7,97.3c2.4,2.1,5.8,3.5,8.9,3.5
						c7.9,0,13.8-6.1,13.8-14S477.6,73,470,73s-13.7,6.1-13.7,13.9S457.6,94.5,460.7,97.3L460.7,97.3z"/>
				</g>
			</g>
		</g>
	</g>
	<g>
		<g>
			<g>
				<g>
					<path class="st2" d="M142.1,148.5v-1.8c-1,1.4-2.9,2.2-4.6,2.2s-3.8-0.9-4.9-2.2c-1.1-1.3-1.7-3-1.7-4.9s0.5-3.4,1.7-4.8
						c1.4-1.6,3-2.3,5-2.3s3.4,0.8,4.5,2.3v-1.9h2.9v13.4H142.1z M134.1,141.9c0,2.2,1.8,3.9,4,3.9c2.3,0,3.9-1.7,3.9-4
						s-1.6-4-3.9-4C135.7,137.8,134.1,139.6,134.1,141.9z"/>
					<path class="st2" d="M150.6,135.1v5.1h5v-5.1h3.2v13.4h-3.2v-5.4h-5v5.4h-3.2v-13.4H150.6z"/>
					<path class="st2" d="M160.1,135.1h9.1v2.8h-3v10.5H163v-10.5h-3L160.1,135.1L160.1,135.1z"/>
					<path class="st2" d="M182.9,148.5h-3.2v-8.7l-5.7,8.7h-3.4v-13.4h3.2v8.8l5.6-8.8h3.5L182.9,148.5L182.9,148.5z"/>
					<path class="st2" d="M188.7,135.1v6.3l4.3-6.3h3.8l-4.8,6.5l5.6,6.8h-4.3l-4.6-6.2v6.2h-3.2V135L188.7,135.1L188.7,135.1z"/>
					<path class="st2" d="M205.1,148.9c-3.9,0-7.1-3.2-7.1-7.1s3.2-7.1,7.2-7.1s7,3.3,7,7.1S209,148.9,205.1,148.9L205.1,148.9z
						 M201.2,141.8c0,2.1,1.7,4,3.9,4s3.9-1.7,3.9-4s-1.7-4-3.9-4s-2.1,0.5-2.7,1.2C201.7,139.7,201.3,140.7,201.2,141.8
						L201.2,141.8z"/>
					<path class="st2" d="M217,135.1v1.7c1-1.5,2.5-2.2,4.3-2.2s3.5,0.6,4.8,2.2c1.2,1.3,1.9,3.1,1.9,4.9c0,3.8-2.8,7.1-6.7,7.1
						s-3-0.6-4.1-1.9v5.9H214V135h2.9L217,135.1z M218.3,144.7c0.7,0.6,1.7,1,2.6,1c2.3,0,4-1.8,4-4s-1.7-4-3.8-4s-3.9,1.8-3.9,4
						s0.4,2.2,1.3,3H218.3z"/>
					<path class="st2" d="M232.9,135.1v1.7c1-1.5,2.5-2.2,4.3-2.2s3.5,0.6,4.8,2.2c1.2,1.3,1.9,3.1,1.9,4.9c0,3.8-2.8,7.1-6.7,7.1
						s-3-0.6-4.1-1.9v5.9h-3.2V135h2.9L232.9,135.1z M234.2,144.7c0.7,0.6,1.7,1,2.6,1c2.3,0,4-1.8,4-4s-1.7-4-3.8-4s-3.9,1.8-3.9,4
						s0.4,2.2,1.3,3H234.2z"/>
					<path class="st2" d="M252.4,148.9c-3.9,0-7.1-3.2-7.1-7.1s3.2-7.1,7.2-7.1c4,0,7,3.3,7,7.1S256.3,148.9,252.4,148.9z
						 M248.5,141.8c0,2.1,1.7,4,3.9,4s3.9-1.7,3.9-4s-1.7-4-3.9-4s-2.1,0.5-2.7,1.2C249,139.7,248.6,140.7,248.5,141.8L248.5,141.8z
						"/>
					<path class="st2" d="M265.3,148.9c-2.5,0-4.8-1.8-4.8-4.6h3.3c0,0.9,0.7,1.5,1.5,1.5s1.6-0.5,1.6-1.4s-0.8-1.5-1.6-1.5h-0.8
						v-2.8h0.8c0.7,0,1.2-0.4,1.2-1.1s-0.5-1.2-1.1-1.2s-1.2,0.4-1.2,1H261c0-2.3,2-4.1,4.3-4.1s4.4,1.7,4.4,4.1s-0.5,1.9-1.1,2.6
						c0.8,0.7,1.6,1.4,1.6,3.1c0,2.5-2.3,4.5-4.8,4.5L265.3,148.9z"/>
					<path class="st2" d="M284.3,148.5h-3.2v-8.7l-5.7,8.7H272v-13.4h3.2v8.8l5.6-8.8h3.5V148.5z"/>
					<path class="st2" d="M299.2,148.5H296v-8.7l-5.7,8.7h-3.4v-13.4h3.2v8.8l5.6-8.8h3.5V148.5z M293,131.4c0.7,0,1.3-0.3,1.6-1
						h2.4c-0.3,2.2-1.9,3.3-4,3.3s-3.7-1.1-4-3.3h2.4C291.7,131,292.3,131.4,293,131.4z"/>
					<path class="st2" d="M305,135.1v5.1h5v-5.1h3.2v13.4H310v-5.4h-5v5.4h-3.2v-13.4H305z"/>
					<path class="st2" d="M326.4,148.5v-1.8c-1,1.4-2.9,2.2-4.6,2.2s-3.8-0.9-4.9-2.2s-1.7-3-1.7-4.9s0.5-3.4,1.7-4.8
						c1.4-1.6,3-2.3,5-2.3s3.4,0.8,4.5,2.3v-1.9h2.9v13.4H326.4z M318.4,141.9c0,2.2,1.8,3.9,4,3.9c2.3,0,3.9-1.7,3.9-4
						s-1.6-4-3.9-4C320,137.8,318.4,139.6,318.4,141.9z"/>
					<path class="st2" d="M340.3,148.5h-3.2v-4.6l-3.1,4.6h-4l3.6-4.8c-2.1-0.8-3-2.3-3-4.2s0.7-2.6,1.7-3.4c1.1-0.9,2.4-0.9,3.7-1
						h4.2L340.3,148.5L340.3,148.5z M337,137.9h-1.3c-1.1,0-1.9,0.6-1.9,1.7s0.8,1.7,1.9,1.7h1.3V137.9L337,137.9z"/>
				</g>
			</g>
		</g>
		<g>
			<g>
				<g>
					<path class="st2" d="M363.1,148.9c-3.9,0-7.1-3.2-7.1-7.1s3.2-7.1,7.2-7.1s7,3.3,7,7.1S367,148.9,363.1,148.9z M359.2,141.8
						c0,2.1,1.7,4,3.9,4s3.9-1.7,3.9-4s-1.7-4-3.9-4s-2.1,0.5-2.7,1.2C359.7,139.7,359.3,140.7,359.2,141.8L359.2,141.8z"/>
					<path class="st2" d="M380.7,129.4c0.7-0.4,1.2-1,1.5-1.8l2.2,1.6c-0.4,1.2-0.9,2.3-2,2.9c-1.5,0.9-4.6,0.7-6.1,1.5
						c-2,1.1-1.8,3.1-1.8,3.1c0.9-1.3,2.6-2.1,4.2-2.1c3.9,0,6.8,3.1,6.8,7.1s-3.2,7.1-7.1,7.1s-7.1-3.2-7.1-7.1
						c0-5.5,0.7-9.3,3.4-10.9c2-1.2,5-1,5.8-1.5L380.7,129.4z M378.5,145.8c2.3,0,3.9-1.7,3.9-4s-1.7-4-3.9-4s-3.9,2-3.9,4
						S376.3,145.8,378.5,145.8z"/>
					<path class="st2" d="M390.4,135.1v1.7c1-1.5,2.5-2.2,4.3-2.2s3.5,0.6,4.8,2.2c1.2,1.3,1.9,3.1,1.9,4.9c0,3.8-2.8,7.1-6.7,7.1
						s-3-0.6-4.1-1.9v5.9h-3.2V135h2.9L390.4,135.1z M391.7,144.7c0.7,0.6,1.7,1,2.6,1c2.3,0,4-1.8,4-4s-1.7-4-3.8-4s-3.9,1.8-3.9,4
						s0.4,2.2,1.3,3H391.7z"/>
					<path class="st2" d="M414,148.5v-1.8c-1,1.4-2.9,2.2-4.6,2.2s-3.8-0.9-4.9-2.2s-1.7-3-1.7-4.9s0.5-3.4,1.7-4.8
						c1.4-1.6,3-2.3,5-2.3s3.4,0.8,4.5,2.3v-1.9h2.9v13.4H414z M406,141.9c0,2.2,1.8,3.9,4,3.9c2.3,0,3.9-1.7,3.9-4s-1.6-4-3.9-4
						C407.6,137.8,406,139.6,406,141.9z"/>
					<path class="st2" d="M428,129.4c0.7-0.4,1.2-1,1.5-1.8l2.2,1.6c-0.4,1.2-0.9,2.3-2,2.9c-1.5,0.9-4.6,0.7-6.1,1.5
						c-2,1.1-1.8,3.1-1.8,3.1c0.9-1.3,2.6-2.1,4.2-2.1c3.9,0,6.8,3.1,6.8,7.1s-3.2,7.1-7.1,7.1s-7.1-3.2-7.1-7.1
						c0-5.5,0.7-9.3,3.4-10.9c2-1.2,5-1,5.8-1.5L428,129.4z M425.8,145.8c2.3,0,3.9-1.7,3.9-4s-1.7-4-3.9-4s-3.9,2-3.9,4
						S423.6,145.8,425.8,145.8z"/>
					<path class="st2" d="M441.2,148.9c-3.9,0-7.1-3.2-7.1-7.1s3.2-7.1,7.2-7.1s7,3.3,7,7.1S445.1,148.9,441.2,148.9z M437.4,141.8
						c0,2.1,1.7,4,3.9,4s3.9-1.7,3.9-4s-1.7-4-3.9-4s-2.1,0.5-2.7,1.2C437.9,139.7,437.5,140.7,437.4,141.8L437.4,141.8z"/>
					<path class="st2" d="M448.4,135.1h9.1v2.8h-3v10.5h-3.2v-10.5h-3v-2.8H448.4z"/>
					<path class="st2" d="M462.1,135.1v6.3l4.3-6.3h3.8l-4.8,6.5l5.6,6.8h-4.3l-4.6-6.2v6.2h-3.2V135L462.1,135.1L462.1,135.1z"/>
					<path class="st2" d="M483,148.5v-1.8c-1,1.4-2.9,2.2-4.6,2.2s-3.8-0.9-4.9-2.2s-1.7-3-1.7-4.9s0.5-3.4,1.7-4.8
						c1.4-1.6,3-2.3,5-2.3s3.4,0.8,4.5,2.3v-1.9h2.9v13.4H483z M475,141.9c0,2.2,1.8,3.9,4,3.9c2.3,0,3.9-1.7,3.9-4s-1.6-4-3.9-4
						C476.6,137.8,475,139.6,475,141.9z"/>
				</g>
			</g>
		</g>
	</g>
</g>
</svg>
