<!-- icon666.com - MILLIONS OF FREE VECTOR ICONS --><svg id="Capa_1" enable-background="new 0 0 512 512" viewBox="0 0 512 512" xmlns="http://www.w3.org/2000/svg"><g><g><g><path d="m392.851 368.645h27.808v99.444h-27.808z" fill="#0681af"></path><path d="m406.119 256.835c-7.109-.335-12.578-6.458-12.578-13.575v-101.604c0-3.505 1.393-6.867 3.871-9.346l49.573-49.573c5.311-5.312 14.017-5.158 19.132.462 4.791 5.263 4.328 13.461-.704 18.493l-43.207 43.207c-1.428 1.429-2.231 3.366-2.231 5.386v93.348c0 7.512-6.266 13.56-13.856 13.202z" fill="#0681af"></path><path d="m502.566 54.547-8.702-8.702c-2.005-2.005-5.067-2.506-7.607-1.244l-41.247 20.491c-1.388.69-2.656 1.601-3.752 2.697l-9.346 9.346c-2.524 2.524-2.524 6.616 0 9.139l30.225 30.225c2.524 2.524 6.616 2.524 9.139 0l9.346-9.346c1.096-1.096 2.007-2.363 2.697-3.752l20.491-41.247c1.262-2.54.761-5.602-1.244-7.607z" fill="#02c7dd"></path><path d="m466.325 284.029-3.782-6.528c-1.235-2.132-1.885-4.552-1.885-7.016v-23.255h-40.108v57.808h33.665c7.729 0 13.995-6.266 13.995-13.995 0-2.462-.65-4.882-1.885-7.014z" fill="#f47c7c"></path><path d="m470.192 219.486h-81.645c-3.635 0-6.581 2.947-6.581 6.581v146.125h49.579v-106.079c0-10.428 8.453-18.881 18.881-18.881h19.767c4.137 0 7.49-3.353 7.49-7.49v-12.766c-.001-4.137-3.354-7.49-7.491-7.49z" fill="#02c7dd"></path><path d="m364.609 365.545v16.798c0 3.65 2.959 6.608 6.608 6.608h71.076c3.65 0 6.608-2.959 6.608-6.608v-16.798c0-3.65-2.959-6.608-6.608-6.608h-71.076c-3.649 0-6.608 2.958-6.608 6.608z" fill="#fee45a"></path></g><g fill="#0681af"><path d="m303.982 172.233v76.13h44.624c6.035 0 10.928-4.893 10.928-10.928v-54.274c0-6.035-4.893-10.928-10.928-10.928z"></path><path d="m7.5 183.161v54.274c0 6.035 4.893 10.928 10.928 10.928h44.624v-76.13h-44.624c-6.035 0-10.928 4.892-10.928 10.928z"></path></g><path d="m279.476 71.649h-191.918c-25.715 0-46.562 20.846-46.562 46.562v197.076c0 13.554 4.455 26.733 12.679 37.507l55.061 72.133c7.42 9.721 18.95 15.425 31.179 15.425h87.203c12.229 0 23.759-5.704 31.179-15.425l55.061-72.133c8.224-10.774 12.679-23.952 12.679-37.507v-197.076c0-25.715-20.846-46.562-46.561-46.562z" fill="#02c7dd"></path><path d="m279.476 71.649h-25c25.715 0 46.562 20.846 46.562 46.562v191.076c0 13.554-4.455 26.732-12.679 37.507l-60.794 79.615c-5.212 6.828-12.455 11.663-20.54 13.943h20.094c12.229 0 23.759-5.704 31.179-15.425l55.061-72.133c8.224-10.774 12.679-23.952 12.679-37.507v-197.076c-.001-25.715-20.847-46.562-46.562-46.562z" fill="#07b2cd"></path><path d="m81.521 293.963v-136.2c0-7.473 6.058-13.53 13.53-13.53h176.931c7.473 0 13.53 6.058 13.53 13.53v136.199c0 7.473-6.058 13.53-13.53 13.53h-176.931c-7.472.001-13.53-6.057-13.53-13.529z" fill="#fee45a"></path><path d="m109.521 178.829v94.068c0 3.643 2.953 6.596 6.596 6.596h134.8c3.643 0 6.596-2.953 6.596-6.596v-94.068c0-3.643-2.953-6.596-6.596-6.596h-134.8c-3.643 0-6.596 2.953-6.596 6.596z" fill="#0681af"></path></g><g><path d="m507.866 49.246-8.702-8.702c-4.286-4.287-10.815-5.355-16.247-2.658l-41.245 20.491c-2.121 1.053-4.045 2.436-5.72 4.111l-9.347 9.347c-5.443 5.444-5.443 14.301 0 19.746l.464.464-34.965 34.965c-3.912 3.912-6.067 9.116-6.067 14.653v70.567c-6.568 1.189-11.57 6.937-11.57 13.843v69.77c0 4.142 3.358 7.5 7.5 7.5s7.5-3.358 7.5-7.5v-68.849c.109 0 75.219-.006 80.71-.007v12.747h-19.75c-14.552 0-26.39 11.834-26.39 26.38v85.326h-34.57v-20.6c0-4.142-3.358-7.5-7.5-7.5s-7.5 3.358-7.5 7.5v20.597h-3.253c-7.779 0-14.108 6.329-14.108 14.108v16.798c0 7.779 6.329 14.108 14.108 14.108h14.133v71.638c0 4.142 3.358 7.5 7.5 7.5s7.5-3.358 7.5-7.5v-71.638h12.81v71.638c0 4.142 3.358 7.5 7.5 7.5s7.5-3.358 7.5-7.5v-71.638h14.133c7.779 0 14.108-6.329 14.108-14.108v-16.798c0-7.779-6.329-14.108-14.108-14.108h-3.253v-38.896h15.18c16.678 0 26.796-18.173 18.59-32.267l-3.776-6.523c-.572-.991-.875-2.118-.875-3.259v-15.76h2.03c8.266 0 14.99-6.725 14.99-14.99v-12.76c0-8.266-6.725-14.99-14.99-14.99h-42.691v-61.787l28.87-28.863.464.464c2.637 2.637 6.144 4.09 9.873 4.09s7.236-1.453 9.873-4.09l9.345-9.345c1.673-1.673 3.057-3.597 4.112-5.72l20.491-41.246c2.699-5.431 1.631-11.961-2.657-16.249zm-66.467 332.206c-17.876 0-56.365 0-69.292 0v-15.015h69.292zm14.648-100.194 3.789 6.546c2.493 4.281-.618 9.737-5.618 9.737h-15.18v-31.43c0-6.275 5.109-11.38 11.39-11.38h2.73v15.76c0 3.771.997 7.492 2.889 10.767zm-39.142-141.66c-2.854 2.854-4.427 6.652-4.427 10.693v61.7h-11.44v-70.33c0-1.53.594-2.968 1.673-4.047l34.965-34.965 8.084 8.084zm59.695-39.533c-.33.663-.761 1.264-1.284 1.787l-8.613 8.612c-6.65-6.65-18.068-18.068-28.758-28.758l8.613-8.613c.523-.523 1.123-.954 1.786-1.283l40.67-20.205 7.79 7.79z"></path><path d="m367.028 237.431v-54.27c0-10.163-8.263-18.43-18.42-18.43h-15.073v-46.519c0-29.809-24.252-54.061-54.061-54.061h-133.732c-4.142 0-7.5 3.358-7.5 7.5s3.358 7.5 7.5 7.5h133.732c21.538 0 39.061 17.523 39.061 39.061v197.075c0 11.84-3.957 23.544-11.14 32.955l-55.06 72.132c-5.963 7.812-15.391 12.476-25.218 12.476h-87.202c-9.828 0-19.255-4.664-25.217-12.476l-55.061-72.132c-7.184-9.412-11.141-21.115-11.141-32.955 0-63.182 0-133.536 0-197.075 0-21.538 17.523-39.061 39.061-39.061h23.185c4.142 0 7.5-3.358 7.5-7.5s-3.358-7.5-7.5-7.5h-23.184c-29.809 0-54.061 24.252-54.061 54.061v46.519h-15.067c-10.163 0-18.43 8.268-18.43 18.43v54.27c0 10.162 8.268 18.43 18.43 18.43h15.066v59.426c0 15.11 5.049 30.046 14.218 42.057l55.06 72.132c8.782 11.505 22.666 18.374 37.14 18.374h87.202c14.475 0 28.359-6.869 37.141-18.374l55.06-72.132c9.168-12.011 14.217-26.947 14.217-42.057v-59.426h15.073c10.158 0 18.421-8.268 18.421-18.43zm-348.598 3.43c-1.892 0-3.43-1.539-3.43-3.43v-54.27c0-1.892 1.539-3.43 3.43-3.43h15.066v61.13zm315.105-61.13h15.073c1.886 0 3.42 1.539 3.42 3.43v54.27c0 1.891-1.534 3.43-3.42 3.43h-15.073z"></path><path d="m74.021 157.765v136.199c0 11.596 9.434 21.031 21.03 21.031h176.93c11.596 0 21.031-9.435 21.031-21.031v-136.199c0-11.596-9.435-21.03-21.031-21.03h-176.93c-11.596 0-21.03 9.434-21.03 21.03zm203.991 0v136.199c0 3.325-2.706 6.031-6.031 6.031h-176.93c-3.325 0-6.03-2.706-6.03-6.031v-136.199c0-3.325 2.705-6.03 6.03-6.03h176.93c3.325-.001 6.031 2.705 6.031 6.03z"></path><path d="m116.117 286.994h134.799c7.772 0 14.096-6.324 14.096-14.096v-94.067c0-7.772-6.324-14.096-14.096-14.096h-134.799c-7.772 0-14.096 6.324-14.096 14.096v94.067c-.001 7.772 6.323 14.096 14.096 14.096zm.903-107.26h132.991v92.26h-132.991z"></path></g></g></svg>