<?xml version="1.0" encoding="UTF-8"?>
<svg id="Layer_1" data-name="Layer 1" xmlns="http://www.w3.org/2000/svg" version="1.1" viewBox="0 0 505 181.2">
  <defs>
    <style>
      .cls-1 {
        fill: #f47e21;
      }

      .cls-1, .cls-2, .cls-3, .cls-4, .cls-5 {
        stroke-width: 0px;
      }

      .cls-6 {
        isolation: isolate;
      }

      .cls-2 {
        fill: #2e434f;
      }

      .cls-3 {
        fill: #f16858;
      }

      .cls-4 {
        fill: #fff;
      }

      .cls-5 {
        fill: #007478;
      }
    </style>
  </defs>
  <g>
    <path class="cls-4" d="M120.6,90.6v-26.5c0-.6,0-1.3-.2-2-.7-3-2.6-5.2-5.2-6.7-4.9-2.8-9.9-5.7-14.8-8.5-7.7-4.4-15.3-8.9-22.9-13.3-2.6-1.5-5.2-3-7.7-4.4-.4-.2-.8-.4-1.2-.5-2.3-.7-4.5-.6-6.6.4-1.3.6-2.7,1.3-4,2.1-13.6,7.8-27.1,15.6-40.6,23.4-1.1.6-2.1,1.2-3.1,2-2.5,1.9-3.8,4.5-3.8,7.7v52.8c0,.6,0,1.3.2,1.8.7,3,2.5,5.2,5.1,6.7,3.6,2.1,7.2,4.2,10.9,6.3,10.9,6.3,21.9,12.7,32.9,19,.9.6,1.9,1,2.9,1.3,2.6.9,5,.9,7.5-.5,1.3-.7,2.7-1.4,4-2.2,13.4-7.7,26.8-15.5,40.2-23.2.9-.5,1.8-1.1,2.6-1.7,2.5-1.9,3.9-4.4,3.9-7.6v-26.5h0Z"/>
    <polygon class="cls-5" points="40.8 111 57 113.2 58.6 114.3 59.5 120.9 49.4 121.9 38.1 115.4 40.8 111"/>
    <path class="cls-2" d="M109.1,114.4c0-.2,0-.4,0-.5.8-2.7,1.1-5.4,1.1-8.2v-.7c0-2.1-.4-4.1-1-6.1-.6-1.6-1.3-3.1-2.5-4.3s-.7-.6-1.1-.8c-1.3-.7-2.9-.6-4.3.4-.8.5-1.5,1.2-2.1,2-.9,1.2-1.6,2.6-2.2,4,0,.1-.1.4-.2.6,0,0,0,.1,0,.2,0,.1,0,.3-.1.4h0c0,.3,0,.4-.1.6h0c0,.2,0,.3,0,.4h0v.2c0,0,0,.2,0,.3h0c0,.2,0,.4,0,.5s0,.2,0,.3h0c0,.2,0,.4-.1.6h0c0,.4,0,.6-.1.8h0v.6h0v.6c0,.2,0,.4,0,.6h0v1.1h0v.4h0v2.8c0,.4,0,.8,0,1.2v1.1h0v.6c.1,1.1.4,2.2.8,3.3h0c0,1,2.1,4.3,2.1,4.3-.4-.5-.8-1-1.1-1.5-.9-1.4-1.6-3-2-4.6,0-.3-.1-.6-.2-.9,0-.2,0-.4-.1-.6h0c-.1-.7-.3-1.4-.4-2.1,0-.2,0-.4,0-.7v-.6h0v-3.3c0-.5,0-.9,0-1.4v-.4h0c0-.4,0-.6,0-.8,0-.2,0-.4,0-.6v-.6h0c0-.4.1-.8.2-1.1v-.2h0c0-.1,0-.3,0-.4h0c0-.1,0-.3,0-.4h0c0-.1,0-.3.1-.4,0-.1,0-.4.1-.5.1-.4.2-.6.4-1h0c0-.1,0-.2.1-.4h0c0-.1.1-.3.2-.4,0,0,0,0,0-.1,0-.1,0-.2.1-.4h0c.1-.3.2-.4.3-.6h0c0-.2.1-.4.2-.4,0-.1.1-.3.2-.4s.1-.3.3-.4c0,0,0,0,0-.1,0-.1.2-.4.3-.5h0c.1-.2.2-.4.4-.6h0l.3-.4h0c0-.1.4-.6.4-.6h0s-.1,0-.3,0c0,0-.1,0-.2,0h0c0,0-.2.1-.4.2,0,0-.1,0-.1.1,0,0-.1,0-.2.1,0,0-.1,0-.2.1,0,0,0,0-.1,0,0,0,0,0-.1,0s0,0-.1.1h0c-.2.2-.4.4-.6.7,0,0,0,.1-.1.2h-.1c0,.1,0,.2-.1.3-.1.1-.3.4-.4.6,0,0,0,0,0,.1,0,.1-.2.4-.3.5s-.2.4-.3.5h0s0,0,0,.1h0c0,.1,0,.2,0,.3,0,.1-.1.3-.2.4,0,.2-.1.4-.3.6h0c0,0,0,.2-.1.3h0v.2h0c0,.2-.1.4-.2.6,0,0,0,.2,0,.3s0,.2,0,.3c0,.1,0,.3-.1.4h0c-.9,3.1-1.2,6.2-1.1,9.4.2,3.3.9,6.5,2.5,9.5,0,.1,0,.3.1.4-.3-.3-.6-.6-.8-.9-.9-1.4-1.5-3-2-4.6-.1-.4-.1-.9-.2-1.3,0-1.4-.1-2.8-.3-4.2,0-1-.3-2.1-.3-3.1s.1-2.1.3-3.1c.4-3.3,1.5-6.3,3.4-9,0-.1.2-.3.3-.4-2.9,2.1-4.8,4.9-5.5,8.4-.2-.3-.3-.6-.4-.8-.4-.6-.4-1.3-.2-2.1,1-3.5,3.2-6,6.5-7.5.4-.1.9-.3,1.3-.3h3.3c.4,0,.7,0,1.1,0,.4,0,.9,0,1.2.1h0c1.1.1,2.3.5,3.1.9,1.1-.7,1.9-1.8,2.4-3.1,0-.3,0-.5.1-.8,0-.5-.1-1-.6-1.1-.4-.2-.9-.1-1.3.3-.3.3-.6.5-1.1.9v-2.2c0,0-1.7-.6-1.7-.6l-1.7,1.3-.6-3.3-2.1-1.2h0l-.4-.3h-.3c0-.1-.3,0-.3,0h-.2c0,.1-1.6,1.2-1.6,1.2l-.3-4.4-2.1-1.3-.5-.3-.3-.2-1.9.9v-3.5c-.8-.6-2.9-2.1-3.7-2.7l-3.7,1.6c-.2,0-.4.2-.7.3,0-.3-.1-.5-.1-.7l-.6-4.8-5.3-1.4c-1.4,1.5-3.5,3.6-4.9,5l-.6.6c-.9-2.4-1.6-4.8-2.5-7.2h-.4c-1.8.2-3.7.4-5.5.6l-2.6,4.2c-.1.2-.3.4-.4.6-1.1-.4-2,0-2.9.4-1.1-1.3-2.3-2.5-3.5-3.7l-2.9,1.1-.3.6v.4c-.1,0-.1.1-.1.1l-.2.4h0c0,.3-.1.4-.2.6,0,.1-.1.2-.1.4h0c-.3.8-.6,1.4-.8,2,0,0,0,.1-.1.2h0c0,.1-.1.2-.1.4,0,0,0,.1,0,.1h0c0,.1,0,.3,0,.4,0,0,0,.1-.1.2h0l-4.3.2-.9-.9-1.1-.9-2.3,1-.8,1.4-1.3,2.2c-.9-.9-1.7-1.6-2.8-2h-.2c-1-.4-2.1-.5-3.3,0,0,0,.1,0,.2.1.6.4,1.2.6,1.7.9.6.4,1.1.8,1.4,1.6-.2-.1-.3-.1-.4-.2-1.1-.9-2.3-1.4-3.6-1.9h-.2c-.1,0-.2,0-.4-.1h0c-.1,0-.3,0-.4-.1-3.1-1-3.8-.4-3.8-.4v.6c0,.4,0,.9-.1,1.3,0,.5-.2.9-.3,1.3-.4,1.9-.1,3.8.5,5.6v.4h0c-.1.4-.5,1-.9,1.9-.1.3-.3.6-.4,1h0c0,.1,0,.3-.1.4-.1.3-.2.6-.3,1l.4,5-1.1-.2c0,.1-.1.4-.3.5,0,0-.1,0-.1.1-.5.4-.5.8-.2,1.2,0,0,0,.1.1.1.2.2.2.4.1.7-1.2.3-1.8.6-2.3,1.2-.7.9-.8,1.9-.1,2.9.1.3.4.6.6.9,0,.1.1.4.1.6,0,1,.6,2.1,1.6,2.3h7.3c0-.1,3.1-.1,3.1-.1h1.7c0,0,0,0,0,0h0,0c-.1.3-.2.6-.3.9h-8.2c0,.1-3.3.1-3.3.1h-.4c0,.1.1.4.2.4h0c.4.3.4.6.2,1.1-.1.9-.2,1.8,0,2.7.2,1.8.8,3.4,1.3,5,.7,2.1,1.8,4,3.3,5.6,0,0,.1.2.3.5-3.3-1.8-4.7-6-5-7.2h0v-.2l-.8.4h0c-1.7.8-3.4,1.6-5.1,2.3v.4c.1.3.2.6.4.8.9,1.7,2.3,3,3.9,3.9,4,2.3,7.9,4.6,11.9,6.9l7.4,4.3h0l5.2,2.8,6.3,3.8h0l1.9,1.1h0c2.1,1.2,4.2,2.4,6.3,3.6.4.2.9.4,1.3.6,2,.7,4,.8,5.9,0,.9-.5,1.7-1,2.6-1.5.6-.3,1.1-.6,1.6-.9l8.7-5c2.1-1.2,4.3-2.5,6.5-3.8l1.8-1.1.6-.3,2-1.1c5.7-3.3,11.4-6.5,17-9.7,1.8-1.1,3.1-2.7,3.8-4.8,0-.2.1-.5.2-.8-1.4-.4-2.8-.8-4.2-1.2h0l-.4.4ZM24.3,100.6c-.1-.4-.3-.6-.4-.9,0,0-.3-.2-.4-.1,0,0-.2.2-.2.4,0,.2,0,.4,0,.6,0,.2.3.6-.1.7s-.4-.3-.6-.5c-.1-.4-.4-.7-.5-1.1,0-.1-.1-.2-.1-.4,0-.6.4-.8.8-1.1s.9-.4,1.3,0c0,0,.1.1.1.2,0,.6.1,1.3.1,2,0,0,0,0-.2.2h.1ZM26.2,95.6c0,0,0,.2-.1.3h0v.2h0v-.4h0v-.6h0v-.4q0,0,0,0c0,.1,0,0,0,0v-.4h0v-2.3h0v-.8h0v-1.6h0v.3h0c0,.3.1.5.2.8h0c0,.4,0,.6.1.8v.6h0v1.7h0v.3h0v.3h0v.3h0v.3c0,0,0,.2,0,.3h0v.4ZM30,100c-.6,0-1.3-.2-1.9.1-.6.4-.8.9-.9,1.6-.3,0-.5,0-.8,0,0-.3-.1-.6-.1-.9.1-1.4,1.7-2.5,3.1-2.1.7.2.8.4.6,1.2h0ZM24.8,107.7v-.4c.2,0,.4,0,.4.1,1.9,1.3,4.1,1.8,6.3,2.1.9,0,1.6.1,2.5.1s.3,0,.4,0c.3.1.6.4.9.6-7.5,1-10.4-2.6-10.4-2.6h0ZM26.1,114.2c-.2-1-.4-2.1-.4-3.1s.1-1,.2-1.6c.4.2.7.4,1.1.6-.2,1.8,0,3.6.4,5.4.5,1.8,1.3,3.4,2.2,5,0,0-2.4-2.5-3.5-6.2h0ZM29.5,110.9c.4,0,.6,0,1,.1-.2,1.8-.1,3.5.3,5.2.4,1.6,1.1,3.2,1.9,4.7-2.4-2.8-3.4-6.2-3.2-10ZM32.6,111.2h.7c0,3.3.6,6.4,2.1,9.3-1.9-1.6-3.6-6.6-2.8-9.3h0ZM35.6,94.9h0s0,0,.2-.1c0,0,.1,0,.1,0h.1c.1,0,.4-.2.6-.4h.1c0,0,1.1-.8,1.1-.8h0c.6-.4,1.1-.7,1.8-1.1,0,.4,0,.9.1,1.2v.6c0,0,0,.2,0,.3,0,0,0,.1,0,.2,0,0,0,.1.1.2,0,0,0,.1.1.2,0,0,0,.1.1.2,0,0,0,.1.1.2,0,0,0,0,.1.1,0,0,0,0,0,0,.2.3.5.4.8.6h.5c.6,0,1.1-.2,1.6-.6,0,0,0,0,.1-.1.7-.7,1.2-1.9,1.3-3.3,0-.6,0-1.1,0-1.6,0-.4-.1-.7-.3-1,0,0,0-.1-.1-.2.8-.4,1.5-.8,2.1-1.1,0,0,.2,0,.3-.1h0c.3-.1.6-.3.9-.4h0c.3-.1.6-.3.9-.4v.2c.1,0,0-.2,0-.2h0s2.3.9,2.9,3.1c.4,1.5-.4,3.8-.4,3.8-.5.2-.9.5-1.3.7-1.5.7-2.9,1.5-4.4,2.2,0,0-.1,0-.1,0-.2,0-.5.1-.7.1h-4.5c-.9.1-1.6.4-2.5.6l-.6-1-1.6-2.4h0ZM40.8,92h0v-.2s.1,0,.2-.1c.4-.2.8-.4,1.2-.7h0c.1.1.1.4.2.6v.8h0c-.1.6-.5.9-.9.9h-.2s0,0-.1,0h0c0,0-.1-.2-.2-.3h0c0-.2-.1-.5-.1-.8h0ZM50.4,103.5l-.8.2-3.3.9-1.9.5-1,.3c0-.3-.2-.6-.3-.9.2,0,.4-.1.6-.2.1,0,.2,0,.3,0l1.6-.6c.8-.3,1.6-.5,2.4-.8.5-.1,1-.3,1.5-.5.6-.2,1.3-.3,1.9,0,.9.3,1.3,1.1.7,1.8s-1.7,1.7-3.3,1.3l1.8-1.1-.3-.8h0ZM42.1,105.4h-5.4c0-.1,0-.2,0-.3,0,0,0-.2.1-.4h0c0-.2,0-.3.1-.4,0,0,0-.1.1-.3,0,0,0,0,0-.1,0,0,0,0,0-.1h0c0-.1,0-.2.1-.3h0c0,0,.1-.1.2-.2h0c.1-.1.2-.3.4-.4,0,0,0,0,.1,0h1.8c0,0,.1,0,.2.1h0s.1,0,.1,0h0s0,0,.1,0c0,0,0,0,.1,0,0,0,0,0,.1,0,0,0,.1,0,.1.1,0,0,0,0,.1.1h0c0,0,0,.1,0,.1h0c0,0,0,.1,0,.2,0,0,0,.1.1.2,0,0,0,.1,0,.1h0c0,.1,0,.3.1.4h0v.2h0v.4h.3ZM57.2,118.1c-3.5.1-6.8-.6-9.8-2h0c-.9-.4-1.6-.9-2.4-1.3h0c-1.4-1-2.4-2.1-2.5-2.1.2,0,.4.2.6.3,3.7,1.8,7.6,3,11.7,3.3,1,0,2,0,2.9,0h.6l.3,2c-.5.1-1,.1-1.4.1h0ZM57.9,75s-.1,0-.2,0h0c-4.5,2.2-9.8,7.2-10.1,7.5,1-1.2,2-2.5,3-3.8,0,0-3.2-.1-7.8,2.1,0,0-.2,0-.3.1h0s-.1,0-.2,0c-.1,0-.2.1-.3.1-.1,0-.2.1-.4.1s-.2,0-.3.1c-.1,0-.2.1-.4.2h-.1s-.1,0-.1.1c-.4.2-.8.5-1.2.8h0c-3.5,2.5-5.7,5.3-6,5.7h0c0-.2.1-.4.2-.6h0c.8-1.9,2.8-6.7,2.3-7.9h.3q0-.1,0-.1s.1,0,.2-.1h0c0,0,.1,0,.2-.1.2-.1.4-.2.7-.4,0,0,.2,0,.3-.1,0,0,.1,0,.1,0,0,0,.1,0,.2,0,.1,0,.2,0,.4-.1h.4c.1,0,.3-.1.4-.1h.2c0,0,.1,0,.3,0s.1,0,.3,0,.1,0,.3,0c.1,0,.3,0,.4-.1,0,0,.2,0,.3,0h.1c.1,0,.4,0,.6-.1.1,0,.2,0,.4,0h.3c.1,0,.3,0,.4,0,.2,0,.4,0,.6-.1h4.3c1.1,0,2.1.1,3.2.4.1,0,.2-.1.4-.3,1.8-1.7,3.8-3.1,6.1-4,.4-.1.7-.2,1-.4.5-.2.9,0,1.3.3,1,.8,1.7,1.8,2.3,2.9.9,1.8,1.3,3.8,1.6,5.9.2,1.9.2,3.8,0,5.7v.4c-.2-2.9-1.1-5.7-1.8-7.3h0c0-.1,0-.3,0-.4,0-.1-.1-.4-.2-.5h0v-.3h0v-.3h0c-.4-.9-.9-1.6-1.3-2.4-.2-.4-.5-.7-.9-1-.6-.6-.9-.8-1.2-.6h0v-.8ZM71.8,119.4h0c.2,2,.6,3.8,1.2,5.7.4,1.5.7,2.5.7,2.6-2.8-4.8-3.5-12.4-3.6-13.3h0v-2.6c0-2.8.4-5.5,1.3-8.2.1-.4.3-.8.4-1.1,0-.1.1-.4.2-.6h0c0-.1.1-.3.2-.4h0s0-.1,0-.2h0c0,0,0-.1.1-.3,0,0,0,0,0-.1,0,0,0-.2.1-.3h0s0-.1,0-.2c0-.1.1-.3.3-.4,0-.1.2-.3.3-.4s.1-.3.3-.4c0-.1.1-.2.2-.4h0c0-.1.1-.2.3-.4,0-.1.2-.2.3-.4h0c.2-.3.4-.5.7-.8l.2-.2.3-.3.3-.3.2-.2c0,0,.2-.1.3-.2-.2,0-.4.1-.6.2-.2,0-.4.2-.6.3,0,0-.1,0-.2,0-.2,0-.4.2-.6.3,0,0,0,0-.1,0h0c0,0-.1,0-.2.1h0c0,0-.2.1-.3.2,0,0-.1.1-.2.2h0s-.1,0-.2.1h-.1c0,.2-.1.3-.3.4l-.2.2h0q0,0,0,.1h0s0,.1-.1.2c0,0,0,0,0,.1h-.1c0,.1,0,.2-.1.3h0c0,0,0,.1-.1.2,0,0-.1.2-.2.4,0,.1-.1.2-.2.4-1.5,2.5-2.4,5.3-3,8-.6,2.5-.8,5-.9,7.5h0c0,.9,0,1.9,0,2.8v.5c.1,1.8.4,3.7.9,5.5h0c.2.9.4,1.3.4,1.4-1.6-2.8-2.2-7.2-2.3-8.2h0v-.2c-.2-2.1-.3-4.3-.1-6.5.1-1.7.4-3.3.7-5,.6-2.9,1.9-5.7,3.5-8.2l.3-.4,1.1-1.6c-.1.1-.3.3-.4.4,0,0-.1.1-.3.2-.1.1-.3.2-.4.4s-.2.1-.3.3c-.1,0-.2.2-.4.3-2.8,2.7-4.5,6-5.6,9.7-1.1,4.3-1.4,8.5-.7,12.7h0c0,.5.1.9.3,1.4h0q0,0,0,0h0c.4,1.8,1,3.6,1.8,5.5h0c.3.9.6,1.4.6,1.5-2.2-2.3-3.3-7.4-3.6-8.7h0c-1-5.3-.7-10.4,1-15.5.6-1.6,1.2-3.3,2.2-4.7.6-.9,1.3-1.6,2-2.4.1-.1.2-.2.3-.4-.2.1-.4.3-.6.4-2.2,1.6-3.7,3.6-4.8,6-1.3,2.8-1.9,5.7-2.1,8.7-.1,2.2,0,4.4.3,6.5.4,3.8,2.9,9.9,3,10.1-2.4-2.5-3.8-6.6-4.1-7.7h0c0-.2,0-.1,0-.1h0c-.4-1.6-.6-3.1-.8-4.8-.4-5.3.9-10.1,3.5-14.5,1.5-2.5,3.5-4.5,5.9-6.1.9-.6,1.9-.9,3-.9h1.8c.6,0,1.3,0,2,0h2.7c.4,0,.7,0,1.1,0h1.8c.1,0,.3,0,.4,0h.4c.1,0,.3,0,.4.1,0,0,.2,0,.3,0,0,0,.2,0,.3.1.1,0,.2,0,.4.1,0,0,.1,0,.2,0,0,0,.1,0,.3.1h0s0,0,.1,0h0c0,0,.2,0,.3.1,0,0,.2.1.3.2,0,0,.1,0,.1.1,0,0,.1,0,.2.1.3.1.5.4.8.6h.1c0,.1.1.3.2.4s.2.2.4.3c0,0,0,0,0,.1-.3-.1-.6-.4-.9-.5-.3-.1-.6-.3-.8-.4-.1,0-.3,0-.4-.1s-.3,0-.4-.1h-2.9c0,0-.2,0-.3,0s-.2,0-.3,0c0,0-.1,0-.2,0,0,0-.1,0-.2,0,0,0-.2,0-.3.1h-.1c-.1,0-.3.1-.4.2-1.1.6-2.1,1.5-2.9,2.6-1.3,1.6-2.1,3.4-2.8,5.3-1.1,3.1-1.5,6.2-1.6,9.4-.1,1.6,0,3.5.3,5.3h0l-.5.5ZM87.3,121.8c-.4.9-.8,1.8-1.3,2.6,0,.1-.2.3-.3.4s-.2.3-.3.4c-.1.2-.4.4-.6.6-.1.1-.3.3-.5.4-.1.1-.4.3-.5.4-1.2.9-2.6.8-3.8,0,0,0-.1-.1-.2-.2-.6-.4-.9-1-1.3-1.6v-.3c-.2-.2-.4-.4-.4-.6h0l-.2-.4c0-.1-.1-.3-.2-.4-.4-1.1-.7-2.3-.9-3.5,0-.4,0-.7-.1-1.1-.3-2.8-.3-5.5.3-8.3.3-1.7.8-3.3,1.5-4.9.4-1.1,1-2.1,1.8-3,.1-.2.4-.4.6-.6.4-.3.6-.6,1.1-.9,0,0,.2-.1.3-.1s.2,0,.3-.1.2,0,.3,0h.3c0,0,0,0,0,0h1c.1,0,.3,0,.4.1h.1s.1,0,.2,0c.1,0,.3.1.4.2,0,0,0,0,.1,0,0,0,.2.1.3.2l.2.2.2.2c.4.4.8,1,1.1,1.6.7,1.3,1.1,2.7,1.4,4.1.9,5,.6,9.9-1.3,14.5h0ZM89,84.2h0v.2h0c0,.1,0,.3,0,.4,0,0-.1.2-.2.3,0,0,0,0,0,0h0c0,.1-.1.2-.2.3h0c0,0,0,0-.1.1h-1.3c-.8,0-1.6-.3-2.3-.9h.8c1-.3,1.2-1.1.4-1.8h-.1q0-.1,0-.1h-.1s0,0-.1,0c0,0-.1,0-.2-.1-1.9-1.1-4-1.6-6.2-1.5h-.5c0,.1,0,.2,0,.3,0,0,0,.1,0,.3,0,.1,0,.3-.1.4,0,0,0,.1,0,.2s0,.1,0,.2h0s0,0,0,.1h0c0,0,0,.2-.1.3,0,0,0,.1-.1.1h0q0,0,0,0h-.1q0,.2-.1.3h0s0,0-.1.1h0s0,0-.1,0h-.2s0,0-.1,0-.1,0-.2,0c0,0-.1,0-.3,0-1.7.5-3.3.1-4.8-.9.4-.1.6-.2.7-.3.6-.2,1.1-.5,1.6-.8h0s0,0,0-.1h0v-.2h0c0-.5-.4-.6-.7-.6-1.2-.3-2.3,0-3.5.2h-.4c-.1.1-.3.1-.4.1h-.7c-.1,0-.3.1-.5.2,0,0-.1,0-.2,0-.4.2-.8.4-1.1.7-.3-1.3-.4-2.4-.6-3.7.3-.1.5-.2.8-.3,2.1-.7,4.1-1.1,6.3-1.2,4.9-.2,9.7.9,14.1,2.8.4.1.7.4,1.1.6,0,0,.2.1.3.1s.2.1.3.1h0c0,0,.1,0,.2.1.4.3.9.6,1.3.9,1.3.9,2.6,1.7,3.8,2.6s1.3.9,1.9,1.3c.1,0,.3.2.4.3.3.1.5.3.8.4s.2.1.4.2c.1,0,.3.1.4.3l.4.2.4.2c.3.1.5.3.8.4,0,0,.1,0,.2,0s0,0,.1,0c.1,0,.4.1.6.2h0c0,0,.1,0,.2,0,.1,0,.4.1.5.2.1,0,.4.1.5.2,1.1.4,2.2.7,3.3.9h1.2c.4,0,.9-.1,1.5-.4h.1c0,0,.1,0,.3-.1h0s0,0,.1,0c0,0,.1-.1.2-.1h0c0,.2,0,.3-.1.4h0c0,.1,0,.2,0,.3,0,0,0,0-.1.1,0,0-.2.1-.3.2,0,0-.1,0-.2.1-.1,0-.3.1-.4.2h-3.3c-.2,0-.4,0-.7-.1h-.2c-.1,0-.4,0-.5-.1s-.4,0-.6-.1c-.1,0-.4,0-.6-.1-.1,0-.3,0-.4-.1h0c0,0-.1,0-.2,0h0c0,0-.1,0-.3,0h-.4c-.1-.1-.4-.3-.5-.4-.2,0-.4-.1-.6-.2-2.8-1.1-5.5-2.6-8-4.4,0,0-.1,0-.2-.1,0,0,0,0-.1,0h-.1c0,0,0,0-.1,0h0l-1.1.4ZM108.6,110.6h0v.5c-.2,1.1-.5,2.1-.9,3.2-.3.9-.8,1.6-1.3,2.4-.1.3-.4.5-.6.7s-.4.3-.5.4c0,0-.1,0-.1.1-.2.1-.4.3-.6.4s-.4.1-.6.1h-.1c-.4,0-.7,0-1-.2,0,0-.2,0-.3-.1-.1,0-.3-.2-.4-.4h0c0,0,0,0,0,0-.4-.5-.8-1-1.1-1.5-.2-.4-.4-.7-.5-1.1-.5-1.2-.8-2.6-.9-3.8-.1-.9-.1-1.9-.2-2.4,0-1.1,0-2.1.2-3.1,0-.4,0-.7.1-1.1h0c.1-.9.4-1.8.6-2.7,0-.1,0-.3.1-.5.1-.3.2-.6.4-.9.4-.9.9-1.8,1.5-2.5,0,0,0,0,.1-.1h0s0,0,.1-.1c.2-.2.4-.4.6-.5,0,0,.1,0,.3-.1s.4-.1.5-.2c.4,0,.6-.1,1,0,.1,0,.3,0,.4,0,.1,0,.3,0,.4.1,0,0,.1,0,.2.1.2.1.4.3.6.4.2.2.4.4.6.6.9,1.2,1.3,2.6,1.6,4,.2,1.1.4,2.3.4,3.4,0,1.6,0,3.3-.3,4.9h-.4Z"/>
    <path class="cls-3" d="M44.4,47c-2,1.1-4,2.3-6.1,3.5l34.9-2.2-28.8-1.3h0ZM80.2,43.3l-19.2-1.6,14.8-.9c-2.8-1.6-5.7-3.3-8.4-4.8-.4-.2-.8-.4-1.1-.5-.3,0-.6-.1-.9-.1-.6,0-1.2.2-1.9.6-2.8,1.6-6.1,3.4-9.3,5.3-1.6.9-3.3,1.9-5,2.9l31.2-.6c0,0-.2-.1-.3-.1h0ZM91.2,49.7l-8.5,1.4,11.4.2c-.9-.6-1.9-1.1-2.8-1.6h0ZM42.1,105.2h0v-.2h0c0-.3,0-.4-.1-.4h0v-.2c-.1,0-.1-.1-.2-.2,0,0,0,0,0-.1,0,0,0,0,0,0,0,0,0,0,0,0h0c0,0,0-.1-.1-.2,0,0-.1,0-.1-.1h-.1c0,0,0,0-.1-.1,0,0,0,0-.1,0h0s-.1,0-.1,0h0c0,0-.1,0-.2-.1h-1.8s0,0-.1,0c-.1,0-.2.1-.4.3h0q0,0,0,.1s0,0-.1.1h0s0,0-.1.1h0c0,.1,0,.2,0,.3,0,0,0,0,0,.1,0,0,0,.1-.1.3,0,0,0,.1-.1.2h0c0,.3,0,.4-.1.5,0,0,0,.1,0,.2h1c1.3,0,2.5,0,3.7,0h.7v-.2h-.3ZM39.4,82.7c.4-.3.8-.6,1.2-.8,0,0,.1,0,.1-.1h.1c.1,0,.2-.1.4-.2h0c-.6.4-1.3.8-1.9,1.2h0ZM35.5,104.7h0,0ZM26.6,92.3v1.4-1.4ZM26.5,94.4h0v-.3.3h0ZM26.2,92.1v1-1ZM26.1,94.4h0c0-.1,0,0,0,0h0ZM26.1,90v.2-.2ZM26,89.8h0v.4-.4h0c0,0,0,0,0,0ZM113.7,65.1c-.1-1.7-.9-3-2.4-3.8-3.5-2-7.2-4.1-11-6.4l-55.9,2.9,24.3-3.4-31.9-2.9c-5.1,3-10.7,6.2-16.9,9.8-.3.1-.6.4-.9.6-1.2,1-1.7,2.2-1.7,3.9v40h4.7c-.9-.8-1.6-1.9-1.5-3.1,0-.1-.1-.2-.2-.4,0,0-.1-.2-.2-.3-.9-1.5-.9-3.3.3-4.6.5-.6.9-1,1.6-1.2v-.2l-2.6-.4,2.6-.4c0-.4.4-.9.9-1.3h0l.4-1.1h.4c0,0-.3-3.3-.3-3.3v-.3c.1-.4.3-.7.4-1.1,0-.1,0-.3.1-.4l.2-.6-6.1-.5,6.8-1c0-.2.1-.4.3-.5-.7-2.3-.9-4.3-.4-6.1,0-.2.1-.5.1-.8s0-.4.1-.6l-6.1-.9,6.2-.2v-1.1c-.1,0,.5-.6.5-.6.4-.4,1-.5,1.8-.5s2.1.2,3.6.7h.4c.7-.4,1.3-.6,2.1-.6s1.8.2,2.4.5c.7.2,1.3.6,2,1.1l1.3-2.4,3.6-1.6,1.5,1.3c.5-.9.9-1.7,1.5-2.5l-25.7-2.1,28.8-1.8c1.7-1.8,3.6-3.3,5.7-4.7l-27.8-1,33.7-1.8c3.1-1.1,6.3-1.6,9.7-1.6s3.8.1,5.5.5h0c.8,0,26.8,2.3,26.6,2.5,0,0-9.9.7-17.2,1.1,2.7,1.6,5.1,3.6,7.2,6l21.1,1.6-18.7,1.6c.9,1.3,1.7,2.8,2.3,4.4l15.7,1.3-14.7,1.3c.3.9.6,1.8.7,2.7l13.3.5-10.3,1.7,1.1.6.3,1.5.4-.3,3.3,1.3v.6h.6c.4,0,.8,0,1.1.3,1,.5,1.6,1.6,1.3,2.7h0c0,.4,0,.7-.2,1.1-.4,1.2-1,2.2-1.8,3,1.2,1.2,2.1,2.7,2.7,4.8.6,2,1,4.2,1.1,6.5v.8h1.9v-37.5h0v-3.1h0v-.3ZM94.8,103.2h0ZM107.1,89.3c0,0-.1,0-.3.1.1,0,.2,0,.3-.1h0,0ZM104.6,89.9h-.1.4-.2ZM104.1,89.9h.1-.1ZM103.3,90.5h.6-.6ZM102,90.3c.2,0,.5,0,.7.1-.2,0-.4,0-.7-.1ZM104.7,96.8h-1c.4,0,.6-.1,1,0,.1,0,.3,0,.4,0-.1,0-.3,0-.4,0h0Z"/>
    <path class="cls-2" d="M120.6,90.6v-26.5c0-.6,0-1.3-.2-2-.7-3-2.6-5.2-5.2-6.7-4.9-2.8-9.9-5.7-14.8-8.5-7.7-4.4-15.3-8.9-22.9-13.3-2.6-1.5-5.2-3-7.7-4.4-.4-.2-.8-.4-1.2-.5-2.3-.7-4.5-.6-6.6.4-1.3.6-2.7,1.3-4,2.1-13.6,7.8-27.1,15.6-40.6,23.4-1.1.6-2.1,1.2-3.1,2-2.5,1.9-3.8,4.5-3.8,7.7v52.8c0,.6,0,1.3.2,1.8.7,3,2.5,5.2,5.1,6.7,3.6,2.1,7.2,4.2,10.9,6.3,10.9,6.3,21.9,12.7,32.9,19,.9.6,1.9,1,2.9,1.3,2.6.9,5,.9,7.5-.5,1.3-.7,2.7-1.4,4-2.2,13.4-7.7,26.8-15.5,40.2-23.2.9-.5,1.8-1.1,2.6-1.7,2.5-1.9,3.9-4.4,3.9-7.6v-26.5h0ZM116.9,115.7c0,3.1-1.3,5.5-4,7.1-12.8,7.4-25.7,14.8-38.5,22.1-1.7,1-3.5,1.9-5.2,3-2.5,1.6-4.9,1.5-7.4,0-8.7-5-17.2-9.9-25.9-14.9-5.9-3.4-11.8-6.8-17.7-10.2-2.8-1.6-4.1-4-4.1-7.2v-49.7c0-2.6.9-4.7,2.8-6.3.4-.4.9-.6,1.3-.9,4.3-2.5,8.7-5,13-7.5,7.2-4.2,14.5-8.4,21.7-12.5,3.1-1.8,6.2-3.5,9.4-5.3,1.7-.9,3.5-1.3,5.3-.7.6.2,1.1.5,1.6.8,4.4,2.5,8.8,5,13.2,7.6h0c2.9,1.7,5.9,3.4,8.8,5.1,7.2,4.2,14.5,8.4,21.7,12.6,2.4,1.4,3.8,3.5,4,6.3,0,1.1,0,2.1,0,3.2v47.6h0Z"/>
    <path class="cls-5" d="M108.8,105.7c0-1.1-.2-2.3-.4-3.4-.3-1.4-.8-2.8-1.6-4-.2-.3-.4-.5-.6-.6-.1-.1-.4-.3-.6-.4,0,0-.1,0-.2-.1-.1,0-.3-.1-.4-.1s-.3,0-.4,0h-1c-.1,0-.4.1-.5.2,0,0-.1,0-.3.1-.2.1-.4.3-.6.5,0,0,0,0-.1.1h0c0,0,0,.1-.1.2-.6.7-1.1,1.6-1.5,2.5-.1.3-.3.6-.4.9,0,.1,0,.3-.1.5-.3.9-.5,1.8-.6,2.7h0c0,.4,0,.7-.1,1.1-.1,1-.1,2.1-.2,3.1,0,.5,0,1.5.2,2.4.1,1.3.4,2.6.9,3.8.1.4.4.7.5,1.1.3.5.6,1,1.1,1.4h0c0,0,0,.1,0,.1.1.1.3.3.4.4,0,0,.2.1.3.1.4.1.7.2,1,.2h.1c.1,0,.4,0,.6-.1.2,0,.4-.2.6-.4,0,0,.1,0,.1-.1.1-.1.4-.3.5-.4s.4-.4.6-.7c.5-.8.9-1.6,1.3-2.4.4-1.1.7-2.1.9-3.2v-.4h0c.3-1.7.4-3.3.3-5h.3ZM107.4,109.9c-.1,1.1-.4,2.1-.8,3.1-.3.7-.7,1.3-1.2,1.9-.9.9-2.2.9-3.1,0-.8-.9-1.2-2-1.4-3.1-.4-2.1-.5-4.1-.1-6.1.1-.9.4-1.7.6-2.5s.6-1.5,1.2-2.1c1.1-1.1,2.3-1.1,3.3.1.8,1,1.1,2.1,1.3,3.3,0,.1,0,.3,0,.4,0,.2,0,.4,0,.6.1,1.4.1,2.8,0,4.3h0Z"/>
    <path class="cls-5" d="M105.9,110.5c-.2.6-.6,1.1-1.3,1-.7,0-1-.6-1.2-1.1,0-.3-.1-.6-.2-.9-.2-1-.2-2.1,0-3.1,0-.3.1-.5.3-.7h0c.3-.5.6-1,1.3-1s.9.5,1.1,1h0c.6,1.7.5,3.3-.1,4.8h0Z"/>
    <path class="cls-2" d="M105.4,105.3h0c-.2-.6-.6-1.1-1.1-1.1s-1,.5-1.3,1h0c-.1.2-.2.5-.3.7-.3,1-.3,2.1,0,3.1,0,.3.1.6.2.9.1.6.5,1.1,1.2,1.1.7,0,1.1-.5,1.3-1,.7-1.5.8-3.1.1-4.7h0Z"/>
    <path class="cls-5" d="M84.7,117.4c-.3.7-.8,1.3-1.7,1.3s-1.3-.7-1.6-1.5c-.1-.4-.2-.7-.3-1.1-.3-1.3-.3-2.8.1-4,0-.4.2-.6.4-1h0c.4-.7.8-1.3,1.7-1.3.8,0,1.3.6,1.5,1.3h0c.9,2.2.7,4.3-.1,6.3h0Z"/>
    <path class="cls-2" d="M84,110.7h0c-.4-.8-.8-1.4-1.6-1.4s-1.3.6-1.7,1.3h0c-.1.3-.3.6-.4,1-.4,1.3-.4,2.7-.1,4,0,.4.1.8.3,1.1.2.7.6,1.4,1.6,1.5.9,0,1.3-.6,1.7-1.3.9-2,1-4,.2-6.2h0Z"/>
    <path class="cls-5" d="M88.5,107.2c-.3-1.4-.7-2.8-1.4-4.1-.3-.6-.6-1.1-1.1-1.6l-.2-.2-.2-.2c0,0-.2-.1-.3-.2,0,0,0,0-.1,0-.1,0-.3-.1-.4-.2,0,0-.1,0-.2,0h-.1c-.1,0-.3,0-.4-.1h-1s0,0,0,0h-.3c0,0-.2,0-.3,0,0,0-.2,0-.3.1,0,0-.2,0-.3.1-.4.3-.7.6-1.1.9-.2.2-.4.4-.6.6-.8.9-1.3,1.9-1.8,3-.6,1.6-1.1,3.2-1.5,4.9-.5,2.8-.6,5.5-.3,8.3,0,.4,0,.7.1,1.1.1,1.2.4,2.3.9,3.5,0,.1.1.3.2.4l.2.4h0c0,.2.2.4.3.6v.3c.5.6.9,1.1,1.4,1.6,0,0,.1.1.2.2,1.2.9,2.6.9,3.8,0,.1-.1.4-.3.5-.4.1-.1.4-.3.5-.4l.6-.6c0-.1.2-.3.3-.4s.2-.3.3-.4c.6-.8,1-1.7,1.3-2.6,1.8-4.8,2.2-9.6,1.3-14.5h0ZM87.6,112.8c0,2.1-.4,4.2-1.1,6.2-.4,1.1-1,2.1-1.8,2.9-1.8,1.8-3.8,1.6-5.1-.6-.7-1.1-1.1-2.3-1.3-3.5-.4-3-.2-5.9.9-8.7.4-1,.8-1.9,1.5-2.7.4-.4.9-.9,1.3-1.2,1-.6,2.3-.6,3.2.1.6.5,1.1,1.1,1.4,1.8.7,1.6,1,3.3,1,5v.5h0Z"/>
    <path class="cls-5" d="M65.7,79.8c2.1-.7,4.1-1.1,6.3-1.2,4.9-.2,9.7.9,14.1,2.8.4.1.7.4,1.1.6,0,0,.2.1.3.1s.2.1.3.1h0c0,0,.1,0,.2.1.4.3.9.6,1.3.9,1.3.9,2.6,1.7,3.8,2.6s1.3.9,1.9,1.3c.1,0,.3.2.4.3.3.1.5.3.8.4.1,0,.2.1.4.2.1,0,.3.1.4.3l.4.2.4.2c.3.1.5.3.8.4,0,0,.1,0,.2,0,.1,0,.2,0,.4.1,0,0,.1,0,.3,0h0c0,0,.1,0,.2,0h0c.1,0,.3,0,.4.1.2,0,.4.1.6.1s.4,0,.6.1.4,0,.5.1h.2c.2,0,.5,0,.7.1h3.3c.1,0,.3-.1.4-.2,0,0,.1,0,.2-.1.1,0,.2-.1.3-.2,0,0,0,0,.1-.1,0,0,0,0,0-.1h0c0-.1.1-.3.1-.4h0s-.1.1-.2.1c0,0,0,0-.1,0h0c0,0-.1,0-.3.1h-.1c-.5.2-1.1.3-1.5.4h-1.2c-1.1,0-2.3-.4-3.3-.9-.1,0-.4-.1-.5-.2-.1,0-.4-.1-.5-.2,0,0-.1,0-.2,0h0c-.2,0-.4-.1-.6-.2h-.1c0,0-.1,0-.2,0-.3-.1-.5-.3-.8-.4l-.4-.2-.4-.2c-.1,0-.3-.1-.4-.3-.1,0-.2-.1-.4-.2-.3-.1-.5-.3-.8-.4-.1,0-.3-.1-.4-.3-.6-.4-1.3-.8-1.9-1.3-1.3-.9-2.6-1.7-3.8-2.6-.4-.3-.9-.6-1.3-.9,0,0-.1,0-.2-.1h0c0,0-.2-.1-.3-.1s-.2-.1-.3-.1c-.4-.2-.7-.4-1.1-.6-4.5-2.1-9.2-3.1-14.1-2.8-2.1,0-4.3.4-6.3,1.2-.2,0-.5.2-.8.3,0,.4,0,.7.1,1.1.2,0,.4-.1.6-.2h.4Z"/>
  </g>
  <g>
    <g class="cls-6">
      <g class="cls-6">
        <g class="cls-6">
          <g class="cls-6">
            <path class="cls-1" d="M165.7,48.2l26.1,62.1h-12.7l-6.7-16.1h-22l-6.9,16.1h-12.7l25.9-62.1h9ZM161.2,64.2l-6.6,18.8h13.3l-6.6-18.8Z"/>
            <path class="cls-1" d="M209.1,63.7c4.2,0,8.3-.3,12.3,1.7,4,1.9,6.6,6.5,6.6,11.2s-1.2,6.1-3.4,8.1c3.8,2.1,6.3,6.3,6.3,10.9s-2.4,8.8-6.1,11.5c-4.1,2.9-9.2,3.1-13.8,3.2h-14v-46.6h12.2ZM212.8,73.5h-4.7v7.4h4.7c2.2,0,4-1.5,4-3.7s-1.5-3.7-4-3.7ZM214.3,90.8h-6.2v9.7h6.1c3.2,0,5.4-1.6,5.4-4.8s-2-4.9-5.2-4.9Z"/>
            <path class="cls-1" d="M274.2,110.3v-6.3c-3.5,4.8-10.1,7.8-16,7.8s-13.1-3-17.1-7.8c-3.7-4.5-5.8-10.5-5.8-17s1.7-11.9,6-16.7c4.7-5.5,10.5-8.1,17.3-8.1s11.9,2.9,15.6,8.1v-6.6h10.3v46.6h-10.3ZM246.4,87.4c0,7.6,6.2,13.5,13.8,13.4,8.1,0,13.6-6,13.6-14s-5.5-13.9-13.4-13.8c-8.2,0-14,6.1-14,14.3Z"/>
            <path class="cls-1" d="M303.9,63.7v17.9h17.3v-17.9h11.2v46.6h-11.2v-18.7h-17.3v18.7h-11.2v-46.6h11.2Z"/>
          </g>
        </g>
      </g>
      <g class="cls-6">
        <g class="cls-6">
          <g class="cls-6">
            <path class="cls-4" d="M354.3,48.2v26.9l19.3-26.9h13.8l-23.4,30.5,23.4,31.6h-13.8l-19.3-27.2v27.2h-11.5v-62.1h11.5Z"/>
            <path class="cls-4" d="M414.7,111.8c-13.4,0-24.6-11.2-24.6-24.7s11.2-24.9,25.1-24.9,24.4,11.3,24.4,24.9-11.2,24.7-24.9,24.7ZM401.2,87.1c0,7.5,5.8,13.8,13.4,13.8s13.7-6,13.7-13.8-6-14-13.7-14-7.2,1.8-9.6,4.3c-2.6,2.6-3.9,6-3.9,9.7Z"/>
            <path class="cls-4" d="M456.1,63.7v6.1c3.6-5.1,8.8-7.6,15.1-7.6s12.1,2.2,16.9,7.6c4.3,4.5,6.5,10.7,6.5,17.2,0,13.2-9.8,24.8-23.4,24.8s-10.4-1.9-14.2-6.6v20.6h-11.2v-62.1h10.3ZM460.7,97.3c2.4,2.1,5.8,3.5,8.9,3.5,7.9,0,13.8-6.1,13.8-14s-5.8-13.8-13.4-13.8-13.7,6.1-13.7,13.9,1.3,7.6,4.4,10.3Z"/>
          </g>
        </g>
      </g>
    </g>
    <g class="cls-6">
      <g class="cls-6">
        <g class="cls-6">
          <g class="cls-6">
            <path class="cls-4" d="M142.1,148.5v-1.8c-1,1.4-2.9,2.2-4.6,2.2s-3.8-.9-4.9-2.2c-1.1-1.3-1.7-3-1.7-4.9s.5-3.4,1.7-4.8c1.4-1.6,3-2.3,5-2.3s3.4.8,4.5,2.3v-1.9h2.9v13.4h-2.9ZM134.1,141.9c0,2.2,1.8,3.9,4,3.9,2.3,0,3.9-1.7,3.9-4s-1.6-4-3.9-4c-2.4,0-4,1.8-4,4.1Z"/>
            <path class="cls-4" d="M150.6,135.1v5.1h5v-5.1h3.2v13.4h-3.2v-5.4h-5v5.4h-3.2v-13.4h3.2Z"/>
            <path class="cls-4" d="M160.1,135.1h9.1v2.8h-3v10.5h-3.2v-10.5h-3v-2.8Z"/>
            <path class="cls-4" d="M182.9,148.5h-3.2v-8.7l-5.7,8.7h-3.4v-13.4h3.2v8.8l5.6-8.8h3.5v13.4Z"/>
            <path class="cls-4" d="M188.7,135.1v6.3l4.3-6.3h3.8l-4.8,6.5,5.6,6.8h-4.3l-4.6-6.2v6.2h-3.2v-13.4h3.2Z"/>
            <path class="cls-4" d="M205.1,148.9c-3.9,0-7.1-3.2-7.1-7.1s3.2-7.1,7.2-7.1,7,3.3,7,7.1-3.2,7.1-7.1,7.1ZM201.2,141.8c0,2.1,1.7,4,3.9,4s3.9-1.7,3.9-4-1.7-4-3.9-4-2.1.5-2.7,1.2c-.7.7-1.1,1.7-1.1,2.8Z"/>
            <path class="cls-4" d="M217,135.1v1.7c1-1.5,2.5-2.2,4.3-2.2s3.5.6,4.8,2.2c1.2,1.3,1.9,3.1,1.9,4.9,0,3.8-2.8,7.1-6.7,7.1s-3-.6-4.1-1.9v5.9h-3.2v-17.8h2.9ZM218.3,144.7c.7.6,1.7,1,2.6,1,2.3,0,4-1.8,4-4s-1.7-4-3.8-4-3.9,1.8-3.9,4,.4,2.2,1.3,3Z"/>
            <path class="cls-4" d="M232.9,135.1v1.7c1-1.5,2.5-2.2,4.3-2.2s3.5.6,4.8,2.2c1.2,1.3,1.9,3.1,1.9,4.9,0,3.8-2.8,7.1-6.7,7.1s-3-.6-4.1-1.9v5.9h-3.2v-17.8h2.9ZM234.2,144.7c.7.6,1.7,1,2.6,1,2.3,0,4-1.8,4-4s-1.7-4-3.8-4-3.9,1.8-3.9,4,.4,2.2,1.3,3Z"/>
            <path class="cls-4" d="M252.4,148.9c-3.9,0-7.1-3.2-7.1-7.1s3.2-7.1,7.2-7.1,7,3.3,7,7.1-3.2,7.1-7.1,7.1ZM248.5,141.8c0,2.1,1.7,4,3.9,4s3.9-1.7,3.9-4-1.7-4-3.9-4-2.1.5-2.7,1.2c-.7.7-1.1,1.7-1.1,2.8Z"/>
            <path class="cls-4" d="M265.3,148.9c-2.5,0-4.8-1.8-4.8-4.6h3.3c0,.9.7,1.5,1.5,1.5s1.6-.5,1.6-1.4-.8-1.5-1.6-1.5h-.8v-2.8h.8c.7,0,1.2-.4,1.2-1.1s-.5-1.2-1.1-1.2-1.2.4-1.2,1h-3.2c0-2.3,2-4.1,4.3-4.1s4.4,1.7,4.4,4.1-.5,1.9-1.1,2.6c.8.7,1.6,1.4,1.6,3.1,0,2.5-2.3,4.5-4.8,4.5Z"/>
            <path class="cls-4" d="M284.3,148.5h-3.2v-8.7l-5.7,8.7h-3.4v-13.4h3.2v8.8l5.6-8.8h3.5v13.4Z"/>
            <path class="cls-4" d="M299.2,148.5h-3.2v-8.7l-5.7,8.7h-3.4v-13.4h3.2v8.8l5.6-8.8h3.5v13.4ZM293,131.4c.7,0,1.3-.3,1.6-1h2.4c-.3,2.2-1.9,3.3-4,3.3s-3.7-1.1-4-3.3h2.4c.3.6.9,1,1.6,1Z"/>
            <path class="cls-4" d="M305,135.1v5.1h5v-5.1h3.2v13.4h-3.2v-5.4h-5v5.4h-3.2v-13.4h3.2Z"/>
            <path class="cls-4" d="M326.4,148.5v-1.8c-1,1.4-2.9,2.2-4.6,2.2s-3.8-.9-4.9-2.2c-1.1-1.3-1.7-3-1.7-4.9s.5-3.4,1.7-4.8c1.4-1.6,3-2.3,5-2.3s3.4.8,4.5,2.3v-1.9h2.9v13.4h-2.9ZM318.4,141.9c0,2.2,1.8,3.9,4,3.9,2.3,0,3.9-1.7,3.9-4s-1.6-4-3.9-4c-2.4,0-4,1.8-4,4.1Z"/>
            <path class="cls-4" d="M340.3,148.5h-3.2v-4.6l-3.1,4.6h-4l3.6-4.8c-2.1-.8-3-2.3-3-4.2s.7-2.6,1.7-3.4c1.1-.9,2.4-.9,3.7-1h4.2v13.4ZM337,137.9h-1.3c-1.1,0-1.9.6-1.9,1.7s.8,1.7,1.9,1.7h1.3v-3.3Z"/>
          </g>
        </g>
      </g>
      <g class="cls-6">
        <g class="cls-6">
          <g class="cls-6">
            <path class="cls-4" d="M363.1,148.9c-3.9,0-7.1-3.2-7.1-7.1s3.2-7.1,7.2-7.1,7,3.3,7,7.1-3.2,7.1-7.1,7.1ZM359.2,141.8c0,2.1,1.7,4,3.9,4s3.9-1.7,3.9-4-1.7-4-3.9-4-2.1.5-2.7,1.2c-.7.7-1.1,1.7-1.1,2.8Z"/>
            <path class="cls-4" d="M380.7,129.4c.7-.4,1.2-1,1.5-1.8l2.2,1.6c-.4,1.2-.9,2.3-2,2.9-1.5.9-4.6.7-6.1,1.5-2,1.1-1.8,3.1-1.8,3.1.9-1.3,2.6-2.1,4.2-2.1,3.9,0,6.8,3.1,6.8,7.1s-3.2,7.1-7.1,7.1-7.1-3.2-7.1-7.1c0-5.5.7-9.3,3.4-10.9,2-1.2,5-1,5.8-1.5ZM378.5,145.8c2.3,0,3.9-1.7,3.9-4s-1.7-4-3.9-4-3.9,2-3.9,4,1.7,4,3.9,4Z"/>
            <path class="cls-4" d="M390.4,135.1v1.7c1-1.5,2.5-2.2,4.3-2.2s3.5.6,4.8,2.2c1.2,1.3,1.9,3.1,1.9,4.9,0,3.8-2.8,7.1-6.7,7.1s-3-.6-4.1-1.9v5.9h-3.2v-17.8h2.9ZM391.7,144.7c.7.6,1.7,1,2.6,1,2.3,0,4-1.8,4-4s-1.7-4-3.8-4-3.9,1.8-3.9,4,.4,2.2,1.3,3Z"/>
            <path class="cls-4" d="M414,148.5v-1.8c-1,1.4-2.9,2.2-4.6,2.2s-3.8-.9-4.9-2.2c-1.1-1.3-1.7-3-1.7-4.9s.5-3.4,1.7-4.8c1.4-1.6,3-2.3,5-2.3s3.4.8,4.5,2.3v-1.9h2.9v13.4h-2.9ZM406,141.9c0,2.2,1.8,3.9,4,3.9,2.3,0,3.9-1.7,3.9-4s-1.6-4-3.9-4c-2.4,0-4,1.8-4,4.1Z"/>
            <path class="cls-4" d="M428,129.4c.7-.4,1.2-1,1.5-1.8l2.2,1.6c-.4,1.2-.9,2.3-2,2.9-1.5.9-4.6.7-6.1,1.5-2,1.1-1.8,3.1-1.8,3.1.9-1.3,2.6-2.1,4.2-2.1,3.9,0,6.8,3.1,6.8,7.1s-3.2,7.1-7.1,7.1-7.1-3.2-7.1-7.1c0-5.5.7-9.3,3.4-10.9,2-1.2,5-1,5.8-1.5ZM425.8,145.8c2.3,0,3.9-1.7,3.9-4s-1.7-4-3.9-4-3.9,2-3.9,4,1.7,4,3.9,4Z"/>
            <path class="cls-4" d="M441.2,148.9c-3.9,0-7.1-3.2-7.1-7.1s3.2-7.1,7.2-7.1,7,3.3,7,7.1-3.2,7.1-7.1,7.1ZM437.4,141.8c0,2.1,1.7,4,3.9,4s3.9-1.7,3.9-4-1.7-4-3.9-4-2.1.5-2.7,1.2c-.7.7-1.1,1.7-1.1,2.8Z"/>
            <path class="cls-4" d="M448.4,135.1h9.1v2.8h-3v10.5h-3.2v-10.5h-3v-2.8Z"/>
            <path class="cls-4" d="M462.1,135.1v6.3l4.3-6.3h3.8l-4.8,6.5,5.6,6.8h-4.3l-4.6-6.2v6.2h-3.2v-13.4h3.2Z"/>
            <path class="cls-4" d="M483,148.5v-1.8c-1,1.4-2.9,2.2-4.6,2.2s-3.8-.9-4.9-2.2c-1.1-1.3-1.7-3-1.7-4.9s.5-3.4,1.7-4.8c1.4-1.6,3-2.3,5-2.3s3.4.8,4.5,2.3v-1.9h2.9v13.4h-2.9ZM475,141.9c0,2.2,1.8,3.9,4,3.9,2.3,0,3.9-1.7,3.9-4s-1.6-4-3.9-4c-2.4,0-4,1.8-4,4.1Z"/>
          </g>
        </g>
      </g>
    </g>
  </g>
</svg>