<svg width="200" height="72" viewBox="0 0 200 72" fill="none" xmlns="http://www.w3.org/2000/svg">
<path d="M47.7622 35.8811V25.386C47.7622 25.1484 47.7622 24.8712 47.683 24.594C47.4057 23.4058 46.6533 22.5346 45.6236 21.9405C43.683 20.8316 41.7028 19.6831 39.7622 18.5742C36.7127 16.8316 33.7028 15.0494 30.6929 13.3068C29.6632 12.7128 28.6335 12.1187 27.6434 11.5643C27.4849 11.4851 27.3265 11.4058 27.1681 11.3662C26.2572 11.089 25.3859 11.1286 24.5542 11.5247C24.0394 11.7623 23.4849 12.0395 22.9701 12.3563C17.5839 15.4455 12.2374 18.5346 6.89088 21.6237C6.45523 21.8613 6.05919 22.0989 5.66315 22.4157C4.67305 23.1682 4.1582 24.1979 4.1582 25.4653V46.3761C4.1582 46.6138 4.1582 46.891 4.23741 47.089C4.51464 48.2771 5.22751 49.1484 6.25721 49.7425C7.68296 50.5742 9.1087 51.4058 10.574 52.2375C14.8909 54.7326 19.2473 57.2672 23.6037 59.7623C23.9602 59.9999 24.3562 60.1583 24.7523 60.2771C25.782 60.6336 26.7325 60.6336 27.7226 60.0791C28.2374 59.8019 28.7919 59.5247 29.3067 59.2078C34.6136 56.1583 39.9206 53.0692 45.2275 50.0197C45.5839 49.8217 45.9404 49.5841 46.2572 49.3464C47.2473 48.594 47.8018 47.6039 47.8018 46.3365V35.8415L47.7622 35.8811Z" fill="white"/>
<path d="M16.1582 43.9602L22.574 44.8315L23.2077 45.2671L23.5641 47.881L19.5641 48.277L15.0889 45.7028L16.1582 43.9602Z" fill="#007478"/>
<path d="M43.208 45.3069C43.208 45.2277 43.208 45.1485 43.208 45.1089C43.5248 44.0396 43.6437 42.9703 43.6437 41.8614V41.5841C43.6437 40.7524 43.4852 39.9604 43.2476 39.1683C43.01 38.5346 42.7328 37.9406 42.2575 37.4653C41.7823 36.9901 41.9803 37.2277 41.8219 37.1485C41.307 36.8713 40.6734 36.9109 40.1189 37.3069C39.8021 37.5049 39.5248 37.7822 39.2872 38.099C38.9308 38.5742 38.6536 39.1287 38.4159 39.6831C38.4159 39.7227 38.3763 39.8416 38.3367 39.9208C38.3367 39.9208 38.3367 39.9604 38.3367 40C38.3367 40.0396 38.3367 40.1188 38.2971 40.1584C38.2971 40.2772 38.2971 40.3168 38.2575 40.396C38.2575 40.4752 38.2575 40.5148 38.2575 40.5544V40.6336C38.2575 40.6336 38.2575 40.7128 38.2575 40.7525C38.2575 40.8317 38.2575 40.9109 38.2575 40.9505C38.2575 40.9901 38.2575 41.0297 38.2575 41.0693C38.2575 41.1485 38.2575 41.2277 38.2179 41.3069C38.2179 41.4653 38.2179 41.5445 38.1783 41.6237V41.8614V42.099C38.1783 42.1782 38.1783 42.2574 38.1783 42.3366V42.7723V42.9307V44.0396C38.1783 44.198 38.1783 44.3564 38.1783 44.5148V44.9505V45.1881C38.2179 45.6237 38.3367 46.0594 38.4951 46.495C38.4951 46.8911 39.3268 48.198 39.3268 48.198C39.1684 48 39.01 47.802 38.8912 47.6039C38.5347 47.0495 38.2575 46.4158 38.0991 45.7822C38.0991 45.6633 38.0595 45.5445 38.0199 45.4257C38.0199 45.3465 38.0199 45.2673 37.9803 45.1881C37.9407 44.9109 37.8615 44.6336 37.8219 44.3564C37.8219 44.2772 37.8219 44.198 37.8219 44.0792V43.8416V42.5346C37.8219 42.3366 37.8219 42.1782 37.8219 41.9802V41.8218C37.8219 41.6633 37.8219 41.5841 37.8219 41.5049C37.8219 41.4257 37.8219 41.3465 37.8219 41.2673V41.0297C37.8219 40.8713 37.8615 40.7128 37.9011 40.594V40.5148C37.9011 40.4752 37.9011 40.396 37.9011 40.3564C37.9011 40.3168 37.9011 40.2376 37.9011 40.198C37.9011 40.1584 37.9011 40.0792 37.9407 40.0396C37.9407 40 37.9407 39.8812 37.9803 39.8416C38.0199 39.6831 38.0595 39.6039 38.1387 39.4455C38.1387 39.4059 38.1387 39.3663 38.1783 39.2871C38.1783 39.2475 38.2179 39.1683 38.2575 39.1287C38.2575 39.1287 38.2575 39.1287 38.2575 39.0891C38.2575 39.0495 38.2575 39.0099 38.2971 38.9307C38.3367 38.8119 38.3763 38.7723 38.4159 38.693C38.4159 38.6138 38.4555 38.5346 38.4951 38.5346C38.4951 38.495 38.5348 38.4158 38.5744 38.3762C38.614 38.3366 38.614 38.2574 38.6932 38.2178C38.6932 38.2178 38.6932 38.2178 38.6932 38.1782C38.6932 38.1386 38.7724 38.0198 38.812 37.9802C38.8516 37.901 38.8912 37.8218 38.9704 37.7425L39.0892 37.5841C39.0892 37.5445 39.2476 37.3465 39.2476 37.3465C39.2476 37.3465 39.208 37.3465 39.1288 37.3465C39.1288 37.3465 39.0892 37.3465 39.0496 37.3465C39.0496 37.3465 38.9704 37.3861 38.8912 37.4257C38.8912 37.4257 38.8516 37.4257 38.8516 37.4653C38.8516 37.4653 38.812 37.4653 38.7724 37.5049C38.7724 37.5049 38.7328 37.5049 38.6932 37.5445C38.6932 37.5445 38.6932 37.5445 38.6536 37.5445C38.6536 37.5445 38.6536 37.5445 38.614 37.5445C38.5744 37.5445 38.614 37.5445 38.5744 37.5841C38.4951 37.6633 38.4159 37.7425 38.3367 37.8614C38.3367 37.8614 38.3367 37.901 38.2971 37.9406H38.2575C38.2575 37.9802 38.2575 38.0198 38.2179 38.0594C38.1783 38.099 38.0991 38.2178 38.0595 38.297C38.0595 38.297 38.0595 38.297 38.0595 38.3366C38.0595 38.3762 37.9803 38.495 37.9407 38.5346C37.9011 38.5742 37.8615 38.693 37.8219 38.7326C37.8219 38.7326 37.8219 38.7326 37.8219 38.7723C37.8219 38.8119 37.8219 38.8515 37.8219 38.8911C37.8219 38.9307 37.7823 39.0099 37.7427 39.0495C37.7427 39.1287 37.7031 39.2079 37.6239 39.2871C37.6239 39.2871 37.6239 39.3663 37.5843 39.4059V39.4851C37.5843 39.5643 37.5447 39.6435 37.505 39.7227C37.505 39.7227 37.505 39.802 37.505 39.8416C37.505 39.8812 37.505 39.9208 37.505 39.9604C37.505 40 37.505 40.0792 37.4654 40.1188C37.109 41.3465 36.9902 42.5742 37.0298 43.8416C37.109 45.1485 37.3862 46.4158 38.0199 47.6039C38.0199 47.6435 38.0199 47.7227 38.0595 47.7624C37.9407 47.6435 37.8219 47.5247 37.7427 47.4059C37.3862 46.8515 37.1486 46.2178 36.9506 45.5841C36.911 45.4257 36.911 45.2277 36.8714 45.0693C36.8714 44.5148 36.8318 43.9604 36.7526 43.4059C36.7526 43.0099 36.6338 42.5742 36.6338 42.1782C36.6338 41.7822 36.6734 41.3465 36.7526 40.9505C36.911 39.6435 37.3466 38.4554 38.0991 37.3861C38.0991 37.3465 38.1783 37.2673 38.2179 37.2277C37.0694 38.0594 36.3169 39.1683 36.0397 40.5544C35.9605 40.4356 35.9209 40.3168 35.8813 40.2376C35.7229 40 35.7229 39.7227 35.8021 39.4059C36.1981 38.0198 37.0694 37.0297 38.3763 36.4356C38.5348 36.396 38.7328 36.3168 38.8912 36.3168H40.1981C40.3565 36.3168 40.4753 36.3168 40.6338 36.3168C40.7922 36.3168 40.9902 36.3168 41.109 36.3564C41.5447 36.396 42.0199 36.5544 42.3367 36.7128C42.7724 36.4356 43.0892 36 43.2872 35.4851C43.2872 35.3663 43.2872 35.2871 43.3268 35.1683C43.3268 34.9703 43.2872 34.7723 43.0892 34.7326C42.9308 34.6534 42.7328 34.693 42.5744 34.8515C42.4555 34.9703 42.3367 35.0495 42.1387 35.2079V34.3366L41.4654 34.099L40.7922 34.6138L40.5546 33.3069L39.7229 32.8317L39.5645 32.7128H39.4456C39.4456 32.6732 39.3268 32.7128 39.3268 32.7128H39.2476C39.2476 32.7524 38.614 33.1881 38.614 33.1881L38.4951 31.4455L37.6635 30.9307L37.4654 30.8119L37.3466 30.7326L36.5942 31.0891V29.7029C36.2773 29.4653 35.4456 28.8713 35.1288 28.6336L33.6635 29.2673C33.5843 29.2673 33.505 29.3465 33.3862 29.3861C33.3862 29.2673 33.3466 29.1881 33.3466 29.1089L33.109 27.2079L31.01 26.6534C30.4555 27.2475 29.6239 28.0792 29.0694 28.6336L28.8318 28.8713C28.4753 27.9208 28.1981 26.9703 27.8417 26.0198H27.6833C26.9704 26.099 26.2179 26.1782 25.505 26.2574L24.4753 27.9208C24.4357 28 24.3565 28.0792 24.3169 28.1584C23.8813 28 23.5248 28.1584 23.1684 28.3168C22.7328 27.802 22.2575 27.3267 21.7823 26.8515L20.6338 27.2871L20.5149 27.5247V27.6831C20.4753 27.6831 20.4753 27.7227 20.4753 27.7227L20.3961 27.8812C20.3961 28 20.3565 28.0396 20.3169 28.1188C20.3169 28.1584 20.2773 28.198 20.2773 28.2772C20.1585 28.594 20.0397 28.8317 19.9605 29.0693C19.9605 29.0693 19.9605 29.1089 19.9209 29.1485C19.9209 29.1881 19.8813 29.2277 19.8813 29.3069V29.3465C19.8813 29.3861 19.8813 29.4653 19.8813 29.5049C19.8813 29.5049 19.8813 29.5445 19.8417 29.5841L18.1387 29.6633L17.7823 29.3069L17.3466 28.9505L16.4357 29.3465L16.1189 29.901L15.6041 30.7723C15.2476 30.4158 14.9308 30.1386 14.4951 29.9802H14.4159C14.0199 29.8218 13.5843 29.7822 13.109 29.9802C13.109 29.9802 13.1486 29.9802 13.1882 30.0198C13.4258 30.1782 13.6635 30.2574 13.8615 30.3762C14.0991 30.5346 14.2971 30.693 14.4159 31.0099C14.3367 30.9703 14.2971 30.9703 14.2575 30.9307C13.8219 30.5742 13.3466 30.3762 12.8318 30.1782H12.7526C12.713 30.1782 12.6734 30.1782 12.5942 30.1386C12.5546 30.1386 12.4753 30.1386 12.4357 30.099C11.208 29.7029 10.9308 29.9406 10.9308 29.9406V30.1782C10.9308 30.3366 10.9308 30.5346 10.8912 30.693C10.8912 30.8911 10.812 31.0495 10.7724 31.2079C10.614 31.9604 10.7328 32.7128 10.9704 33.4257V33.5841C10.9308 33.7425 10.7724 33.9802 10.614 34.3366C10.5744 34.4554 10.4951 34.5742 10.4555 34.7326C10.4555 34.7723 10.4555 34.8515 10.4159 34.8911C10.3763 35.0099 10.3367 35.1287 10.2971 35.2871L10.4555 37.2673L10.0199 37.1881C10.0199 37.2277 9.98029 37.3465 9.90109 37.3861C9.90109 37.3861 9.86148 37.3861 9.86148 37.4257C9.66346 37.5841 9.66346 37.7425 9.78227 37.901C9.78227 37.901 9.78227 37.9406 9.82188 37.9406C9.90109 38.0198 9.90109 38.099 9.86148 38.2178C9.38623 38.3366 9.14861 38.4554 8.95059 38.693C8.67336 39.0495 8.63376 39.4455 8.91099 39.8416C8.95059 39.9604 9.0694 40.0792 9.14861 40.198C9.14861 40.2376 9.18822 40.3564 9.18822 40.4356C9.18822 40.8317 9.42584 41.2673 9.82188 41.3465H12.713C12.713 41.3069 13.9407 41.3069 13.9407 41.3069H14.614C14.5744 41.4257 14.5347 41.5445 14.4951 41.6633H11.2476C11.2476 41.7029 9.94069 41.7029 9.94069 41.7029H9.78227C9.78227 41.7425 9.82188 41.8614 9.86148 41.8614C10.0199 41.9802 10.0199 42.099 9.94069 42.297C9.90109 42.6534 9.86148 43.0099 9.94069 43.3663C10.0199 44.0792 10.2575 44.7128 10.4555 45.3465C10.7328 46.1782 11.1684 46.9307 11.7625 47.5643C11.7625 47.5643 11.8021 47.6435 11.8813 47.7624C10.5744 47.0495 10.0199 45.3861 9.90109 44.9109V44.8317L9.58426 44.9901C8.91099 45.3069 8.23772 45.6237 7.56445 45.901V46.0594C7.60406 46.1782 7.64366 46.297 7.72287 46.3762C8.0793 47.0495 8.63376 47.5643 9.26742 47.9208C10.8516 48.8317 12.3961 49.7425 13.9803 50.6534L16.911 52.3564L18.9704 53.4653L21.4654 54.9703L22.2179 55.4059C23.0496 55.8812 23.8813 56.3564 24.713 56.8317C24.8714 56.9109 25.0694 56.9901 25.2278 57.0693C26.0199 57.3465 26.812 57.3861 27.5645 57.0693C27.9209 56.8713 28.2377 56.6732 28.5942 56.4752C28.8318 56.3564 29.0298 56.2376 29.2278 56.1188L32.6734 54.1386C33.505 53.6633 34.3763 53.1485 35.2476 52.6336L35.9605 52.198L36.1981 52.0792L36.9902 51.6435C39.2476 50.3366 41.505 49.0693 43.7229 47.802C44.4357 47.3663 44.9506 46.7326 45.2278 45.901C45.2278 45.8218 45.2674 45.7029 45.307 45.5841C44.7526 45.4257 44.1981 45.2673 43.6437 45.1089L43.4852 45.2673L43.208 45.3069ZM9.62386 39.8416C9.58425 39.6831 9.50505 39.6039 9.46544 39.4851C9.46544 39.4851 9.34663 39.4059 9.30703 39.4455C9.30703 39.4455 9.22782 39.5247 9.22782 39.6039C9.22782 39.6831 9.22782 39.7624 9.22782 39.8416C9.22782 39.9208 9.34663 40.0792 9.18822 40.1188C9.0298 40.1584 9.0298 40 8.95059 39.9208C8.91099 39.7624 8.79218 39.6435 8.75257 39.4851C8.75257 39.4455 8.71297 39.4059 8.71297 39.3267C8.71297 39.0891 8.87138 39.0099 9.0298 38.8911C9.18822 38.7723 9.38624 38.7326 9.54465 38.8911C9.54465 38.8911 9.58426 38.9307 9.58426 38.9703C9.58426 39.2079 9.62386 39.4851 9.62386 39.7624C9.62386 39.7624 9.62386 39.7624 9.54465 39.8416H9.58426H9.62386ZM10.3763 37.8614C10.3763 37.8614 10.3763 37.9406 10.3367 37.9802V38.0594V37.901V37.6633V37.5049V37.3465V36.4356V36.1188V35.4851V35.6039C10.3367 35.7227 10.3763 35.802 10.4159 35.9208C10.4159 36.0792 10.4159 36.1584 10.4555 36.2376V36.4752V37.1485V37.2673V37.3861V37.5049V37.6237C10.4555 37.6237 10.4555 37.7029 10.4555 37.7425V37.901L10.3763 37.8614ZM11.8813 39.6039C11.6437 39.6039 11.3664 39.5247 11.1288 39.6435C10.8912 39.802 10.812 40 10.7724 40.2772C10.6536 40.2772 10.5744 40.2772 10.4555 40.2772C10.4555 40.1584 10.4159 40.0396 10.4159 39.9208C10.4555 39.3663 11.0892 38.9307 11.6437 39.0891C11.9209 39.1683 11.9605 39.2475 11.8813 39.5643V39.6039ZM9.82188 42.6534V42.495C9.90109 42.495 9.98029 42.495 9.98029 42.5346C10.7328 43.0495 11.6041 43.2475 12.4753 43.3663C12.8318 43.3663 13.109 43.4059 13.4654 43.4059C13.8219 43.4059 13.5843 43.4059 13.6239 43.4059C13.7427 43.4455 13.8615 43.5643 13.9803 43.6435C11.01 44.0396 9.86148 42.6138 9.86148 42.6138L9.82188 42.6534ZM10.3367 45.2277C10.2575 44.8317 10.1783 44.396 10.1783 44C10.1783 43.6039 10.2179 43.6039 10.2575 43.3663C10.4159 43.4455 10.5347 43.5247 10.6932 43.6039C10.614 44.3168 10.6932 45.0297 10.8516 45.7425C11.0496 46.4554 11.3664 47.0891 11.7229 47.7227C11.7229 47.7227 10.7724 46.7326 10.3367 45.2673V45.2277ZM11.6833 43.9208C11.8417 43.9208 11.9209 43.9208 12.0793 43.9604C12.0001 44.6732 12.0397 45.3465 12.1981 46.0198C12.3565 46.6534 12.6338 47.2871 12.9506 47.8812C12.0001 46.7723 11.6041 45.4257 11.6833 43.9208ZM12.911 44.0396H13.1882C13.1882 45.3465 13.4258 46.5742 14.0199 47.7227C13.2674 47.0891 12.5942 45.1089 12.911 44.0396ZM14.0991 37.5841C14.0991 37.5841 14.0991 37.5841 14.1783 37.5445H14.2179H14.2575C14.2971 37.5445 14.4159 37.4653 14.4951 37.3861H14.5348L14.9704 37.0693C15.208 36.9109 15.406 36.7921 15.6833 36.6336C15.6833 36.7921 15.6833 36.9901 15.7229 37.1089V37.3465C15.7229 37.3465 15.7229 37.4257 15.7229 37.4653C15.7229 37.4653 15.7229 37.5049 15.7229 37.5445C15.7229 37.5445 15.7229 37.5841 15.7625 37.6237C15.7625 37.6237 15.7625 37.6633 15.8021 37.7029C15.8021 37.7029 15.8021 37.7425 15.8417 37.7822C15.8417 37.7822 15.8417 37.8218 15.8813 37.8614C15.8813 37.8614 15.8813 37.8614 15.9209 37.901C16.0001 38.0198 16.1189 38.0594 16.2377 38.1386H16.4357C16.6734 38.1386 16.8714 38.0594 17.0694 37.901C17.0694 37.901 17.0694 37.901 17.109 37.8614C17.3862 37.5841 17.5843 37.1089 17.6239 36.5544C17.6239 36.3168 17.6239 36.1188 17.6239 35.9208C17.6239 35.7624 17.5843 35.6435 17.505 35.5247C17.505 35.5247 17.505 35.4851 17.4654 35.4455C17.7823 35.2871 18.0595 35.1287 18.2971 35.0099C18.2971 35.0099 18.3763 35.0099 18.4159 34.9703C18.5347 34.9307 18.6536 34.8515 18.7724 34.8119C18.8912 34.7723 19.01 34.693 19.1288 34.6534V34.7326C19.1684 34.7326 19.1288 34.6534 19.1288 34.6534C19.1288 34.6534 20.0397 35.0099 20.2773 35.8812C20.4357 36.4752 20.1189 37.3861 20.1189 37.3861C19.9209 37.4653 19.7625 37.5841 19.6041 37.6633C19.01 37.9406 18.4555 38.2574 17.8615 38.5346H17.8219C17.7427 38.5346 17.6239 38.5742 17.5447 38.5742H15.7625C15.406 38.6138 15.1288 38.7326 14.7724 38.8119L14.5348 38.4158L13.9011 37.4653L14.0991 37.5841ZM16.1585 36.4356V36.3564C16.1585 36.3564 16.1981 36.3564 16.2377 36.3168C16.3961 36.2376 16.5546 36.1584 16.713 36.0396C16.7526 36.0792 16.7526 36.198 16.7922 36.2772V36.594C16.7526 36.8317 16.5942 36.9505 16.4357 36.9505H16.3565C16.3565 36.9505 16.3565 36.9505 16.3169 36.9505C16.3169 36.9505 16.2773 36.8713 16.2377 36.8317C16.2377 36.7524 16.1981 36.6336 16.1981 36.5148L16.1585 36.4356ZM19.9605 40.9901L19.6437 41.0693L18.3367 41.4257L17.5843 41.6237L17.1882 41.7425C17.1882 41.6237 17.109 41.5049 17.0694 41.3861C17.1486 41.3861 17.2278 41.3465 17.307 41.3069C17.3466 41.3069 17.3862 41.3069 17.4258 41.3069L18.0595 41.0693C18.3763 40.9505 18.6932 40.8713 19.01 40.7525C19.208 40.7128 19.406 40.6336 19.6041 40.5544C19.8417 40.4752 20.1189 40.4356 20.3565 40.5544C20.713 40.6732 20.8714 40.9901 20.6338 41.2673C20.3961 41.5445 19.9605 41.9406 19.3268 41.7822L20.0397 41.3465L19.9209 41.0297L19.9605 40.9901ZM16.6734 41.7425H14.5348C14.5348 41.7029 14.5348 41.6633 14.5348 41.6237C14.5348 41.6237 14.5347 41.5445 14.5744 41.4653C14.5744 41.3861 14.5744 41.3465 14.614 41.3069C14.614 41.3069 14.614 41.2673 14.6536 41.1881C14.6536 41.1881 14.6536 41.1881 14.6536 41.1485C14.6536 41.1485 14.6536 41.1485 14.6536 41.1089C14.6536 41.0693 14.6536 41.0297 14.6932 40.9901C14.6932 40.9901 14.7328 40.9505 14.7724 40.9109C14.812 40.8713 14.8516 40.7921 14.9308 40.7525C14.9308 40.7525 14.9308 40.7525 14.9704 40.7525H15.6833C15.6833 40.7525 15.7229 40.7524 15.7625 40.7921H15.8021C15.8021 40.7921 15.8021 40.7921 15.8417 40.7921C15.8417 40.7921 15.8417 40.7921 15.8813 40.7921C15.8813 40.7921 15.8813 40.7921 15.9209 40.7921C15.9209 40.7921 15.9605 40.7921 15.9605 40.8317C15.9605 40.8317 15.9605 40.8317 16.0001 40.8713V40.9109C16.0001 40.9109 16.0001 40.9505 16.0001 40.9901C16.0001 40.9901 16.0001 41.0297 16.0397 41.0693V41.1089C16.0397 41.1485 16.0397 41.2277 16.0793 41.2673V41.3465V41.5049H16.1981L16.6734 41.7425ZM22.6536 46.7723C21.2674 46.8119 19.9605 46.5346 18.7724 45.9802C18.4159 45.8218 18.1387 45.6237 17.8219 45.4653C17.2674 45.0693 16.8714 44.6336 16.8318 44.6336C16.911 44.6336 16.9902 44.7128 17.0694 44.7524C18.5347 45.4653 20.0793 45.9406 21.7031 46.0594C22.0991 46.0594 22.4951 46.0594 22.8516 46.0594H23.0892L23.208 46.8515C23.01 46.8911 22.812 46.8911 22.6536 46.8911V46.7723ZM22.9308 29.7029C22.9308 29.7029 22.8912 29.7029 22.8516 29.7029C21.0694 30.5742 18.9704 32.5544 18.8516 32.6732C19.2476 32.198 19.6437 31.6831 20.0397 31.1683C20.0397 31.1683 18.7724 31.1287 16.9506 32C16.9506 32 16.8714 32 16.8318 32.0396C16.8318 32.0396 16.7922 32.0396 16.7526 32.0396C16.713 32.0396 16.6734 32.0792 16.6338 32.0792C16.5942 32.0792 16.5546 32.1188 16.4753 32.1188C16.3961 32.1188 16.3961 32.1188 16.3565 32.1584C16.3169 32.1584 16.2773 32.198 16.1981 32.2376H16.1585C16.1585 32.2376 16.1189 32.2376 16.1189 32.2772C15.9605 32.3564 15.8021 32.4752 15.6437 32.594C14.2575 33.5841 13.3862 34.693 13.2674 34.8515C13.2674 34.7723 13.307 34.693 13.3466 34.6138C13.6635 33.8614 14.4555 31.9604 14.2575 31.4851H14.3763C14.3763 31.4587 14.3763 31.4455 14.3763 31.4455C14.3763 31.4455 14.4159 31.4455 14.4555 31.4059C14.4555 31.4059 14.4951 31.4059 14.5348 31.3663C14.614 31.3267 14.6932 31.2871 14.812 31.2079C14.812 31.2079 14.8912 31.2079 14.9308 31.1683H14.9704C14.9704 31.1683 15.01 31.1683 15.0496 31.1683C15.0892 31.1683 15.1288 31.1683 15.208 31.1287H15.3664C15.406 31.1287 15.4852 31.0891 15.5248 31.0891H15.6041C15.6041 31.0891 15.6437 31.0891 15.7229 31.0891C15.8021 31.0891 15.7625 31.0891 15.8417 31.0891C15.9209 31.0891 15.8813 31.0891 15.9605 31.0891C16.0001 31.0891 16.0793 31.0891 16.1189 31.0495C16.1189 31.0495 16.1981 31.0495 16.2377 31.0495H16.2773C16.3169 31.0495 16.4357 31.0495 16.5149 31.0099C16.5546 31.0099 16.5942 31.0099 16.6734 31.0099H16.7922C16.8318 31.0099 16.911 31.0099 16.9506 31.0099C17.0298 31.0099 17.109 31.0099 17.1882 30.9703H18.8912C19.3268 30.9703 19.7229 31.0099 20.1585 31.1287C20.1981 31.1287 20.2377 31.0891 20.3169 31.0099C21.0298 30.3366 21.8219 29.7822 22.7328 29.4257C22.8912 29.3861 23.01 29.3465 23.1288 29.2673C23.3268 29.1881 23.4852 29.2673 23.6437 29.3861C24.0397 29.7029 24.3169 30.099 24.5546 30.5346C24.911 31.2475 25.0694 32.0396 25.1882 32.8713C25.2674 33.6237 25.2674 34.3762 25.1882 35.1287V35.2871C25.109 34.1386 24.7526 33.0297 24.4753 32.396C24.4753 32.3564 24.4753 32.2772 24.4753 32.2376C24.4753 32.198 24.4357 32.0792 24.3961 32.0396V31.9208V31.802C24.2377 31.4455 24.0397 31.1683 23.8813 30.8515C23.8021 30.693 23.6833 30.5742 23.5249 30.4554C23.2872 30.2178 23.1684 30.1386 23.0496 30.2178V29.901L22.9308 29.7029ZM28.4357 47.2871C28.5149 48.0792 28.6734 48.7921 28.911 49.5445C29.0694 50.1386 29.1882 50.5346 29.1882 50.5742C28.0793 48.6732 27.8021 45.6633 27.7625 45.3069V44.2772C27.7625 43.1683 27.9209 42.099 28.2773 41.0297C28.3169 40.8713 28.3961 40.7128 28.4357 40.594C28.4357 40.5544 28.4753 40.4356 28.5149 40.3564C28.5149 40.3168 28.5546 40.2376 28.5942 40.198C28.5942 40.198 28.5942 40.1584 28.5942 40.1188C28.5942 40.1188 28.5942 40.0792 28.6338 40C28.6338 40 28.6338 40 28.6338 39.9604C28.6338 39.9604 28.6338 39.8812 28.6734 39.8416C28.6734 39.8416 28.6734 39.802 28.6734 39.7624C28.6734 39.7227 28.713 39.6435 28.7922 39.6039C28.7922 39.5643 28.8714 39.4851 28.911 39.4455C28.9506 39.4059 28.9506 39.3267 29.0298 39.2871C29.0298 39.2475 29.0694 39.2079 29.109 39.1287C29.109 39.0891 29.1486 39.0495 29.2278 38.9703C29.2278 38.9307 29.307 38.8911 29.3466 38.8119C29.4258 38.693 29.505 38.6138 29.6239 38.495L29.7031 38.4158L29.8219 38.297L29.9407 38.1782L30.0199 38.099C30.0199 38.099 30.0991 38.0594 30.1387 38.0198C30.0595 38.0198 29.9803 38.0594 29.9011 38.099C29.8219 38.099 29.7427 38.1782 29.6635 38.2178C29.6635 38.2178 29.6239 38.2178 29.5843 38.2178C29.505 38.2178 29.4258 38.297 29.3466 38.3366C29.3466 38.3366 29.3466 38.3366 29.307 38.3366C29.307 38.3366 29.2674 38.3366 29.2278 38.3762C29.2278 38.3762 29.1486 38.4158 29.109 38.4554C29.109 38.4554 29.0694 38.495 29.0298 38.5346C29.0298 38.5346 28.9902 38.5346 28.9506 38.5742H28.911C28.911 38.6534 28.8714 38.693 28.7922 38.7326L28.713 38.8119C28.713 38.8119 28.713 38.8251 28.713 38.8515C28.713 38.8515 28.713 38.8911 28.6734 38.9307C28.6734 38.9307 28.6734 38.9307 28.6734 38.9703H28.6338C28.6338 39.0099 28.6338 39.0495 28.5942 39.0891C28.5942 39.0891 28.5942 39.1287 28.5546 39.1683C28.5546 39.1683 28.5149 39.2475 28.4753 39.3267C28.4753 39.3663 28.4357 39.4059 28.3961 39.4851C27.8021 40.4752 27.4456 41.5841 27.208 42.6534C26.9704 43.6435 26.8912 44.6336 26.8516 45.6237C26.8516 45.9802 26.8516 46.3762 26.8516 46.7326V46.9307C26.8912 47.6435 27.01 48.396 27.208 49.1089C27.2872 49.4653 27.3664 49.6237 27.3664 49.6633C26.7328 48.5544 26.4951 46.8119 26.4555 46.4158V46.3366C26.3763 45.5049 26.3367 44.6336 26.4159 43.7624C26.4555 43.0891 26.5744 42.4554 26.6932 41.7822C26.9308 40.6336 27.4456 39.5247 28.0793 38.5346L28.1981 38.3762L28.6338 37.7425C28.5942 37.7822 28.5149 37.8614 28.4753 37.901C28.4753 37.901 28.4357 37.9406 28.3565 37.9802C28.3169 38.0198 28.2377 38.0594 28.1981 38.1386C28.1585 38.2178 28.1189 38.1782 28.0793 38.2574C28.0397 38.2574 28.0001 38.3366 27.9209 38.3762C26.812 39.4455 26.1387 40.7524 25.7031 42.2178C25.2674 43.9208 25.1486 45.5841 25.4258 47.2475C25.4258 47.4455 25.4654 47.6039 25.5447 47.802C25.7031 48.5148 25.9407 49.2277 26.2575 49.9802C26.3763 50.3366 26.4951 50.5346 26.4951 50.5742C25.6239 49.6633 25.1882 47.6435 25.0694 47.1287C24.6734 45.0297 24.7922 43.0099 25.4654 40.9901C25.7031 40.3564 25.9407 39.6831 26.3367 39.1287C26.5744 38.7723 26.8516 38.495 27.1288 38.1782C27.1684 38.1386 27.208 38.099 27.2476 38.0198C27.1684 38.0594 27.0892 38.1386 27.01 38.1782C26.1387 38.8119 25.5447 39.6039 25.109 40.5544C24.5942 41.6633 24.3565 42.8119 24.2773 44C24.2377 44.8713 24.2773 45.7425 24.3961 46.5742C24.5546 48.0792 25.5447 50.495 25.5843 50.5742C24.6338 49.5841 24.0793 47.9604 23.9605 47.5247C23.9605 47.4455 23.9605 47.4851 23.9605 47.4851C23.8021 46.8515 23.7229 46.2574 23.6437 45.5841C23.4852 43.4851 24.0001 41.5841 25.0298 39.8416C25.6239 38.8515 26.4159 38.0594 27.3664 37.4257C27.7229 37.1881 28.1189 37.0693 28.5546 37.0693H29.2674C29.505 37.0693 29.7823 37.0693 30.0595 37.0693H31.1288C31.2872 37.0693 31.406 37.0693 31.5645 37.0693H32.2773C32.3169 37.0693 32.3961 37.0693 32.4357 37.0693H32.5942C32.6338 37.0693 32.713 37.0693 32.7526 37.1089C32.7526 37.1089 32.8318 37.1089 32.8714 37.1089C32.8714 37.1089 32.9506 37.1089 32.9902 37.1485C33.0298 37.1485 33.0694 37.1485 33.1486 37.1881C33.1486 37.1881 33.1882 37.1881 33.2278 37.1881C33.2278 37.1881 33.2674 37.1881 33.3466 37.2277C33.3466 37.2277 33.3466 37.2277 33.3862 37.2277C33.3862 37.2277 33.4654 37.2277 33.505 37.2673C33.505 37.2673 33.5843 37.3069 33.6239 37.3465C33.6239 37.3465 33.6635 37.3465 33.6635 37.3861C33.6635 37.3861 33.7031 37.3861 33.7427 37.4257C33.8615 37.4653 33.9407 37.5841 34.0595 37.6633H34.0991C34.0991 37.7029 34.1387 37.7822 34.1783 37.8218C34.2179 37.8614 34.2575 37.901 34.3367 37.9406C34.3367 37.9406 34.3367 37.9406 34.3367 37.9802C34.2179 37.9406 34.0991 37.8218 33.9803 37.7822C33.8615 37.7425 33.7427 37.6633 33.6635 37.6237C33.6239 37.6237 33.5447 37.6237 33.505 37.5841C33.4654 37.5445 33.3862 37.5841 33.3466 37.5445H32.1981C32.1981 37.5445 32.1189 37.5445 32.0793 37.5445C32.0397 37.5445 32.0001 37.5445 31.9605 37.5445C31.9605 37.5445 31.9209 37.5445 31.8813 37.5445C31.8813 37.5445 31.8417 37.5445 31.8021 37.5445C31.8021 37.5445 31.7229 37.5445 31.6833 37.5841H31.6437C31.6041 37.5841 31.5248 37.6237 31.4852 37.6633C31.0496 37.901 30.6536 38.2574 30.3367 38.693C29.8219 39.3267 29.505 40.0396 29.2278 40.7921C28.7922 42.0198 28.6338 43.2475 28.5942 44.5148C28.5546 45.1485 28.5942 45.901 28.713 46.6138L28.5149 46.8119L28.4357 47.2871ZM34.5744 48.2376C34.4159 48.594 34.2575 48.9505 34.0595 49.2673C34.0595 49.3069 33.9803 49.3861 33.9407 49.4257C33.9011 49.4653 33.8615 49.5445 33.8219 49.5841C33.7823 49.6633 33.6635 49.7425 33.5843 49.8218C33.5447 49.8614 33.4654 49.9406 33.3862 49.9802C33.3466 50.0198 33.2278 50.099 33.1882 50.1386C32.713 50.495 32.1585 50.4554 31.6833 50.1386C31.6833 50.1386 31.6437 50.099 31.6041 50.0594C31.3664 49.901 31.2476 49.6633 31.0892 49.4257V49.3069C31.01 49.2277 30.9308 49.1485 30.9308 49.0693L30.8516 48.9109C30.8516 48.8713 30.812 48.7921 30.7724 48.7524C30.614 48.3168 30.4951 47.8416 30.4159 47.3663C30.4159 47.2079 30.4159 47.0891 30.3763 46.9307C30.2575 45.8218 30.2575 44.7524 30.4951 43.6435C30.614 42.9703 30.812 42.3366 31.0892 41.7029C31.2476 41.2673 31.4852 40.8713 31.8021 40.5148C31.8417 40.4356 31.9605 40.3564 32.0397 40.2772C32.1981 40.1584 32.2773 40.0396 32.4753 39.9208C32.4753 39.9208 32.5546 39.8812 32.5942 39.8812C32.6338 39.8812 32.6734 39.8812 32.713 39.8416C32.7526 39.802 32.7922 39.8416 32.8318 39.8416H32.9506H33.3466C33.3862 39.8416 33.4654 39.8416 33.505 39.8812H33.5447C33.5447 39.8812 33.5843 39.8812 33.6239 39.8812C33.6635 39.8812 33.7427 39.9208 33.7823 39.9604C33.7823 39.9604 33.7823 39.9604 33.8219 39.9604C33.8219 39.9604 33.9011 40 33.9407 40.0396L34.0199 40.1188L34.0991 40.198C34.2575 40.3564 34.4159 40.594 34.5347 40.8317C34.812 41.3465 34.9704 41.901 35.0892 42.4554C35.4456 44.4356 35.3268 46.3762 34.5744 48.198V48.2376ZM35.2476 33.3465V33.4257C35.2476 33.4653 35.2476 33.5445 35.2476 33.5841C35.2476 33.5841 35.208 33.6633 35.1684 33.7029C35.1684 33.7425 35.1288 33.7822 35.0892 33.8218C35.0892 33.8218 35.0892 33.8218 35.0496 33.8614H34.5347C34.2179 33.8614 33.9011 33.7425 33.6239 33.5049H33.9407C34.3367 33.3861 34.4159 33.0693 34.0991 32.7921H34.0595C34.0595 32.7657 34.0595 32.7524 34.0595 32.7524H34.0199C34.0199 32.7524 34.0199 32.7524 33.9803 32.7524C33.9803 32.7524 33.9407 32.7524 33.9011 32.7128C33.1486 32.2772 32.3169 32.0792 31.4456 32.1188H31.2476C31.2476 32.1584 31.2476 32.198 31.2476 32.2376C31.2476 32.2376 31.2476 32.2772 31.2476 32.3564C31.2476 32.396 31.2476 32.4752 31.208 32.5148C31.208 32.5148 31.208 32.5544 31.208 32.594C31.208 32.6336 31.208 32.6336 31.208 32.6732C31.208 32.6732 31.208 32.6732 31.208 32.7128C31.208 32.7128 31.208 32.7921 31.1684 32.8317C31.1684 32.8317 31.1684 32.8713 31.1288 32.8713H31.0892C31.0892 32.9241 31.076 32.9637 31.0496 32.9901C31.0496 32.9901 31.0496 32.9901 31.01 33.0297C31.01 33.0297 31.01 33.0297 30.9704 33.0297H30.8912C30.8912 33.0297 30.8912 33.0297 30.8516 33.0297C30.812 33.0297 30.812 33.0297 30.7724 33.0297C30.7724 33.0297 30.7328 33.0297 30.6536 33.0297C29.9803 33.2277 29.3466 33.0693 28.7526 32.6732C28.911 32.6336 28.9902 32.594 29.0298 32.5544C29.2674 32.4752 29.4654 32.3564 29.6635 32.2376C29.6635 32.2376 29.6635 32.2376 29.6635 32.198V32.1188C29.6635 31.9208 29.505 31.8812 29.3862 31.8812C28.911 31.7624 28.4753 31.8812 28.0001 31.9604H27.8417C27.8021 32 27.7229 32 27.6833 32H27.406C27.3664 32 27.2872 32.0396 27.208 32.0792C27.208 32.0792 27.1684 32.0792 27.1288 32.0792C26.9704 32.1584 26.812 32.2376 26.6932 32.3564C26.5744 31.8416 26.5348 31.4059 26.4555 30.8911C26.5744 30.8515 26.6536 30.8119 26.7724 30.7723C27.6041 30.495 28.3961 30.3366 29.2674 30.297C31.208 30.2178 33.109 30.6534 34.8516 31.4059C35.01 31.4455 35.1288 31.5643 35.2872 31.6435C35.2872 31.6435 35.3664 31.6831 35.406 31.6831C35.4456 31.6831 35.4852 31.7227 35.5248 31.7227C35.5248 31.7227 35.5645 31.7227 35.6041 31.7623C35.7625 31.8812 35.9605 32 36.1189 32.1188C36.6338 32.4752 37.1486 32.7921 37.6239 33.1485C38.0991 33.5049 38.1387 33.5049 38.3763 33.6633C38.4159 33.6633 38.4951 33.7425 38.5348 33.7822C38.6536 33.8218 38.7328 33.901 38.8516 33.9406C38.9704 33.9802 38.9308 33.9802 39.01 34.0198C39.0496 34.0198 39.1288 34.0594 39.1684 34.1386L39.3268 34.2178L39.4852 34.297C39.6041 34.3366 39.6833 34.4158 39.8021 34.4554C39.8021 34.4554 39.8417 34.4554 39.8813 34.4554C39.9209 34.4554 39.8813 34.4554 39.9209 34.4554C39.9605 34.4554 40.0793 34.495 40.1585 34.5346C40.1585 34.5346 40.1981 34.5346 40.2377 34.5346C40.2773 34.5346 40.3961 34.5742 40.4357 34.6138C40.4753 34.6138 40.5942 34.6534 40.6338 34.693C41.0694 34.8515 41.505 34.9703 41.9407 35.0495H42.4159C42.5744 35.0495 42.7724 35.0099 43.01 34.8911H43.0496C43.0496 34.8911 43.0892 34.8911 43.1684 34.8515C43.1684 34.8515 43.1684 34.8515 43.208 34.8515C43.208 34.8515 43.2476 34.8119 43.2872 34.8119C43.2872 34.8911 43.2872 34.9307 43.2476 34.9703C43.2476 35.0099 43.2476 35.0495 43.2476 35.0891C43.2476 35.0891 43.2476 35.0891 43.208 35.1287C43.208 35.1287 43.1288 35.1683 43.0892 35.2079C43.0892 35.2079 43.0496 35.2079 43.01 35.2475C42.9704 35.2475 42.8912 35.2871 42.8516 35.3267H41.5447C41.4654 35.3267 41.3862 35.3267 41.2674 35.2871H41.1882C41.1486 35.2871 41.0298 35.2871 40.9902 35.2475C40.9506 35.2079 40.8318 35.2475 40.7526 35.2079C40.713 35.2079 40.5942 35.2079 40.5149 35.1683C40.4753 35.1683 40.3961 35.1683 40.3565 35.1287C40.3565 35.1287 40.3169 35.1287 40.2773 35.1287C40.2773 35.1287 40.2377 35.1287 40.1585 35.1287H40.0001C39.9605 35.0891 39.8417 35.0099 39.8021 34.9703C39.7229 34.9703 39.6437 34.9307 39.5645 34.8911C38.4555 34.4554 37.3862 33.8614 36.3961 33.1485C36.3961 33.1485 36.3565 33.1485 36.3169 33.1089C36.3169 33.1089 36.3169 33.1089 36.2773 33.1089H36.2377C36.2377 33.1089 36.2377 33.1089 36.1981 33.1089L35.7625 33.2673L35.2476 33.3465ZM43.01 43.802V44C42.9308 44.4356 42.812 44.8317 42.6536 45.2673C42.5347 45.6237 42.3367 45.901 42.1387 46.2178C42.0991 46.3366 41.9803 46.4158 41.9011 46.495C41.8219 46.5742 41.7427 46.6138 41.7031 46.6534C41.7031 46.6534 41.6635 46.6534 41.6635 46.693C41.5843 46.7326 41.505 46.8119 41.4258 46.8515C41.3466 46.8911 41.2674 46.8911 41.1882 46.8911H41.1486C40.9902 46.8911 40.8714 46.8911 40.7526 46.8119C40.7526 46.8119 40.6734 46.8119 40.6338 46.7723C40.5942 46.7723 40.5149 46.693 40.4753 46.6138C40.3169 46.4158 40.1585 46.2178 40.0397 46.0198C39.9605 45.8614 39.8813 45.7425 39.8417 45.5841C39.6437 45.1089 39.5248 44.5544 39.4852 44.0792C39.4456 43.7227 39.4456 43.3267 39.406 43.1287C39.406 42.693 39.406 42.297 39.4852 41.901C39.4852 41.7425 39.4852 41.6237 39.5249 41.4653C39.5645 41.1089 39.6833 40.7524 39.7625 40.396C39.7625 40.3564 39.7625 40.2772 39.8021 40.198C39.8417 40.0792 39.8813 39.9604 39.9605 39.8416C40.1189 39.4851 40.3169 39.1287 40.5546 38.8515C40.5546 38.8515 40.5546 38.8515 40.5942 38.8119C40.5942 38.8119 40.5942 38.8119 40.6338 38.7723C40.713 38.693 40.7922 38.6138 40.8714 38.5742C40.8714 38.5742 40.911 38.5742 40.9902 38.5346C41.0694 38.495 41.1486 38.495 41.1882 38.4554C41.3466 38.4554 41.4258 38.4158 41.5843 38.4554C41.6239 38.4554 41.7031 38.4554 41.7427 38.4554C41.7823 38.4554 41.8615 38.4554 41.9011 38.495C41.9011 38.495 41.9407 38.495 41.9803 38.5346C42.0595 38.5742 42.1387 38.6534 42.2179 38.693C42.2971 38.7723 42.3763 38.8515 42.4555 38.9307C42.812 39.4059 42.9704 39.9604 43.0892 40.5148C43.1684 40.9505 43.2476 41.4257 43.2476 41.8614C43.2476 42.495 43.2476 43.1683 43.1288 43.802H42.9704H43.01Z" fill="#2E434F"/>
<path d="M17.5842 18.6138C16.7922 19.0495 16.0001 19.5247 15.1684 20L28.9902 19.1287L17.5842 18.6138ZM31.7625 17.1485L24.1585 16.5148L30.0199 16.1584C28.911 15.5247 27.7625 14.8515 26.6931 14.2574C26.5347 14.1782 26.3763 14.099 26.2575 14.0594C26.1387 14.0594 26.0199 14.0198 25.9011 14.0198C25.6634 14.0198 25.4258 14.099 25.1486 14.2574C24.0397 14.8911 22.7328 15.6039 21.4654 16.3564C20.8318 16.7128 20.1585 17.1089 19.4852 17.5049L31.8417 17.2673C31.8417 17.2673 31.7625 17.2277 31.7228 17.2277L31.7625 17.1485ZM36.1189 19.6831L32.7526 20.2376L37.2674 20.3168C36.911 20.0792 36.5149 19.8812 36.1585 19.6831H36.1189ZM16.6733 41.6633V41.5841C16.6733 41.4653 16.6733 41.4257 16.6337 41.4257V41.3465C16.5941 41.3465 16.5941 41.3069 16.5545 41.2673C16.5545 41.2673 16.5545 41.2673 16.5545 41.2277C16.5545 41.2277 16.5545 41.1881 16.5149 41.1485C16.5149 41.1485 16.4753 41.1485 16.4753 41.1089H16.4357C16.4357 41.1089 16.4357 41.1089 16.3961 41.0693C16.3961 41.0693 16.3961 41.0693 16.3565 41.0693H16.3169C16.3169 41.0693 16.2773 41.0693 16.2377 41.0297H15.5248C15.5248 41.0297 15.5248 41.0297 15.4852 41.0297C15.4456 41.0297 15.406 41.0693 15.3268 41.1485C15.3268 41.1485 15.3268 41.1617 15.3268 41.1881C15.3268 41.1881 15.3268 41.1881 15.2872 41.2277C15.2872 41.2277 15.2872 41.2277 15.2476 41.2673C15.2476 41.3069 15.2476 41.3465 15.2476 41.3861C15.2476 41.3861 15.2476 41.3861 15.2476 41.4257C15.2476 41.4257 15.2476 41.4653 15.208 41.5445C15.208 41.5445 15.208 41.5841 15.1684 41.6237C15.1684 41.7425 15.1684 41.7822 15.1288 41.8218C15.1288 41.8218 15.1288 41.8614 15.1288 41.901H15.5248C16.0397 41.901 16.5149 41.901 16.9902 41.901H17.2674V41.8218H17.1486L16.6733 41.6633ZM15.604 32.7524C15.7625 32.6336 15.9209 32.5148 16.0793 32.4356C16.0793 32.4356 16.1189 32.4356 16.1189 32.396H16.1585C16.1981 32.396 16.2377 32.3564 16.3169 32.3168C16.0793 32.4752 15.8021 32.6336 15.5644 32.7921L15.604 32.7524ZM45.0298 25.7822C44.9902 25.1089 44.6733 24.594 44.0793 24.2772C42.6931 23.4851 41.2278 22.6534 39.7229 21.7425L17.5842 22.8911L27.208 21.5445L14.5743 20.396C12.5545 21.5841 10.3367 22.8515 7.88127 24.2772C7.76245 24.3168 7.64364 24.4356 7.52483 24.5148C7.04958 24.9109 6.85156 25.3861 6.85156 26.0594V41.901H8.71295C8.35651 41.5841 8.07929 41.1485 8.11889 40.6732C8.11889 40.6336 8.07929 40.594 8.03968 40.5148C8.03968 40.5148 8.00008 40.4356 7.96047 40.396C7.60404 39.802 7.60404 39.0891 8.07929 38.5742C8.27731 38.3366 8.43572 38.1782 8.71295 38.099V38.0198L7.68325 37.8614L8.71295 37.7029C8.71295 37.5445 8.87136 37.3465 9.06938 37.1881L9.2278 36.7524H9.38622L9.2674 35.4455V35.3267C9.30701 35.1683 9.38622 35.0495 9.42582 34.8911C9.42582 34.8515 9.42582 34.7722 9.46542 34.7326L9.54463 34.495L7.12879 34.297L9.82186 33.901C9.82186 33.8218 9.86146 33.7425 9.94067 33.7029C9.66344 32.7921 9.58424 32 9.78226 31.2871C9.78226 31.2079 9.82186 31.0891 9.82186 30.9703C9.82186 30.8515 9.82186 30.8119 9.86146 30.7326L7.44562 30.3762L9.90107 30.297V29.8614C9.86146 29.8614 10.0991 29.6237 10.0991 29.6237C10.2575 29.4653 10.4951 29.4257 10.812 29.4257C11.1288 29.4257 11.6436 29.5049 12.2377 29.7029H12.3961C12.6733 29.5445 12.911 29.4653 13.2278 29.4653C13.5446 29.4653 13.9407 29.5445 14.1783 29.6633C14.4555 29.7425 14.6931 29.901 14.9704 30.099L15.4852 29.1485L16.911 28.5148L17.505 29.0297C17.703 28.6732 17.8615 28.3564 18.0991 28.0396L7.92087 27.2079L19.3268 26.495C20.0001 25.7822 20.7526 25.1881 21.5842 24.6336L10.5743 24.2376L23.9209 23.5247C25.1486 23.0891 26.4159 22.8911 27.7625 22.8911C29.109 22.8911 29.2674 22.9307 29.9407 23.0891C30.2575 23.0891 40.5545 24 40.4753 24.0792C40.4753 24.0792 36.5545 24.3564 33.6634 24.5148C34.7327 25.1485 35.6832 25.9406 36.5149 26.8911L44.8714 27.5247L37.4654 28.1584C37.8219 28.6732 38.1387 29.2673 38.3763 29.901L44.5941 30.4158L38.7724 30.9307C38.8912 31.2871 39.01 31.6435 39.0496 32L44.3169 32.198L40.2377 32.8713L40.6733 33.1089L40.7922 33.7029L40.9506 33.5841L42.2575 34.099V34.3366H42.4951C42.6535 34.3366 42.812 34.3366 42.9308 34.4554C43.3268 34.6534 43.5644 35.0891 43.4456 35.5247C43.4456 35.6831 43.4456 35.802 43.3664 35.9604C43.208 36.4356 42.9704 36.8317 42.6535 37.1485C43.1288 37.6237 43.4852 38.2178 43.7229 39.0495C43.9605 39.8416 44.1189 40.7128 44.1585 41.6237V41.9406H44.911V27.0891V25.8614V25.7425L45.0298 25.7822ZM42.4159 35.3663C42.4159 35.3663 42.3763 35.3663 42.2971 35.4059C42.3367 35.4059 42.3763 35.4059 42.4159 35.3663ZM41.4258 35.6039H41.3862H41.5446H41.4654H41.4258ZM40.3961 35.7624C40.4753 35.7624 40.5941 35.7624 40.6733 35.802C40.5941 35.802 40.5149 35.802 40.3961 35.7624ZM41.4654 38.3366H41.0694C41.2278 38.3366 41.307 38.297 41.4654 38.3366Z" fill="#F16858"/>
<path d="M47.7622 35.8811V25.386C47.7622 25.1484 47.7622 24.8712 47.683 24.594C47.4057 23.4058 46.6533 22.5346 45.6236 21.9405C43.683 20.8316 41.7028 19.6831 39.7622 18.5742C36.7127 16.8316 33.7028 15.0494 30.6929 13.3068C29.6632 12.7128 28.6335 12.1187 27.6434 11.5643C27.4849 11.4851 27.3265 11.4058 27.1681 11.3662C26.2572 11.089 25.3859 11.1286 24.5542 11.5247C24.0394 11.7623 23.4849 12.0395 22.9701 12.3563C17.5839 15.4455 12.2374 18.5346 6.89088 21.6237C6.45523 21.8613 6.05919 22.0989 5.66315 22.4157C4.67305 23.1682 4.1582 24.1979 4.1582 25.4653V46.3761C4.1582 46.6138 4.1582 46.891 4.23741 47.089C4.51464 48.2771 5.22751 49.1484 6.25721 49.7425C7.68296 50.5742 9.1087 51.4058 10.574 52.2375C14.8909 54.7326 19.2473 57.2672 23.6037 59.7623C23.9602 59.9999 24.3562 60.1583 24.7523 60.2771C25.782 60.6336 26.7325 60.6336 27.7226 60.0791C28.2374 59.8019 28.7919 59.5247 29.3067 59.2078C34.6136 56.1583 39.9206 53.0692 45.2275 50.0197C45.5839 49.8217 45.9404 49.5841 46.2572 49.3464C47.2473 48.594 47.8018 47.6039 47.8018 46.3365V35.8415L47.7622 35.8811ZM46.2968 45.8217C46.2968 47.0494 45.782 47.9999 44.7127 48.6336C39.6434 51.5643 34.5344 54.495 29.4651 57.386C28.7919 57.7821 28.079 58.1385 27.4057 58.5742C26.4156 59.2078 25.4651 59.1682 24.475 58.5742C21.0295 56.594 17.6632 54.6534 14.2176 52.6732C11.881 51.3266 9.54434 49.9801 7.20771 48.6336C6.0988 47.9999 5.58395 47.0494 5.58395 45.7821V26.0989C5.58395 25.0692 5.94038 24.2375 6.69286 23.6039C6.85127 23.4454 7.04929 23.3662 7.20771 23.2474C8.91068 22.2573 10.6533 21.2672 12.3562 20.2771C15.2077 18.6138 18.0988 16.9504 20.9503 15.3266C22.178 14.6138 23.4057 13.9405 24.6731 13.2276C25.3463 12.8712 26.0592 12.7128 26.7721 12.9504C27.0097 13.0296 27.2077 13.1484 27.4057 13.2672C29.1483 14.2573 30.8909 15.2474 32.6335 16.2771C33.782 16.9504 34.9701 17.6237 36.1186 18.2969C38.9701 19.9603 41.8612 21.6237 44.7127 23.287C45.6632 23.8415 46.2176 24.6732 46.2968 25.7821C46.2968 26.2177 46.2968 26.6138 46.2968 27.0494V45.9009V45.8217Z" fill="#2E434F"/>
<path d="M43.0887 41.8613C43.0887 41.4256 43.0094 40.9504 42.9302 40.5147C42.8114 39.9603 42.6134 39.4058 42.2966 38.9306C42.2174 38.8118 42.1382 38.7325 42.059 38.6929C42.0193 38.6533 41.9005 38.5741 41.8213 38.5345C41.8213 38.5345 41.7817 38.5345 41.7421 38.4949C41.7025 38.4949 41.6233 38.4553 41.5837 38.4553C41.5441 38.4553 41.4649 38.4553 41.4253 38.4553H41.0292C40.9896 38.4553 40.8708 38.4949 40.8312 38.5345C40.8312 38.5345 40.7916 38.5345 40.7124 38.5741C40.6332 38.6137 40.554 38.6929 40.4748 38.7722C40.4748 38.7722 40.4748 38.7722 40.4352 38.8118C40.4352 38.8118 40.4352 38.8514 40.3956 38.891C40.158 39.1682 39.9599 39.5246 39.8015 39.8811C39.7619 39.9999 39.6827 40.1187 39.6431 40.2375C39.6431 40.2771 39.6431 40.3563 39.6035 40.4355C39.4847 40.792 39.4055 41.1484 39.3659 41.5048C39.3659 41.6632 39.3659 41.7821 39.3263 41.9405C39.2867 42.3365 39.2867 42.7722 39.2471 43.1682C39.2471 43.3662 39.2471 43.7623 39.3263 44.1187C39.3659 44.6335 39.4847 45.1484 39.6827 45.6236C39.7223 45.7821 39.8411 45.9009 39.8807 46.0593C39.9995 46.2573 40.1184 46.4553 40.3164 46.6137V46.6533C40.356 46.6929 40.4352 46.7722 40.4748 46.8118C40.4748 46.8118 40.554 46.8514 40.5936 46.8514C40.752 46.891 40.8708 46.9306 40.9896 46.9306H41.0292C41.0689 46.9306 41.1877 46.9306 41.2669 46.891C41.3461 46.891 41.4253 46.8118 41.5045 46.7326C41.5045 46.7326 41.5441 46.7326 41.5441 46.6929C41.5837 46.6533 41.7025 46.5741 41.7421 46.5345C41.7817 46.4949 41.9005 46.3761 41.9797 46.2573C42.1778 45.9405 42.3362 45.6236 42.4946 45.3068C42.653 44.8712 42.7718 44.4751 42.851 44.0395V43.8811C42.9698 43.2078 43.0094 42.5741 42.9698 41.9009H43.0887V41.8613ZM42.5342 43.5246C42.4946 43.9603 42.3758 44.3563 42.2174 44.7524C42.0986 45.0296 41.9401 45.2672 41.7421 45.5048C41.3857 45.8613 40.8708 45.8613 40.5144 45.5048C40.1976 45.1484 40.0392 44.7127 39.9599 44.2771C39.8015 43.4454 39.7619 42.6533 39.9203 41.8613C39.9599 41.5048 40.0788 41.188 40.158 40.8712C40.2372 40.5543 40.3956 40.2771 40.6332 40.0395C41.0689 39.6038 41.5441 39.6038 41.9401 40.0791C42.257 40.4751 42.3758 40.9108 42.455 41.386C42.455 41.4256 42.455 41.5048 42.455 41.5444C42.455 41.6236 42.455 41.7028 42.455 41.7821C42.4946 42.3365 42.4946 42.891 42.455 43.485L42.5342 43.5246Z" fill="#007478"/>
<path d="M41.9402 43.7624C41.861 44 41.7026 44.198 41.4254 44.1584C41.1482 44.1584 41.0293 43.9208 40.9501 43.7228C40.9501 43.6039 40.9105 43.4851 40.8709 43.3663C40.7917 42.9703 40.7917 42.5346 40.8709 42.1386C40.8709 42.0198 40.9105 41.9406 40.9897 41.8614C41.1086 41.6634 41.2274 41.4653 41.5046 41.4653C41.7818 41.4653 41.861 41.6634 41.9402 41.8614C42.1779 42.5346 42.1383 43.1683 41.9006 43.7624H41.9402Z" fill="#007478"/>
<path d="M41.7424 41.703C41.6632 41.4654 41.5048 41.2673 41.3068 41.2673C41.1087 41.2673 40.9107 41.4654 40.7919 41.6634C40.7523 41.7426 40.7127 41.8614 40.6731 41.9406C40.5543 42.3366 40.5543 42.7723 40.6731 43.1683C40.6731 43.2871 40.7127 43.4059 40.7523 43.5248C40.7919 43.7624 40.9503 43.9604 41.2275 43.9604C41.5048 43.9604 41.6632 43.7624 41.7424 43.5644C42.0196 42.9703 42.0592 42.3366 41.782 41.703H41.7424Z" fill="#2E434F"/>
<path d="M33.5446 46.495C33.4258 46.7722 33.2278 47.0099 32.8713 47.0099C32.5149 47.0099 32.3565 46.7326 32.2377 46.4158C32.1981 46.2574 32.1585 46.1386 32.1189 45.9802C32.0001 45.4653 32.0001 44.8712 32.1585 44.396C32.1585 44.2376 32.2377 44.1584 32.3169 44C32.4753 43.7227 32.6337 43.4851 32.9902 43.4851C33.307 43.4851 33.505 43.7227 33.5842 44C33.9407 44.8712 33.8614 45.7029 33.5446 46.495Z" fill="#007478"/>
<path d="M33.2674 43.8416C33.109 43.5247 32.9505 43.2871 32.6337 43.2871C32.3169 43.2871 32.1189 43.5247 31.9604 43.802C31.9208 43.9208 31.8416 44.0396 31.802 44.198C31.6436 44.7129 31.6436 45.2673 31.7624 45.7822C31.7624 45.9406 31.802 46.099 31.8812 46.2178C31.9604 46.495 32.1189 46.7723 32.5149 46.8119C32.8713 46.8119 33.0298 46.5742 33.1882 46.297C33.5446 45.5049 33.5842 44.7128 33.2674 43.8416Z" fill="#2E434F"/>
<path d="M35.0492 42.4554C34.9304 41.901 34.772 41.3465 34.4948 40.8317C34.376 40.594 34.2572 40.396 34.0591 40.198L33.9799 40.1188L33.9007 40.0396C33.9007 40.0396 33.8215 40 33.7819 39.9604C33.7819 39.9604 33.7819 39.9604 33.7423 39.9604C33.7027 39.9604 33.6235 39.9208 33.5839 39.8812C33.5839 39.8812 33.5443 39.8812 33.5047 39.8812H33.4651C33.4255 39.8812 33.3463 39.8812 33.3067 39.8416H32.9106H32.7918C32.7918 39.8416 32.7126 39.8416 32.673 39.8416C32.673 39.8416 32.5938 39.8416 32.5542 39.8812C32.5542 39.8812 32.475 39.8812 32.4354 39.9208C32.277 40.0396 32.1581 40.1584 31.9997 40.2772C31.9205 40.3564 31.8413 40.4356 31.7621 40.5148C31.4453 40.8713 31.2473 41.2673 31.0492 41.7029C30.8116 42.3366 30.6136 42.9703 30.4552 43.6435C30.2572 44.7524 30.2176 45.8218 30.3364 46.9307C30.3364 47.0891 30.3364 47.2079 30.376 47.3663C30.4156 47.8416 30.5344 48.2772 30.7324 48.7524C30.7324 48.792 30.772 48.8713 30.8116 48.9109L30.8908 49.0693C30.8908 49.1485 30.97 49.2277 31.0096 49.3069V49.4257C31.2077 49.6633 31.3661 49.8614 31.5641 50.0594C31.5641 50.0594 31.6037 50.099 31.6433 50.1386C32.1185 50.495 32.673 50.495 33.1482 50.1386C33.1878 50.099 33.3067 50.0198 33.3463 49.9802C33.3859 49.9406 33.5047 49.8614 33.5443 49.8218L33.7819 49.5841C33.7819 49.5445 33.8611 49.4653 33.9007 49.4257C33.9403 49.3861 33.9799 49.3069 34.0195 49.2673C34.2572 48.9505 34.4156 48.594 34.5344 48.2376C35.2473 46.3366 35.4057 44.4356 35.0492 42.495V42.4554ZM34.6928 44.6732C34.6928 45.5049 34.5344 46.3366 34.2572 47.1287C34.0987 47.5643 33.8611 47.9604 33.5443 48.2772C32.8314 48.9901 32.0393 48.9109 31.5245 48.0396C31.2473 47.6039 31.0888 47.1287 31.0096 46.6534C30.8512 45.4653 30.9304 44.3168 31.3661 43.2079C31.5245 42.8118 31.6829 42.4554 31.9601 42.1386C32.1185 41.9802 32.3166 41.7821 32.475 41.6633C32.871 41.4257 33.3859 41.4257 33.7423 41.7029C33.9799 41.901 34.1779 42.1386 34.2968 42.4158C34.574 43.0495 34.6928 43.7227 34.6928 44.396V44.594V44.6732Z" fill="#007478"/>
<path d="M26.0196 31.6039C26.8513 31.3266 27.6434 31.1682 28.5147 31.1286C30.4553 31.0494 32.3563 31.485 34.0988 32.2375C34.2573 32.2771 34.3761 32.3959 34.5345 32.4751C34.5345 32.4751 34.6137 32.5147 34.6533 32.5147C34.6929 32.5147 34.7325 32.5544 34.7721 32.5544C34.7721 32.5544 34.8117 32.5544 34.8513 32.594C35.0097 32.7128 35.2077 32.8316 35.3662 32.9504C35.881 33.3068 36.3959 33.6237 36.8711 33.9801C37.3464 34.3365 37.386 34.3365 37.6236 34.4949C37.6632 34.4949 37.7424 34.5742 37.782 34.6138C37.9008 34.6534 37.98 34.7326 38.0988 34.7722C38.1384 34.7722 38.178 34.8118 38.2573 34.8514C38.2969 34.8514 38.3761 34.891 38.4157 34.9702L38.5741 35.0494L38.7325 35.1286C38.8513 35.1682 38.9305 35.2474 39.0493 35.287C39.0493 35.287 39.0889 35.287 39.1285 35.287C39.1681 35.287 39.2077 35.287 39.287 35.3266C39.287 35.3266 39.3266 35.3266 39.4058 35.3266C39.4058 35.3266 39.4454 35.3266 39.485 35.3266C39.5246 35.3266 39.6038 35.3266 39.6434 35.3662C39.7226 35.3662 39.8018 35.4058 39.881 35.4058C39.9602 35.4058 40.0394 35.4058 40.1186 35.4454C40.1978 35.485 40.2771 35.4454 40.3167 35.485H40.3959C40.4751 35.485 40.5939 35.485 40.6731 35.5246H41.98C42.0196 35.5246 42.0988 35.485 42.1384 35.4454C42.1384 35.4454 42.178 35.4454 42.2176 35.4058C42.2573 35.4058 42.2969 35.3662 42.3365 35.3266C42.3365 35.3266 42.3365 35.3266 42.3761 35.287C42.3761 35.287 42.3761 35.287 42.3761 35.2474C42.3761 35.2078 42.4157 35.1286 42.4157 35.089C42.4157 35.089 42.3761 35.1286 42.3365 35.1286C42.3365 35.1286 42.3365 35.1286 42.2969 35.1286C42.2969 35.1286 42.2573 35.1286 42.178 35.1682H42.1384C41.9404 35.2474 41.7028 35.287 41.5444 35.3266H41.0691C40.6335 35.3266 40.1582 35.1682 39.7622 34.9702C39.7226 34.9702 39.6038 34.9306 39.5642 34.891C39.5246 34.891 39.4058 34.8514 39.3662 34.8118C39.3662 34.8118 39.3266 34.8118 39.287 34.8118C39.2077 34.8118 39.1285 34.7722 39.0493 34.7326H39.0097C39.0097 34.7326 38.9701 34.7326 38.9305 34.7326C38.8117 34.693 38.7325 34.6138 38.6137 34.5742L38.4553 34.4949L38.2969 34.4157C38.2573 34.4157 38.178 34.3761 38.1384 34.2969C38.0988 34.2969 38.0592 34.2573 37.98 34.2177C37.8612 34.1781 37.782 34.0989 37.6632 34.0593C37.6236 34.0593 37.5444 34.0197 37.5048 33.9405C37.2672 33.7821 36.9899 33.6237 36.7523 33.4256C36.2375 33.0692 35.7226 32.7524 35.2474 32.3959C35.0889 32.2771 34.8909 32.1583 34.7325 32.0395C34.7325 32.0395 34.6929 32.0395 34.6533 31.9999C34.6533 31.9999 34.5741 31.9603 34.5345 31.9603C34.4949 31.9603 34.4553 31.9207 34.4157 31.9207C34.2573 31.8415 34.1384 31.7623 33.98 31.6831C32.1978 30.8514 30.3365 30.4553 28.3959 30.5742C27.5642 30.5742 26.6929 30.7326 25.9008 31.0494C25.8216 31.0494 25.7028 31.1286 25.584 31.1682C25.584 31.3266 25.584 31.4454 25.6236 31.6039C25.7028 31.6039 25.782 31.5643 25.8612 31.5246H26.0196V31.6039Z" fill="#007478"/>
<path d="M65.6235 19.0891L75.9602 43.6832H70.9305L68.277 37.3069H59.5641L56.8315 43.6832H51.8018L62.0592 19.0891H65.6235ZM63.8414 25.4257L61.2275 32.8713H66.4948L63.881 25.4257H63.8414Z" fill="#177474"/>
<path d="M82.8116 25.2278C84.475 25.2278 86.0987 25.109 87.6829 25.901C89.2671 26.6535 90.2968 28.4753 90.2968 30.3367C90.2968 32.1981 89.8215 32.7525 88.9502 33.5446C90.4552 34.3763 91.4453 36.0396 91.4453 37.8614C91.4453 39.6832 90.4948 41.3466 89.0294 42.4159C87.4057 43.5644 85.3859 43.6436 83.5641 43.6832H78.0195V25.2278H82.8512H82.8116ZM84.277 29.109H82.4156V32.0396H84.277C85.1482 32.0396 85.8611 31.4456 85.8611 30.5743C85.8611 29.703 85.2671 29.109 84.277 29.109ZM84.871 35.9604H82.4156V39.802H84.8314C86.0987 39.802 86.97 39.1684 86.97 37.901C86.97 36.6337 86.1779 35.9604 84.9106 35.9604H84.871Z" fill="#177474"/>
<path d="M108.593 43.6831V41.188C107.207 43.089 104.593 44.2771 102.257 44.2771C99.9202 44.2771 97.0687 43.089 95.4845 41.188C94.0192 39.4058 93.1875 37.0296 93.1875 34.4553C93.1875 31.8811 93.8608 29.7425 95.5637 27.8415C97.4251 25.6632 99.7222 24.6335 102.415 24.6335C105.108 24.6335 107.128 25.7821 108.593 27.8415V25.2276H112.673V43.6831H108.593ZM97.5835 34.6137C97.5835 37.6236 100.039 39.9603 103.049 39.9207C106.257 39.9207 108.435 37.5444 108.435 34.3761C108.435 31.2078 106.257 28.8712 103.128 28.9108C99.8806 28.9108 97.5835 31.3266 97.5835 34.5741V34.6137Z" fill="#177474"/>
<path d="M120.357 25.2278V32.3169H127.208V25.2278H131.644V43.6832H127.208V36.2773H120.357V43.6832H115.921V25.2278H120.357Z" fill="#177474"/>
<path d="M140.316 19.0891V29.7426L147.96 19.0891H153.425L144.158 31.1683L153.425 43.6832H147.96L140.316 32.9109V43.6832H135.762V19.0891H140.316Z" fill="#F87346"/>
<path d="M164.237 44.2771C158.93 44.2771 154.494 39.8415 154.494 34.4949C154.494 29.1484 158.93 24.6335 164.435 24.6335C169.94 24.6335 174.098 29.1088 174.098 34.4949C174.098 39.8811 169.662 44.2771 164.237 44.2771ZM158.89 34.4949C158.89 37.4652 161.187 39.9603 164.197 39.9603C167.207 39.9603 169.623 37.584 169.623 34.4949C169.623 31.4058 167.247 28.9504 164.197 28.9504C161.148 28.9504 161.346 29.6632 160.395 30.6533C159.365 31.6831 158.851 33.0296 158.851 34.4949H158.89Z" fill="#F87346"/>
<path d="M180.633 25.2276V27.6434C182.059 25.6236 184.118 24.6335 186.613 24.6335C189.108 24.6335 191.405 25.5048 193.306 27.6434C195.009 29.4256 195.88 31.8811 195.88 34.4553C195.88 39.683 191.999 44.2771 186.613 44.2771C181.227 44.2771 182.494 43.5246 180.989 41.6632V49.8217H176.554V25.2276H180.633ZM182.455 38.5345C183.405 39.3662 184.752 39.9207 185.979 39.9207C189.108 39.9207 191.445 37.5048 191.445 34.3761C191.445 31.2474 189.148 28.9108 186.138 28.9108C183.128 28.9108 180.712 31.3266 180.712 34.4157C180.712 37.5048 181.227 37.4256 182.455 38.4949V38.5345Z" fill="#F87346"/>
<path d="M56.2774 58.8118V58.0989C55.8814 58.6534 55.1289 58.9702 54.4557 58.9702C53.7824 58.9702 52.9507 58.6138 52.5151 58.0989C52.0794 57.5841 51.8418 56.9108 51.8418 56.1583C51.8418 55.4058 52.0398 54.8118 52.5151 54.2573C53.0695 53.6237 53.7032 53.3464 54.4953 53.3464C55.2873 53.3464 55.8418 53.6633 56.2774 54.2573V53.5049H57.426V58.8118H56.2774ZM53.1091 56.1979C53.1091 57.0692 53.822 57.7425 54.6933 57.7425C55.6042 57.7425 56.2378 57.0692 56.2378 56.1583C56.2378 55.2474 55.6042 54.5742 54.6933 54.5742C53.7428 54.5742 53.1091 55.287 53.1091 56.1979Z" fill="#F87346"/>
<path d="M59.6433 53.5049V55.5247H61.6235V53.5049H62.8908V58.8118H61.6235V56.6732H59.6433V58.8118H58.376V53.5049H59.6433Z" fill="#F87346"/>
<path d="M63.4058 53.5049H67.0098V54.6138H65.8217V58.7722H64.5543V54.6138H63.3662V53.5049H63.4058Z" fill="#F87346"/>
<path d="M72.4357 58.8118H71.1684V55.3663L68.911 58.8118H67.5645V53.5049H68.8318V56.99L71.0496 53.5049H72.4357V58.8118Z" fill="#F87346"/>
<path d="M74.7331 53.5049V56L76.4361 53.5049H77.9411L76.0401 56.0792L78.2579 58.7723H76.5549L74.7331 56.3168V58.7723H73.4658V53.4653H74.7331V53.5049Z" fill="#F87346"/>
<path d="M81.2279 58.9702C79.6833 58.9702 78.416 57.7029 78.416 56.1583C78.416 54.6138 79.6833 53.3464 81.2675 53.3464C82.8517 53.3464 84.0398 54.6534 84.0398 56.1583C84.0398 57.6633 82.7725 58.9702 81.2279 58.9702ZM79.6833 56.1583C79.6833 56.99 80.3566 57.7425 81.2279 57.7425C82.0992 57.7425 82.7725 57.0692 82.7725 56.1583C82.7725 55.2474 82.0992 54.5742 81.2279 54.5742C80.3566 54.5742 80.3962 54.7722 80.1586 55.0494C79.8814 55.3266 79.7229 55.7227 79.7229 56.1583H79.6833Z" fill="#F87346"/>
<path d="M85.941 53.5049V54.1782C86.3371 53.5841 86.9311 53.3069 87.644 53.3069C88.3569 53.3069 89.0302 53.5445 89.545 54.1782C90.0203 54.693 90.2975 55.4059 90.2975 56.1188C90.2975 57.6237 89.1886 58.9306 87.644 58.9306C86.0995 58.9306 86.4559 58.693 86.0203 58.1782V60.5148H84.7529V53.4653H85.9014L85.941 53.5049ZM86.4559 57.3069C86.7331 57.5445 87.1292 57.7029 87.4856 57.7029C88.3965 57.7029 89.0698 56.99 89.0698 56.1188C89.0698 55.2475 88.3965 54.5346 87.5648 54.5346C86.7331 54.5346 86.0203 55.2475 86.0203 56.1188C86.0203 56.99 86.1787 56.99 86.5351 57.3069H86.4559Z" fill="#F87346"/>
<path d="M92.2379 53.5049V54.1782C92.634 53.5841 93.228 53.3069 93.9409 53.3069C94.6538 53.3069 95.327 53.5445 95.8419 54.1782C96.3171 54.693 96.5944 55.4059 96.5944 56.1188C96.5944 57.6237 95.4854 58.9306 93.9409 58.9306C92.3963 58.9306 92.7528 58.693 92.3171 58.1782V60.5148H91.0498V53.4653H92.1983L92.2379 53.5049ZM92.7528 57.3069C93.03 57.5445 93.426 57.7029 93.7825 57.7029C94.6934 57.7029 95.3666 56.99 95.3666 56.1188C95.3666 55.2475 94.6934 54.5346 93.8617 54.5346C93.03 54.5346 92.3171 55.2475 92.3171 56.1188C92.3171 56.99 92.4755 56.99 92.832 57.3069H92.7528Z" fill="#F87346"/>
<path d="M99.9603 58.9702C98.4158 58.9702 97.1484 57.7029 97.1484 56.1583C97.1484 54.6138 98.4158 53.3464 99.9999 53.3464C101.584 53.3464 102.772 54.6534 102.772 56.1583C102.772 57.6633 101.505 58.9702 99.9603 58.9702ZM98.4158 56.1583C98.4158 56.99 99.089 57.7425 99.9603 57.7425C100.832 57.7425 101.505 57.0692 101.505 56.1583C101.505 55.2474 100.832 54.5742 99.9603 54.5742C99.089 54.5742 99.1286 54.7722 98.891 55.0494C98.6138 55.3266 98.4554 55.7227 98.4554 56.1583H98.4158Z" fill="#F87346"/>
<path d="M105.07 58.9702C104.08 58.9702 103.169 58.2573 103.169 57.1484H104.476C104.476 57.5049 104.753 57.7425 105.07 57.7425C105.387 57.7425 105.704 57.5445 105.704 57.188C105.704 56.8316 105.387 56.594 105.07 56.594H104.753V55.4851H105.07C105.347 55.4851 105.545 55.3266 105.545 55.0494C105.545 54.7722 105.347 54.5742 105.11 54.5742C104.872 54.5742 104.634 54.7326 104.634 54.9702H103.367C103.367 54.0593 104.159 53.3464 105.07 53.3464C105.981 53.3464 106.813 54.0197 106.813 54.9702C106.813 55.9207 106.614 55.7227 106.377 55.9999C106.694 56.2771 107.011 56.5544 107.011 57.2276C107.011 58.2177 106.1 59.0098 105.11 59.0098L105.07 58.9702Z" fill="#F87346"/>
<path d="M112.594 58.8118H111.327V55.3663L109.069 58.8118H107.723V53.5049H108.99V56.99L111.208 53.5049H112.594V58.8118Z" fill="#F87346"/>
<path d="M118.495 58.8119H117.228V55.3663L114.971 58.8119H113.624V53.5049H114.891V56.9901L117.109 53.5049H118.495V58.8119ZM116.04 52.0396C116.317 52.0396 116.555 51.9208 116.674 51.6436H117.624C117.505 52.5148 116.872 52.9505 116.04 52.9505C115.208 52.9505 114.575 52.5148 114.456 51.6436H115.406C115.525 51.8812 115.763 52.0396 116.04 52.0396Z" fill="#F87346"/>
<path d="M120.793 53.5049V55.5247H122.773V53.5049H124.04V58.8118H122.773V56.6732H120.793V58.8118H119.525V53.5049H120.793Z" fill="#F87346"/>
<path d="M129.268 58.8118V58.0989C128.872 58.6534 128.119 58.9702 127.446 58.9702C126.773 58.9702 125.941 58.6138 125.505 58.0989C125.07 57.5841 124.832 56.9108 124.832 56.1583C124.832 55.4058 125.03 54.8118 125.505 54.2573C126.06 53.6237 126.693 53.3464 127.485 53.3464C128.278 53.3464 128.832 53.6633 129.268 54.2573V53.5049H130.416V58.8118H129.268ZM126.099 56.1979C126.099 57.0692 126.812 57.7425 127.684 57.7425C128.594 57.7425 129.228 57.0692 129.228 56.1583C129.228 55.2474 128.594 54.5742 127.684 54.5742C126.733 54.5742 126.099 55.287 126.099 56.1979Z" fill="#F87346"/>
<path d="M134.773 58.8118H133.505V56.99L132.278 58.8118H130.693L132.119 56.9108C131.287 56.594 130.931 55.9999 130.931 55.2475C130.931 54.495 131.208 54.2178 131.604 53.9009C132.04 53.5445 132.555 53.5445 133.07 53.5049H134.733V58.8118H134.773ZM133.466 54.6138H132.951C132.515 54.6138 132.198 54.8514 132.198 55.2871C132.198 55.7227 132.515 55.9603 132.951 55.9603H133.466V54.6534V54.6138Z" fill="#F87346"/>
<path d="M143.802 58.9702C142.258 58.9702 140.99 57.7029 140.99 56.1583C140.99 54.6138 142.258 53.3464 143.842 53.3464C145.426 53.3464 146.614 54.6534 146.614 56.1583C146.614 57.6633 145.347 58.9702 143.802 58.9702ZM142.258 56.1583C142.258 56.99 142.931 57.7425 143.802 57.7425C144.673 57.7425 145.347 57.0692 145.347 56.1583C145.347 55.2474 144.673 54.5742 143.802 54.5742C142.931 54.5742 142.97 54.7722 142.733 55.0494C142.456 55.3266 142.297 55.7227 142.297 56.1583H142.258Z" fill="#F87346"/>
<path d="M150.773 51.2475C151.05 51.0891 151.248 50.8515 151.367 50.5347L152.238 51.1683C152.08 51.6436 151.881 52.0792 151.446 52.3168C150.852 52.6733 149.624 52.5941 149.03 52.9109C148.238 53.3466 148.317 54.1386 148.317 54.1386C148.674 53.6238 149.347 53.3069 149.981 53.3069C151.525 53.3069 152.674 54.5347 152.674 56.1188C152.674 57.703 151.406 58.9307 149.862 58.9307C148.317 58.9307 147.05 57.6634 147.05 56.1188C147.05 53.9406 147.327 52.4357 148.396 51.802C149.188 51.3267 150.377 51.406 150.693 51.2079L150.773 51.2475ZM149.901 57.7426C150.812 57.7426 151.446 57.0693 151.446 56.1584C151.446 55.2475 150.773 54.5743 149.901 54.5743C149.03 54.5743 148.357 55.3664 148.357 56.1584C148.357 56.9505 149.03 57.7426 149.901 57.7426Z" fill="#F87346"/>
<path d="M154.614 53.5049V54.1782C155.01 53.5841 155.604 53.3069 156.317 53.3069C157.03 53.3069 157.703 53.5445 158.218 54.1782C158.693 54.693 158.97 55.4059 158.97 56.1188C158.97 57.6237 157.861 58.9306 156.317 58.9306C154.772 58.9306 155.129 58.693 154.693 58.1782V60.5148H153.426V53.4653H154.574L154.614 53.5049ZM155.129 57.3069C155.406 57.5445 155.802 57.7029 156.158 57.7029C157.069 57.7029 157.743 56.99 157.743 56.1188C157.743 55.2475 157.069 54.5346 156.238 54.5346C155.406 54.5346 154.693 55.2475 154.693 56.1188C154.693 56.99 154.852 56.99 155.208 57.3069H155.129Z" fill="#F87346"/>
<path d="M163.96 58.8118V58.0989C163.564 58.6534 162.812 58.9702 162.138 58.9702C161.465 58.9702 160.633 58.6138 160.198 58.0989C159.762 57.5841 159.524 56.9108 159.524 56.1583C159.524 55.4058 159.722 54.8118 160.198 54.2573C160.752 53.6237 161.386 53.3464 162.178 53.3464C162.97 53.3464 163.524 53.6633 163.96 54.2573V53.5049H165.109V58.8118H163.96ZM160.792 56.1979C160.792 57.0692 161.505 57.7425 162.376 57.7425C163.287 57.7425 163.92 57.0692 163.92 56.1583C163.92 55.2474 163.287 54.5742 162.376 54.5742C161.425 54.5742 160.792 55.287 160.792 56.1979Z" fill="#F87346"/>
<path d="M169.505 51.2475C169.782 51.0891 169.98 50.8515 170.099 50.5347L170.97 51.1683C170.812 51.6436 170.614 52.0792 170.178 52.3168C169.584 52.6733 168.356 52.5941 167.762 52.9109C166.97 53.3466 167.05 54.1386 167.05 54.1386C167.406 53.6238 168.079 53.3069 168.713 53.3069C170.257 53.3069 171.406 54.5347 171.406 56.1188C171.406 57.703 170.139 58.9307 168.594 58.9307C167.05 58.9307 165.782 57.6634 165.782 56.1188C165.782 53.9406 166.059 52.4357 167.129 51.802C167.921 51.3267 169.109 51.406 169.426 51.2079L169.505 51.2475ZM168.634 57.7426C169.545 57.7426 170.178 57.0693 170.178 56.1584C170.178 55.2475 169.505 54.5743 168.634 54.5743C167.762 54.5743 167.089 55.3664 167.089 56.1584C167.089 56.9505 167.762 57.7426 168.634 57.7426Z" fill="#F87346"/>
<path d="M174.733 58.9702C173.188 58.9702 171.921 57.7029 171.921 56.1583C171.921 54.6138 173.188 53.3464 174.772 53.3464C176.357 53.3464 177.545 54.6534 177.545 56.1583C177.545 57.6633 176.277 58.9702 174.733 58.9702ZM173.228 56.1583C173.228 56.99 173.901 57.7425 174.772 57.7425C175.644 57.7425 176.317 57.0692 176.317 56.1583C176.317 55.2474 175.644 54.5742 174.772 54.5742C173.901 54.5742 173.941 54.7722 173.703 55.0494C173.426 55.3266 173.267 55.7227 173.267 56.1583H173.228Z" fill="#F87346"/>
<path d="M177.585 53.5049H181.188V54.6138H180V58.7722H178.733V54.6138H177.545V53.5049H177.585Z" fill="#F87346"/>
<path d="M183.01 53.5049V56L184.713 53.5049H186.218L184.317 56.0792L186.535 58.7723H184.832L183.01 56.3168V58.7723H181.743V53.4653H183.01V53.5049Z" fill="#F87346"/>
<path d="M191.287 58.8118V58.0989C190.891 58.6534 190.139 58.9702 189.465 58.9702C188.792 58.9702 187.96 58.6138 187.525 58.0989C187.089 57.5841 186.852 56.9108 186.852 56.1583C186.852 55.4058 187.05 54.8118 187.525 54.2573C188.079 53.6237 188.713 53.3464 189.505 53.3464C190.297 53.3464 190.852 53.6633 191.287 54.2573V53.5049H192.436V58.8118H191.287ZM188.119 56.1979C188.119 57.0692 188.832 57.7425 189.703 57.7425C190.614 57.7425 191.248 57.0692 191.248 56.1583C191.248 55.2474 190.614 54.5742 189.703 54.5742C188.753 54.5742 188.119 55.287 188.119 56.1979Z" fill="#F87346"/>
</svg>
