<?xml version="1.0" encoding="UTF-8"?>
<svg id="Layer_1" data-name="Layer 1" xmlns="http://www.w3.org/2000/svg" version="1.1" viewBox="0 0 165 188">
  <defs>
    <style>
      .cls-1 {
        fill: #2e434f;
      }

      .cls-1, .cls-2, .cls-3 {
        stroke-width: 0px;
      }

      .cls-2 {
        fill: #f16858;
      }

      .cls-3 {
        fill: #007478;
      }
    </style>
  </defs>
  <polygon class="cls-3" points="47.8 122.9 70.7 126 72.9 127.5 74.2 136.8 59.8 138.2 44 129 47.8 122.9"/>
  <path class="cls-1" d="M144,127.6c0-.3,0-.5.1-.7,1.1-3.8,1.5-7.6,1.5-11.5v-1c0-2.9-.5-5.8-1.4-8.6-.7-2.3-1.8-4.4-3.5-6.1-.5-.5-1-.9-1.6-1.2-1.9-1-4.1-.9-6.1.5-1.1.7-2.1,1.7-2.9,2.8-1.3,1.7-2.3,3.6-3.1,5.7,0,.2-.2.5-.3.7,0,.1,0,.2-.1.3,0,.2-.1.4-.2.6v.2c0,.2-.1.4-.2.6v.2c0,.1,0,.2-.1.4h0v.3c0,.1,0,.3-.1.4h0c0,.3-.1.5-.1.7s0,.3-.1.4h0c0,.3-.1.5-.2.8v.2c0,.3-.1.6-.2.9v.9h0v1.6h0v2h0v3.7c0,.6,0,1.2.1,1.7v1.4h0v.7c.2,1.6.6,3.1,1.1,4.6h0c0,1.4,2.9,6.1,2.9,6.1-.5-.7-1.1-1.4-1.6-2.1-1.3-2-2.2-4.2-2.8-6.5-.1-.4-.2-.8-.3-1.2,0-.3-.1-.5-.2-.8h0c-.2-1-.3-2-.5-2.9,0-.3,0-.6-.1-1v-5.5c0-.7,0-1.3.1-2v-.8c0-.3,0-.6.1-.9,0-.3,0-.6.1-.9v-.9h0c.1-.5.2-1.1.3-1.6v-.3h0c0-.2,0-.3.1-.5v-.2c0-.1,0-.3.1-.4h0c0-.2.1-.4.2-.6,0-.2.2-.5.2-.7.2-.5.3-1,.5-1.4h0c0-.2.1-.3.2-.5h0c0-.2.2-.4.3-.6,0,0,0-.2.1-.2,0-.2.2-.3.2-.5v-.2c0-.2.2-.4.3-.6h0c0-.3.2-.5.3-.6.1-.2.2-.4.3-.6.1-.2.2-.4.4-.6v-.2c.1-.2.3-.5.4-.7h0c.2-.3.3-.5.5-.8h0l.4-.5v-.2c.1,0,.6-.7.6-.7h0s-.2,0-.4.1c0,0-.2,0-.3.1h-.1c-.1,0-.3.2-.5.3,0,0-.2.1-.2.2,0,0-.2.1-.3.2,0,0-.2.2-.3.2,0,0-.1,0-.2.1,0,0-.1,0-.2.1l-.2.2h0c-.3.3-.6.6-.9,1,0,0-.1.2-.2.3,0,0-.1.2-.2.2l-.2.2c-.2.3-.4.5-.6.8,0,0,0,.1-.1.2-.1.2-.3.5-.4.7-.1.2-.3.5-.4.7h0s0,.1-.1.2h0c0,.2-.1.3-.2.4,0,.2-.2.4-.3.6-.1.3-.2.5-.4.8h0c0,.1-.1.3-.2.4v.2h0c-.1.4-.2.6-.3.9,0,.1-.1.3-.2.4,0,.1-.1.3-.2.4,0,.2-.1.4-.2.6h0c-1.3,4.4-1.7,8.8-1.5,13.2.3,4.7,1.2,9.2,3.5,13.4,0,.2.1.4.2.6-.5-.4-.8-.8-1.1-1.3-1.3-2-2.1-4.2-2.8-6.5-.2-.6-.2-1.2-.3-1.8-.1-2-.2-4-.4-6-.1-1.4-.4-2.9-.4-4.3s.2-2.9.4-4.3c.6-4.6,2.2-8.9,4.8-12.7.1-.2.3-.4.4-.6-4.1,3-6.8,6.9-7.7,11.9-.3-.4-.4-.7-.6-1.1-.6-.9-.6-1.8-.3-2.8,1.4-4.9,4.5-8.4,9.2-10.5.5-.2,1.2-.4,1.8-.4h4.7c.5,0,1,0,1.5.1.6,0,1.2.1,1.7.2h0c1.6.3,3.2.7,4.4,1.3,1.6-1,2.7-2.6,3.4-4.4.1-.4.1-.7.2-1.1.1-.7-.2-1.4-.8-1.7s-1.3-.2-1.9.4-.9.7-1.5,1.2v-3.1c-.1,0-2.4-.9-2.4-.9l-2.4,1.9-.8-4.6-2.9-1.7h0l-.6-.4-.4-.2-.4.3h0l-.3.2h0l-2.3,1.5-.4-6.2-2.8-1.8-.7-.4-.4-.3-2.7,1.2v-4.9c-1.1-.8-4.1-2.9-5.2-3.8l-5.2,2.3c-.3,0-.6.3-1,.4-.1-.4-.2-.7-.2-1l-.9-6.8-7.5-2c-2,2.1-4.9,5-6.9,7.1-.3.3-.5.5-.9.9-1.2-3.4-2.4-6.8-3.5-10.1h-.6c-2.5.3-5.2.5-7.7.8l-3.7,5.9c-.2.3-.4.6-.6.9-1.5-.6-2.8,0-4.1.5-1.6-1.8-3.2-3.5-4.9-5.2l-4.1,1.5-.4.9-.2.5v.2l-.3.5v.2c0,.2-.2.4-.3.6,0,.2,0,.3-.2.5v.2c-.4.9-.8,1.8-1.1,2.6,0,0,0,.2-.2.4h0c0,.2,0,.3-.2.5,0,0,0,.2,0,.2v.2c0,0,0,.2,0,.3,0,0,0,.2-.2.3h0l-6,.3-1.3-1.2-1.5-1.4-3.2,1.4-1.1,2-1.8,3.1c-1.2-1.3-2.4-2.3-4-2.8,0,0-.2,0-.3,0-1.4-.5-2.9-.7-4.6,0,0,0,.2,0,.3,0,.9.5,1.7.9,2.4,1.3.8.5,1.5,1.1,2,2.2-.3,0-.4-.2-.5-.3-1.6-1.2-3.3-2-5.1-2.7h-.3c-.2,0-.3,0-.5-.2h0c-.2,0-.4,0-.6-.2-4.4-1.4-5.3-.6-5.3-.6v.7c0,.6,0,1.2-.2,1.8,0,.6-.3,1.3-.4,1.9-.5,2.7,0,5.3.7,7.9v.5h0v.2c-.2.4-.7,1.2-1.2,2.5-.2.4-.4.9-.6,1.4h0c0,.2,0,.3-.2.5-.2.4-.3.9-.4,1.4l.6,7-1.5-.3c0,.2-.2.5-.4.7,0,0-.2.1-.2.2-.7.5-.7,1.1-.3,1.7,0,0,0,.2.2.2.3.3.3.6.2,1-1.7.4-2.5.8-3.2,1.7-1,1.3-1.1,2.7-.2,4.1.3.4.5.8.8,1.2,0,.2.2.5.2.8,0,1.4.9,2.9,2.3,3.3h1.2l9.1-.2h6.7c0-.1,0-.1,0-.1h0,0c-.2.5-.3.8-.4,1.3h-2.7l-8.8.2h-5.1c0,.2.2.5.3.6h0c.5.4.4.9.3,1.5-.2,1.3-.3,2.5,0,3.8.3,2.5,1.1,4.8,1.9,7.1,1,2.9,2.5,5.6,4.6,7.9,0,.1.2.3.4.7-4.6-2.6-6.6-8.5-7.1-10.3h0v-.2h0c0-.1-1.1.4-1.1.4h0c-2.4,1.1-4.8,2.2-7.1,3.3,0,.3,0,.5,0,.6.2.4.3.8.5,1.1,1.3,2.4,3.2,4.2,5.5,5.5,5.6,3.2,11.2,6.5,16.9,9.7,3.5,2,6.9,4,10.4,6h0l7.3,4,8.9,5.3h0l2.7,1.6h0c3,1.7,5.9,3.4,8.9,5.1.6.3,1.2.5,1.8.8,2.8,1,5.6,1.1,8.3,0,1.2-.7,2.4-1.4,3.6-2.1.8-.4,1.6-.9,2.3-1.3l12.3-7c3-1.7,6.1-3.5,9.2-5.3l2.6-1.5.8-.4,2.8-1.6c8-4.6,16-9.2,23.9-13.7,2.5-1.6,4.4-3.8,5.4-6.7.1-.3.2-.7.3-1.1-2-.6-3.9-1.1-6-1.7l-.5,1.4ZM24.5,108.2c-.2-.5-.4-.9-.6-1.3,0-.1-.4-.3-.5-.2,0,0-.3.3-.3.5,0,.3,0,.6,0,.9s.4.8-.2,1c-.6.2-.6-.4-.8-.7-.3-.5-.4-1-.7-1.5,0-.2-.2-.3-.2-.5,0-.8.5-1.1,1.1-1.5s1.2-.6,1.8-.1c0,0,.2.2.2.3,0,.9.2,1.8.2,2.8,0,0,0,.1-.3.3h.2ZM27.2,101.1c0,.2,0,.3-.2.5v.2h0q0,.1,0,0h0v-1q0,0,0,0h0v-.5q0-.1,0,0c0,.2,0,0,0,0v-.8h0v-1.2h0v-1.9h0v-1.1h0v-2.3h0v.4h0c0,.4.2.7.3,1.1v.2c0,.3,0,.6.2.9v.9h0v2.4h0v.4h0v.4h0v.8c0,.1,0,.3,0,.4l-.2.2ZM32.5,107.4c-.9,0-1.8-.3-2.6.2-.9.5-1.1,1.3-1.2,2.3-.4,0-.7,0-1.1.1,0-.4-.2-.8-.2-1.2.2-2,2.4-3.5,4.4-3,1,.3,1.1.5.7,1.7h0ZM25.3,118.2l.2-.5c0,0,.3.1.4.2,2.7,1.8,5.7,2.5,8.9,2.9,1.2.1,2.3.2,3.5.2h.5c.4.2.8.5,1.3.8-10.6,1.4-14.7-3.7-14.7-3.7h-.1ZM27.1,127.4c-.3-1.4-.5-2.9-.5-4.4s.2-1.4.3-2.3c.6.3,1,.5,1.5.8-.4,2.6,0,5.1.6,7.7.7,2.5,1.8,4.8,3.1,7.1,0,0-3.4-3.5-4.9-8.8h0ZM31.9,122.7c.5,0,.9.1,1.4.2-.3,2.5-.2,4.9.5,7.3.6,2.3,1.6,4.5,2.7,6.6-3.4-4-4.8-8.8-4.5-14.1h0ZM36.2,123.1h1c0,4.6.9,9,2.9,13.1-2.7-2.2-5.1-9.3-4-13.1h0ZM40.5,100.1h0s0,0,.3-.2c0,0,.2,0,.3-.2h.2c.2-.1.5-.3.9-.5h.2c0-.1,1.5-1,1.5-1h0c.8-.5,1.6-1,2.6-1.5,0,.6,0,1.2.2,1.7v.4c0,.1,0,.2,0,.4,0,.1,0,.3,0,.4,0,0,0,.2,0,.3,0,.1,0,.2,0,.3,0,.1,0,.2.2.3,0,.1,0,.2.2.3,0,0,0,.2.2.3,0,0,0,.1.2.2h0c.3.5.7.7,1.1.9h.7c.8,0,1.6-.3,2.3-.9,0,0,0-.1.2-.2,1-1,1.7-2.7,1.8-4.6,0-.8,0-1.5,0-2.2,0-.5-.2-1-.4-1.5,0-.1,0-.2,0-.3,1.1-.6,2-1.1,2.9-1.6,0,0,.3-.1.4-.2h0c.4-.2.8-.4,1.2-.6h0c.4-.2.8-.3,1.3-.5l.2.3-.2-.3h0s3.3,1.3,4.1,4.4c.5,2.1-.6,5.4-.6,5.4-.7.3-1.3.7-2,1-2,1-4.1,2.1-6.2,3.1,0,0-.2,0-.2.1-.3.1-.7.2-1,.2h-6.2c-1.2.2-2.3.5-3.5.9l-.9-1.4-2.2-3.4v.2ZM47.8,96h0v-.3s.2-.1.3-.2c.5-.3,1.1-.6,1.6-1h0c0,.2.3.5.3.8v1.1h0c-.2.8-.7,1.3-1.2,1.3h-.3s0,0-.2-.1h0c0-.1-.2-.3-.3-.4h0c0-.3-.2-.7-.2-1.1h0ZM61.3,112.2l-1.1.3-4.7,1.2-2.7.7-1.4.4c0-.4-.3-.8-.4-1.3.3-.1.6-.2.8-.3,0,0,.3,0,.4-.1.8-.2,1.6-.5,2.3-.7,1.1-.4,2.3-.7,3.4-1.1.7-.2,1.4-.4,2.1-.7.9-.3,1.8-.4,2.7-.1,1.3.4,1.8,1.5,1,2.6s-2.4,2.4-4.7,1.8l2.6-1.6-.4-1.1h0ZM49.6,115h-7.7c0-.1,0-.2,0-.3,0-.1,0-.3.2-.5v-.2h0c0-.1,0-.2,0-.3,0-.1,0-.2.2-.4,0,0,0-.1,0-.2,0,0,0-.1,0-.2h0q0-.1,0-.2s0-.1.2-.2h0c0-.1.2-.2.3-.3h0c.2-.2.3-.4.5-.5,0,0,0,0,.2-.1s0,0,0,0h2.1c0,0,.2,0,.3.2h0s0,0,.2.1h0s0,0,.2.1c0,0,0,0,.2.1,0,0,0,0,.2.1,0,0,0,.1.2.2,0,0,0,.1.2.2h0q0,.1,0,.2h0c0,.1,0,.2,0,.3,0,0,0,.2.2.3,0,0,0,.2,0,.2h0c0,.2,0,.4.2.5h0v.2h0v.3h0v.3h.9ZM70.9,132.8c-5,.2-9.6-.8-13.9-2.8h0c-1.2-.6-2.3-1.2-3.4-1.9h0c-2-1.4-3.4-2.9-3.5-3,.3.1.6.3.9.4,5.2,2.6,10.7,4.2,16.5,4.7,1.4.1,2.8.1,4.1-.1h.9l.4,2.8c-.7.2-1.4.2-2,.2v-.3ZM71.8,72.1s-.2,0-.3,0h0c-6.4,3.1-13.8,10.1-14.3,10.5,1.4-1.7,2.8-3.5,4.2-5.3,0,0-4.5-.2-11,2.9,0,0-.3,0-.4.2h0s-.2,0-.3,0c0,0-.3.2-.5.2s-.3.2-.5.2-.3,0-.4.2c-.2,0-.3.2-.5.3h0s-.2,0-.2,0c-.6.3-1.1.7-1.7,1.1h0c-5,3.5-8.1,7.5-8.5,8.1h0c0-.3.2-.5.3-.8h0c1.1-2.7,3.9-9.5,3.3-11.2h0s.2,0,.4-.2h0s.2,0,.3-.2h0c0,0,.2,0,.3-.2.3-.2.6-.3,1-.5,0,0,.3,0,.4-.2,0,0,.2,0,.2,0,0,0,.2,0,.3,0,.2,0,.3,0,.5-.2,0,0,.2,0,.3,0,0,0,.2,0,.3,0,.2,0,.4-.2.6-.2,0,0,.2,0,.3,0,0,0,.2,0,.4,0,0,0,.2,0,.4,0,0,0,.2,0,.4,0,.2,0,.4,0,.6-.2,0,0,.3,0,.4,0h.2c.2,0,.5,0,.8-.2.2,0,.3,0,.5,0h.4c.2,0,.4,0,.6,0,.3,0,.6,0,.9-.2h5.9c1.5,0,3,.2,4.5.6.2,0,.3-.2.5-.4,2.5-2.4,5.4-4.4,8.6-5.7.5-.2,1-.3,1.4-.5.7-.3,1.3,0,1.9.4,1.4,1.1,2.4,2.5,3.2,4.1,1.3,2.6,1.9,5.4,2.2,8.3.3,2.7.3,5.4,0,8.1v.5c-.3-4.1-1.6-8-2.5-10.3v-.2c0,0,0-.2,0-.3,0-.2-.2-.5-.3-.7v-.4h0v-.3h0c-.5-1.3-1.2-2.3-1.8-3.4-.3-.5-.7-1-1.2-1.4-.8-.8-1.2-1.1-1.7-.9l-.2-.8ZM91.5,134.8h0c.3,2.7.9,5.4,1.7,8,.5,2.1,1,3.5,1,3.6-3.9-6.8-5-17.5-5.1-18.8h0v-3.6c0-3.9.6-7.8,1.9-11.5.2-.5.4-1,.6-1.6,0-.2.2-.5.3-.7h0c0-.2.2-.4.3-.6h0s0-.2.1-.3h0c0-.1.1-.2.2-.4,0,0,0-.1.1-.2,0-.1.1-.3.2-.4h0s0-.2.1-.3c.1-.2.2-.4.3-.6.1-.2.3-.4.4-.7.1-.2.2-.3.3-.5s.2-.3.3-.5h0c.1-.2.2-.3.4-.5.1-.2.3-.3.4-.5h0c.3-.4.6-.7,1-1.1l.3-.3.4-.4.4-.4.3-.3c.1-.1.3-.2.4-.3-.3.1-.5.2-.8.3s-.6.3-.9.4c0,0-.2,0-.3.1-.3.1-.5.3-.8.5,0,0-.1,0-.2.1h0c-.1,0-.2.1-.3.2h0c-.1.1-.3.2-.4.3-.1,0-.2.2-.3.3h0s-.2.1-.3.2l-.2.2-.3.3-.3.3h-.1c0,.1-.1.3-.2.4,0,0,0,.1-.1.2l-.2.2-.2.2h0c0,.1-.1.2-.2.3-.1.2-.2.3-.3.5s-.2.3-.3.5c-2.1,3.5-3.4,7.4-4.2,11.3-.8,3.5-1.1,7-1.2,10.6h0c0,1.3,0,2.7,0,4v.7c.2,2.6.6,5.2,1.3,7.7h0c.3,1.2.5,1.9.5,2-2.1-4-3.1-10.1-3.3-11.6h0v-.3c-.3-3-.4-6-.2-9,.2-2.4.5-4.7,1-7,.9-4.1,2.7-8.1,5-11.6l.4-.6,1.5-2.3c-.2.2-.4.3-.6.5-.1.1-.2.2-.4.3-.2.2-.4.3-.6.5-.1.1-.3.2-.4.4-.2.1-.3.3-.5.4-3.9,3.8-6.4,8.4-7.9,13.7-1.6,6.1-2,12-1,17.8h0c0,.6.2,1.3.4,1.9h0c.6,2.7,1.4,5.2,2.5,7.8h0c.4,1.2.8,2,.8,2.1-3-3.3-4.7-10.5-5.1-12.3h0c-1.4-7.4-1-14.6,1.4-21.8.8-2.3,1.7-4.6,3.1-6.6.9-1.2,1.9-2.3,2.8-3.4,0-.2.3-.3.4-.6-.3.2-.6.4-.9.6-3.1,2.2-5.2,5.1-6.8,8.5-1.8,3.9-2.7,8-2.9,12.2-.2,3.1,0,6.2.4,9.2.5,5.4,4.1,14,4.2,14.2-3.4-3.5-5.4-9.3-5.8-10.8h0v-.2h0c-.6-2.2-.9-4.4-1.1-6.7-.5-7.3,1.2-14.2,5-20.4,2.1-3.5,4.9-6.3,8.3-8.6,1.3-.8,2.7-1.2,4.2-1.2h13.1c.2,0,.4,0,.5.1h.6c.2,0,.4.1.5.2.1,0,.3,0,.4.1.1,0,.3.1.4.2.2,0,.3.1.5.2,0,0,.2,0,.3.1.1,0,.2.1.4.2h0s.1,0,.2.1h0c.1,0,.3.2.4.2.2,0,.3.2.5.3,0,0,.2.1.2.2,0,0,.2.1.3.2.4.2.7.5,1.1.8l.2.2c.1,0,.2.2.3.3.2.1.3.3.5.4,0,0,0,.1-.1.2-.4-.2-.8-.5-1.2-.7s-.7-.4-1.1-.5c-.2,0-.3-.1-.5-.2-.2,0-.3-.1-.5-.2h-3.9c-.1,0-.3,0-.4.1-.1,0-.3,0-.4.1h-.3c-.1,0-.2,0-.3.1-.1,0-.3.1-.4.2h-.2c-.2,0-.3.2-.5.3-1.6.9-2.9,2.1-4.1,3.6-1.8,2.3-3,4.8-3.9,7.5-1.5,4.3-2.1,8.7-2.2,13.2-.2,2.3,0,4.9.4,7.5l-.8,1ZM113.3,138c-.5,1.3-1.1,2.5-1.8,3.6-.1.2-.3.4-.4.6s-.3.4-.4.5c-.2.3-.5.6-.8.8-.2.2-.4.4-.7.6-.2.2-.5.4-.7.6-1.7,1.2-3.6,1.2-5.4,0-.1,0-.2-.2-.3-.3-.8-.6-1.3-1.4-1.8-2.2,0-.1-.2-.3-.2-.4-.1-.3-.3-.5-.4-.8h0c-.1-.2-.2-.4-.3-.6,0-.2-.2-.4-.3-.6-.6-1.6-1-3.2-1.3-4.8,0-.5-.1-1-.2-1.5-.4-3.9-.4-7.8.3-11.7.4-2.3,1.1-4.6,2.1-6.9.6-1.5,1.4-3,2.5-4.2.2-.3.5-.6.8-.8.5-.5,1-.9,1.5-1.2.1,0,.3-.2.4-.2s.3-.1.4-.2c.1,0,.3-.1.4-.1h.4q0,0,0,0h1.4c.2,0,.4,0,.6.2h.2s.2,0,.3.1c.2,0,.3.2.5.3,0,0,.1,0,.2.1.1,0,.3.2.4.3.1,0,.2.2.3.3l.3.3c.6.7,1.1,1.4,1.5,2.2,1,1.8,1.6,3.8,2,5.8,1.3,7,.7,13.9-1.8,20.5l.3-.3ZM115.7,85.1v.2h0v.3s0,.2-.1.3c0,.2-.2.3-.3.4,0,0,0,.1-.1.1h-.1c0,.2-.2.3-.3.4h-.1s-.1,0-.2.1h-1.9c-1.2,0-2.2-.4-3.2-1.3h1.1c1.4-.4,1.7-1.5.6-2.5,0,0-.1,0-.2-.2h-.2c0,0-.1,0-.2-.2-.1,0-.2,0-.3-.2-2.7-1.5-5.6-2.2-8.7-2.1h-.7c0,0,0,.3-.1.4,0,0,0,.3-.1.4,0,.2-.1.4-.2.6,0,0,0,.2-.1.3,0,0,0,.2-.1.3h0v.2h0c0,0-.1.3-.2.4,0,0-.1.2-.2.2h0q0,0-.1.2h-.1c0,0-.2.2-.2.3,0,0-.1,0-.2.2h-.3q0,0-.1,0s-.2,0-.2,0,0,0,0,0h-.5c-.1,0-.2,0-.3,0-.1,0-.2,0-.4,0-2.4.7-4.6.2-6.8-1.2.5-.2.8-.3,1-.4.8-.3,1.6-.7,2.3-1.1h.1c0,0,0-.2.1-.3h0v-.4c-.1-.5-.6-.6-1-.7-1.7-.4-3.4,0-5,.3-.2,0-.4,0-.5,0-.2,0-.4,0-.5,0h-1c-.2,0-.4.2-.7.3,0,0-.2,0-.3,0-.5.3-1.1.6-1.6,1-.4-1.8-.6-3.4-.8-5.2.4-.2.7-.3,1-.4,2.9-1,5.8-1.5,8.9-1.7,7-.3,13.6,1.1,19.9,4,.5.2,1,.5,1.5.8.1,0,.3.2.4.2s.3.2.4.2h0c.1,0,.2,0,.3.2.6.4,1.3.8,1.9,1.3,1.8,1.2,3.6,2.4,5.4,3.6.9.6,1.8,1.2,2.7,1.8.2.1.4.3.6.4.4.2.7.4,1.1.6.2.1.3.2.5.3s.4.2.6.3c.2.1.4.2.6.3.2.1.4.2.6.3.4.2.7.4,1.1.5.1,0,.2,0,.3.1h.2c.2.1.5.2.8.3h0c.1,0,.2,0,.3.1.2,0,.5.2.7.3.2,0,.5.2.7.3,1.5.6,3.1,1,4.7,1.2h1.1c.6,0,1.3-.2,2.1-.5h.2c.1,0,.2-.1.4-.2h0s.1,0,.2-.1c.1,0,.2-.2.3-.2h0c0,.1,0,.2-.2.4h0v.2h0s0,.1-.2.2l-.2.2c-.1.1-.3.2-.4.3-.1,0-.2.1-.3.2-.2,0-.4.2-.6.3h-4.7c-.3,0-.6-.1-1-.2h-.3c-.2,0-.5-.1-.7-.2s-.5-.1-.7-.2c-.3,0-.5-.2-.8-.2s-.4-.1-.5-.2h-.1c-.1,0-.2,0-.3-.1h0c-.1,0-.2,0-.4-.1-.2,0-.3-.1-.5-.2-.2,0-.5-.2-.7-.3-.3-.1-.5-.2-.8-.3-4-1.6-7.8-3.7-11.3-6.2,0,0-.2,0-.3-.2h-.2s-.2,0-.2,0h-.2l-.9.9ZM143.3,122.3v.2h0v.4c-.3,1.5-.7,3-1.3,4.5-.4,1.2-1.1,2.3-1.8,3.3-.2.4-.5.7-.8,1s-.5.4-.7.6-.2.1-.3.2c-.3.2-.6.4-.8.5-.3.1-.5.2-.8.2h-.2c-.5,0-1,0-1.5-.3-.1,0-.3-.1-.4-.2-.2-.1-.4-.3-.6-.5h-.1q0-.1-.1-.2c-.6-.6-1.1-1.3-1.5-2-.3-.5-.5-1-.7-1.5-.7-1.7-1.1-3.6-1.3-5.4-.2-1.3-.2-2.7-.3-3.4,0-1.5.1-3,.3-4.4,0-.5.1-1,.2-1.5h0c.2-1.3.5-2.5.9-3.8,0-.2.1-.5.2-.7.2-.5.3-.9.5-1.3.5-1.3,1.2-2.5,2.1-3.5l.2-.2h0l.2-.2c.3-.3.6-.5.9-.7.1,0,.2-.2.4-.2.2-.1.5-.2.7-.3.5-.1.9-.2,1.4,0,.2,0,.4,0,.5.1.2,0,.4.1.5.2,0,0,.2.1.3.2.3.2.5.4.8.6.3.3.5.6.8.9,1.2,1.7,1.9,3.6,2.3,5.6.3,1.6.6,3.2.7,4.8.1,2.3,0,4.6-.4,6.9h-.3Z"/>
  <path class="cls-2" d="M52.9,32.7c-2.8,1.6-5.6,3.2-8.6,5l49.2-3.1-40.6-1.9ZM103.3,27.5l-27-2.3,20.9-1.2c-4-2.3-8-4.6-11.8-6.8-.5-.3-1.1-.6-1.5-.7-.4,0-.8-.2-1.2-.2-.8,0-1.7.3-2.7.8-3.9,2.2-8.6,4.8-13.1,7.4-2.3,1.3-4.7,2.7-7.1,4.1l43.9-.9c-.1,0-.3-.2-.4-.2ZM118.9,36.5l-12,2,16.1.3c-1.3-.8-2.7-1.5-4-2.3h-.1ZM49.5,114.8h0v-.2h0v-.3h0c0-.2,0-.3-.2-.4h0c0-.1,0-.3,0-.3,0,0,0-.2-.2-.3,0,0,0-.1,0-.2h0c0-.1,0-.2,0-.2h0c0-.1,0-.2-.2-.3,0,0,0-.1-.2-.2,0,0,0,0-.2-.1,0,0,0,0-.2-.1,0,0,0,0-.2-.1h0s0,0-.2-.1h0c0,0-.2-.1-.3-.2h-2.2s0,0-.2.1c-.2.1-.4.2-.5.4h0c0,.2,0,.1,0,.2s0,.1-.2.2h0s0,.1-.2.2h0c0,.2,0,.1,0,.2,0,0,0,.1,0,.2,0,0,0,.1,0,.2,0,.1,0,.2-.2.4,0,.1,0,.2,0,.3h0v.2c0,.2,0,.3-.2.5,0,.1,0,.2,0,.3h7.7v-.3h-.9ZM45.7,83.1c.6-.4,1.1-.7,1.7-1.1h.2c0,0,0,0,0,0h0c.2,0,.3-.2.5-.3h0c-.9.5-1.8,1.1-2.7,1.7l.2-.2ZM40.4,113.9h0,0ZM27.8,96.5v2-2ZM27.7,99.4h0v-.4.4ZM27.2,96.2v1.4-1.4ZM27.1,99.5h0v-.2.2ZM27,93.2v.3-.3ZM27,93.1h0v.5-.5h0c0,.1,0,0,0,0ZM150.5,58.2c-.2-2.4-1.3-4.2-3.5-5.4-4.9-2.9-10.1-5.8-15.5-9l-78.8,4.1,34.2-4.8-45-4.1c-7.2,4.2-15.1,8.7-23.8,13.8-.4.2-.9.5-1.2.8-1.7,1.4-2.4,3.1-2.4,5.5v56.3h6.6c-1.3-1-2.2-2.7-2.1-4.3,0-.2-.2-.3-.3-.5,0-.1-.2-.3-.3-.4-1.3-2.1-1.2-4.6.4-6.5.6-.8,1.4-1.4,2.2-1.7v-.3l-3.6-.6,3.7-.5c0-.6.5-1.2,1.3-1.9h0l.6-1.6h.6c0,.1-.4-4.6-.4-4.6v-.4c.2-.5.4-1,.6-1.5,0-.2,0-.4.2-.5l.3-.9-8.6-.7,9.6-1.4c0-.3.3-.5.4-.7-.9-3.2-1.1-6-.6-8.6,0-.4.2-.7.2-1s0-.5.2-.8l-8.6-1.2,8.8-.3v-.4l-.2-1.2.9-.8c.6-.5,1.4-.7,2.5-.7s3,.3,5,1l.6-.2c1-.4,1.9-.6,2.9-.6s2.5.4,3.4.7c1,.3,1.9.8,2.8,1.5l1.9-3.4,5.1-2.3,2.1,1.9c.6-1.2,1.4-2.4,2.1-3.5l-36.2-3,40.6-2.5c2.4-2.5,5.1-4.7,8-6.6l-39.2-1.4,47.5-2.6c4.3-1.5,8.9-2.3,13.7-2.3s5.3.3,7.8.7h0c1.1,0,37.7,3.3,37.5,3.5-.1,0-14,1-24.2,1.6,3.8,2.3,7.2,5.1,10.1,8.4l29.7,2.2-26.3,2.3c1.3,2,2.4,4,3.3,6.2l22.1,1.8-20.7,1.9c.4,1.2.7,2.5,1,3.8l18.8.7-14.5,2.4,1.5.9.4,2.1.5-.4,4.7,1.8v.9h.8c.6,0,1.1.1,1.6.4,1.4.7,2.2,2.2,1.9,3.8v.2c0,.4,0,.8-.3,1.3-.6,1.7-1.4,3.1-2.6,4.2,1.7,1.7,2.9,3.8,3.8,6.7.9,2.8,1.5,5.9,1.6,9.2v1h2.7v-52.8h0v-4.7ZM123.8,111.8h0ZM141.2,92.2c-.1,0-.2.1-.4.2.2,0,.3-.1.5-.2h-.1ZM137.6,93.1h-.2.3c.1,0,0,0,0,0h-.2,0ZM137,93.1h.1-.1ZM135.8,93.9h.8-.8ZM134,93.6c.3,0,.7.1,1,.2-.3,0-.6-.1-1-.2ZM137.8,102.8h-1.4c.5-.1.9-.2,1.4,0,.2,0,.4,0,.5.1-.2,0-.4-.1-.5-.1Z"/>
  <path class="cls-2" d="M160.2,94.1v-37.4c0-.9-.1-1.9-.3-2.8-1-4.2-3.6-7.3-7.3-9.4-6.9-4-13.8-8-20.8-12-10.8-6.2-21.6-12.5-32.3-18.7-3.6-2.1-7.3-4.2-10.9-6.2-.5-.3-1.1-.5-1.7-.7-3.2-1-6.3-.8-9.3.5-1.9.8-3.8,1.8-5.7,2.9-19.1,11-38.2,22-57.3,33-1.5.9-3,1.7-4.3,2.7-3.5,2.7-5.4,6.3-5.4,10.8v74.4c0,.9,0,1.8.3,2.7,1,4.2,3.5,7.3,7.2,9.4,5.1,3,10.2,5.9,15.3,8.9,15.4,8.9,30.9,17.9,46.3,26.8,1.3.8,2.7,1.4,4.1,1.9,3.6,1.2,7.1,1.2,10.6-.7,1.9-1,3.8-2,5.7-3.1,18.9-10.9,37.7-21.8,56.6-32.7,1.3-.7,2.6-1.5,3.7-2.4,3.5-2.7,5.5-6.3,5.5-10.7v-37.4.2ZM155,129.4c0,4.4-1.9,7.8-5.7,10-18.1,10.4-36.2,20.8-54.3,31.1-2.4,1.4-4.9,2.7-7.3,4.2-3.5,2.2-6.9,2-10.4,0-12.2-7-24.3-14-36.5-21-8.3-4.8-16.6-9.6-24.9-14.4-3.9-2.3-5.8-5.6-5.8-10.2V58.9c0-3.6,1.3-6.6,4-8.9.6-.5,1.2-.9,1.9-1.3,6.1-3.5,12.2-7,18.3-10.6,10.2-5.9,20.4-11.7,30.6-17.6,4.4-2.5,8.8-5,13.2-7.4,2.4-1.3,4.9-1.9,7.5-1,.8.3,1.6.7,2.3,1.1,6.2,3.6,12.4,7.1,18.6,10.7h0c4.1,2.4,8.3,4.8,12.4,7.2,10.2,5.9,20.4,11.8,30.6,17.7,3.4,2,5.3,5,5.7,8.9.1,1.5,0,3,0,4.5v67.1h-.2Z"/>
  <path class="cls-3" d="M143.7,115.3c0-1.6-.3-3.2-.7-4.8-.4-2-1.1-3.9-2.3-5.6-.3-.4-.5-.7-.8-.9-.2-.2-.5-.5-.8-.6,0,0-.2-.1-.3-.2-.2,0-.4-.2-.5-.2s-.4-.1-.5-.1h-1.4c-.2,0-.5.2-.7.3-.1,0-.2.1-.4.2-.3.2-.6.4-.9.7l-.2.2h0l-.2.2c-.9,1-1.6,2.2-2.1,3.5-.2.4-.4.9-.5,1.3,0,.2-.2.5-.2.7-.4,1.2-.7,2.5-.9,3.8h0c0,.5-.1,1-.2,1.5-.2,1.4-.2,2.9-.3,4.4,0,.7.1,2.1.3,3.4.2,1.9.6,3.7,1.3,5.4.2.5.5,1,.7,1.5.4.7.9,1.4,1.5,2h.1q0,.1.1.2c.2.2.4.3.6.5.1,0,.3.2.4.2.5.2,1,.3,1.5.3h.2c.3,0,.5-.1.8-.2.3-.1.6-.3.8-.5,0,0,.2-.1.3-.2.2-.2.5-.4.7-.6.3-.3.6-.6.8-1,.7-1.1,1.3-2.2,1.8-3.3.6-1.5,1-3,1.3-4.5v-.7c.4-2.3.5-4.6.4-6.9h.3ZM141.6,121.3c-.2,1.5-.5,3-1.1,4.3-.4,1-1,1.9-1.7,2.7-1.2,1.3-3.1,1.3-4.3,0-1.1-1.2-1.7-2.8-2-4.4-.6-2.9-.7-5.8-.2-8.6.2-1.2.5-2.4.9-3.5s.9-2.1,1.7-2.9c1.5-1.6,3.3-1.5,4.7.2,1.1,1.4,1.6,3,1.9,4.7,0,.2,0,.4.1.6,0,.3,0,.6.1.9.2,2,.2,4,0,6h0Z"/>
  <path class="cls-3" d="M139.6,122.1c-.3.7-.8,1.5-1.8,1.4-1,0-1.4-.8-1.7-1.6s-.2-.8-.3-1.2c-.3-1.4-.3-2.9.1-4.4.1-.4.2-.7.4-1h0c.4-.7.9-1.4,1.8-1.4s1.3.7,1.6,1.4v.2c.8,2.2.7,4.4-.2,6.6h0Z"/>
  <path class="cls-1" d="M138.9,114.8v-.2c-.3-.7-.7-1.4-1.6-1.4s-1.4.7-1.8,1.4h0c-.2.3-.3.7-.4,1-.4,1.4-.4,2.9-.1,4.4,0,.4.2.8.3,1.2.2.8.7,1.5,1.7,1.6,1,0,1.5-.7,1.8-1.4,1-2.2,1.1-4.4.2-6.6h0Z"/>
  <path class="cls-3" d="M109.7,131.9c-.4,1-1,1.9-2.4,1.9s-1.9-1-2.2-2.1-.3-1-.4-1.6c-.4-1.9-.4-3.9.2-5.7.1-.5.3-.9.5-1.4h0c.5-1,1.1-1.9,2.4-1.8,1.2,0,1.7.9,2.1,1.8v.2c1.1,2.9,1,5.8-.3,8.7h0Z"/>
  <path class="cls-1" d="M108.7,122.4v-.2c-.4-1-1-1.8-2.1-1.8s-1.9.9-2.4,1.8h0c-.2.4-.4.9-.5,1.4-.6,1.9-.6,3.8-.2,5.7.1.5.2,1.1.4,1.6.3,1,.9,2,2.2,2.1,1.3,0,1.9-.9,2.4-1.9,1.3-2.8,1.4-5.7.3-8.7h0Z"/>
  <path class="cls-3" d="M115.1,117.5c-.4-2-1-4-2-5.8-.4-.8-.9-1.5-1.5-2.2l-.3-.3-.3-.3c-.1-.1-.3-.2-.4-.3,0,0-.1,0-.2-.1-.2-.1-.3-.2-.5-.3,0,0-.2,0-.3-.1h-.2c-.2,0-.4-.1-.6-.2h-1.8c-.1,0-.3,0-.4.1-.1,0-.3.1-.4.2-.1,0-.3.2-.4.2-.5.4-1,.8-1.5,1.2-.3.3-.5.6-.8.8-1.1,1.2-1.9,2.7-2.5,4.2-1,2.2-1.6,4.5-2.1,6.9-.7,3.9-.8,7.8-.3,11.7,0,.5.1,1,.2,1.5.2,1.7.6,3.3,1.3,4.8,0,.2.2.4.3.6,0,.2.2.4.3.6h0c.1.3.3.5.4.8,0,.1.2.3.2.4.5.8,1.1,1.6,1.8,2.2.1,0,.2.2.3.3,1.7,1.2,3.6,1.3,5.4,0,.2-.2.5-.4.7-.6.2-.2.5-.4.7-.6l.8-.8c.1-.2.3-.4.4-.5.1-.2.3-.4.4-.6.8-1.1,1.4-2.4,1.8-3.6,2.5-6.7,3.1-13.5,1.8-20.5l-.3.3ZM113.7,125.4c0,3-.5,5.9-1.6,8.7-.6,1.5-1.4,2.9-2.5,4.1-2.5,2.5-5.3,2.2-7.2-.8-1-1.5-1.5-3.2-1.7-4.9-.6-4.2-.3-8.3,1.2-12.3.5-1.4,1.1-2.7,2.1-3.8.6-.6,1.2-1.3,1.9-1.7,1.4-.9,3.2-.8,4.5.2.9.7,1.5,1.6,2,2.7,1,2.2,1.4,4.6,1.4,7v.7h0Z"/>
  <path class="cls-3" d="M82.9,78.9c2.9-1,5.8-1.5,8.9-1.7,7-.3,13.6,1.1,19.9,4,.5.2,1,.5,1.5.8.1,0,.3.2.4.2s.3.2.4.2h0c.1,0,.2,0,.3.2.6.4,1.3.8,1.9,1.3,1.8,1.2,3.6,2.4,5.4,3.6.9.6,1.8,1.2,2.7,1.8.2.1.4.3.6.4.4.2.7.4,1.1.6.2.1.3.2.5.3s.4.2.6.3c.2.1.4.2.6.3.2.1.4.2.6.3.4.2.7.4,1.1.5,0,0,.2,0,.3.1.2,0,.3.1.5.2.1,0,.2,0,.4.1h0c.1,0,.2,0,.3.1h.1c.2,0,.4.1.5.2.3,0,.5.2.8.2s.5.1.7.2.5.1.7.2h.3c.3,0,.7.1,1,.2h4.7c.2,0,.4-.2.6-.3.1,0,.2-.1.3-.2.2-.1.3-.2.4-.3l.2-.2.2-.2h0c.1-.2.2-.4.2-.5h0s-.2.2-.3.2c0,0-.1,0-.2.1h0c-.1,0-.2.1-.4.2h-.2c-.7.3-1.5.4-2.1.5h-1.1c-1.6-.1-3.2-.6-4.7-1.2-.2,0-.5-.2-.7-.3-.2,0-.5-.2-.7-.3-.1,0-.2,0-.3-.1h0c-.3-.1-.5-.2-.8-.3h-.2s-.2,0-.3-.1c-.4-.2-.7-.4-1.1-.5-.2,0-.4-.2-.6-.3-.2-.1-.4-.2-.6-.3-.2-.1-.4-.2-.6-.3-.2,0-.3-.2-.5-.3-.4-.2-.7-.4-1.1-.6-.2-.1-.4-.3-.6-.4-.9-.6-1.8-1.2-2.7-1.8-1.8-1.2-3.6-2.4-5.4-3.6-.6-.4-1.3-.8-1.9-1.3-.1,0-.2,0-.3-.2h0c-.1,0-.3-.2-.4-.2s-.3-.2-.4-.2c-.5-.3-1-.5-1.5-.8-6.3-2.9-12.9-4.3-19.9-4-3,0-6,.6-8.9,1.7-.3,0-.7.3-1,.4,0,.5,0,1,.2,1.5.3,0,.6-.2.9-.3h-.3Z"/>
</svg>